G04 Layer_Color=65535*
%FSLAX25Y25*%
%MOIN*%
G70*
G01*
G75*
%ADD35C,0.01000*%
%ADD55C,0.01575*%
%ADD56C,0.00394*%
%ADD57C,0.00787*%
%ADD58C,0.00984*%
%ADD59C,0.02362*%
%ADD60C,0.00800*%
%ADD61C,0.00500*%
%ADD62C,0.00300*%
%ADD63C,0.00400*%
%ADD64C,0.00700*%
%ADD65R,0.01181X0.06299*%
%ADD66R,0.06299X0.01181*%
D35*
X-136232Y26575D02*
G03*
X-136232Y26575I-500J0D01*
G01*
X-50169Y9555D02*
Y17445D01*
X-70146Y9555D02*
Y17445D01*
X-57795Y9555D02*
X-50169D01*
X-70146D02*
X-62520D01*
X-70146Y17445D02*
X-62520D01*
X-57795D02*
X-50169D01*
X-48453Y11138D02*
Y15862D01*
X-50169Y17445D02*
X-48453Y15862D01*
X-50169Y9555D02*
X-48453Y11138D01*
X141118Y-81671D02*
X143677Y-79848D01*
X153126D02*
X155685Y-81671D01*
Y-113223D02*
Y-102959D01*
X141118Y-113223D02*
Y-102959D01*
Y-113223D02*
X155685D01*
X141118Y-81671D02*
X155685D01*
Y-91935D02*
Y-81671D01*
X141118Y-91935D02*
Y-81671D01*
X143677Y-79848D02*
X153126D01*
X70653Y103784D02*
X78543D01*
X70653Y83807D02*
X78543D01*
Y96157D02*
Y103784D01*
Y83807D02*
Y91433D01*
X70653Y83807D02*
Y91433D01*
Y96157D02*
Y103784D01*
X72236Y105500D02*
X76961D01*
X70653Y103784D02*
X72236Y105500D01*
X76961D02*
X78543Y103784D01*
X108967Y-18846D02*
Y-10957D01*
X128943Y-18846D02*
Y-10957D01*
X108967D02*
X116593D01*
X121317D02*
X128943D01*
X121317Y-18846D02*
X128943D01*
X108967D02*
X116593D01*
X107250Y-17264D02*
Y-12539D01*
Y-17264D02*
X108967Y-18846D01*
X107250Y-12539D02*
X108967Y-10957D01*
X-79847Y-18466D02*
X-71957D01*
X-79847Y-38443D02*
X-71957D01*
Y-26092D02*
Y-18466D01*
Y-38443D02*
Y-30817D01*
X-79847Y-38443D02*
Y-30817D01*
Y-26092D02*
Y-18466D01*
X-78264Y-16750D02*
X-73539D01*
X-79847Y-18466D02*
X-78264Y-16750D01*
X-73539D02*
X-71957Y-18466D01*
X-38945Y-36646D02*
X-31055D01*
X-38945Y-16669D02*
X-31055D01*
X-38945Y-36646D02*
Y-29020D01*
Y-24295D02*
Y-16669D01*
X-31055Y-24295D02*
Y-16669D01*
Y-36646D02*
Y-29020D01*
X-37362Y-38362D02*
X-32638D01*
X-31055Y-36646D01*
X-38945D02*
X-37362Y-38362D01*
X12118Y-81171D02*
X14677Y-79348D01*
X24126D02*
X26685Y-81171D01*
Y-112723D02*
Y-102459D01*
X12118Y-112723D02*
Y-102459D01*
Y-112723D02*
X26685D01*
X12118Y-81171D02*
X26685D01*
Y-91435D02*
Y-81171D01*
X12118Y-91435D02*
Y-81171D01*
X14677Y-79348D02*
X24126D01*
X129034Y21707D02*
Y29596D01*
X109057Y21707D02*
Y29596D01*
X121407Y21707D02*
X129034D01*
X109057D02*
X116683D01*
X109057Y29596D02*
X116683D01*
X121407D02*
X129034D01*
X130750Y23289D02*
Y28014D01*
X129034Y29596D02*
X130750Y28014D01*
X129034Y21707D02*
X130750Y23289D01*
X108000Y20250D02*
Y35500D01*
X-142500Y109500D02*
Y115498D01*
X-140501Y113499D01*
X-138501Y115498D01*
Y109500D01*
X-133503Y115498D02*
X-135502D01*
X-136502Y114498D01*
Y110500D01*
X-135502Y109500D01*
X-133503D01*
X-132503Y110500D01*
Y114498D01*
X-133503Y115498D01*
X-130504D02*
X-126505D01*
X-128505D01*
Y109500D01*
X-121507Y115498D02*
X-123506D01*
X-124506Y114498D01*
Y110500D01*
X-123506Y109500D01*
X-121507D01*
X-120507Y110500D01*
Y114498D01*
X-121507Y115498D01*
X-118508Y109500D02*
Y115498D01*
X-115509D01*
X-114509Y114498D01*
Y112499D01*
X-115509Y111499D01*
X-118508D01*
X-116508D02*
X-114509Y109500D01*
X-112510Y108500D02*
X-108511D01*
X-102513Y114498D02*
X-103513Y115498D01*
X-105512D01*
X-106512Y114498D01*
Y110500D01*
X-105512Y109500D01*
X-103513D01*
X-102513Y110500D01*
X-97514Y115498D02*
X-99514D01*
X-100514Y114498D01*
Y110500D01*
X-99514Y109500D01*
X-97514D01*
X-96515Y110500D01*
Y114498D01*
X-97514Y115498D01*
X-94516Y109500D02*
Y115498D01*
X-90517Y109500D01*
Y115498D01*
X-88517D02*
X-84519D01*
X-86518D01*
Y109500D01*
X-82519D02*
Y115498D01*
X-79520D01*
X-78521Y114498D01*
Y112499D01*
X-79520Y111499D01*
X-82519D01*
X-80520D02*
X-78521Y109500D01*
X-73522Y115498D02*
X-75522D01*
X-76521Y114498D01*
Y110500D01*
X-75522Y109500D01*
X-73522D01*
X-72523Y110500D01*
Y114498D01*
X-73522Y115498D01*
X-70523D02*
Y109500D01*
X-66525D01*
X-64525Y108500D02*
X-60527D01*
X-58527Y115498D02*
Y109500D01*
X-55528D01*
X-54528Y110500D01*
Y111499D01*
X-55528Y112499D01*
X-58527D01*
X-55528D01*
X-54528Y113499D01*
Y114498D01*
X-55528Y115498D01*
X-58527D01*
X-49530D02*
X-51529D01*
X-52529Y114498D01*
Y110500D01*
X-51529Y109500D01*
X-49530D01*
X-48530Y110500D01*
Y114498D01*
X-49530Y115498D01*
X-46531Y109500D02*
Y113499D01*
X-44532Y115498D01*
X-42532Y113499D01*
Y109500D01*
Y112499D01*
X-46531D01*
X-40533Y109500D02*
Y115498D01*
X-37534D01*
X-36534Y114498D01*
Y112499D01*
X-37534Y111499D01*
X-40533D01*
X-38534D02*
X-36534Y109500D01*
X-34535Y115498D02*
Y109500D01*
X-31536D01*
X-30536Y110500D01*
Y114498D01*
X-31536Y115498D01*
X-34535D01*
X-28537Y108500D02*
X-24538D01*
X-22539Y115498D02*
Y111499D01*
X-20539Y109500D01*
X-18540Y111499D01*
Y115498D01*
X-12542D02*
X-16541D01*
Y109500D01*
X-12542D01*
X-16541Y112499D02*
X-14541D01*
X-10543Y109500D02*
Y115498D01*
X-7544D01*
X-6544Y114498D01*
Y112499D01*
X-7544Y111499D01*
X-10543D01*
X-8543D02*
X-6544Y109500D01*
X-546D02*
X-4545D01*
X-546Y113499D01*
Y114498D01*
X-1546Y115498D01*
X-3545D01*
X-4545Y114498D01*
X1453Y109500D02*
Y110500D01*
X2453D01*
Y109500D01*
X1453D01*
X6452Y114498D02*
X7451Y115498D01*
X9451D01*
X10451Y114498D01*
Y110500D01*
X9451Y109500D01*
X7451D01*
X6452Y110500D01*
Y114498D01*
D55*
X115319Y74413D02*
G03*
X115319Y74413I-787J0D01*
G01*
D56*
X-131880Y28354D02*
G03*
X-130600Y28354I640J0D01*
G01*
X-86126Y-19000D02*
G03*
X-86126Y-19000I-7874J0D01*
G01*
X21209Y96500D02*
X55209D01*
X21209Y114500D02*
X55209D01*
Y96500D02*
X59709Y101000D01*
X55209Y114500D02*
X59709Y110000D01*
X16709Y101000D02*
X21209Y96500D01*
X16709Y110000D02*
X21209Y114500D01*
X59709Y101000D02*
Y110000D01*
X16709Y101000D02*
Y110000D01*
X40250Y53291D02*
Y87291D01*
X58250Y53291D02*
Y87291D01*
X40250Y53291D02*
X44750Y48791D01*
X53750D02*
X58250Y53291D01*
X40250Y87291D02*
X44750Y91791D01*
X53750D02*
X58250Y87291D01*
X44750Y48791D02*
X53750D01*
X44750Y91791D02*
X53750D01*
X106171Y-7530D02*
Y18848D01*
X118770Y-7530D02*
Y19045D01*
X106171Y-7530D02*
X118770D01*
X106368Y19045D02*
X118770D01*
X106171Y18848D02*
X106368Y19045D01*
X79347Y-61689D02*
X122850D01*
Y-112870D02*
Y-61689D01*
X79347Y-112870D02*
X122850D01*
X79347D02*
Y-61689D01*
X-68779Y-17087D02*
X-42402D01*
X-68779Y-29685D02*
X-42205D01*
X-68779D02*
Y-17087D01*
X-42205Y-29685D02*
Y-17284D01*
X-42402Y-17087D02*
X-42205Y-17284D01*
X-50153Y-61689D02*
X-6650D01*
Y-112870D02*
Y-61689D01*
X-50153Y-112870D02*
X-6650D01*
X-50153D02*
Y-61689D01*
X-138583Y28354D02*
X-131880D01*
X-130600D02*
X-123898D01*
Y-2354D02*
Y28354D01*
X-138583Y-2354D02*
X-123898D01*
X-138583D02*
Y28354D01*
X196591Y-42528D02*
Y9047D01*
X164504D02*
X196591D01*
X164701Y-42528D02*
X196591D01*
X141079Y9047D02*
X149543D01*
X141079Y-42528D02*
X149740D01*
X141079D02*
Y9047D01*
X178087Y-26976D02*
X192260D01*
X177299D02*
X178087D01*
X177299Y-37213D02*
Y-26976D01*
Y-37213D02*
X192260D01*
Y-26976D01*
Y-6504D02*
Y3732D01*
X177299Y-6504D02*
X192260D01*
X177299D02*
Y3732D01*
X178087D01*
X192260D01*
X196764Y28197D02*
Y79772D01*
X164677D02*
X196764D01*
X164874Y28197D02*
X196764D01*
X141252Y79772D02*
X149716D01*
X141252Y28197D02*
X149913D01*
X141252D02*
Y79772D01*
X178260Y43748D02*
X192433D01*
X177472D02*
X178260D01*
X177472Y33512D02*
Y43748D01*
Y33512D02*
X192433D01*
Y43748D01*
Y64220D02*
Y74457D01*
X177472Y64220D02*
X192433D01*
X177472D02*
Y74457D01*
X178260D01*
X192433D01*
X-130783Y-66847D02*
Y-61728D01*
X-157161D02*
X-130783D01*
Y-118028D02*
Y-88500D01*
X-166217Y-118028D02*
X-130783D01*
X-166217D02*
Y-61728D01*
X-130783Y-88500D02*
Y-82595D01*
X-166217Y-61728D02*
X-157161D01*
X-166217Y-109169D02*
X-130783D01*
X-125374Y-86870D02*
X-93878D01*
X-91319Y-117776D02*
Y-114823D01*
X-92894Y-116398D02*
X-89744D01*
X-129114D02*
X-126358D01*
X-125374Y-118169D02*
X-93878D01*
X-125374D02*
Y-47500D01*
X-122421D01*
X-93878Y-118169D02*
Y-47500D01*
X-96831D02*
X-93878D01*
X-112579D02*
X-106673D01*
X-196787Y38815D02*
X-182811D01*
Y70311D01*
X-196787D02*
X-182811D01*
X-196787Y27004D02*
X-173165D01*
X-196787D02*
Y82122D01*
X-173165D01*
Y78185D02*
Y82122D01*
Y27004D02*
Y30941D01*
X-196787Y-25685D02*
X-182811D01*
Y5811D01*
X-196787D02*
X-182811D01*
X-196787Y-37496D02*
X-173165D01*
X-196787D02*
Y17622D01*
X-173165D01*
Y13685D02*
Y17622D01*
Y-37496D02*
Y-33559D01*
X-6905Y90610D02*
Y104390D01*
X-33087D02*
X-6905D01*
X-33087Y90610D02*
Y104390D01*
Y90610D02*
X-6905D01*
X-15370Y94744D02*
Y100453D01*
X-24622D02*
X-15370D01*
X-24622Y94744D02*
Y100453D01*
Y94744D02*
X-15370D01*
X-73642Y-90173D02*
Y-87221D01*
X-71673Y-90173D02*
Y-87221D01*
X-74626Y-91158D02*
X-70492D01*
X-74626Y-95095D02*
Y-91158D01*
X-86437Y-114779D02*
X-58878D01*
X-86437D02*
Y-87221D01*
X-58878Y-114779D02*
Y-87221D01*
X-86437D02*
X-58878D01*
X-67736Y-90173D02*
Y-87221D01*
X-77579Y-90173D02*
X-67736D01*
X-77579D02*
Y-87221D01*
X-67736Y-114779D02*
Y-111827D01*
X-77579D02*
X-67736D01*
X-77579Y-114779D02*
Y-111827D01*
X-74626Y-95095D02*
X-70492D01*
Y-94110D02*
Y-92142D01*
Y-91158D01*
Y-95095D02*
Y-94110D01*
X137500Y-109000D02*
X139500D01*
X138500Y-110000D02*
Y-108000D01*
X8250Y-111250D02*
X10250D01*
X9250Y-112250D02*
Y-110250D01*
X-99568Y-13432D02*
X-98315Y-14685D01*
X-99568Y-14824D02*
X-98176Y-13432D01*
X-89963Y-24707D02*
X-88850Y-23593D01*
X-88502Y-23245D01*
X104750Y94218D02*
X106062D01*
X105406D01*
Y92250D01*
X106718Y94218D02*
X108030Y92250D01*
Y94218D02*
X106718Y92250D01*
X108686Y94218D02*
Y92250D01*
X109670D01*
X109998Y92578D01*
Y93890D01*
X109670Y94218D01*
X108686D01*
X104750Y104750D02*
Y106718D01*
X105734D01*
X106062Y106390D01*
Y105734D01*
X105734Y105406D01*
X104750D01*
X105406D02*
X106062Y104750D01*
X106718Y106718D02*
X108030Y104750D01*
Y106718D02*
X106718Y104750D01*
X108686Y106718D02*
Y104750D01*
X109670D01*
X109998Y105078D01*
Y106390D01*
X109670Y106718D01*
X108686D01*
X71812Y-34360D02*
X71484Y-34032D01*
X70828D01*
X70500Y-34360D01*
Y-34688D01*
X70828Y-35016D01*
X71484D01*
X71812Y-35344D01*
Y-35672D01*
X71484Y-36000D01*
X70828D01*
X70500Y-35672D01*
X72468Y-34032D02*
Y-36000D01*
X73452D01*
X73780Y-35672D01*
Y-34360D01*
X73452Y-34032D01*
X72468D01*
X74436Y-36000D02*
Y-34688D01*
X75092Y-34032D01*
X75748Y-34688D01*
Y-36000D01*
Y-35016D01*
X74436D01*
X61812Y-34360D02*
X61484Y-34032D01*
X60828D01*
X60500Y-34360D01*
Y-34688D01*
X60828Y-35016D01*
X61484D01*
X61812Y-35344D01*
Y-35672D01*
X61484Y-36000D01*
X60828D01*
X60500Y-35672D01*
X63780Y-34360D02*
X63452Y-34032D01*
X62796D01*
X62468Y-34360D01*
Y-35672D01*
X62796Y-36000D01*
X63452D01*
X63780Y-35672D01*
X64436Y-34032D02*
Y-36000D01*
X65748D01*
X32812Y-34032D02*
X31500D01*
Y-35016D01*
X32156Y-34688D01*
X32484D01*
X32812Y-35016D01*
Y-35672D01*
X32484Y-36000D01*
X31828D01*
X31500Y-35672D01*
X33468Y-34032D02*
Y-35344D01*
X34124Y-36000D01*
X34780Y-35344D01*
Y-34032D01*
X40500Y-34360D02*
X40828Y-34032D01*
X41484D01*
X41812Y-34360D01*
Y-34688D01*
X41484Y-35016D01*
X41156D01*
X41484D01*
X41812Y-35344D01*
Y-35672D01*
X41484Y-36000D01*
X40828D01*
X40500Y-35672D01*
X42468Y-34032D02*
Y-35344D01*
X43124Y-36000D01*
X43780Y-35344D01*
Y-34032D01*
X44436Y-34360D02*
X44764Y-34032D01*
X45420D01*
X45748Y-34360D01*
Y-34688D01*
X45420Y-35016D01*
X45092D01*
X45420D01*
X45748Y-35344D01*
Y-35672D01*
X45420Y-36000D01*
X44764D01*
X44436Y-35672D01*
X51812Y-34360D02*
X51484Y-34032D01*
X50828D01*
X50500Y-34360D01*
Y-35672D01*
X50828Y-36000D01*
X51484D01*
X51812Y-35672D01*
Y-35016D01*
X51156D01*
X52468Y-36000D02*
Y-34032D01*
X53780Y-36000D01*
Y-34032D01*
X54436D02*
Y-36000D01*
X55420D01*
X55748Y-35672D01*
Y-34360D01*
X55420Y-34032D01*
X54436D01*
X186860Y-82000D02*
X186532Y-81672D01*
Y-81016D01*
X186860Y-80688D01*
X187188D01*
X187516Y-81016D01*
Y-81344D01*
Y-81016D01*
X187844Y-80688D01*
X188172D01*
X188500Y-81016D01*
Y-81672D01*
X188172Y-82000D01*
X186532Y-80032D02*
X187844D01*
X188500Y-79376D01*
X187844Y-78720D01*
X186532D01*
X186860Y-78064D02*
X186532Y-77736D01*
Y-77080D01*
X186860Y-76752D01*
X187188D01*
X187516Y-77080D01*
Y-77408D01*
Y-77080D01*
X187844Y-76752D01*
X188172D01*
X188500Y-77080D01*
Y-77736D01*
X188172Y-78064D01*
X186532Y-71750D02*
X188500D01*
Y-70766D01*
X188172Y-70438D01*
X186860D01*
X186532Y-70766D01*
Y-71750D01*
Y-69782D02*
Y-69126D01*
Y-69454D01*
X188500D01*
Y-69782D01*
Y-69126D01*
X186532Y-67158D02*
Y-67814D01*
X186860Y-68142D01*
X188172D01*
X188500Y-67814D01*
Y-67158D01*
X188172Y-66830D01*
X186860D01*
X186532Y-67158D01*
X186860Y-60688D02*
X186532Y-61016D01*
Y-61672D01*
X186860Y-62000D01*
X188172D01*
X188500Y-61672D01*
Y-61016D01*
X188172Y-60688D01*
X186532Y-60032D02*
X188500D01*
Y-58720D01*
X186532Y-58064D02*
X188500D01*
X187844D01*
X186532Y-56752D01*
X187516Y-57736D01*
X188500Y-56752D01*
X186860Y-50438D02*
X186532Y-50766D01*
Y-51422D01*
X186860Y-51750D01*
X188172D01*
X188500Y-51422D01*
Y-50766D01*
X188172Y-50438D01*
X187516D01*
Y-51094D01*
X188500Y-49782D02*
X186532D01*
X188500Y-48470D01*
X186532D01*
Y-47814D02*
X188500D01*
Y-46830D01*
X188172Y-46502D01*
X186860D01*
X186532Y-46830D01*
Y-47814D01*
X-185860Y-75000D02*
X-185532Y-75328D01*
Y-75984D01*
X-185860Y-76312D01*
X-186188D01*
X-186516Y-75984D01*
Y-75656D01*
Y-75984D01*
X-186844Y-76312D01*
X-187172D01*
X-187500Y-75984D01*
Y-75328D01*
X-187172Y-75000D01*
X-185532Y-76968D02*
X-186844D01*
X-187500Y-77624D01*
X-186844Y-78280D01*
X-185532D01*
X-185860Y-78936D02*
X-185532Y-79264D01*
Y-79920D01*
X-185860Y-80248D01*
X-186188D01*
X-186516Y-79920D01*
Y-79592D01*
Y-79920D01*
X-186844Y-80248D01*
X-187172D01*
X-187500Y-79920D01*
Y-79264D01*
X-187172Y-78936D01*
X-185860Y-66312D02*
X-185532Y-65984D01*
Y-65328D01*
X-185860Y-65000D01*
X-187172D01*
X-187500Y-65328D01*
Y-65984D01*
X-187172Y-66312D01*
X-186516D01*
Y-65656D01*
X-187500Y-66968D02*
X-185532D01*
X-187500Y-68280D01*
X-185532D01*
Y-68936D02*
X-187500D01*
Y-69920D01*
X-187172Y-70248D01*
X-185860D01*
X-185532Y-69920D01*
Y-68936D01*
Y-55000D02*
Y-56312D01*
Y-55656D01*
X-187500D01*
X-185532Y-56968D02*
X-187500Y-58280D01*
X-185532D02*
X-187500Y-56968D01*
X-185532Y-58936D02*
X-187500D01*
Y-59920D01*
X-187172Y-60248D01*
X-185860D01*
X-185532Y-59920D01*
Y-58936D01*
X-187500Y-45000D02*
X-185532D01*
Y-45984D01*
X-185860Y-46312D01*
X-186516D01*
X-186844Y-45984D01*
Y-45000D01*
Y-45656D02*
X-187500Y-46312D01*
X-185532Y-46968D02*
X-187500Y-48280D01*
X-185532D02*
X-187500Y-46968D01*
X-185532Y-48936D02*
X-187500D01*
Y-49920D01*
X-187172Y-50248D01*
X-185860D01*
X-185532Y-49920D01*
Y-48936D01*
D57*
X96750Y29531D02*
G03*
X98325Y31106I0J1575D01*
G01*
X90175Y31106D02*
G03*
X91750Y29531I1575J0D01*
G01*
X91750Y43468D02*
G03*
X90175Y41894I0J-1575D01*
G01*
X98325Y41894D02*
G03*
X96750Y43468I-1575J0D01*
G01*
X-65469Y-1500D02*
G03*
X-63894Y-3075I1575J0D01*
G01*
X-63894Y5075D02*
G03*
X-65469Y3500I0J-1575D01*
G01*
X-51531Y3500D02*
G03*
X-53106Y5075I-1575J-0D01*
G01*
X-53106Y-3075D02*
G03*
X-51531Y-1500I0J1575D01*
G01*
X164250Y-110719D02*
G03*
X165825Y-109144I0J1575D01*
G01*
X157675Y-109144D02*
G03*
X159250Y-110719I1575J0D01*
G01*
X159250Y-96781D02*
G03*
X157675Y-98356I0J-1575D01*
G01*
X165825Y-98356D02*
G03*
X164250Y-96781I-1575J0D01*
G01*
X86500Y29531D02*
G03*
X88075Y31106I0J1575D01*
G01*
X79925Y31106D02*
G03*
X81500Y29531I1575J0D01*
G01*
X81500Y43468D02*
G03*
X79925Y41894I0J-1575D01*
G01*
X88075Y41894D02*
G03*
X86500Y43468I-1575J0D01*
G01*
X-26969Y81000D02*
G03*
X-25394Y79425I1575J0D01*
G01*
X-25394Y87575D02*
G03*
X-26969Y86000I0J-1575D01*
G01*
X-13032Y86000D02*
G03*
X-14606Y87575I-1575J-0D01*
G01*
X-14606Y79425D02*
G03*
X-13032Y81000I0J1575D01*
G01*
X30750Y67219D02*
G03*
X29175Y65644I0J-1575D01*
G01*
X37325Y65644D02*
G03*
X35750Y67219I-1575J0D01*
G01*
X35750Y53281D02*
G03*
X37325Y54856I-0J1575D01*
G01*
X29175Y54856D02*
G03*
X30750Y53281I1575J0D01*
G01*
X30750Y86219D02*
G03*
X29175Y84644I0J-1575D01*
G01*
X37325Y84644D02*
G03*
X35750Y86219I-1575J0D01*
G01*
X35750Y72281D02*
G03*
X37325Y73856I-0J1575D01*
G01*
X29175Y73856D02*
G03*
X30750Y72281I1575J0D01*
G01*
X-107973Y66500D02*
G03*
X-106398Y64925I1575J0D01*
G01*
X-106398Y73075D02*
G03*
X-107972Y71500I0J-1575D01*
G01*
X-94035Y71500D02*
G03*
X-95610Y73075I-1575J-0D01*
G01*
X-95610Y64925D02*
G03*
X-94035Y66500I0J1575D01*
G01*
X87500Y88535D02*
G03*
X89075Y90110I0J1575D01*
G01*
X80925Y90110D02*
G03*
X82500Y88535I1575J0D01*
G01*
X82500Y102472D02*
G03*
X80925Y100898I0J-1575D01*
G01*
X89075Y100898D02*
G03*
X87500Y102472I-1575J0D01*
G01*
X-106968Y30500D02*
G03*
X-105394Y28925I1575J0D01*
G01*
X-105394Y37075D02*
G03*
X-106968Y35500I0J-1575D01*
G01*
X-93032Y35500D02*
G03*
X-94606Y37075I-1575J-0D01*
G01*
X-94606Y28925D02*
G03*
X-93032Y30500I0J1575D01*
G01*
X-107803Y5482D02*
G03*
X-109378Y3907I0J-1575D01*
G01*
Y-6014D02*
G03*
X-107803Y-7589I1575J0D01*
G01*
X-92409D02*
G03*
X-90835Y-6014I0J1575D01*
G01*
Y3907D02*
G03*
X-92409Y5482I-1575J0D01*
G01*
X35000Y-110219D02*
G03*
X36575Y-108644I0J1575D01*
G01*
X28425Y-108644D02*
G03*
X30000Y-110219I1575J0D01*
G01*
X30000Y-96281D02*
G03*
X28425Y-97856I0J-1575D01*
G01*
X36575Y-97856D02*
G03*
X35000Y-96281I-1575J0D01*
G01*
X112169Y38193D02*
X120043D01*
X112169Y76776D02*
X120043D01*
Y38193D02*
Y76776D01*
X112169Y38193D02*
Y76776D01*
X97075Y56272D02*
Y61468D01*
Y47532D02*
Y52728D01*
X88925Y47532D02*
Y52728D01*
Y56272D02*
Y61468D01*
X97075D01*
X88925Y47532D02*
X97075D01*
X183022Y105425D02*
X188218D01*
X174282D02*
X179478D01*
X174282Y113575D02*
X179478D01*
X183022D02*
X188218D01*
Y105425D02*
Y113575D01*
X174282Y105425D02*
Y113575D01*
X-7075Y-2468D02*
Y2728D01*
Y6272D02*
Y11468D01*
X1075Y6272D02*
Y11468D01*
Y-2468D02*
Y2728D01*
X-7075Y-2468D02*
X1075D01*
X-7075Y11468D02*
X1075D01*
X15425Y-2468D02*
Y2728D01*
Y6272D02*
Y11468D01*
X23575Y6272D02*
Y11468D01*
Y-2468D02*
Y2728D01*
X15425Y-2468D02*
X23575D01*
X15425Y11468D02*
X23575D01*
X4272Y79425D02*
X9469D01*
X-4468D02*
X728D01*
X-4468Y87575D02*
X728D01*
X4272D02*
X9469D01*
Y79425D02*
Y87575D01*
X-4468Y79425D02*
Y87575D01*
X115032Y91075D02*
X120228D01*
X123772D02*
X128969D01*
X123772Y82925D02*
X128969D01*
X115032D02*
X120228D01*
X115032D02*
Y91075D01*
X128969Y82925D02*
Y91075D01*
X115032Y103575D02*
X120228D01*
X123772D02*
X128969D01*
X123772Y95425D02*
X128969D01*
X115032D02*
X120228D01*
X115032D02*
Y103575D01*
X128969Y95425D02*
Y103575D01*
X-107972Y60575D02*
X-102776D01*
X-99232D02*
X-94035D01*
X-99232Y52425D02*
X-94035D01*
X-107972D02*
X-102776D01*
X-107972D02*
Y60575D01*
X-94035Y52425D02*
Y60575D01*
X-107965Y48575D02*
X-102768D01*
X-99224D02*
X-94028D01*
X-99224Y40425D02*
X-94028D01*
X-107965D02*
X-102768D01*
X-107965D02*
Y48575D01*
X-94028Y40425D02*
Y48575D01*
X-98228Y10175D02*
X-93032D01*
X-106968D02*
X-101772D01*
X-106968Y18325D02*
X-101772D01*
X-98228D02*
X-93032D01*
Y10175D02*
Y18325D01*
X-106968Y10175D02*
Y18325D01*
X68925Y-110219D02*
Y-105022D01*
Y-101478D02*
Y-96281D01*
X77075Y-101478D02*
Y-96281D01*
Y-110219D02*
Y-105022D01*
X68925Y-110219D02*
X77075D01*
X68925Y-96281D02*
X77075D01*
X39175Y-110219D02*
Y-105022D01*
Y-101478D02*
Y-96281D01*
X47325Y-101478D02*
Y-96281D01*
Y-110219D02*
Y-105022D01*
X39175Y-110219D02*
X47325D01*
X39175Y-96281D02*
X47325D01*
X174750Y-84250D02*
X184750D01*
X174750D02*
Y-44250D01*
X184750Y-84250D02*
Y-44250D01*
X174750D02*
X184750D01*
X108000Y-32500D02*
Y-22500D01*
X28000Y-32500D02*
X108000D01*
X28000D02*
Y-22500D01*
X108000D01*
X-182500Y-42500D02*
X-172500D01*
Y-82500D02*
Y-42500D01*
X-182500Y-82500D02*
Y-42500D01*
Y-82500D02*
X-172500D01*
X164279Y-56626D02*
Y-50721D01*
Y-78280D02*
Y-72374D01*
X136721Y-50721D02*
X164279D01*
X136721Y-78280D02*
X164279D01*
X136721Y-56626D02*
Y-50721D01*
Y-78280D02*
Y-72374D01*
X29779Y-56126D02*
Y-50221D01*
Y-77780D02*
Y-71874D01*
X2221Y-50221D02*
X29779D01*
X2221Y-77780D02*
X29779D01*
X2221Y-56126D02*
Y-50221D01*
Y-77780D02*
Y-71874D01*
X88829Y64478D02*
X98277D01*
Y83022D01*
X88829D02*
X98277D01*
X88829Y64478D02*
Y83022D01*
X175207Y93675D02*
X179478D01*
X174282Y94600D02*
X175207Y93675D01*
X174282Y100900D02*
X175148Y101825D01*
X179478D01*
X183022D02*
X188218D01*
X183022Y93675D02*
X188218D01*
X174282Y94600D02*
Y100900D01*
X188218Y93675D02*
Y101825D01*
X126488Y-107358D02*
X127374D01*
X126488Y-89642D02*
X127374D01*
X136626Y-107358D02*
X137512D01*
X136626Y-89642D02*
X137512D01*
X126488Y-107358D02*
Y-89642D01*
X137512Y-107358D02*
Y-89642D01*
X97457Y82925D02*
X101728D01*
X96531Y83850D02*
X97457Y82925D01*
X96531Y90150D02*
X97398Y91075D01*
X101728D01*
X105272D02*
X110468D01*
X105272Y82925D02*
X110468D01*
X96531Y83850D02*
Y90150D01*
X110468Y82925D02*
Y91075D01*
X97457Y95425D02*
X101728D01*
X96531Y96350D02*
X97457Y95425D01*
X96531Y102650D02*
X97398Y103575D01*
X101728D01*
X105272D02*
X110468D01*
X105272Y95425D02*
X110468D01*
X96531Y96350D02*
Y102650D01*
X110468Y95425D02*
Y103575D01*
X58925Y-101478D02*
Y-97207D01*
X59850Y-96281D01*
X66150D02*
X67075Y-97148D01*
Y-101478D02*
Y-97148D01*
Y-110219D02*
Y-105022D01*
X58925Y-110219D02*
Y-105022D01*
X59850Y-96281D02*
X66150D01*
X58925Y-110219D02*
X67075D01*
X49175Y-101478D02*
Y-97207D01*
X50100Y-96281D01*
X56400D02*
X57325Y-97148D01*
Y-101478D02*
Y-97148D01*
Y-110219D02*
Y-105022D01*
X49175Y-110219D02*
Y-105022D01*
X50100Y-96281D02*
X56400D01*
X49175Y-110219D02*
X57325D01*
X-2762Y-109608D02*
X-1876D01*
X-2762Y-91892D02*
X-1876D01*
X7376Y-109608D02*
X8262D01*
X7376Y-91892D02*
X8262D01*
X-2762Y-109608D02*
Y-91892D01*
X8262Y-109608D02*
Y-91892D01*
X98325Y38272D02*
Y41894D01*
Y31106D02*
Y34728D01*
X90175Y31106D02*
Y34728D01*
X91750Y29531D02*
X96750D01*
X90175Y38272D02*
Y41894D01*
X91750Y43468D02*
X96750D01*
X-56728Y-3075D02*
X-53106D01*
X-63894D02*
X-60272D01*
X-63894Y5075D02*
X-60272D01*
X-65469Y-1500D02*
Y3500D01*
X-56728Y5075D02*
X-53106D01*
X-51531Y-1500D02*
Y3500D01*
X165825Y-101978D02*
Y-98356D01*
Y-109144D02*
Y-105522D01*
X157675Y-109144D02*
Y-105522D01*
X159250Y-110719D02*
X164250D01*
X157675Y-101978D02*
Y-98356D01*
X159250Y-96781D02*
X164250D01*
X88075Y38272D02*
Y41894D01*
Y31106D02*
Y34728D01*
X79925Y31106D02*
Y34728D01*
X81500Y29531D02*
X86500D01*
X79925Y38272D02*
Y41894D01*
X81500Y43468D02*
X86500D01*
X40661Y-80362D02*
X51488D01*
X62512D02*
X73339D01*
X62512Y-47685D02*
X69402D01*
X44598D02*
X51488D01*
X69402D02*
X73339Y-51622D01*
Y-80362D02*
Y-51622D01*
X40661Y-80362D02*
Y-51622D01*
X44598Y-47685D01*
X-18228Y79425D02*
X-14606D01*
X-25394D02*
X-21772D01*
X-25394Y87575D02*
X-21772D01*
X-26969Y81000D02*
Y86000D01*
X-18228Y87575D02*
X-14606D01*
X-13032Y81000D02*
Y86000D01*
X29175Y54856D02*
Y58478D01*
Y62022D02*
Y65644D01*
X37325Y62022D02*
Y65644D01*
X30750Y67219D02*
X35750D01*
X37325Y54856D02*
Y58478D01*
X30750Y53281D02*
X35750D01*
X29175Y73856D02*
Y77478D01*
Y81022D02*
Y84644D01*
X37325Y81022D02*
Y84644D01*
X30750Y86219D02*
X35750D01*
X37325Y73856D02*
Y77478D01*
X30750Y72281D02*
X35750D01*
X-99232Y64925D02*
X-95610D01*
X-106398D02*
X-102776D01*
X-106398Y73075D02*
X-102776D01*
X-107972Y66500D02*
Y71500D01*
X-99232Y73075D02*
X-95610D01*
X-94035Y66500D02*
Y71500D01*
X89075Y97276D02*
Y100898D01*
Y90110D02*
Y93732D01*
X80925Y90110D02*
Y93732D01*
X82500Y88535D02*
X87500D01*
X80925Y97276D02*
Y100898D01*
X82500Y102472D02*
X87500D01*
X-98228Y28925D02*
X-94606D01*
X-105394D02*
X-101772D01*
X-105394Y37075D02*
X-101772D01*
X-106968Y30500D02*
Y35500D01*
X-98228Y37075D02*
X-94606D01*
X-93032Y30500D02*
Y35500D01*
X-109378Y-6014D02*
Y3907D01*
X-90835Y-6014D02*
Y3907D01*
X-107803Y5482D02*
X-103650D01*
X-96563D02*
X-92409D01*
X-96563Y-7589D02*
X-92409D01*
X-107803D02*
X-103650D01*
X36575Y-101478D02*
Y-97856D01*
Y-108644D02*
Y-105022D01*
X28425Y-108644D02*
Y-105022D01*
X30000Y-110219D02*
X35000D01*
X28425Y-101478D02*
Y-97856D01*
X30000Y-96281D02*
X35000D01*
X-66488Y-47661D02*
X-55661D01*
X-88339D02*
X-77512D01*
X-84402Y-80339D02*
X-77512D01*
X-66488D02*
X-59598D01*
X-88339Y-76402D02*
X-84402Y-80339D01*
X-88339Y-76402D02*
Y-47661D01*
X-55661Y-76402D02*
Y-47661D01*
X-59598Y-80339D02*
X-55661Y-76402D01*
X94000Y35500D02*
X108000D01*
X28000D02*
X94000D01*
X28000Y-22500D02*
Y35500D01*
X10827Y37173D02*
Y58827D01*
X-10827D02*
X10827D01*
X-10827Y37173D02*
X10827D01*
X-10827D02*
Y58827D01*
X191876Y-72401D02*
X191351Y-72926D01*
Y-73975D01*
X191876Y-74500D01*
X192401D01*
X192926Y-73975D01*
Y-72926D01*
X193450Y-72401D01*
X193975D01*
X194500Y-72926D01*
Y-73975D01*
X193975Y-74500D01*
X191351Y-71351D02*
Y-69252D01*
Y-70302D01*
X194500D01*
X195025Y-68203D02*
Y-66104D01*
X191351Y-65054D02*
X194500D01*
Y-62955D01*
X191351Y-61906D02*
Y-60856D01*
Y-61381D01*
X194500D01*
Y-61906D01*
Y-60856D01*
Y-59282D02*
X191351D01*
X194500Y-57183D01*
X191351D01*
Y-56133D02*
X194500D01*
X193450D01*
X191351Y-54034D01*
X192926Y-55608D01*
X194500Y-54034D01*
X-190351Y-55500D02*
X-192975D01*
X-193500Y-56025D01*
Y-57074D01*
X-192975Y-57599D01*
X-190351D01*
X-190876Y-60748D02*
X-190351Y-60223D01*
Y-59173D01*
X-190876Y-58649D01*
X-191401D01*
X-191926Y-59173D01*
Y-60223D01*
X-192450Y-60748D01*
X-192975D01*
X-193500Y-60223D01*
Y-59173D01*
X-192975Y-58649D01*
X-193500Y-61797D02*
X-191401D01*
X-190351Y-62847D01*
X-191401Y-63896D01*
X-193500D01*
X-191926D01*
Y-61797D01*
X-193500Y-64946D02*
X-190351D01*
Y-66520D01*
X-190876Y-67045D01*
X-191926D01*
X-192450Y-66520D01*
Y-64946D01*
Y-65995D02*
X-193500Y-67045D01*
X-190351Y-68094D02*
Y-70193D01*
Y-69144D01*
X-193500D01*
X-190876Y-71243D02*
X-190351Y-71768D01*
Y-72817D01*
X-190876Y-73342D01*
X-191401D01*
X-191926Y-72817D01*
Y-72293D01*
Y-72817D01*
X-192450Y-73342D01*
X-192975D01*
X-193500Y-72817D01*
Y-71768D01*
X-192975Y-71243D01*
D58*
X57392Y-40117D02*
G03*
X57392Y-40117I-492J0D01*
G01*
X-71408Y-87907D02*
G03*
X-71408Y-87907I-492J0D01*
G01*
X14075Y63945D02*
G03*
X14075Y63945I-492J0D01*
G01*
D59*
X8071Y54890D02*
G03*
X8071Y54890I-1181J0D01*
G01*
D60*
X108000Y-22500D02*
Y-20000D01*
X-193250Y-109501D02*
Y-114000D01*
X-191001D01*
X-190251Y-113250D01*
Y-110251D01*
X-191001Y-109501D01*
X-193250D01*
X-185752Y-110251D02*
X-186502Y-109501D01*
X-188002D01*
X-188751Y-110251D01*
Y-113250D01*
X-188002Y-114000D01*
X-186502D01*
X-185752Y-113250D01*
X-184253Y-114750D02*
X-181254D01*
X-179754Y-114000D02*
X-178255D01*
X-179005D01*
Y-109501D01*
X-179754Y-110251D01*
X-173006Y-114000D02*
X-176006D01*
X-173006Y-111001D01*
Y-110251D01*
X-173756Y-109501D01*
X-175256D01*
X-176006Y-110251D01*
X-171507Y-109501D02*
Y-112501D01*
X-170008Y-114000D01*
X-168508Y-112501D01*
Y-109501D01*
X-194500Y20500D02*
Y23999D01*
X-193334Y22833D01*
X-192167Y23999D01*
Y20500D01*
X-190418D02*
X-189252D01*
X-188669Y21083D01*
Y22249D01*
X-189252Y22833D01*
X-190418D01*
X-191001Y22249D01*
Y21083D01*
X-190418Y20500D01*
X-186919Y23416D02*
Y22833D01*
X-187502D01*
X-186336D01*
X-186919D01*
Y21083D01*
X-186336Y20500D01*
X-184003D02*
X-182837D01*
X-182254Y21083D01*
Y22249D01*
X-182837Y22833D01*
X-184003D01*
X-184587Y22249D01*
Y21083D01*
X-184003Y20500D01*
X-181088Y22833D02*
Y20500D01*
Y21666D01*
X-180505Y22249D01*
X-179921Y22833D01*
X-179338D01*
X-177589Y20500D02*
X-176423D01*
X-177006D01*
Y23999D01*
X-177589Y23416D01*
X-194500Y85000D02*
Y88499D01*
X-193334Y87333D01*
X-192167Y88499D01*
Y85000D01*
X-190418D02*
X-189252D01*
X-188669Y85583D01*
Y86749D01*
X-189252Y87333D01*
X-190418D01*
X-191001Y86749D01*
Y85583D01*
X-190418Y85000D01*
X-186919Y87916D02*
Y87333D01*
X-187502D01*
X-186336D01*
X-186919D01*
Y85583D01*
X-186336Y85000D01*
X-184003D02*
X-182837D01*
X-182254Y85583D01*
Y86749D01*
X-182837Y87333D01*
X-184003D01*
X-184587Y86749D01*
Y85583D01*
X-184003Y85000D01*
X-181088Y87333D02*
Y85000D01*
Y86166D01*
X-180505Y86749D01*
X-179921Y87333D01*
X-179338D01*
X-175256Y85000D02*
X-177589D01*
X-175256Y87333D01*
Y87916D01*
X-175839Y88499D01*
X-177006D01*
X-177589Y87916D01*
D61*
X-164500Y11249D02*
Y8250D01*
X-163001D01*
X-162501Y8750D01*
Y9250D01*
X-163001Y9749D01*
X-164500D01*
X-163001D01*
X-162501Y10249D01*
Y10749D01*
X-163001Y11249D01*
X-164500D01*
X-160001D02*
X-161001D01*
X-161501Y10749D01*
Y8750D01*
X-161001Y8250D01*
X-160001D01*
X-159502Y8750D01*
Y10749D01*
X-160001Y11249D01*
X-156503Y8250D02*
X-158502D01*
X-156503Y10249D01*
Y10749D01*
X-157002Y11249D01*
X-158002D01*
X-158502Y10749D01*
X-164250Y3249D02*
Y250D01*
X-162750D01*
X-162251Y750D01*
Y1250D01*
X-162750Y1750D01*
X-164250D01*
X-162750D01*
X-162251Y2249D01*
Y2749D01*
X-162750Y3249D01*
X-164250D01*
X-159751D02*
X-160751D01*
X-161251Y2749D01*
Y750D01*
X-160751Y250D01*
X-159751D01*
X-159252Y750D01*
Y2749D01*
X-159751Y3249D01*
X-158252Y250D02*
X-157252D01*
X-157752D01*
Y3249D01*
X-158252Y2749D01*
X-162501Y-5251D02*
X-163001Y-4751D01*
X-164000D01*
X-164500Y-5251D01*
Y-7250D01*
X-164000Y-7750D01*
X-163001D01*
X-162501Y-7250D01*
Y-6250D01*
X-163500D01*
X-161501Y-7750D02*
Y-4751D01*
X-159502Y-7750D01*
Y-4751D01*
X-158502D02*
Y-7750D01*
X-157002D01*
X-156503Y-7250D01*
Y-5251D01*
X-157002Y-4751D01*
X-158502D01*
X-164500Y-13001D02*
X-164000Y-12501D01*
X-163001D01*
X-162501Y-13001D01*
Y-13501D01*
X-163001Y-14001D01*
X-163500D01*
X-163001D01*
X-162501Y-14500D01*
Y-15000D01*
X-163001Y-15500D01*
X-164000D01*
X-164500Y-15000D01*
X-161501Y-12501D02*
Y-14500D01*
X-160501Y-15500D01*
X-159502Y-14500D01*
Y-12501D01*
X-158502Y-13001D02*
X-158002Y-12501D01*
X-157002D01*
X-156503Y-13001D01*
Y-13501D01*
X-157002Y-14001D01*
X-157502D01*
X-157002D01*
X-156503Y-14500D01*
Y-15000D01*
X-157002Y-15500D01*
X-158002D01*
X-158502Y-15000D01*
X-166250Y-23500D02*
Y-20501D01*
X-165250Y-21501D01*
X-164251Y-20501D01*
Y-23500D01*
X-163251D02*
X-162251D01*
X-162751D01*
Y-20501D01*
X-163251Y-21001D01*
X-160752Y-20501D02*
Y-23500D01*
X-159252D01*
X-158752Y-23000D01*
Y-22500D01*
X-159252Y-22001D01*
X-160752D01*
X-159252D01*
X-158752Y-21501D01*
Y-21001D01*
X-159252Y-20501D01*
X-160752D01*
X-164500Y-31000D02*
Y-28001D01*
X-163500Y-29001D01*
X-162501Y-28001D01*
Y-31000D01*
X-161501D02*
X-160501D01*
X-161001D01*
Y-28001D01*
X-161501Y-28501D01*
X-159002Y-31000D02*
Y-29001D01*
X-158002Y-28001D01*
X-157002Y-29001D01*
Y-31000D01*
Y-29500D01*
X-159002D01*
X-162500Y33500D02*
Y36499D01*
X-161500Y35499D01*
X-160501Y36499D01*
Y33500D01*
X-157502D02*
X-159501D01*
X-157502Y35499D01*
Y35999D01*
X-158001Y36499D01*
X-159001D01*
X-159501Y35999D01*
X-156502Y33500D02*
Y35499D01*
X-155502Y36499D01*
X-154503Y35499D01*
Y33500D01*
Y34999D01*
X-156502D01*
X-162500Y41000D02*
Y43999D01*
X-161500Y42999D01*
X-160501Y43999D01*
Y41000D01*
X-157502D02*
X-159501D01*
X-157502Y42999D01*
Y43499D01*
X-158001Y43999D01*
X-159001D01*
X-159501Y43499D01*
X-156502Y43999D02*
Y41000D01*
X-155002D01*
X-154503Y41500D01*
Y42000D01*
X-155002Y42500D01*
X-156502D01*
X-155002D01*
X-154503Y42999D01*
Y43499D01*
X-155002Y43999D01*
X-156502D01*
X-162750Y51499D02*
X-162250Y51999D01*
X-161250D01*
X-160751Y51499D01*
Y50999D01*
X-161250Y50499D01*
X-161750D01*
X-161250D01*
X-160751Y50000D01*
Y49500D01*
X-161250Y49000D01*
X-162250D01*
X-162750Y49500D01*
X-159751Y51999D02*
Y50000D01*
X-158751Y49000D01*
X-157752Y50000D01*
Y51999D01*
X-156752Y51499D02*
X-156252Y51999D01*
X-155252D01*
X-154753Y51499D01*
Y50999D01*
X-155252Y50499D01*
X-155752D01*
X-155252D01*
X-154753Y50000D01*
Y49500D01*
X-155252Y49000D01*
X-156252D01*
X-156752Y49500D01*
X-160751Y59249D02*
X-161250Y59749D01*
X-162250D01*
X-162750Y59249D01*
Y57250D01*
X-162250Y56750D01*
X-161250D01*
X-160751Y57250D01*
Y58249D01*
X-161750D01*
X-159751Y56750D02*
Y59749D01*
X-157752Y56750D01*
Y59749D01*
X-156752D02*
Y56750D01*
X-155252D01*
X-154753Y57250D01*
Y59249D01*
X-155252Y59749D01*
X-156752D01*
X-162750Y64750D02*
Y66749D01*
X-161750Y67749D01*
X-160751Y66749D01*
Y64750D01*
Y66250D01*
X-162750D01*
X-158251Y67749D02*
X-159251D01*
X-159751Y67249D01*
Y65250D01*
X-159251Y64750D01*
X-158251D01*
X-157752Y65250D01*
Y67249D01*
X-158251Y67749D01*
X-154753Y64750D02*
X-156752D01*
X-154753Y66749D01*
Y67249D01*
X-155252Y67749D01*
X-156252D01*
X-156752Y67249D01*
X-162500Y72750D02*
Y74749D01*
X-161500Y75749D01*
X-160501Y74749D01*
Y72750D01*
Y74250D01*
X-162500D01*
X-158001Y75749D02*
X-159001D01*
X-159501Y75249D01*
Y73250D01*
X-159001Y72750D01*
X-158001D01*
X-157502Y73250D01*
Y75249D01*
X-158001Y75749D01*
X-156502Y72750D02*
X-155502D01*
X-156002D01*
Y75749D01*
X-156502Y75249D01*
D62*
X-33000Y107000D02*
Y105500D01*
Y106000D01*
X-32000Y107000D01*
X-32750Y106250D01*
X-32000Y105500D01*
X-30501D02*
X-31501D01*
X-30501Y106500D01*
Y106750D01*
X-30751Y107000D01*
X-31251D01*
X-31501Y106750D01*
X-64500Y7750D02*
X-64750Y7999D01*
X-65250D01*
X-65500Y7750D01*
Y6750D01*
X-65250Y6500D01*
X-64750D01*
X-64500Y6750D01*
X-63001Y6500D02*
X-64000D01*
X-63001Y7500D01*
Y7750D01*
X-63251Y7999D01*
X-63751D01*
X-64000Y7750D01*
X-61501Y6500D02*
X-62501D01*
X-61501Y7500D01*
Y7750D01*
X-61751Y7999D01*
X-62251D01*
X-62501Y7750D01*
X-69303Y21498D02*
X-69553Y21748D01*
X-70053D01*
X-70303Y21498D01*
Y20498D01*
X-70053Y20248D01*
X-69553D01*
X-69303Y20498D01*
X-67804Y20248D02*
X-68803D01*
X-67804Y21248D01*
Y21498D01*
X-68054Y21748D01*
X-68553D01*
X-68803Y21498D01*
X-67304Y20248D02*
X-66804D01*
X-67054D01*
Y21748D01*
X-67304Y21498D01*
X44750Y94708D02*
Y94458D01*
X45250Y93958D01*
X45750Y94458D01*
Y94708D01*
X45250Y93958D02*
Y93209D01*
X46249D02*
X46749D01*
X46499D01*
Y94708D01*
X46249Y94458D01*
X79500Y-59000D02*
Y-60250D01*
X79750Y-60500D01*
X80250D01*
X80500Y-60250D01*
Y-59000D01*
X81999D02*
X81499Y-59250D01*
X80999Y-59750D01*
Y-60250D01*
X81249Y-60500D01*
X81749D01*
X81999Y-60250D01*
Y-60000D01*
X81749Y-59750D01*
X80999D01*
X112000Y79500D02*
Y78250D01*
X112250Y78000D01*
X112750D01*
X113000Y78250D01*
Y79500D01*
X114249Y78000D02*
Y79500D01*
X113499Y78750D01*
X114499D01*
X-69000Y-14501D02*
Y-15750D01*
X-68750Y-16000D01*
X-68250D01*
X-68000Y-15750D01*
Y-14501D01*
X-67501Y-14750D02*
X-67251Y-14501D01*
X-66751D01*
X-66501Y-14750D01*
Y-15000D01*
X-66751Y-15250D01*
X-67001D01*
X-66751D01*
X-66501Y-15500D01*
Y-15750D01*
X-66751Y-16000D01*
X-67251D01*
X-67501Y-15750D01*
X-50000Y-59000D02*
Y-60250D01*
X-49750Y-60500D01*
X-49250D01*
X-49000Y-60250D01*
Y-59000D01*
X-47501Y-60500D02*
X-48500D01*
X-47501Y-59500D01*
Y-59250D01*
X-47751Y-59000D01*
X-48251D01*
X-48500Y-59250D01*
X-138500Y30999D02*
Y29750D01*
X-138250Y29500D01*
X-137750D01*
X-137500Y29750D01*
Y30999D01*
X-137001Y29500D02*
X-136501D01*
X-136751D01*
Y30999D01*
X-137001Y30750D01*
X-6750Y13000D02*
Y14500D01*
X-6000D01*
X-5750Y14250D01*
Y13750D01*
X-6000Y13500D01*
X-6750D01*
X-6250D02*
X-5750Y13000D01*
X-5251D02*
X-4751D01*
X-5001D01*
Y14500D01*
X-5251Y14250D01*
X-4001D02*
X-3751Y14500D01*
X-3251D01*
X-3001Y14250D01*
Y13250D01*
X-3251Y13000D01*
X-3751D01*
X-4001Y13250D01*
Y14250D01*
X15500Y12996D02*
Y14496D01*
X16250D01*
X16500Y14246D01*
Y13746D01*
X16250Y13496D01*
X15500D01*
X16000D02*
X16500Y12996D01*
X16999Y13246D02*
X17249Y12996D01*
X17749D01*
X17999Y13246D01*
Y14246D01*
X17749Y14496D01*
X17249D01*
X16999Y14246D01*
Y13996D01*
X17249Y13746D01*
X17999D01*
X1500Y88500D02*
Y90000D01*
X2250D01*
X2500Y89750D01*
Y89250D01*
X2250Y89000D01*
X1500D01*
X2000D02*
X2500Y88500D01*
X2999Y89750D02*
X3249Y90000D01*
X3749D01*
X3999Y89750D01*
Y89500D01*
X3749Y89250D01*
X3999Y89000D01*
Y88750D01*
X3749Y88500D01*
X3249D01*
X2999Y88750D01*
Y89000D01*
X3249Y89250D01*
X2999Y89500D01*
Y89750D01*
X3249Y89250D02*
X3749D01*
X115000Y92500D02*
Y93999D01*
X115750D01*
X116000Y93750D01*
Y93250D01*
X115750Y93000D01*
X115000D01*
X115500D02*
X116000Y92500D01*
X116499Y93999D02*
X117499D01*
Y93750D01*
X116499Y92750D01*
Y92500D01*
X115000Y105000D02*
Y106500D01*
X115750D01*
X116000Y106250D01*
Y105750D01*
X115750Y105500D01*
X115000D01*
X115500D02*
X116000Y105000D01*
X117499Y106500D02*
X116999Y106250D01*
X116499Y105750D01*
Y105250D01*
X116749Y105000D01*
X117249D01*
X117499Y105250D01*
Y105500D01*
X117249Y105750D01*
X116499D01*
X-108000Y62000D02*
Y63499D01*
X-107250D01*
X-107000Y63250D01*
Y62750D01*
X-107250Y62500D01*
X-108000D01*
X-107500D02*
X-107000Y62000D01*
X-105501Y63499D02*
X-106500D01*
Y62750D01*
X-106001Y63000D01*
X-105751D01*
X-105501Y62750D01*
Y62250D01*
X-105751Y62000D01*
X-106251D01*
X-106500Y62250D01*
X-108000Y50000D02*
Y51499D01*
X-107250D01*
X-107000Y51250D01*
Y50750D01*
X-107250Y50500D01*
X-108000D01*
X-107500D02*
X-107000Y50000D01*
X-105751D02*
Y51499D01*
X-106500Y50750D01*
X-105501D01*
X-107000Y19250D02*
Y20750D01*
X-106250D01*
X-106000Y20500D01*
Y20000D01*
X-106250Y19750D01*
X-107000D01*
X-106500D02*
X-106000Y19250D01*
X-105500Y20500D02*
X-105251Y20750D01*
X-104751D01*
X-104501Y20500D01*
Y20250D01*
X-104751Y20000D01*
X-105001D01*
X-104751D01*
X-104501Y19750D01*
Y19500D01*
X-104751Y19250D01*
X-105251D01*
X-105500Y19500D01*
X68750Y-95250D02*
Y-93751D01*
X69500D01*
X69750Y-94000D01*
Y-94500D01*
X69500Y-94750D01*
X68750D01*
X69250D02*
X69750Y-95250D01*
X71249D02*
X70249D01*
X71249Y-94250D01*
Y-94000D01*
X70999Y-93751D01*
X70499D01*
X70249Y-94000D01*
X39250Y-95000D02*
Y-93501D01*
X40000D01*
X40250Y-93750D01*
Y-94250D01*
X40000Y-94500D01*
X39250D01*
X39750D02*
X40250Y-95000D01*
X40749D02*
X41249D01*
X40999D01*
Y-93501D01*
X40749Y-93750D01*
X138500Y9000D02*
X139999D01*
Y8250D01*
X139750Y8000D01*
X139250D01*
X139000Y8250D01*
Y9000D01*
X138500Y7501D02*
Y7001D01*
Y7251D01*
X139999D01*
X139750Y7501D01*
Y6251D02*
X139999Y6001D01*
Y5501D01*
X139750Y5251D01*
X138750D01*
X138500Y5501D01*
Y6001D01*
X138750Y6251D01*
X139750D01*
X138500Y79500D02*
X139999D01*
Y78750D01*
X139750Y78500D01*
X139250D01*
X139000Y78750D01*
Y79500D01*
X139750Y78000D02*
X139999Y77751D01*
Y77251D01*
X139750Y77001D01*
X139500D01*
X139250Y77251D01*
X139000Y77001D01*
X138750D01*
X138500Y77251D01*
Y77751D01*
X138750Y78000D01*
X139000D01*
X139250Y77751D01*
X139500Y78000D01*
X139750D01*
X139250Y77751D02*
Y77251D01*
X-166000Y-60500D02*
Y-59000D01*
X-165250D01*
X-165000Y-59250D01*
Y-59750D01*
X-165250Y-60000D01*
X-166000D01*
X-164500Y-59000D02*
X-163501D01*
Y-59250D01*
X-164500Y-60250D01*
Y-60500D01*
X-125500Y-46500D02*
Y-45000D01*
X-124750D01*
X-124500Y-45250D01*
Y-45750D01*
X-124750Y-46000D01*
X-125500D01*
X-123001Y-45000D02*
X-123501Y-45250D01*
X-124001Y-45750D01*
Y-46250D01*
X-123751Y-46500D01*
X-123251D01*
X-123001Y-46250D01*
Y-46000D01*
X-123251Y-45750D01*
X-124001D01*
X173250Y-83000D02*
X171750D01*
Y-82250D01*
X172000Y-82000D01*
X172500D01*
X172750Y-82250D01*
Y-83000D01*
X171750Y-80501D02*
Y-81501D01*
X172500D01*
X172250Y-81001D01*
Y-80751D01*
X172500Y-80501D01*
X173000D01*
X173250Y-80751D01*
Y-81251D01*
X173000Y-81501D01*
X-172000Y82500D02*
X-170501D01*
Y81750D01*
X-170750Y81500D01*
X-171250D01*
X-171500Y81750D01*
Y82500D01*
X-172000Y80251D02*
X-170501D01*
X-171250Y81001D01*
Y80001D01*
X-172000Y18000D02*
X-170501D01*
Y17250D01*
X-170750Y17000D01*
X-171250D01*
X-171500Y17250D01*
Y18000D01*
X-170750Y16500D02*
X-170501Y16251D01*
Y15751D01*
X-170750Y15501D01*
X-171000D01*
X-171250Y15751D01*
Y16001D01*
Y15751D01*
X-171500Y15501D01*
X-171750D01*
X-172000Y15751D01*
Y16251D01*
X-171750Y16500D01*
X30000Y-21000D02*
Y-19500D01*
X30750D01*
X31000Y-19750D01*
Y-20250D01*
X30750Y-20500D01*
X30000D01*
X32499Y-21000D02*
X31499D01*
X32499Y-20000D01*
Y-19750D01*
X32249Y-19500D01*
X31749D01*
X31499Y-19750D01*
X-182567Y-41150D02*
Y-39650D01*
X-181817D01*
X-181567Y-39900D01*
Y-40400D01*
X-181817Y-40650D01*
X-182567D01*
X-181067Y-41150D02*
X-180568D01*
X-180817D01*
Y-39650D01*
X-181067Y-39900D01*
X137000Y-48000D02*
Y-49500D01*
X138000D01*
X139499D02*
X138499D01*
X139499Y-48500D01*
Y-48250D01*
X139249Y-48000D01*
X138749D01*
X138499Y-48250D01*
X2000Y-47501D02*
Y-49000D01*
X3000D01*
X3500D02*
X3999D01*
X3749D01*
Y-47501D01*
X3500Y-47750D01*
X-86000Y-84500D02*
Y-86000D01*
Y-85500D01*
X-85000Y-84500D01*
X-85750Y-85250D01*
X-85000Y-86000D01*
X-84500D02*
X-84001D01*
X-84251D01*
Y-84500D01*
X-84500Y-84750D01*
X126250Y-84000D02*
Y-85500D01*
X127000D01*
X127250Y-85250D01*
Y-84250D01*
X127000Y-84000D01*
X126250D01*
X128749D02*
X128249Y-84250D01*
X127750Y-84750D01*
Y-85250D01*
X127999Y-85500D01*
X128499D01*
X128749Y-85250D01*
Y-85000D01*
X128499Y-84750D01*
X127750D01*
X98032Y93999D02*
Y92500D01*
X98781D01*
X99031Y92750D01*
Y93750D01*
X98781Y93999D01*
X98032D01*
X100531D02*
X99531D01*
Y93250D01*
X100031Y93500D01*
X100281D01*
X100531Y93250D01*
Y92750D01*
X100281Y92500D01*
X99781D01*
X99531Y92750D01*
X98000Y106249D02*
Y104750D01*
X98750D01*
X99000Y105000D01*
Y106000D01*
X98750Y106249D01*
X98000D01*
X100249Y104750D02*
Y106249D01*
X99499Y105500D01*
X100499D01*
X60250Y-92001D02*
Y-93500D01*
X61000D01*
X61250Y-93250D01*
Y-92250D01*
X61000Y-92001D01*
X60250D01*
X61750Y-92250D02*
X61999Y-92001D01*
X62499D01*
X62749Y-92250D01*
Y-92500D01*
X62499Y-92750D01*
X62249D01*
X62499D01*
X62749Y-93000D01*
Y-93250D01*
X62499Y-93500D01*
X61999D01*
X61750Y-93250D01*
X50750Y-92001D02*
Y-93500D01*
X51500D01*
X51750Y-93250D01*
Y-92250D01*
X51500Y-92001D01*
X50750D01*
X53249Y-93500D02*
X52249D01*
X53249Y-92500D01*
Y-92250D01*
X52999Y-92001D01*
X52499D01*
X52249Y-92250D01*
X-2750Y-86251D02*
Y-87750D01*
X-2000D01*
X-1750Y-87500D01*
Y-86500D01*
X-2000Y-86251D01*
X-2750D01*
X-1251Y-87750D02*
X-751D01*
X-1001D01*
Y-86251D01*
X-1251Y-86500D01*
X159250Y-94250D02*
X159000Y-94001D01*
X158500D01*
X158250Y-94250D01*
Y-95250D01*
X158500Y-95500D01*
X159000D01*
X159250Y-95250D01*
X160749Y-95500D02*
X159749D01*
X160749Y-94500D01*
Y-94250D01*
X160499Y-94001D01*
X159999D01*
X159749Y-94250D01*
X161249D02*
X161499Y-94001D01*
X161999D01*
X162249Y-94250D01*
Y-95250D01*
X161999Y-95500D01*
X161499D01*
X161249Y-95250D01*
Y-94250D01*
X137750Y-79750D02*
X137500Y-79501D01*
X137000D01*
X136750Y-79750D01*
Y-80750D01*
X137000Y-81000D01*
X137500D01*
X137750Y-80750D01*
X138250Y-81000D02*
X138749D01*
X138499D01*
Y-79501D01*
X138250Y-79750D01*
X139499Y-80750D02*
X139749Y-81000D01*
X140249D01*
X140499Y-80750D01*
Y-79750D01*
X140249Y-79501D01*
X139749D01*
X139499Y-79750D01*
Y-80000D01*
X139749Y-80250D01*
X140499D01*
X46000Y-45250D02*
X45750Y-45000D01*
X45250D01*
X45000Y-45250D01*
Y-46250D01*
X45250Y-46500D01*
X45750D01*
X46000Y-46250D01*
X46499Y-46500D02*
X46999D01*
X46749D01*
Y-45000D01*
X46499Y-45250D01*
X47749Y-45000D02*
X48749D01*
Y-45250D01*
X47749Y-46250D01*
Y-46500D01*
X-21000Y89750D02*
X-21250Y90000D01*
X-21750D01*
X-22000Y89750D01*
Y88750D01*
X-21750Y88500D01*
X-21250D01*
X-21000Y88750D01*
X-20501Y88500D02*
X-20001D01*
X-20251D01*
Y90000D01*
X-20501Y89750D01*
X-18251Y90000D02*
X-18751Y89750D01*
X-19251Y89250D01*
Y88750D01*
X-19001Y88500D01*
X-18501D01*
X-18251Y88750D01*
Y89000D01*
X-18501Y89250D01*
X-19251D01*
X31000Y69750D02*
X30750Y69999D01*
X30250D01*
X30000Y69750D01*
Y68750D01*
X30250Y68500D01*
X30750D01*
X31000Y68750D01*
X31499Y68500D02*
X31999D01*
X31749D01*
Y69999D01*
X31499Y69750D01*
X33749Y69999D02*
X32749D01*
Y69250D01*
X33249Y69500D01*
X33499D01*
X33749Y69250D01*
Y68750D01*
X33499Y68500D01*
X32999D01*
X32749Y68750D01*
X30750Y88500D02*
X30500Y88749D01*
X30000D01*
X29750Y88500D01*
Y87500D01*
X30000Y87250D01*
X30500D01*
X30750Y87500D01*
X31249Y87250D02*
X31749D01*
X31499D01*
Y88749D01*
X31249Y88500D01*
X33249Y87250D02*
Y88749D01*
X32499Y88000D01*
X33499D01*
X-107000Y75750D02*
X-107250Y75999D01*
X-107750D01*
X-108000Y75750D01*
Y74750D01*
X-107750Y74500D01*
X-107250D01*
X-107000Y74750D01*
X-106500Y74500D02*
X-106001D01*
X-106251D01*
Y75999D01*
X-106500Y75750D01*
X-105251D02*
X-105001Y75999D01*
X-104501D01*
X-104251Y75750D01*
Y75500D01*
X-104501Y75250D01*
X-104751D01*
X-104501D01*
X-104251Y75000D01*
Y74750D01*
X-104501Y74500D01*
X-105001D01*
X-105251Y74750D01*
X73500Y108250D02*
X73250Y108500D01*
X72750D01*
X72500Y108250D01*
Y107250D01*
X72750Y107000D01*
X73250D01*
X73500Y107250D01*
X74000Y107000D02*
X74499D01*
X74249D01*
Y108500D01*
X74000Y108250D01*
X76249Y107000D02*
X75249D01*
X76249Y108000D01*
Y108250D01*
X75999Y108500D01*
X75499D01*
X75249Y108250D01*
X84000Y105254D02*
X83750Y105503D01*
X83250D01*
X83000Y105254D01*
Y104254D01*
X83250Y104004D01*
X83750D01*
X84000Y104254D01*
X84500Y104004D02*
X84999D01*
X84749D01*
Y105503D01*
X84500Y105254D01*
X85749Y104004D02*
X86249D01*
X85999D01*
Y105503D01*
X85749Y105254D01*
X-105750Y39250D02*
X-106000Y39500D01*
X-106500D01*
X-106750Y39250D01*
Y38250D01*
X-106500Y38000D01*
X-106000D01*
X-105750Y38250D01*
X-105251D02*
X-105001Y38000D01*
X-104501D01*
X-104251Y38250D01*
Y39250D01*
X-104501Y39500D01*
X-105001D01*
X-105251Y39250D01*
Y39000D01*
X-105001Y38750D01*
X-104251D01*
X-107000Y7750D02*
X-107250Y7999D01*
X-107750D01*
X-108000Y7750D01*
Y6750D01*
X-107750Y6500D01*
X-107250D01*
X-107000Y6750D01*
X-106500Y7750D02*
X-106251Y7999D01*
X-105751D01*
X-105501Y7750D01*
Y7500D01*
X-105751Y7250D01*
X-105501Y7000D01*
Y6750D01*
X-105751Y6500D01*
X-106251D01*
X-106500Y6750D01*
Y7000D01*
X-106251Y7250D01*
X-106500Y7500D01*
Y7750D01*
X-106251Y7250D02*
X-105751D01*
X-102750Y-12500D02*
X-103000Y-12251D01*
X-103500D01*
X-103750Y-12500D01*
Y-13500D01*
X-103500Y-13750D01*
X-103000D01*
X-102750Y-13500D01*
X-102251Y-12251D02*
X-101251D01*
Y-12500D01*
X-102251Y-13500D01*
Y-13750D01*
X-77500Y-14250D02*
X-77750Y-14001D01*
X-78250D01*
X-78500Y-14250D01*
Y-15250D01*
X-78250Y-15500D01*
X-77750D01*
X-77500Y-15250D01*
X-76001Y-14001D02*
X-76501Y-14250D01*
X-77000Y-14750D01*
Y-15250D01*
X-76751Y-15500D01*
X-76251D01*
X-76001Y-15250D01*
Y-15000D01*
X-76251Y-14750D01*
X-77000D01*
X-38500Y-14065D02*
X-38750Y-13815D01*
X-39250D01*
X-39500Y-14065D01*
Y-15065D01*
X-39250Y-15315D01*
X-38750D01*
X-38500Y-15065D01*
X-37001Y-13815D02*
X-38001D01*
Y-14565D01*
X-37501Y-14315D01*
X-37251D01*
X-37001Y-14565D01*
Y-15065D01*
X-37251Y-15315D01*
X-37751D01*
X-38001Y-15065D01*
X30000Y-93750D02*
X29750Y-93501D01*
X29250D01*
X29000Y-93750D01*
Y-94750D01*
X29250Y-95000D01*
X29750D01*
X30000Y-94750D01*
X31249Y-95000D02*
Y-93501D01*
X30500Y-94250D01*
X31499D01*
X9250Y-79250D02*
X9000Y-79001D01*
X8500D01*
X8250Y-79250D01*
Y-80250D01*
X8500Y-80500D01*
X9000D01*
X9250Y-80250D01*
X9749Y-79250D02*
X9999Y-79001D01*
X10499D01*
X10749Y-79250D01*
Y-79500D01*
X10499Y-79750D01*
X10249D01*
X10499D01*
X10749Y-80000D01*
Y-80250D01*
X10499Y-80500D01*
X9999D01*
X9749Y-80250D01*
X-86500Y-44750D02*
X-86750Y-44500D01*
X-87250D01*
X-87500Y-44750D01*
Y-45750D01*
X-87250Y-46000D01*
X-86750D01*
X-86500Y-45750D01*
X-86001Y-46000D02*
X-85501D01*
X-85751D01*
Y-44500D01*
X-86001Y-44750D01*
X110500Y32250D02*
X110250Y32500D01*
X109750D01*
X109500Y32250D01*
Y31250D01*
X109750Y31000D01*
X110250D01*
X110500Y31250D01*
X111999Y31000D02*
X111000D01*
X111999Y32000D01*
Y32250D01*
X111749Y32500D01*
X111249D01*
X111000Y32250D01*
X110000Y-8750D02*
X109750Y-8501D01*
X109250D01*
X109000Y-8750D01*
Y-9750D01*
X109250Y-10000D01*
X109750D01*
X110000Y-9750D01*
X110500Y-10000D02*
X110999D01*
X110749D01*
Y-8501D01*
X110500Y-8750D01*
X111749D02*
X111999Y-8501D01*
X112499D01*
X112749Y-8750D01*
Y-9750D01*
X112499Y-10000D01*
X111999D01*
X111749Y-9750D01*
Y-8750D01*
X174750Y104250D02*
Y102750D01*
X175500D01*
X175750Y103000D01*
Y104000D01*
X175500Y104250D01*
X174750D01*
X176250D02*
X177249D01*
Y104000D01*
X176250Y103000D01*
Y102750D01*
X174250Y114750D02*
Y116250D01*
X175000D01*
X175250Y116000D01*
Y115500D01*
X175000Y115250D01*
X174250D01*
X174750D02*
X175250Y114750D01*
X175750D02*
X176249D01*
X175999D01*
Y116250D01*
X175750Y116000D01*
X176999Y114750D02*
X177499D01*
X177249D01*
Y116250D01*
X176999Y116000D01*
X103751Y-7500D02*
X105000D01*
X105250Y-7250D01*
Y-6750D01*
X105000Y-6500D01*
X103751D01*
Y-6001D02*
Y-5001D01*
X104000D01*
X105000Y-6001D01*
X105250D01*
X79750Y45500D02*
X79500Y45750D01*
X79000D01*
X78750Y45500D01*
Y44500D01*
X79000Y44250D01*
X79500D01*
X79750Y44500D01*
X80250Y44250D02*
X80749D01*
X80499D01*
Y45750D01*
X80250Y45500D01*
X81499D02*
X81749Y45750D01*
X82249D01*
X82499Y45500D01*
Y45250D01*
X82249Y45000D01*
X82499Y44750D01*
Y44500D01*
X82249Y44250D01*
X81749D01*
X81499Y44500D01*
Y44750D01*
X81749Y45000D01*
X81499Y45250D01*
Y45500D01*
X81749Y45000D02*
X82249D01*
X91750Y45750D02*
X91500Y46000D01*
X91000D01*
X90750Y45750D01*
Y44750D01*
X91000Y44500D01*
X91500D01*
X91750Y44750D01*
X93249Y44500D02*
X92250D01*
X93249Y45500D01*
Y45750D01*
X92999Y46000D01*
X92499D01*
X92250Y45750D01*
X93749D02*
X93999Y46000D01*
X94499D01*
X94749Y45750D01*
Y45500D01*
X94499Y45250D01*
X94249D01*
X94499D01*
X94749Y45000D01*
Y44750D01*
X94499Y44500D01*
X93999D01*
X93749Y44750D01*
X88750Y85750D02*
Y84250D01*
X89500D01*
X89750Y84500D01*
Y85500D01*
X89500Y85750D01*
X88750D01*
X90250Y85500D02*
X90499Y85750D01*
X90999D01*
X91249Y85500D01*
Y85250D01*
X90999Y85000D01*
X91249Y84750D01*
Y84500D01*
X90999Y84250D01*
X90499D01*
X90250Y84500D01*
Y84750D01*
X90499Y85000D01*
X90250Y85250D01*
Y85500D01*
X90499Y85000D02*
X90999D01*
X87750Y57500D02*
X86251D01*
Y58250D01*
X86500Y58500D01*
X87000D01*
X87250Y58250D01*
Y57500D01*
Y58000D02*
X87750Y58500D01*
Y59000D02*
Y59499D01*
Y59249D01*
X86251D01*
X86500Y59000D01*
X87750Y61249D02*
Y60249D01*
X86750Y61249D01*
X86500D01*
X86251Y60999D01*
Y60499D01*
X86500Y60249D01*
X22250Y116750D02*
Y116500D01*
X22750Y116000D01*
X23250Y116500D01*
Y116750D01*
X22750Y116000D02*
Y115250D01*
X24749D02*
X23750D01*
X24749Y116250D01*
Y116500D01*
X24499Y116750D01*
X23999D01*
X23750Y116500D01*
X-20500Y70999D02*
Y69750D01*
X-20250Y69500D01*
X-19750D01*
X-19500Y69750D01*
Y70999D01*
X-18001D02*
X-19001D01*
Y70250D01*
X-18501Y70500D01*
X-18251D01*
X-18001Y70250D01*
Y69750D01*
X-18251Y69500D01*
X-18751D01*
X-19001Y69750D01*
D63*
X59750Y-113917D02*
X60167Y-113501D01*
X61000D01*
X61416Y-113917D01*
Y-114334D01*
X61000Y-114750D01*
X60583D01*
X61000D01*
X61416Y-115167D01*
Y-115584D01*
X61000Y-116000D01*
X60167D01*
X59750Y-115584D01*
X62249Y-113501D02*
Y-115167D01*
X63082Y-116000D01*
X63915Y-115167D01*
Y-113501D01*
X64748Y-113917D02*
X65165Y-113501D01*
X65998D01*
X66414Y-113917D01*
Y-114334D01*
X65998Y-114750D01*
X65581D01*
X65998D01*
X66414Y-115167D01*
Y-115584D01*
X65998Y-116000D01*
X65165D01*
X64748Y-115584D01*
X52916Y-113501D02*
X51250D01*
Y-114750D01*
X52083Y-114334D01*
X52500D01*
X52916Y-114750D01*
Y-115584D01*
X52500Y-116000D01*
X51666D01*
X51250Y-115584D01*
X53749Y-113501D02*
Y-115167D01*
X54582Y-116000D01*
X55415Y-115167D01*
Y-113501D01*
D64*
X165250Y20249D02*
Y17333D01*
X165833Y16750D01*
X166999D01*
X167583Y17333D01*
Y20249D01*
X171081Y19666D02*
X170498Y20249D01*
X169332D01*
X168749Y19666D01*
Y19083D01*
X169332Y18499D01*
X170498D01*
X171081Y17916D01*
Y17333D01*
X170498Y16750D01*
X169332D01*
X168749Y17333D01*
X172248Y20249D02*
Y16750D01*
X173997D01*
X174580Y17333D01*
Y17916D01*
X173997Y18499D01*
X172248D01*
X173997D01*
X174580Y19083D01*
Y19666D01*
X173997Y20249D01*
X172248D01*
X175747Y16167D02*
X178079D01*
X179245Y16750D02*
Y20249D01*
X180995D01*
X181578Y19666D01*
Y18499D01*
X180995Y17916D01*
X179245D01*
X183327Y16750D02*
X184494D01*
X185077Y17333D01*
Y18499D01*
X184494Y19083D01*
X183327D01*
X182744Y18499D01*
Y17333D01*
X183327Y16750D01*
X186243Y19083D02*
Y17333D01*
X186826Y16750D01*
X187409Y17333D01*
X187993Y16750D01*
X188576Y17333D01*
Y19083D01*
X191491Y16750D02*
X190325D01*
X189742Y17333D01*
Y18499D01*
X190325Y19083D01*
X191491D01*
X192075Y18499D01*
Y17916D01*
X189742D01*
X193241Y19083D02*
Y16750D01*
Y17916D01*
X193824Y18499D01*
X194407Y19083D01*
X194990D01*
X163250Y90999D02*
Y88083D01*
X163833Y87500D01*
X164999D01*
X165583Y88083D01*
Y90999D01*
X169081Y90416D02*
X168498Y90999D01*
X167332D01*
X166749Y90416D01*
Y89833D01*
X167332Y89249D01*
X168498D01*
X169081Y88666D01*
Y88083D01*
X168498Y87500D01*
X167332D01*
X166749Y88083D01*
X170248Y90999D02*
Y87500D01*
X171997D01*
X172580Y88083D01*
Y88666D01*
X171997Y89249D01*
X170248D01*
X171997D01*
X172580Y89833D01*
Y90416D01*
X171997Y90999D01*
X170248D01*
X173747Y86917D02*
X176079D01*
X179578Y90416D02*
X178995Y90999D01*
X177829D01*
X177245Y90416D01*
Y89833D01*
X177829Y89249D01*
X178995D01*
X179578Y88666D01*
Y88083D01*
X178995Y87500D01*
X177829D01*
X177245Y88083D01*
X182494Y87500D02*
X181327D01*
X180744Y88083D01*
Y89249D01*
X181327Y89833D01*
X182494D01*
X183077Y89249D01*
Y88666D01*
X180744D01*
X184243Y89833D02*
Y87500D01*
Y88666D01*
X184826Y89249D01*
X185409Y89833D01*
X185993D01*
X187742Y87500D02*
X188908D01*
X188325D01*
Y89833D01*
X187742D01*
X191241D02*
X192407D01*
X192990Y89249D01*
Y87500D01*
X191241D01*
X190658Y88083D01*
X191241Y88666D01*
X192990D01*
X194157Y87500D02*
X195323D01*
X194740D01*
Y90999D01*
X194157D01*
D65*
X173002Y97750D02*
D03*
X95252Y87000D02*
D03*
Y99500D02*
D03*
D66*
X63000Y-95002D02*
D03*
X53250D02*
D03*
M02*
