G04 Layer_Color=16711935*
%FSLAX25Y25*%
%MOIN*%
G70*
G01*
G75*
%ADD56C,0.00394*%
%ADD107C,0.00039*%
%ADD108C,0.00197*%
D56*
X12205Y58236D02*
G03*
X12205Y58236I-1969J0D01*
G01*
X182037Y96175D02*
Y99325D01*
X180463Y97750D02*
X182037Y99325D01*
X180463Y97750D02*
X182037Y96175D01*
X180463D02*
Y99325D01*
X179675Y97750D02*
X182825D01*
X181250Y100112D02*
X182431Y101293D01*
X180463Y100506D02*
X181644Y101687D01*
X126508Y-107358D02*
Y-89642D01*
X137492Y-107358D02*
Y-89642D01*
X126508Y-107358D02*
X137492D01*
X126508Y-89642D02*
X137492D01*
X104287Y85425D02*
Y88575D01*
X102713Y87000D02*
X104287Y88575D01*
X102713Y87000D02*
X104287Y85425D01*
X102713D02*
Y88575D01*
X101925Y87000D02*
X105075D01*
X103500Y89362D02*
X104681Y90543D01*
X102713Y89756D02*
X103894Y90937D01*
X104287Y97925D02*
Y101075D01*
X102713Y99500D02*
X104287Y101075D01*
X102713Y99500D02*
X104287Y97925D01*
X102713D02*
Y101075D01*
X101925Y99500D02*
X105075D01*
X103500Y101862D02*
X104681Y103043D01*
X102713Y102256D02*
X103894Y103437D01*
X61425Y-104037D02*
X64575D01*
X63000Y-102463D02*
X64575Y-104037D01*
X61425D02*
X63000Y-102463D01*
X61425D02*
X64575D01*
X63000Y-104825D02*
Y-101675D01*
X65362Y-103250D02*
X66543Y-104431D01*
X65756Y-102463D02*
X66937Y-103644D01*
X51675Y-104037D02*
X54825D01*
X53250Y-102463D02*
X54825Y-104037D01*
X51675D02*
X53250Y-102463D01*
X51675D02*
X54825D01*
X53250Y-104825D02*
Y-101675D01*
X55612Y-103250D02*
X56793Y-104431D01*
X56006Y-102463D02*
X57187Y-103644D01*
X-2742Y-109608D02*
Y-91892D01*
X8242Y-109608D02*
Y-91892D01*
X-2742Y-109608D02*
X8242D01*
X-2742Y-91892D02*
X8242D01*
X40661Y-80362D02*
X73339D01*
X40661Y-51622D02*
X44598Y-47685D01*
X40661Y-80362D02*
Y-51622D01*
X73339Y-80362D02*
Y-51622D01*
X69402Y-47685D02*
X73339Y-51622D01*
X44598Y-47685D02*
X69402D01*
X-88339Y-47661D02*
X-55661D01*
X-59598Y-80339D02*
X-55661Y-76402D01*
Y-47661D01*
X-88339Y-76402D02*
Y-47661D01*
Y-76402D02*
X-84402Y-80339D01*
X-59598D01*
X13780Y34220D02*
Y61779D01*
X-13780D02*
X13780D01*
X-13780Y34220D02*
X13780D01*
X-13780D02*
Y61779D01*
D107*
X58771Y-72195D02*
G03*
X55228Y-72195I-1772J0D01*
G01*
X55228Y-55953D02*
G03*
X58772Y-55953I1772J0D01*
G01*
X70780Y-64024D02*
G03*
X70780Y-64024I-13780J0D01*
G01*
X72748D02*
G03*
X72748Y-64024I-15748J0D01*
G01*
X-73771Y-55829D02*
G03*
X-70228Y-55829I1772J0D01*
G01*
X-70228Y-72071D02*
G03*
X-73772Y-72071I-1772J0D01*
G01*
X-58220Y-64000D02*
G03*
X-58220Y-64000I-13780J0D01*
G01*
X-56252D02*
G03*
X-56252Y-64000I-15748J0D01*
G01*
X55228Y-72195D02*
X58771D01*
X55228Y-55953D02*
X58772D01*
X-73771Y-55829D02*
X-70228D01*
X-73772Y-72071D02*
X-70228D01*
D108*
X90403Y67451D02*
X96703D01*
Y80049D01*
X90403D02*
X96703D01*
X90403Y67451D02*
Y80049D01*
X55228Y-83612D02*
X58771D01*
Y-72195D01*
X55228Y-83612D02*
Y-72195D01*
X58772Y-55953D02*
Y-44535D01*
X55228Y-55953D02*
Y-44535D01*
X58772D01*
X-73771Y-44412D02*
X-70228D01*
X-73771Y-55829D02*
Y-44412D01*
X-70228Y-55829D02*
Y-44412D01*
X-73772Y-83488D02*
Y-72071D01*
X-70228Y-83488D02*
Y-72071D01*
X-73772Y-83488D02*
X-70228D01*
M02*
