G04 Layer_Color=8421504*
%FSLAX25Y25*%
%MOIN*%
G70*
G01*
G75*
%ADD10R,0.08465X0.12795*%
%ADD11R,0.09016X0.04291*%
%ADD12R,0.42520X0.27520*%
%ADD13R,0.04213X0.15748*%
%ADD14O,0.08661X0.02362*%
%ADD15R,0.12795X0.08465*%
%ADD16R,0.04291X0.09016*%
%ADD17R,0.05512X0.00945*%
%ADD18O,0.05512X0.00945*%
%ADD19R,0.05787X0.04567*%
%ADD20R,0.04567X0.05787*%
%ADD21R,0.11811X0.12598*%
%ADD22R,0.09843X0.05906*%
%ADD23R,0.07087X0.04449*%
%ADD24R,0.07480X0.06299*%
%ADD25R,0.07087X0.05315*%
%ADD26R,0.11024X0.09449*%
%ADD27R,0.07874X0.15748*%
%ADD28R,0.05315X0.07087*%
%ADD29R,0.04567X0.10709*%
%ADD30O,0.07087X0.01181*%
%ADD31O,0.01181X0.07087*%
D10*
X101250Y6250D02*
D03*
D11*
X124085Y-2805D02*
D03*
Y6250D02*
D03*
Y15305D02*
D03*
D12*
X101000Y-98500D02*
D03*
X-28500D02*
D03*
D13*
X87614Y-53224D02*
D03*
X94307D02*
D03*
X101000D02*
D03*
X107693D02*
D03*
X114386D02*
D03*
X-41886D02*
D03*
X-35193D02*
D03*
X-28500D02*
D03*
X-21807D02*
D03*
X-15114D02*
D03*
D14*
X125555Y39984D02*
D03*
Y44984D02*
D03*
Y49984D02*
D03*
Y54984D02*
D03*
Y59984D02*
D03*
Y64984D02*
D03*
Y69984D02*
D03*
Y74984D02*
D03*
X106658Y39984D02*
D03*
Y44984D02*
D03*
Y49984D02*
D03*
Y54984D02*
D03*
Y59984D02*
D03*
Y64984D02*
D03*
Y69984D02*
D03*
Y74984D02*
D03*
D15*
X-55000Y-12165D02*
D03*
D16*
X-64055Y-35000D02*
D03*
X-55000D02*
D03*
X-45945D02*
D03*
D17*
X-144232Y27075D02*
D03*
D18*
Y24516D02*
D03*
Y21957D02*
D03*
Y19398D02*
D03*
Y16839D02*
D03*
Y14279D02*
D03*
Y11720D02*
D03*
Y9161D02*
D03*
Y6602D02*
D03*
Y4043D02*
D03*
Y1484D02*
D03*
Y-1075D02*
D03*
X-118248Y27075D02*
D03*
Y24516D02*
D03*
Y21957D02*
D03*
Y19398D02*
D03*
Y16839D02*
D03*
Y14279D02*
D03*
Y11720D02*
D03*
Y9161D02*
D03*
Y6602D02*
D03*
Y4043D02*
D03*
Y1484D02*
D03*
Y-1075D02*
D03*
D19*
X93000Y50996D02*
D03*
Y58004D02*
D03*
X-3000Y8004D02*
D03*
Y996D02*
D03*
X19500Y8004D02*
D03*
Y996D02*
D03*
X73000Y-99746D02*
D03*
Y-106754D02*
D03*
X43250Y-99746D02*
D03*
Y-106754D02*
D03*
X63000Y-99746D02*
D03*
Y-106754D02*
D03*
X53250Y-99746D02*
D03*
Y-106754D02*
D03*
X94250Y40004D02*
D03*
Y32996D02*
D03*
X161750Y-100246D02*
D03*
Y-107254D02*
D03*
X84000Y40004D02*
D03*
Y32996D02*
D03*
X33250Y56746D02*
D03*
Y63754D02*
D03*
Y75746D02*
D03*
Y82754D02*
D03*
X85000Y99008D02*
D03*
Y92000D02*
D03*
X32500Y-99746D02*
D03*
Y-106754D02*
D03*
D20*
X177746Y109500D02*
D03*
X184754D02*
D03*
X-1004Y83500D02*
D03*
X6004D02*
D03*
X125504Y87000D02*
D03*
X118496D02*
D03*
X125504Y99500D02*
D03*
X118496D02*
D03*
X-97500Y56500D02*
D03*
X-104508D02*
D03*
X-97492Y44500D02*
D03*
X-104500D02*
D03*
X-103504Y14250D02*
D03*
X-96496D02*
D03*
X177746Y97750D02*
D03*
X184754D02*
D03*
X99996Y87000D02*
D03*
X107004D02*
D03*
X99996Y99500D02*
D03*
X107004D02*
D03*
X-54996Y1000D02*
D03*
X-62004D02*
D03*
X-16496Y83500D02*
D03*
X-23504D02*
D03*
X-97500Y69000D02*
D03*
X-104508D02*
D03*
X-96496Y33000D02*
D03*
X-103504D02*
D03*
D21*
X163098Y-64500D02*
D03*
X137902D02*
D03*
X28598Y-64000D02*
D03*
X3402D02*
D03*
D22*
X-38992Y97500D02*
D03*
X-1000D02*
D03*
D23*
X93553Y67884D02*
D03*
Y79616D02*
D03*
D24*
X132000Y-106768D02*
D03*
Y-90232D02*
D03*
X2750Y-109018D02*
D03*
Y-92482D02*
D03*
D25*
X-65315Y13500D02*
D03*
X-55000D02*
D03*
X124112Y-14902D02*
D03*
X113797D02*
D03*
X113888Y25652D02*
D03*
X124203D02*
D03*
D26*
X148402Y-107211D02*
D03*
Y-87683D02*
D03*
X19402Y-106711D02*
D03*
Y-87183D02*
D03*
D27*
X57000Y-78000D02*
D03*
Y-50047D02*
D03*
X-72000Y-50024D02*
D03*
Y-77976D02*
D03*
D28*
X74598Y88638D02*
D03*
Y98953D02*
D03*
X-75902Y-33612D02*
D03*
Y-23297D02*
D03*
X-35000Y-21500D02*
D03*
Y-31815D02*
D03*
D29*
X-94299Y-1053D02*
D03*
X-105913D02*
D03*
D30*
X15945Y58827D02*
D03*
Y54890D02*
D03*
Y56858D02*
D03*
Y48984D02*
D03*
Y47016D02*
D03*
Y52921D02*
D03*
Y50953D02*
D03*
Y45047D02*
D03*
Y43079D02*
D03*
Y41110D02*
D03*
Y39142D02*
D03*
Y37173D02*
D03*
X-15945Y54890D02*
D03*
Y52921D02*
D03*
Y58827D02*
D03*
Y56858D02*
D03*
Y47016D02*
D03*
Y45047D02*
D03*
Y50953D02*
D03*
Y48984D02*
D03*
Y43079D02*
D03*
Y37173D02*
D03*
Y41110D02*
D03*
Y39142D02*
D03*
D31*
X8858Y63945D02*
D03*
X10827D02*
D03*
X4921D02*
D03*
X6890D02*
D03*
X2953D02*
D03*
X-984D02*
D03*
X984D02*
D03*
X10827Y32055D02*
D03*
X8858D02*
D03*
X6890D02*
D03*
X2953D02*
D03*
X4921D02*
D03*
X-984D02*
D03*
X984D02*
D03*
X-4921Y63945D02*
D03*
X-8858D02*
D03*
X-2953D02*
D03*
X-10827D02*
D03*
X-6890D02*
D03*
X-8858Y32055D02*
D03*
X-6890D02*
D03*
X-4921D02*
D03*
X-2953D02*
D03*
X-10827D02*
D03*
M02*
