G04 Layer_Color=2752767*
%FSLAX25Y25*%
%MOIN*%
G70*
G01*
G75*
%ADD10C,0.00039*%
%ADD11C,0.00394*%
%ADD12C,0.00197*%
%ADD13C,0.00800*%
%ADD14C,0.00200*%
%ADD15C,0.00267*%
%ADD16C,0.00133*%
%ADD17C,0.01600*%
%ADD18C,0.00467*%
%ADD19C,0.01000*%
D10*
X58771Y-72195D02*
G03*
X55228Y-72195I-1772J0D01*
G01*
X55228Y-55953D02*
G03*
X58772Y-55953I1772J0D01*
G01*
X70780Y-64024D02*
G03*
X70780Y-64024I-13780J0D01*
G01*
X72748D02*
G03*
X72748Y-64024I-15748J0D01*
G01*
X-73771Y-55829D02*
G03*
X-70228Y-55829I1772J0D01*
G01*
X-70228Y-72071D02*
G03*
X-73772Y-72071I-1772J0D01*
G01*
X-58220Y-64000D02*
G03*
X-58220Y-64000I-13780J0D01*
G01*
X-56252D02*
G03*
X-56252Y-64000I-15748J0D01*
G01*
X55228Y-72195D02*
X58771D01*
X55228Y-55953D02*
X58772D01*
X-73771Y-55829D02*
X-70228D01*
X-73772Y-72071D02*
X-70228D01*
D11*
X12205Y58236D02*
G03*
X12205Y58236I-1969J0D01*
G01*
X182037Y96175D02*
Y99325D01*
X180463Y97750D02*
X182037Y99325D01*
X180463Y97750D02*
X182037Y96175D01*
X180463D02*
Y99325D01*
X179675Y97750D02*
X182825D01*
X181250Y100112D02*
X182431Y101293D01*
X180463Y100506D02*
X181644Y101687D01*
X126508Y-107358D02*
Y-89642D01*
X137492Y-107358D02*
Y-89642D01*
X126508Y-107358D02*
X137492D01*
X126508Y-89642D02*
X137492D01*
X104287Y85425D02*
Y88575D01*
X102713Y87000D02*
X104287Y88575D01*
X102713Y87000D02*
X104287Y85425D01*
X102713D02*
Y88575D01*
X101925Y87000D02*
X105075D01*
X103500Y89362D02*
X104681Y90543D01*
X102713Y89756D02*
X103894Y90937D01*
X104287Y97925D02*
Y101075D01*
X102713Y99500D02*
X104287Y101075D01*
X102713Y99500D02*
X104287Y97925D01*
X102713D02*
Y101075D01*
X101925Y99500D02*
X105075D01*
X103500Y101862D02*
X104681Y103043D01*
X102713Y102256D02*
X103894Y103437D01*
X61425Y-104037D02*
X64575D01*
X63000Y-102463D02*
X64575Y-104037D01*
X61425D02*
X63000Y-102463D01*
X61425D02*
X64575D01*
X63000Y-104825D02*
Y-101675D01*
X65362Y-103250D02*
X66543Y-104431D01*
X65756Y-102463D02*
X66937Y-103644D01*
X51675Y-104037D02*
X54825D01*
X53250Y-102463D02*
X54825Y-104037D01*
X51675D02*
X53250Y-102463D01*
X51675D02*
X54825D01*
X53250Y-104825D02*
Y-101675D01*
X55612Y-103250D02*
X56793Y-104431D01*
X56006Y-102463D02*
X57187Y-103644D01*
X-2742Y-109608D02*
Y-91892D01*
X8242Y-109608D02*
Y-91892D01*
X-2742Y-109608D02*
X8242D01*
X-2742Y-91892D02*
X8242D01*
X40661Y-80362D02*
X73339D01*
X40661Y-51622D02*
X44598Y-47685D01*
X40661Y-80362D02*
Y-51622D01*
X73339Y-80362D02*
Y-51622D01*
X69402Y-47685D02*
X73339Y-51622D01*
X44598Y-47685D02*
X69402D01*
X-88339Y-47661D02*
X-55661D01*
X-59598Y-80339D02*
X-55661Y-76402D01*
Y-47661D01*
X-88339Y-76402D02*
Y-47661D01*
Y-76402D02*
X-84402Y-80339D01*
X-59598D01*
X13780Y34220D02*
Y61779D01*
X-13780D02*
X13780D01*
X-13780Y34220D02*
X13780D01*
X-13780D02*
Y61779D01*
X57000Y-65992D02*
Y-62055D01*
X55032Y-64024D02*
X58969D01*
X-72000Y-65969D02*
Y-62032D01*
X-73968Y-64000D02*
X-70031D01*
X0Y46031D02*
Y49968D01*
X-1969Y48000D02*
X1969D01*
D12*
X90403Y67451D02*
X96703D01*
Y80049D01*
X90403D02*
X96703D01*
X90403Y67451D02*
Y80049D01*
X55228Y-83612D02*
X58771D01*
Y-72195D01*
X55228Y-83612D02*
Y-72195D01*
X58772Y-55953D02*
Y-44535D01*
X55228Y-55953D02*
Y-44535D01*
X58772D01*
X-73771Y-44412D02*
X-70228D01*
X-73771Y-55829D02*
Y-44412D01*
X-70228Y-55829D02*
Y-44412D01*
X-73772Y-83488D02*
Y-72071D01*
X-70228Y-83488D02*
Y-72071D01*
X-73772Y-83488D02*
X-70228D01*
X73732Y-86268D02*
Y-41780D01*
X40268Y-86268D02*
X73732D01*
X40268Y-41780D02*
X73732D01*
X40268Y-86268D02*
Y-41780D01*
X-88732Y-86244D02*
Y-41756D01*
X-55268D01*
X-88732Y-86244D02*
X-55268D01*
Y-41756D01*
X20472Y27528D02*
Y68472D01*
X-20472D02*
X20472D01*
X-20472Y27528D02*
X20472D01*
X-20472D02*
Y68472D01*
D13*
X189124Y97750D02*
X193061D01*
X191093Y95781D02*
Y99718D01*
X171407Y95781D02*
Y99718D01*
X111374Y87000D02*
X115311D01*
X113342Y85031D02*
Y88968D01*
X93657Y85031D02*
Y88968D01*
X111374Y99500D02*
X115311D01*
X113342Y97531D02*
Y101469D01*
X93657Y97531D02*
Y101469D01*
X63000Y-115061D02*
Y-111124D01*
X61032Y-113093D02*
X64969D01*
X61032Y-93407D02*
X64969D01*
X53250Y-115061D02*
Y-111124D01*
X51281Y-113093D02*
X55218D01*
X51281Y-93407D02*
X55218D01*
X215550Y67000D02*
G03*
X215550Y67000I-2400J0D01*
G01*
Y-53000D02*
G03*
X215550Y-53000I-2400J0D01*
G01*
D14*
X28200Y104700D02*
Y106300D01*
X29800D01*
Y104700D01*
X28200D01*
X47491D02*
Y106300D01*
X49091D01*
Y104700D01*
X47491D01*
X48450Y78700D02*
Y80300D01*
X50050D01*
Y78700D01*
X48450D01*
Y59409D02*
Y61009D01*
X50050D01*
Y59409D01*
X48450D01*
X146000Y-3957D02*
X145200Y-2358D01*
X146800D01*
X146000Y-3957D01*
Y-13800D02*
X145200Y-12200D01*
X146800D01*
X146000Y-13800D01*
Y-21674D02*
X145200Y-20074D01*
X146800D01*
X146000Y-21674D01*
Y-31517D02*
X145200Y-29917D01*
X146800D01*
X146000Y-31517D01*
X146173Y66767D02*
X145373Y68367D01*
X146973D01*
X146173Y66767D01*
Y56924D02*
X145373Y58524D01*
X146973D01*
X146173Y56924D01*
Y49050D02*
X145373Y50650D01*
X146973D01*
X146173Y49050D01*
Y39208D02*
X145373Y40808D01*
X146973D01*
X146173Y39208D01*
X-148500Y-65678D02*
X-148100Y-65278D01*
X-147700D01*
X-148100Y-64878D01*
X-147700Y-64478D01*
X-148100D01*
X-148500Y-64078D01*
X-148900Y-64478D01*
X-149300D01*
X-148900Y-64878D01*
X-149300Y-65278D01*
X-148900D01*
X-148500Y-65678D01*
Y-89300D02*
X-148100Y-88900D01*
X-147700D01*
X-148100Y-88500D01*
X-147700Y-88100D01*
X-148100D01*
X-148500Y-87700D01*
X-148900Y-88100D01*
X-149300D01*
X-148900Y-88500D01*
X-149300Y-88900D01*
X-148900D01*
X-148500Y-89300D01*
X-130402Y-75520D02*
X-130002Y-74721D01*
X-130402Y-73921D01*
X-129602Y-74321D01*
X-128802Y-73921D01*
X-129202Y-74721D01*
X-128802Y-75520D01*
X-129602Y-75121D01*
X-130402Y-75520D01*
X-117900Y-47900D02*
Y-48300D01*
X-117100D01*
Y-47900D01*
X-116700D01*
Y-47100D01*
X-117100D01*
Y-46700D01*
X-117900D01*
Y-47100D01*
X-118300D01*
Y-47900D01*
X-117900D01*
X-102349D02*
Y-48300D01*
X-101549D01*
Y-47900D01*
X-101149D01*
Y-47100D01*
X-101549D01*
Y-46700D01*
X-102349D01*
Y-47100D01*
X-102749D01*
Y-47900D01*
X-102349D01*
X178950Y-50050D02*
X179350D01*
X179750Y-49650D01*
X180150Y-50050D01*
X180550D01*
Y-49650D01*
X180150Y-49250D01*
X180550Y-48850D01*
Y-48450D01*
X180150D01*
X179750Y-48850D01*
X179350Y-48450D01*
X178950D01*
Y-48850D01*
X179350Y-49250D01*
X178950Y-49650D01*
Y-50050D01*
Y-60050D02*
X179350D01*
X179750Y-59650D01*
X180150Y-60050D01*
X180550D01*
Y-59650D01*
X180150Y-59250D01*
X180550Y-58850D01*
Y-58450D01*
X180150D01*
X179750Y-58850D01*
X179350Y-58450D01*
X178950D01*
Y-58850D01*
X179350Y-59250D01*
X178950Y-59650D01*
Y-60050D01*
Y-70050D02*
X179350D01*
X179750Y-69650D01*
X180150Y-70050D01*
X180550D01*
Y-69650D01*
X180150Y-69250D01*
X180550Y-68850D01*
Y-68450D01*
X180150D01*
X179750Y-68850D01*
X179350Y-68450D01*
X178950D01*
Y-68850D01*
X179350Y-69250D01*
X178950Y-69650D01*
Y-70050D01*
Y-80050D02*
X179350D01*
X179750Y-79650D01*
X180150Y-80050D01*
X180550D01*
Y-79650D01*
X180150Y-79250D01*
X180550Y-78850D01*
Y-78450D01*
X180150D01*
X179750Y-78850D01*
X179350Y-78450D01*
X178950D01*
Y-78850D01*
X179350Y-79250D01*
X178950Y-79650D01*
Y-80050D01*
X-171000Y34078D02*
X-171800Y35678D01*
X-170200D01*
X-171000Y34078D01*
Y41952D02*
X-171800Y43552D01*
X-170200D01*
X-171000Y41952D01*
Y49826D02*
X-171800Y51426D01*
X-170200D01*
X-171000Y49826D01*
Y57700D02*
X-171800Y59300D01*
X-170200D01*
X-171000Y57700D01*
Y65574D02*
X-171800Y67174D01*
X-170200D01*
X-171000Y65574D01*
Y73448D02*
X-171800Y75048D01*
X-170200D01*
X-171000Y73448D01*
Y-30422D02*
X-171800Y-28822D01*
X-170200D01*
X-171000Y-30422D01*
Y-22548D02*
X-171800Y-20948D01*
X-170200D01*
X-171000Y-22548D01*
Y-14674D02*
X-171800Y-13074D01*
X-170200D01*
X-171000Y-14674D01*
Y-6800D02*
X-171800Y-5200D01*
X-170200D01*
X-171000Y-6800D01*
Y1074D02*
X-171800Y2674D01*
X-170200D01*
X-171000Y1074D01*
Y8948D02*
X-171800Y10548D01*
X-170200D01*
X-171000Y8948D01*
X32200Y-28300D02*
X32600D01*
X33000Y-27900D01*
X33400Y-28300D01*
X33800D01*
Y-27900D01*
X33400Y-27500D01*
X33800Y-27100D01*
Y-26700D01*
X33400D01*
X33000Y-27100D01*
X32600Y-26700D01*
X32200D01*
Y-27100D01*
X32600Y-27500D01*
X32200Y-27900D01*
Y-28300D01*
X42200D02*
X42600D01*
X43000Y-27900D01*
X43400Y-28300D01*
X43800D01*
Y-27900D01*
X43400Y-27500D01*
X43800Y-27100D01*
Y-26700D01*
X43400D01*
X43000Y-27100D01*
X42600Y-26700D01*
X42200D01*
Y-27100D01*
X42600Y-27500D01*
X42200Y-27900D01*
Y-28300D01*
X52200D02*
X52600D01*
X53000Y-27900D01*
X53400Y-28300D01*
X53800D01*
Y-27900D01*
X53400Y-27500D01*
X53800Y-27100D01*
Y-26700D01*
X53400D01*
X53000Y-27100D01*
X52600Y-26700D01*
X52200D01*
Y-27100D01*
X52600Y-27500D01*
X52200Y-27900D01*
Y-28300D01*
X62200D02*
X62600D01*
X63000Y-27900D01*
X63400Y-28300D01*
X63800D01*
Y-27900D01*
X63400Y-27500D01*
X63800Y-27100D01*
Y-26700D01*
X63400D01*
X63000Y-27100D01*
X62600Y-26700D01*
X62200D01*
Y-27100D01*
X62600Y-27500D01*
X62200Y-27900D01*
Y-28300D01*
X72200D02*
X72600D01*
X73000Y-27900D01*
X73400Y-28300D01*
X73800D01*
Y-27900D01*
X73400Y-27500D01*
X73800Y-27100D01*
Y-26700D01*
X73400D01*
X73000Y-27100D01*
X72600Y-26700D01*
X72200D01*
Y-27100D01*
X72600Y-27500D01*
X72200Y-27900D01*
Y-28300D01*
X82200D02*
X82600D01*
X83000Y-27900D01*
X83400Y-28300D01*
X83800D01*
Y-27900D01*
X83400Y-27500D01*
X83800Y-27100D01*
Y-26700D01*
X83400D01*
X83000Y-27100D01*
X82600Y-26700D01*
X82200D01*
Y-27100D01*
X82600Y-27500D01*
X82200Y-27900D01*
Y-28300D01*
X92200D02*
X92600D01*
X93000Y-27900D01*
X93400Y-28300D01*
X93800D01*
Y-27900D01*
X93400Y-27500D01*
X93800Y-27100D01*
Y-26700D01*
X93400D01*
X93000Y-27100D01*
X92600Y-26700D01*
X92200D01*
Y-27100D01*
X92600Y-27500D01*
X92200Y-27900D01*
Y-28300D01*
X102200D02*
X102600D01*
X103000Y-27900D01*
X103400Y-28300D01*
X103800D01*
Y-27900D01*
X103400Y-27500D01*
X103800Y-27100D01*
Y-26700D01*
X103400D01*
X103000Y-27100D01*
X102600Y-26700D01*
X102200D01*
Y-27100D01*
X102600Y-27500D01*
X102200Y-27900D01*
Y-28300D01*
X-178300Y-78300D02*
X-177900D01*
X-177500Y-77900D01*
X-177100Y-78300D01*
X-176700D01*
Y-77900D01*
X-177100Y-77500D01*
X-176700Y-77100D01*
Y-76700D01*
X-177100D01*
X-177500Y-77100D01*
X-177900Y-76700D01*
X-178300D01*
Y-77100D01*
X-177900Y-77500D01*
X-178300Y-77900D01*
Y-78300D01*
Y-68300D02*
X-177900D01*
X-177500Y-67900D01*
X-177100Y-68300D01*
X-176700D01*
Y-67900D01*
X-177100Y-67500D01*
X-176700Y-67100D01*
Y-66700D01*
X-177100D01*
X-177500Y-67100D01*
X-177900Y-66700D01*
X-178300D01*
Y-67100D01*
X-177900Y-67500D01*
X-178300Y-67900D01*
Y-68300D01*
Y-58300D02*
X-177900D01*
X-177500Y-57900D01*
X-177100Y-58300D01*
X-176700D01*
Y-57900D01*
X-177100Y-57500D01*
X-176700Y-57100D01*
Y-56700D01*
X-177100D01*
X-177500Y-57100D01*
X-177900Y-56700D01*
X-178300D01*
Y-57100D01*
X-177900Y-57500D01*
X-178300Y-57900D01*
Y-58300D01*
Y-48300D02*
X-177900D01*
X-177500Y-47900D01*
X-177100Y-48300D01*
X-176700D01*
Y-47900D01*
X-177100Y-47500D01*
X-176700Y-47100D01*
Y-46700D01*
X-177100D01*
X-177500Y-47100D01*
X-177900Y-46700D01*
X-178300D01*
Y-47100D01*
X-177900Y-47500D01*
X-178300Y-47900D01*
Y-48300D01*
X-82500Y-109674D02*
X-83300Y-108074D01*
X-81700D01*
X-82500Y-109674D01*
Y-101800D02*
X-83300Y-100200D01*
X-81700D01*
X-82500Y-101800D01*
Y-93926D02*
X-83300Y-92326D01*
X-81700D01*
X-82500Y-93926D01*
X-62815Y-109674D02*
X-63615Y-108074D01*
X-62015D01*
X-62815Y-109674D01*
Y-101800D02*
X-63615Y-100200D01*
X-62015D01*
X-62815Y-101800D01*
Y-93926D02*
X-63615Y-92326D01*
X-62015D01*
X-62815Y-93926D01*
X-92295Y-21506D02*
X-91495Y-20706D01*
X-90694Y-21506D01*
X-91495Y-22306D01*
X-92295Y-21506D01*
X-97306Y-16495D02*
X-96505Y-15695D01*
X-95705Y-16495D01*
X-96505Y-17294D01*
X-97306Y-16495D01*
X-178050Y-96550D02*
Y-94950D01*
X-176450D01*
Y-96550D01*
X-178050D01*
X-177650Y-96150D02*
Y-95350D01*
X-176850D01*
Y-96150D01*
X-177650D01*
X176450Y-96550D02*
Y-94950D01*
X178050D01*
Y-96550D01*
X176450D01*
X176850Y-96150D02*
Y-95350D01*
X177650D01*
Y-96150D01*
X176850D01*
X-157250Y100450D02*
X-158050Y102050D01*
X-156450D01*
X-157250Y100450D01*
Y100850D02*
X-157650Y101650D01*
X-156850D01*
X-157250Y100850D01*
X151750Y100450D02*
X150950Y102050D01*
X152550D01*
X151750Y100450D01*
Y100850D02*
X151350Y101650D01*
X152150D01*
X151750Y100850D01*
X94307Y-43357D02*
X94707Y-42957D01*
X95107D01*
X94707Y-42557D01*
X95107Y-42157D01*
X94707D01*
X94307Y-41757D01*
X93907Y-42157D01*
X93507D01*
X93907Y-42557D01*
X93507Y-42957D01*
X93907D01*
X94307Y-43357D01*
Y-42957D02*
X94507Y-42757D01*
X94707D01*
X94507Y-42557D01*
X94707Y-42357D01*
X94507D01*
X94307Y-42157D01*
X94107Y-42357D01*
X93907D01*
X94107Y-42557D01*
X93907Y-42757D01*
X94107D01*
X94307Y-42957D01*
X-111800Y86700D02*
X-111400Y87500D01*
X-111800Y88300D01*
X-111000Y87900D01*
X-110200Y88300D01*
X-110600Y87500D01*
X-110200Y86700D01*
X-111000Y87100D01*
X-111800Y86700D01*
X-111400Y87100D02*
X-111200Y87500D01*
X-111400Y87900D01*
X-111000Y87700D01*
X-110600Y87900D01*
X-110800Y87500D01*
X-110600Y87100D01*
X-111000Y87300D01*
X-111400Y87100D01*
X-39792Y86708D02*
X-39392Y87508D01*
X-39792Y88308D01*
X-38992Y87908D01*
X-38192Y88308D01*
X-38592Y87508D01*
X-38192Y86708D01*
X-38992Y87108D01*
X-39792Y86708D01*
X-39392Y87108D02*
X-39192Y87508D01*
X-39392Y87908D01*
X-38992Y87708D01*
X-38592Y87908D01*
X-38792Y87508D01*
X-38592Y87108D01*
X-38992Y87308D01*
X-39392Y87108D01*
X-55800Y80200D02*
X-55400Y81000D01*
X-55800Y81800D01*
X-55000Y81400D01*
X-54200Y81800D01*
X-54600Y81000D01*
X-54200Y80200D01*
X-55000Y80600D01*
X-55800Y80200D01*
X-55400Y80600D02*
X-55200Y81000D01*
X-55400Y81400D01*
X-55000Y81200D01*
X-54600Y81400D01*
X-54800Y81000D01*
X-54600Y80600D01*
X-55000Y80800D01*
X-55400Y80600D01*
X-152800Y4700D02*
X-152400Y5500D01*
X-152800Y6300D01*
X-152000Y5900D01*
X-151200Y6300D01*
X-151600Y5500D01*
X-151200Y4700D01*
X-152000Y5100D01*
X-152800Y4700D01*
X-152400Y5100D02*
X-152200Y5500D01*
X-152400Y5900D01*
X-152000Y5700D01*
X-151600Y5900D01*
X-151800Y5500D01*
X-151600Y5100D01*
X-152000Y5300D01*
X-152400Y5100D01*
X35303Y-50447D02*
Y-50847D01*
X36103D01*
Y-50447D01*
X36503D01*
Y-49647D01*
X36103D01*
Y-49247D01*
X35303D01*
Y-49647D01*
X34903D01*
Y-50447D01*
X35303D01*
X35503Y-50247D02*
Y-50447D01*
X35903D01*
Y-50247D01*
X36103D01*
Y-49847D01*
X35903D01*
Y-49647D01*
X35503D01*
Y-49847D01*
X35303D01*
Y-50247D01*
X35503D01*
X-110800Y31700D02*
X-110400D01*
X-110000Y32100D01*
X-109600Y31700D01*
X-109200D01*
Y32100D01*
X-109600Y32500D01*
X-109200Y32900D01*
Y33300D01*
X-109600D01*
X-110000Y32900D01*
X-110400Y33300D01*
X-110800D01*
Y32900D01*
X-110400Y32500D01*
X-110800Y32100D01*
Y31700D01*
X-110400Y32100D02*
X-110200D01*
X-110000Y32300D01*
X-109800Y32100D01*
X-109600D01*
Y32300D01*
X-109800Y32500D01*
X-109600Y32700D01*
Y32900D01*
X-109800D01*
X-110000Y32700D01*
X-110200Y32900D01*
X-110400D01*
Y32700D01*
X-110200Y32500D01*
X-110400Y32300D01*
Y32100D01*
X26450Y86700D02*
X26850Y87500D01*
X26450Y88300D01*
X27250Y87900D01*
X28050Y88300D01*
X27650Y87500D01*
X28050Y86700D01*
X27250Y87100D01*
X26450Y86700D01*
X26850Y87100D02*
X27050Y87500D01*
X26850Y87900D01*
X27250Y87700D01*
X27650Y87900D01*
X27450Y87500D01*
X27650Y87100D01*
X27250Y87300D01*
X26850Y87100D01*
X73000Y-85050D02*
X73400Y-84650D01*
X73800D01*
X73400Y-84250D01*
X73800Y-83850D01*
X73400D01*
X73000Y-83450D01*
X72600Y-83850D01*
X72200D01*
X72600Y-84250D01*
X72200Y-84650D01*
X72600D01*
X73000Y-85050D01*
Y-84650D02*
X73200Y-84450D01*
X73400D01*
X73200Y-84250D01*
X73400Y-84050D01*
X73200D01*
X73000Y-83850D01*
X72800Y-84050D01*
X72600D01*
X72800Y-84250D01*
X72600Y-84450D01*
X72800D01*
X73000Y-84650D01*
X-25050Y-22300D02*
X-24650D01*
X-24250Y-21900D01*
X-23850Y-22300D01*
X-23450D01*
Y-21900D01*
X-23850Y-21500D01*
X-23450Y-21100D01*
Y-20700D01*
X-23850D01*
X-24250Y-21100D01*
X-24650Y-20700D01*
X-25050D01*
Y-21100D01*
X-24650Y-21500D01*
X-25050Y-21900D01*
Y-22300D01*
X-24650Y-21900D02*
X-24450D01*
X-24250Y-21700D01*
X-24050Y-21900D01*
X-23850D01*
Y-21700D01*
X-24050Y-21500D01*
X-23850Y-21300D01*
Y-21100D01*
X-24050D01*
X-24250Y-21300D01*
X-24450Y-21100D01*
X-24650D01*
Y-21300D01*
X-24450Y-21500D01*
X-24650Y-21700D01*
Y-21900D01*
X84200Y86700D02*
X84600D01*
X85000Y87100D01*
X85400Y86700D01*
X85800D01*
Y87100D01*
X85400Y87500D01*
X85800Y87900D01*
Y88300D01*
X85400D01*
X85000Y87900D01*
X84600Y88300D01*
X84200D01*
Y87900D01*
X84600Y87500D01*
X84200Y87100D01*
Y86700D01*
X84600Y87100D02*
X84800D01*
X85000Y87300D01*
X85200Y87100D01*
X85400D01*
Y87300D01*
X85200Y87500D01*
X85400Y87700D01*
Y87900D01*
X85200D01*
X85000Y87700D01*
X84800Y87900D01*
X84600D01*
Y87700D01*
X84800Y87500D01*
X84600Y87300D01*
Y87100D01*
X213150Y52600D02*
X214350Y53800D01*
X215550D01*
X214350Y55000D01*
X215550Y56200D01*
X214350D01*
X213150Y57400D01*
X211950Y56200D01*
X210750D01*
X211950Y55000D01*
X210750Y53800D01*
X211950D01*
X213150Y52600D01*
Y53600D02*
X213850Y54300D01*
X214550D01*
X213850Y55000D01*
X214550Y55700D01*
X213850D01*
X213150Y56400D01*
X212450Y55700D01*
X211750D01*
X212450Y55000D01*
X211750Y54300D01*
X212450D01*
X213150Y53600D01*
X210750Y40600D02*
X211950Y43000D01*
X210750Y45400D01*
X213150Y44200D01*
X215550Y45400D01*
X214350Y43000D01*
X215550Y40600D01*
X213150Y41800D01*
X210750Y40600D01*
X211750Y41600D02*
X212450Y43000D01*
X211750Y44400D01*
X213150Y43700D01*
X214550Y44400D01*
X213850Y43000D01*
X214550Y41600D01*
X213150Y42300D01*
X211750Y41600D01*
X210750Y31000D02*
X213150Y33400D01*
X215550Y31000D01*
X213150Y28600D01*
X210750Y31000D01*
Y16600D02*
X211950D01*
X213150Y17800D01*
X214350Y16600D01*
X215550D01*
Y17800D01*
X214350Y19000D01*
X215550Y20200D01*
Y21400D01*
X214350D01*
X213150Y20200D01*
X211950Y21400D01*
X210750D01*
Y20200D01*
X211950Y19000D01*
X210750Y17800D01*
Y16600D01*
X211750Y17600D02*
X212450D01*
X213150Y18300D01*
X213850Y17600D01*
X214550D01*
Y18300D01*
X213850Y19000D01*
X214550Y19700D01*
Y20400D01*
X213850D01*
X213150Y19700D01*
X212450Y20400D01*
X211750D01*
Y19700D01*
X212450Y19000D01*
X211750Y18300D01*
Y17600D01*
X211950Y5800D02*
Y4600D01*
X214350D01*
Y5800D01*
X215550D01*
Y8200D01*
X214350D01*
Y9400D01*
X211950D01*
Y8200D01*
X210750D01*
Y5800D01*
X211950D01*
X212450Y6300D02*
Y5600D01*
X213850D01*
Y6300D01*
X214550D01*
Y7700D01*
X213850D01*
Y8400D01*
X212450D01*
Y7700D01*
X211750D01*
Y6300D01*
X212450D01*
X210750Y-7400D02*
Y-2600D01*
X215550D01*
Y-7400D01*
X210750D01*
Y-19400D02*
X211950D01*
X213150Y-18200D01*
X214350Y-19400D01*
X215550D01*
Y-18200D01*
X214350Y-17000D01*
X215550Y-15800D01*
Y-14600D01*
X214350D01*
X213150Y-15800D01*
X211950Y-14600D01*
X210750D01*
Y-15800D01*
X211950Y-17000D01*
X210750Y-18200D01*
Y-19400D01*
X213150Y-31400D02*
X210750Y-26600D01*
X215550D01*
X213150Y-31400D01*
X211950Y-42200D02*
Y-43400D01*
X214350D01*
Y-42200D01*
X215550D01*
Y-39800D01*
X214350D01*
Y-38600D01*
X211950D01*
Y-39800D01*
X210750D01*
Y-42200D01*
X211950D01*
X210750Y-67400D02*
Y-62600D01*
X215550D01*
Y-67400D01*
X210750D01*
X211750Y-66400D02*
Y-63600D01*
X214550D01*
Y-66400D01*
X211750D01*
X213150Y-79400D02*
X210750Y-74600D01*
X215550D01*
X213150Y-79400D01*
Y-78400D02*
X211750Y-75600D01*
X214550D01*
X213150Y-78400D01*
X210750Y-91400D02*
X211950Y-89000D01*
X210750Y-86600D01*
X213150Y-87800D01*
X215550Y-86600D01*
X214350Y-89000D01*
X215550Y-91400D01*
X213150Y-90200D01*
X210750Y-91400D01*
X213150Y-103400D02*
X214350Y-102200D01*
X215550D01*
X214350Y-101000D01*
X215550Y-99800D01*
X214350D01*
X213150Y-98600D01*
X211950Y-99800D01*
X210750D01*
X211950Y-101000D01*
X210750Y-102200D01*
X211950D01*
X213150Y-103400D01*
D15*
X157627Y9047D02*
G03*
X157627Y9047I-800J0D01*
G01*
Y-42724D02*
G03*
X157627Y-42724I-800J0D01*
G01*
X157800Y79772D02*
G03*
X157800Y79772I-800J0D01*
G01*
Y28000D02*
G03*
X157800Y28000I-800J0D01*
G01*
X-110200Y50008D02*
G03*
X-110200Y50008I-800J0D01*
G01*
X-49200Y73250D02*
G03*
X-49200Y73250I-800J0D01*
G01*
X-59200D02*
G03*
X-59200Y73250I-800J0D01*
G01*
X550Y14250D02*
G03*
X550Y14250I-800J0D01*
G01*
X-22497Y45047D02*
G03*
X-22497Y45047I-800J0D01*
G01*
X6300Y16750D02*
G03*
X6300Y16750I-800J0D01*
G01*
X5050Y20500D02*
G03*
X5050Y20500I-800J0D01*
G01*
X-89458Y50008D02*
G03*
X-89458Y50008I-800J0D01*
G01*
X-67450Y50000D02*
G03*
X-67450Y50000I-800J0D01*
G01*
X26050Y43000D02*
G03*
X26050Y43000I-800J0D01*
G01*
X25050Y47500D02*
G03*
X25050Y47500I-800J0D01*
G01*
X-22873Y58827D02*
G03*
X-22873Y58827I-800J0D01*
G01*
X-69700Y24250D02*
G03*
X-69700Y24250I-800J0D01*
G01*
X-16700D02*
G03*
X-16700Y24250I-800J0D01*
G01*
X-75450Y22000D02*
G03*
X-75450Y22000I-800J0D01*
G01*
X-11950D02*
G03*
X-11950Y22000I-800J0D01*
G01*
X-99450Y22750D02*
G03*
X-99450Y22750I-800J0D01*
G01*
X-16700Y19500D02*
G03*
X-16700Y19500I-800J0D01*
G01*
X-102950Y25000D02*
G03*
X-102950Y25000I-800J0D01*
G01*
X-99450Y27750D02*
G03*
X-99450Y27750I-800J0D01*
G01*
X-59200Y50250D02*
G03*
X-59200Y50250I-800J0D01*
G01*
X-32950Y70250D02*
G03*
X-32950Y70250I-800J0D01*
G01*
X-2950Y25250D02*
G03*
X-2950Y25250I-800J0D01*
G01*
X-22450Y41500D02*
G03*
X-22450Y41500I-800J0D01*
G01*
X-22950Y38000D02*
G03*
X-22950Y38000I-800J0D01*
G01*
X-85950Y31500D02*
G03*
X-85950Y31500I-800J0D01*
G01*
X-22779Y52921D02*
G03*
X-22779Y52921I-800J0D01*
G01*
X-22700Y49000D02*
G03*
X-22700Y49000I-800J0D01*
G01*
X34550Y37173D02*
G03*
X34550Y37173I-800J0D01*
G01*
X-155952Y-21748D02*
G03*
X-155952Y-21748I-800J0D01*
G01*
X6050Y1000D02*
G03*
X6050Y1000I-800J0D01*
G01*
X14300D02*
G03*
X14300Y1000I-800J0D01*
G01*
X28050Y58750D02*
G03*
X28050Y58750I-800J0D01*
G01*
X16745Y63195D02*
G03*
X16745Y63195I-800J0D01*
G01*
X3690Y76250D02*
G03*
X3690Y76250I-800J0D01*
G01*
X28050Y75750D02*
G03*
X28050Y75750I-800J0D01*
G01*
X4300Y24000D02*
G03*
X4300Y24000I-800J0D01*
G01*
X100916Y79616D02*
G03*
X100916Y79616I-800J0D01*
G01*
X88284Y74984D02*
G03*
X88284Y74984I-800J0D01*
G01*
X85300Y53000D02*
G03*
X85300Y53000I-800J0D01*
G01*
X100546Y40004D02*
G03*
X100546Y40004I-800J0D01*
G01*
X62546D02*
G03*
X62546Y40004I-800J0D01*
G01*
X84800Y46500D02*
G03*
X84800Y46500I-800J0D01*
G01*
X59050Y42500D02*
G03*
X59050Y42500I-800J0D01*
G01*
D16*
X-110600Y50008D02*
G03*
X-110600Y50008I-400J0D01*
G01*
X-49600Y73250D02*
G03*
X-49600Y73250I-400J0D01*
G01*
X-59600D02*
G03*
X-59600Y73250I-400J0D01*
G01*
X150Y14250D02*
G03*
X150Y14250I-400J0D01*
G01*
X-22897Y45047D02*
G03*
X-22897Y45047I-400J0D01*
G01*
X5900Y16750D02*
G03*
X5900Y16750I-400J0D01*
G01*
X4650Y20500D02*
G03*
X4650Y20500I-400J0D01*
G01*
X-89858Y50008D02*
G03*
X-89858Y50008I-400J0D01*
G01*
X-67850Y50000D02*
G03*
X-67850Y50000I-400J0D01*
G01*
X25650Y43000D02*
G03*
X25650Y43000I-400J0D01*
G01*
X24650Y47500D02*
G03*
X24650Y47500I-400J0D01*
G01*
X-23273Y58827D02*
G03*
X-23273Y58827I-400J0D01*
G01*
X-70100Y24250D02*
G03*
X-70100Y24250I-400J0D01*
G01*
X-17100D02*
G03*
X-17100Y24250I-400J0D01*
G01*
X-75850Y22000D02*
G03*
X-75850Y22000I-400J0D01*
G01*
X-12350D02*
G03*
X-12350Y22000I-400J0D01*
G01*
X-99850Y22750D02*
G03*
X-99850Y22750I-400J0D01*
G01*
X-17100Y19500D02*
G03*
X-17100Y19500I-400J0D01*
G01*
X-103350Y25000D02*
G03*
X-103350Y25000I-400J0D01*
G01*
X-99850Y27750D02*
G03*
X-99850Y27750I-400J0D01*
G01*
X-59600Y50250D02*
G03*
X-59600Y50250I-400J0D01*
G01*
X-33350Y70250D02*
G03*
X-33350Y70250I-400J0D01*
G01*
X-3350Y25250D02*
G03*
X-3350Y25250I-400J0D01*
G01*
X-22850Y41500D02*
G03*
X-22850Y41500I-400J0D01*
G01*
X-23350Y38000D02*
G03*
X-23350Y38000I-400J0D01*
G01*
X-86350Y31500D02*
G03*
X-86350Y31500I-400J0D01*
G01*
X-23179Y52921D02*
G03*
X-23179Y52921I-400J0D01*
G01*
X-23100Y49000D02*
G03*
X-23100Y49000I-400J0D01*
G01*
X34150Y37173D02*
G03*
X34150Y37173I-400J0D01*
G01*
X-156352Y-21748D02*
G03*
X-156352Y-21748I-400J0D01*
G01*
X5650Y1000D02*
G03*
X5650Y1000I-400J0D01*
G01*
X13900D02*
G03*
X13900Y1000I-400J0D01*
G01*
X27650Y58750D02*
G03*
X27650Y58750I-400J0D01*
G01*
X16345Y63195D02*
G03*
X16345Y63195I-400J0D01*
G01*
X3290Y76250D02*
G03*
X3290Y76250I-400J0D01*
G01*
X27650Y75750D02*
G03*
X27650Y75750I-400J0D01*
G01*
X3900Y24000D02*
G03*
X3900Y24000I-400J0D01*
G01*
X100516Y79616D02*
G03*
X100516Y79616I-400J0D01*
G01*
X87884Y74984D02*
G03*
X87884Y74984I-400J0D01*
G01*
X84900Y53000D02*
G03*
X84900Y53000I-400J0D01*
G01*
X100146Y40004D02*
G03*
X100146Y40004I-400J0D01*
G01*
X62146D02*
G03*
X62146Y40004I-400J0D01*
G01*
X84400Y46500D02*
G03*
X84400Y46500I-400J0D01*
G01*
X58650Y42500D02*
G03*
X58650Y42500I-400J0D01*
G01*
D17*
X215548Y84398D02*
X214349Y85598D01*
X211950D01*
X210750Y84398D01*
Y83198D01*
X211950Y81999D01*
X214349D01*
X215548Y80799D01*
Y79600D01*
X214349Y78400D01*
X211950D01*
X210750Y79600D01*
X217948Y83198D02*
Y79600D01*
X219147Y78400D01*
X222746D01*
Y77200D01*
X221547Y76001D01*
X220347D01*
X222746Y78400D02*
Y83198D01*
X225145Y78400D02*
Y83198D01*
X226345D01*
X227545Y81999D01*
Y78400D01*
Y81999D01*
X228744Y83198D01*
X229944Y81999D01*
Y78400D01*
X232343Y85598D02*
Y78400D01*
X235942D01*
X237141Y79600D01*
Y80799D01*
Y81999D01*
X235942Y83198D01*
X232343D01*
X240740Y78400D02*
X243140D01*
X244339Y79600D01*
Y81999D01*
X243140Y83198D01*
X240740D01*
X239541Y81999D01*
Y79600D01*
X240740Y78400D01*
X246738D02*
X249138D01*
X247938D01*
Y85598D01*
X246738D01*
X261138D02*
Y78400D01*
Y81999D01*
X265936D01*
Y85598D01*
Y78400D01*
X268335D02*
X270735D01*
X269535D01*
Y83198D01*
X268335D01*
X275533Y84398D02*
Y83198D01*
X274333D01*
X276732D01*
X275533D01*
Y79600D01*
X276732Y78400D01*
X292327Y84398D02*
X291128Y85598D01*
X288729D01*
X287529Y84398D01*
Y79600D01*
X288729Y78400D01*
X291128D01*
X292327Y79600D01*
X295926Y78400D02*
X298325D01*
X299525Y79600D01*
Y81999D01*
X298325Y83198D01*
X295926D01*
X294727Y81999D01*
Y79600D01*
X295926Y78400D01*
X301924Y83198D02*
Y79600D01*
X303124Y78400D01*
X306723D01*
Y83198D01*
X309122Y78400D02*
Y83198D01*
X312721D01*
X313920Y81999D01*
Y78400D01*
X317519Y84398D02*
Y83198D01*
X316320D01*
X318719D01*
X317519D01*
Y79600D01*
X318719Y78400D01*
X335517Y85598D02*
X330719D01*
Y81999D01*
X333118D01*
X330719D01*
Y78400D01*
X337917D02*
X340316D01*
X339116D01*
Y83198D01*
X337917D01*
X343915Y78400D02*
Y83198D01*
X347514D01*
X348713Y81999D01*
Y78400D01*
X351112D02*
X353512D01*
X352312D01*
Y83198D01*
X351112D01*
X357110Y78400D02*
X360709D01*
X361909Y79600D01*
X360709Y80799D01*
X358310D01*
X357110Y81999D01*
X358310Y83198D01*
X361909D01*
X364308Y85598D02*
Y78400D01*
Y81999D01*
X365508Y83198D01*
X367907D01*
X369107Y81999D01*
Y78400D01*
X375105D02*
X372705D01*
X371506Y79600D01*
Y81999D01*
X372705Y83198D01*
X375105D01*
X376304Y81999D01*
Y80799D01*
X371506D01*
X383502Y85598D02*
Y78400D01*
X379903D01*
X378703Y79600D01*
Y81999D01*
X379903Y83198D01*
X383502D01*
X393099Y85598D02*
Y78400D01*
Y81999D01*
X397897D01*
Y85598D01*
Y78400D01*
X401496D02*
X403895D01*
X405095Y79600D01*
Y81999D01*
X403895Y83198D01*
X401496D01*
X400296Y81999D01*
Y79600D01*
X401496Y78400D01*
X407494D02*
X409893D01*
X408694D01*
Y85598D01*
X407494D01*
X417091Y78400D02*
X414692D01*
X413492Y79600D01*
Y81999D01*
X414692Y83198D01*
X417091D01*
X418291Y81999D01*
Y80799D01*
X413492D01*
X432686Y84398D02*
X431486Y85598D01*
X429087D01*
X427887Y84398D01*
Y83198D01*
X429087Y81999D01*
X431486D01*
X432686Y80799D01*
Y79600D01*
X431486Y78400D01*
X429087D01*
X427887Y79600D01*
X435085Y78400D02*
X437484D01*
X436285D01*
Y83198D01*
X435085D01*
X441083D02*
X445882D01*
X441083Y78400D01*
X445882D01*
X451880D02*
X449480D01*
X448281Y79600D01*
Y81999D01*
X449480Y83198D01*
X451880D01*
X453079Y81999D01*
Y80799D01*
X448281D01*
X465079Y78400D02*
Y85598D01*
X468678D01*
X469878Y84398D01*
Y81999D01*
X468678Y80799D01*
X465079D01*
X472277Y78400D02*
X474676D01*
X473477D01*
Y85598D01*
X472277D01*
X479475Y83198D02*
X481874D01*
X483074Y81999D01*
Y78400D01*
X479475D01*
X478275Y79600D01*
X479475Y80799D01*
X483074D01*
X486672Y84398D02*
Y83198D01*
X485473D01*
X487872D01*
X486672D01*
Y79600D01*
X487872Y78400D01*
X495070D02*
X492670D01*
X491471Y79600D01*
Y81999D01*
X492670Y83198D01*
X495070D01*
X496269Y81999D01*
Y80799D01*
X491471D01*
X503467Y85598D02*
Y78400D01*
X499868D01*
X498668Y79600D01*
Y81999D01*
X499868Y83198D01*
X503467D01*
X515467Y85598D02*
Y78400D01*
Y81999D01*
X520265D01*
Y85598D01*
Y78400D01*
X523864D02*
X526263D01*
X527463Y79600D01*
Y81999D01*
X526263Y83198D01*
X523864D01*
X522665Y81999D01*
Y79600D01*
X523864Y78400D01*
X529862D02*
X532262D01*
X531062D01*
Y85598D01*
X529862D01*
X539459Y78400D02*
X537060D01*
X535860Y79600D01*
Y81999D01*
X537060Y83198D01*
X539459D01*
X540659Y81999D01*
Y80799D01*
X535860D01*
X550256Y85598D02*
X555054D01*
X552655D01*
Y78400D01*
X557453Y83198D02*
Y79600D01*
X558653Y78400D01*
X562252D01*
Y77200D01*
X561052Y76001D01*
X559853D01*
X562252Y78400D02*
Y83198D01*
X564651Y76001D02*
Y83198D01*
X568250D01*
X569449Y81999D01*
Y79600D01*
X568250Y78400D01*
X564651D01*
X575448D02*
X573048D01*
X571849Y79600D01*
Y81999D01*
X573048Y83198D01*
X575448D01*
X576647Y81999D01*
Y80799D01*
X571849D01*
X201950Y89200D02*
X588647D01*
X201950Y73000D02*
X588647D01*
X201950Y89200D02*
Y-119000D01*
X588647Y89200D02*
Y-119000D01*
X256738Y89200D02*
Y-119000D01*
X326319Y89200D02*
Y-119000D01*
X460679Y89200D02*
Y-119000D01*
X511067Y89200D02*
Y-119000D01*
X201950Y-107000D02*
X588647D01*
X201950Y-119000D02*
X588647D01*
D18*
X214550Y67000D02*
G03*
X214550Y67000I-1400J0D01*
G01*
D19*
X264137Y64000D02*
Y69998D01*
X261138Y66999D01*
X265136D01*
X270135Y64000D02*
Y69998D01*
X267136Y66999D01*
X271134D01*
X330719Y64000D02*
X332718D01*
X331719D01*
Y69998D01*
X330719Y68998D01*
X335717D02*
X336717Y69998D01*
X338716D01*
X339716Y68998D01*
Y65000D01*
X338716Y64000D01*
X336717D01*
X335717Y65000D01*
Y68998D01*
X341715Y64000D02*
Y67999D01*
X342715D01*
X343715Y66999D01*
Y64000D01*
Y66999D01*
X344714Y67999D01*
X345714Y66999D01*
Y64000D01*
X347713D02*
X349713D01*
X348713D01*
Y67999D01*
X347713D01*
X352712Y64000D02*
X354711D01*
X353712D01*
Y69998D01*
X352712D01*
X365708Y64000D02*
X363708Y65999D01*
Y67999D01*
X365708Y69998D01*
X368707Y68998D02*
X369706Y69998D01*
X371706D01*
X372705Y68998D01*
Y65000D01*
X371706Y64000D01*
X369706D01*
X368707Y65000D01*
Y68998D01*
X374705Y64000D02*
Y65000D01*
X375704D01*
Y64000D01*
X374705D01*
X383702D02*
X379703D01*
X383702Y67999D01*
Y68998D01*
X382702Y69998D01*
X380703D01*
X379703Y68998D01*
X389700Y69998D02*
X385701D01*
Y66999D01*
X387701Y67999D01*
X388700D01*
X389700Y66999D01*
Y65000D01*
X388700Y64000D01*
X386701D01*
X385701Y65000D01*
X394698Y64000D02*
Y69998D01*
X391699Y66999D01*
X395698D01*
X397697Y64000D02*
Y67999D01*
X398697D01*
X399697Y66999D01*
Y64000D01*
Y66999D01*
X400696Y67999D01*
X401696Y66999D01*
Y64000D01*
X403695D02*
Y67999D01*
X404695D01*
X405695Y66999D01*
Y64000D01*
Y66999D01*
X406694Y67999D01*
X407694Y66999D01*
Y64000D01*
X409693D02*
X411693Y65999D01*
Y67999D01*
X409693Y69998D01*
X465079Y64000D02*
Y69998D01*
X468078D01*
X469078Y68998D01*
Y66999D01*
X468078Y65999D01*
X465079D01*
X471077Y69998D02*
X475076D01*
X473077D01*
Y64000D01*
X477075Y69998D02*
Y64000D01*
Y66999D01*
X481074D01*
Y69998D01*
Y64000D01*
X515467D02*
Y69998D01*
X518466D01*
X519466Y68998D01*
Y66999D01*
X518466Y65999D01*
X515467D01*
X517466D02*
X519466Y64000D01*
X522465D02*
X524464D01*
X525464Y65000D01*
Y66999D01*
X524464Y67999D01*
X522465D01*
X521465Y66999D01*
Y65000D01*
X522465Y64000D01*
X527463Y67999D02*
Y65000D01*
X528463Y64000D01*
X531462D01*
Y67999D01*
X533461Y64000D02*
Y67999D01*
X536460D01*
X537460Y66999D01*
Y64000D01*
X543458Y69998D02*
Y64000D01*
X540459D01*
X539459Y65000D01*
Y66999D01*
X540459Y67999D01*
X543458D01*
X265136Y52000D02*
X261138D01*
X265136Y55999D01*
Y56998D01*
X264137Y57998D01*
X262137D01*
X261138Y56998D01*
X330719Y52000D02*
X332718D01*
X331719D01*
Y57998D01*
X330719Y56998D01*
X339716Y57998D02*
X335717D01*
Y54999D01*
X337717Y55999D01*
X338716D01*
X339716Y54999D01*
Y53000D01*
X338716Y52000D01*
X336717D01*
X335717Y53000D01*
X341715Y52000D02*
Y55999D01*
X342715D01*
X343715Y54999D01*
Y52000D01*
Y54999D01*
X344714Y55999D01*
X345714Y54999D01*
Y52000D01*
X347713D02*
X349713D01*
X348713D01*
Y55999D01*
X347713D01*
X352712Y52000D02*
X354711D01*
X353712D01*
Y57998D01*
X352712D01*
X365708Y52000D02*
X363708Y53999D01*
Y55999D01*
X365708Y57998D01*
X368707Y56998D02*
X369706Y57998D01*
X371706D01*
X372705Y56998D01*
Y53000D01*
X371706Y52000D01*
X369706D01*
X368707Y53000D01*
Y56998D01*
X374705Y52000D02*
Y53000D01*
X375704D01*
Y52000D01*
X374705D01*
X379703Y56998D02*
X380703Y57998D01*
X382702D01*
X383702Y56998D01*
Y55999D01*
X382702Y54999D01*
X381702D01*
X382702D01*
X383702Y53999D01*
Y53000D01*
X382702Y52000D01*
X380703D01*
X379703Y53000D01*
X385701Y56998D02*
X386701Y57998D01*
X388700D01*
X389700Y56998D01*
Y55999D01*
X388700Y54999D01*
X389700Y53999D01*
Y53000D01*
X388700Y52000D01*
X386701D01*
X385701Y53000D01*
Y53999D01*
X386701Y54999D01*
X385701Y55999D01*
Y56998D01*
X386701Y54999D02*
X388700D01*
X391699Y52000D02*
X393699D01*
X392699D01*
Y57998D01*
X391699Y56998D01*
X396698Y52000D02*
Y55999D01*
X397697D01*
X398697Y54999D01*
Y52000D01*
Y54999D01*
X399697Y55999D01*
X400696Y54999D01*
Y52000D01*
X402696D02*
Y55999D01*
X403695D01*
X404695Y54999D01*
Y52000D01*
Y54999D01*
X405695Y55999D01*
X406694Y54999D01*
Y52000D01*
X408694D02*
X410693Y53999D01*
Y55999D01*
X408694Y57998D01*
X465079Y52000D02*
Y57998D01*
X468078D01*
X469078Y56998D01*
Y54999D01*
X468078Y53999D01*
X465079D01*
X471077Y57998D02*
X475076D01*
X473077D01*
Y52000D01*
X477075Y57998D02*
Y52000D01*
Y54999D01*
X481074D01*
Y57998D01*
Y52000D01*
X515467D02*
Y57998D01*
X518466D01*
X519466Y56998D01*
Y54999D01*
X518466Y53999D01*
X515467D01*
X517466D02*
X519466Y52000D01*
X522465D02*
X524464D01*
X525464Y53000D01*
Y54999D01*
X524464Y55999D01*
X522465D01*
X521465Y54999D01*
Y53000D01*
X522465Y52000D01*
X527463Y55999D02*
Y53000D01*
X528463Y52000D01*
X531462D01*
Y55999D01*
X533461Y52000D02*
Y55999D01*
X536460D01*
X537460Y54999D01*
Y52000D01*
X543458Y57998D02*
Y52000D01*
X540459D01*
X539459Y53000D01*
Y54999D01*
X540459Y55999D01*
X543458D01*
X265136Y45998D02*
X261138D01*
Y42999D01*
X263137Y43999D01*
X264137D01*
X265136Y42999D01*
Y41000D01*
X264137Y40000D01*
X262137D01*
X261138Y41000D01*
X334718Y40000D02*
X330719D01*
X334718Y43999D01*
Y44998D01*
X333718Y45998D01*
X331719D01*
X330719Y44998D01*
X336717D02*
X337717Y45998D01*
X339716D01*
X340716Y44998D01*
Y41000D01*
X339716Y40000D01*
X337717D01*
X336717Y41000D01*
Y44998D01*
X342715Y40000D02*
Y43999D01*
X343715D01*
X344714Y42999D01*
Y40000D01*
Y42999D01*
X345714Y43999D01*
X346714Y42999D01*
Y40000D01*
X348713D02*
X350712D01*
X349713D01*
Y43999D01*
X348713D01*
X353712Y40000D02*
X355711D01*
X354711D01*
Y45998D01*
X353712D01*
X366707Y40000D02*
X364708Y41999D01*
Y43999D01*
X366707Y45998D01*
X369706Y44998D02*
X370706Y45998D01*
X372705D01*
X373705Y44998D01*
Y41000D01*
X372705Y40000D01*
X370706D01*
X369706Y41000D01*
Y44998D01*
X375704Y40000D02*
Y41000D01*
X376704D01*
Y40000D01*
X375704D01*
X384701Y45998D02*
X380703D01*
Y42999D01*
X382702Y43999D01*
X383702D01*
X384701Y42999D01*
Y41000D01*
X383702Y40000D01*
X381702D01*
X380703Y41000D01*
X386701Y44998D02*
X387701Y45998D01*
X389700D01*
X390700Y44998D01*
Y41000D01*
X389700Y40000D01*
X387701D01*
X386701Y41000D01*
Y44998D01*
X392699D02*
X393699Y45998D01*
X395698D01*
X396698Y44998D01*
Y43999D01*
X395698Y42999D01*
X396698Y41999D01*
Y41000D01*
X395698Y40000D01*
X393699D01*
X392699Y41000D01*
Y41999D01*
X393699Y42999D01*
X392699Y43999D01*
Y44998D01*
X393699Y42999D02*
X395698D01*
X398697Y40000D02*
Y43999D01*
X399697D01*
X400696Y42999D01*
Y40000D01*
Y42999D01*
X401696Y43999D01*
X402696Y42999D01*
Y40000D01*
X404695D02*
Y43999D01*
X405695D01*
X406694Y42999D01*
Y40000D01*
Y42999D01*
X407694Y43999D01*
X408694Y42999D01*
Y40000D01*
X410693D02*
X412692Y41999D01*
Y43999D01*
X410693Y45998D01*
X465079Y40000D02*
Y45998D01*
X468078D01*
X469078Y44998D01*
Y42999D01*
X468078Y41999D01*
X465079D01*
X471077Y45998D02*
X475076D01*
X473077D01*
Y40000D01*
X477075Y45998D02*
Y40000D01*
Y42999D01*
X481074D01*
Y45998D01*
Y40000D01*
X515467D02*
Y45998D01*
X518466D01*
X519466Y44998D01*
Y42999D01*
X518466Y41999D01*
X515467D01*
X517466D02*
X519466Y40000D01*
X522465D02*
X524464D01*
X525464Y41000D01*
Y42999D01*
X524464Y43999D01*
X522465D01*
X521465Y42999D01*
Y41000D01*
X522465Y40000D01*
X527463Y43999D02*
Y41000D01*
X528463Y40000D01*
X531462D01*
Y43999D01*
X533461Y40000D02*
Y43999D01*
X536460D01*
X537460Y42999D01*
Y40000D01*
X543458Y45998D02*
Y40000D01*
X540459D01*
X539459Y41000D01*
Y42999D01*
X540459Y43999D01*
X543458D01*
X265136Y28000D02*
X261138D01*
X265136Y31999D01*
Y32998D01*
X264137Y33998D01*
X262137D01*
X261138Y32998D01*
X334718Y28000D02*
X330719D01*
X334718Y31999D01*
Y32998D01*
X333718Y33998D01*
X331719D01*
X330719Y32998D01*
X336717D02*
X337717Y33998D01*
X339716D01*
X340716Y32998D01*
Y31999D01*
X339716Y30999D01*
X338716D01*
X339716D01*
X340716Y29999D01*
Y29000D01*
X339716Y28000D01*
X337717D01*
X336717Y29000D01*
X342715Y28000D02*
Y29000D01*
X343715D01*
Y28000D01*
X342715D01*
X351712Y33998D02*
X349713Y32998D01*
X347713Y30999D01*
Y29000D01*
X348713Y28000D01*
X350712D01*
X351712Y29000D01*
Y29999D01*
X350712Y30999D01*
X347713D01*
X357710Y28000D02*
X353712D01*
X357710Y31999D01*
Y32998D01*
X356711Y33998D01*
X354711D01*
X353712Y32998D01*
X363708Y28000D02*
X359710D01*
X363708Y31999D01*
Y32998D01*
X362709Y33998D01*
X360709D01*
X359710Y32998D01*
X365708Y28000D02*
Y31999D01*
X366707D01*
X367707Y30999D01*
Y28000D01*
Y30999D01*
X368707Y31999D01*
X369706Y30999D01*
Y28000D01*
X371706D02*
X373705D01*
X372705D01*
Y31999D01*
X371706D01*
X376704Y28000D02*
X378703D01*
X377704D01*
Y33998D01*
X376704D01*
X389700Y28000D02*
X387701Y29999D01*
Y31999D01*
X389700Y33998D01*
X392699Y32998D02*
X393699Y33998D01*
X395698D01*
X396698Y32998D01*
Y29000D01*
X395698Y28000D01*
X393699D01*
X392699Y29000D01*
Y32998D01*
X398697Y28000D02*
Y29000D01*
X399697D01*
Y28000D01*
X398697D01*
X407694Y33998D02*
X405695Y32998D01*
X403695Y30999D01*
Y29000D01*
X404695Y28000D01*
X406694D01*
X407694Y29000D01*
Y29999D01*
X406694Y30999D01*
X403695D01*
X409693Y28000D02*
Y31999D01*
X410693D01*
X411693Y30999D01*
Y28000D01*
Y30999D01*
X412692Y31999D01*
X413692Y30999D01*
Y28000D01*
X415691D02*
Y31999D01*
X416691D01*
X417691Y30999D01*
Y28000D01*
Y30999D01*
X418690Y31999D01*
X419690Y30999D01*
Y28000D01*
X421690D02*
X423689Y29999D01*
Y31999D01*
X421690Y33998D01*
X465079Y28000D02*
Y33998D01*
X468078D01*
X469078Y32998D01*
Y30999D01*
X468078Y29999D01*
X465079D01*
X471077Y33998D02*
X475076D01*
X473077D01*
Y28000D01*
X477075Y33998D02*
Y28000D01*
Y30999D01*
X481074D01*
Y33998D01*
Y28000D01*
X515467D02*
Y33998D01*
X518466D01*
X519466Y32998D01*
Y30999D01*
X518466Y29999D01*
X515467D01*
X517466D02*
X519466Y28000D01*
X522465D02*
X524464D01*
X525464Y29000D01*
Y30999D01*
X524464Y31999D01*
X522465D01*
X521465Y30999D01*
Y29000D01*
X522465Y28000D01*
X527463Y31999D02*
Y29000D01*
X528463Y28000D01*
X531462D01*
Y31999D01*
X533461Y28000D02*
Y31999D01*
X536460D01*
X537460Y30999D01*
Y28000D01*
X543458Y33998D02*
Y28000D01*
X540459D01*
X539459Y29000D01*
Y30999D01*
X540459Y31999D01*
X543458D01*
X261138Y20998D02*
X262137Y21998D01*
X264137D01*
X265136Y20998D01*
Y19999D01*
X264137Y18999D01*
X263137D01*
X264137D01*
X265136Y17999D01*
Y17000D01*
X264137Y16000D01*
X262137D01*
X261138Y17000D01*
X334718Y16000D02*
X330719D01*
X334718Y19999D01*
Y20998D01*
X333718Y21998D01*
X331719D01*
X330719Y20998D01*
X340716Y21998D02*
X336717D01*
Y18999D01*
X338716Y19999D01*
X339716D01*
X340716Y18999D01*
Y17000D01*
X339716Y16000D01*
X337717D01*
X336717Y17000D01*
X342715Y16000D02*
Y19999D01*
X343715D01*
X344714Y18999D01*
Y16000D01*
Y18999D01*
X345714Y19999D01*
X346714Y18999D01*
Y16000D01*
X348713D02*
X350712D01*
X349713D01*
Y19999D01*
X348713D01*
X353712Y16000D02*
X355711D01*
X354711D01*
Y21998D01*
X353712D01*
X366707Y16000D02*
X364708Y17999D01*
Y19999D01*
X366707Y21998D01*
X369706Y20998D02*
X370706Y21998D01*
X372705D01*
X373705Y20998D01*
Y17000D01*
X372705Y16000D01*
X370706D01*
X369706Y17000D01*
Y20998D01*
X375704Y16000D02*
Y17000D01*
X376704D01*
Y16000D01*
X375704D01*
X384701Y21998D02*
X382702Y20998D01*
X380703Y18999D01*
Y17000D01*
X381702Y16000D01*
X383702D01*
X384701Y17000D01*
Y17999D01*
X383702Y18999D01*
X380703D01*
X386701Y20998D02*
X387701Y21998D01*
X389700D01*
X390700Y20998D01*
Y19999D01*
X389700Y18999D01*
X388700D01*
X389700D01*
X390700Y17999D01*
Y17000D01*
X389700Y16000D01*
X387701D01*
X386701Y17000D01*
X396698Y21998D02*
X392699D01*
Y18999D01*
X394698Y19999D01*
X395698D01*
X396698Y18999D01*
Y17000D01*
X395698Y16000D01*
X393699D01*
X392699Y17000D01*
X398697Y16000D02*
Y19999D01*
X399697D01*
X400696Y18999D01*
Y16000D01*
Y18999D01*
X401696Y19999D01*
X402696Y18999D01*
Y16000D01*
X404695D02*
Y19999D01*
X405695D01*
X406694Y18999D01*
Y16000D01*
Y18999D01*
X407694Y19999D01*
X408694Y18999D01*
Y16000D01*
X410693D02*
X412692Y17999D01*
Y19999D01*
X410693Y21998D01*
X465079Y16000D02*
Y21998D01*
X468078D01*
X469078Y20998D01*
Y18999D01*
X468078Y17999D01*
X465079D01*
X471077Y21998D02*
X475076D01*
X473077D01*
Y16000D01*
X477075Y21998D02*
Y16000D01*
Y18999D01*
X481074D01*
Y21998D01*
Y16000D01*
X515467D02*
Y21998D01*
X518466D01*
X519466Y20998D01*
Y18999D01*
X518466Y17999D01*
X515467D01*
X517466D02*
X519466Y16000D01*
X522465D02*
X524464D01*
X525464Y17000D01*
Y18999D01*
X524464Y19999D01*
X522465D01*
X521465Y18999D01*
Y17000D01*
X522465Y16000D01*
X527463Y19999D02*
Y17000D01*
X528463Y16000D01*
X531462D01*
Y19999D01*
X533461Y16000D02*
Y19999D01*
X536460D01*
X537460Y18999D01*
Y16000D01*
X543458Y21998D02*
Y16000D01*
X540459D01*
X539459Y17000D01*
Y18999D01*
X540459Y19999D01*
X543458D01*
X261138Y4000D02*
X263137D01*
X262137D01*
Y9998D01*
X261138Y8998D01*
X334718Y4000D02*
X330719D01*
X334718Y7999D01*
Y8998D01*
X333718Y9998D01*
X331719D01*
X330719Y8998D01*
X336717D02*
X337717Y9998D01*
X339716D01*
X340716Y8998D01*
Y7999D01*
X339716Y6999D01*
X340716Y5999D01*
Y5000D01*
X339716Y4000D01*
X337717D01*
X336717Y5000D01*
Y5999D01*
X337717Y6999D01*
X336717Y7999D01*
Y8998D01*
X337717Y6999D02*
X339716D01*
X342715Y4000D02*
Y7999D01*
X343715D01*
X344714Y6999D01*
Y4000D01*
Y6999D01*
X345714Y7999D01*
X346714Y6999D01*
Y4000D01*
X348713D02*
X350712D01*
X349713D01*
Y7999D01*
X348713D01*
X353712Y4000D02*
X355711D01*
X354711D01*
Y9998D01*
X353712D01*
X366707Y4000D02*
X364708Y5999D01*
Y7999D01*
X366707Y9998D01*
X369706Y8998D02*
X370706Y9998D01*
X372705D01*
X373705Y8998D01*
Y5000D01*
X372705Y4000D01*
X370706D01*
X369706Y5000D01*
Y8998D01*
X375704Y4000D02*
Y5000D01*
X376704D01*
Y4000D01*
X375704D01*
X380703Y9998D02*
X384701D01*
Y8998D01*
X380703Y5000D01*
Y4000D01*
X386701D02*
X388700D01*
X387701D01*
Y9998D01*
X386701Y8998D01*
X391699Y4000D02*
X393699D01*
X392699D01*
Y9998D01*
X391699Y8998D01*
X400696Y4000D02*
X396698D01*
X400696Y7999D01*
Y8998D01*
X399697Y9998D01*
X397697D01*
X396698Y8998D01*
X402696Y4000D02*
Y7999D01*
X403695D01*
X404695Y6999D01*
Y4000D01*
Y6999D01*
X405695Y7999D01*
X406694Y6999D01*
Y4000D01*
X408694D02*
Y7999D01*
X409693D01*
X410693Y6999D01*
Y4000D01*
Y6999D01*
X411693Y7999D01*
X412692Y6999D01*
Y4000D01*
X414692D02*
X416691Y5999D01*
Y7999D01*
X414692Y9998D01*
X465079Y4000D02*
Y9998D01*
X468078D01*
X469078Y8998D01*
Y6999D01*
X468078Y5999D01*
X465079D01*
X471077Y9998D02*
X475076D01*
X473077D01*
Y4000D01*
X477075Y9998D02*
Y4000D01*
Y6999D01*
X481074D01*
Y9998D01*
Y4000D01*
X515467D02*
Y9998D01*
X518466D01*
X519466Y8998D01*
Y6999D01*
X518466Y5999D01*
X515467D01*
X517466D02*
X519466Y4000D01*
X522465D02*
X524464D01*
X525464Y5000D01*
Y6999D01*
X524464Y7999D01*
X522465D01*
X521465Y6999D01*
Y5000D01*
X522465Y4000D01*
X527463Y7999D02*
Y5000D01*
X528463Y4000D01*
X531462D01*
Y7999D01*
X533461Y4000D02*
Y7999D01*
X536460D01*
X537460Y6999D01*
Y4000D01*
X543458Y9998D02*
Y4000D01*
X540459D01*
X539459Y5000D01*
Y6999D01*
X540459Y7999D01*
X543458D01*
X264137Y-8000D02*
Y-2002D01*
X261138Y-5001D01*
X265136D01*
X330719Y-3002D02*
X331719Y-2002D01*
X333718D01*
X334718Y-3002D01*
Y-4001D01*
X333718Y-5001D01*
X332718D01*
X333718D01*
X334718Y-6001D01*
Y-7000D01*
X333718Y-8000D01*
X331719D01*
X330719Y-7000D01*
X336717Y-8000D02*
X338716D01*
X337717D01*
Y-2002D01*
X336717Y-3002D01*
X341715Y-8000D02*
Y-7000D01*
X342715D01*
Y-8000D01*
X341715D01*
X349713D02*
Y-2002D01*
X346714Y-5001D01*
X350712D01*
X352712Y-7000D02*
X353712Y-8000D01*
X355711D01*
X356711Y-7000D01*
Y-3002D01*
X355711Y-2002D01*
X353712D01*
X352712Y-3002D01*
Y-4001D01*
X353712Y-5001D01*
X356711D01*
X362709Y-2002D02*
X360709Y-3002D01*
X358710Y-5001D01*
Y-7000D01*
X359710Y-8000D01*
X361709D01*
X362709Y-7000D01*
Y-6001D01*
X361709Y-5001D01*
X358710D01*
X364708Y-8000D02*
Y-4001D01*
X365708D01*
X366707Y-5001D01*
Y-8000D01*
Y-5001D01*
X367707Y-4001D01*
X368707Y-5001D01*
Y-8000D01*
X370706D02*
X372705D01*
X371706D01*
Y-4001D01*
X370706D01*
X375704Y-8000D02*
X377704D01*
X376704D01*
Y-2002D01*
X375704D01*
X388700Y-8000D02*
X386701Y-6001D01*
Y-4001D01*
X388700Y-2002D01*
X391699Y-3002D02*
X392699Y-2002D01*
X394698D01*
X395698Y-3002D01*
Y-7000D01*
X394698Y-8000D01*
X392699D01*
X391699Y-7000D01*
Y-3002D01*
X397697Y-8000D02*
Y-7000D01*
X398697D01*
Y-8000D01*
X397697D01*
X402696Y-3002D02*
X403695Y-2002D01*
X405695D01*
X406694Y-3002D01*
Y-4001D01*
X405695Y-5001D01*
X406694Y-6001D01*
Y-7000D01*
X405695Y-8000D01*
X403695D01*
X402696Y-7000D01*
Y-6001D01*
X403695Y-5001D01*
X402696Y-4001D01*
Y-3002D01*
X403695Y-5001D02*
X405695D01*
X408694Y-8000D02*
Y-4001D01*
X409693D01*
X410693Y-5001D01*
Y-8000D01*
Y-5001D01*
X411693Y-4001D01*
X412692Y-5001D01*
Y-8000D01*
X414692D02*
Y-4001D01*
X415691D01*
X416691Y-5001D01*
Y-8000D01*
Y-5001D01*
X417691Y-4001D01*
X418690Y-5001D01*
Y-8000D01*
X420690D02*
X422689Y-6001D01*
Y-4001D01*
X420690Y-2002D01*
X465079Y-8000D02*
Y-2002D01*
X468078D01*
X469078Y-3002D01*
Y-5001D01*
X468078Y-6001D01*
X465079D01*
X471077Y-2002D02*
X475076D01*
X473077D01*
Y-8000D01*
X477075Y-2002D02*
Y-8000D01*
Y-5001D01*
X481074D01*
Y-2002D01*
Y-8000D01*
X515467D02*
Y-2002D01*
X518466D01*
X519466Y-3002D01*
Y-5001D01*
X518466Y-6001D01*
X515467D01*
X517466D02*
X519466Y-8000D01*
X522465D02*
X524464D01*
X525464Y-7000D01*
Y-5001D01*
X524464Y-4001D01*
X522465D01*
X521465Y-5001D01*
Y-7000D01*
X522465Y-8000D01*
X527463Y-4001D02*
Y-7000D01*
X528463Y-8000D01*
X531462D01*
Y-4001D01*
X533461Y-8000D02*
Y-4001D01*
X536460D01*
X537460Y-5001D01*
Y-8000D01*
X543458Y-2002D02*
Y-8000D01*
X540459D01*
X539459Y-7000D01*
Y-5001D01*
X540459Y-4001D01*
X543458D01*
X261138Y-20000D02*
X263137D01*
X262137D01*
Y-14002D01*
X261138Y-15002D01*
X270135Y-14002D02*
X268135Y-15002D01*
X266136Y-17001D01*
Y-19000D01*
X267136Y-20000D01*
X269135D01*
X270135Y-19000D01*
Y-18001D01*
X269135Y-17001D01*
X266136D01*
X330719Y-15002D02*
X331719Y-14002D01*
X333718D01*
X334718Y-15002D01*
Y-16001D01*
X333718Y-17001D01*
X332718D01*
X333718D01*
X334718Y-18001D01*
Y-19000D01*
X333718Y-20000D01*
X331719D01*
X330719Y-19000D01*
X340716Y-14002D02*
X336717D01*
Y-17001D01*
X338716Y-16001D01*
X339716D01*
X340716Y-17001D01*
Y-19000D01*
X339716Y-20000D01*
X337717D01*
X336717Y-19000D01*
X342715Y-20000D02*
Y-19000D01*
X343715D01*
Y-20000D01*
X342715D01*
X350712D02*
Y-14002D01*
X347713Y-17001D01*
X351712D01*
X353712Y-15002D02*
X354711Y-14002D01*
X356711D01*
X357710Y-15002D01*
Y-16001D01*
X356711Y-17001D01*
X355711D01*
X356711D01*
X357710Y-18001D01*
Y-19000D01*
X356711Y-20000D01*
X354711D01*
X353712Y-19000D01*
X359710Y-15002D02*
X360709Y-14002D01*
X362709D01*
X363708Y-15002D01*
Y-16001D01*
X362709Y-17001D01*
X361709D01*
X362709D01*
X363708Y-18001D01*
Y-19000D01*
X362709Y-20000D01*
X360709D01*
X359710Y-19000D01*
X365708Y-20000D02*
Y-16001D01*
X366707D01*
X367707Y-17001D01*
Y-20000D01*
Y-17001D01*
X368707Y-16001D01*
X369706Y-17001D01*
Y-20000D01*
X371706D02*
X373705D01*
X372705D01*
Y-16001D01*
X371706D01*
X376704Y-20000D02*
X378703D01*
X377704D01*
Y-14002D01*
X376704D01*
X389700Y-20000D02*
X387701Y-18001D01*
Y-16001D01*
X389700Y-14002D01*
X392699Y-15002D02*
X393699Y-14002D01*
X395698D01*
X396698Y-15002D01*
Y-19000D01*
X395698Y-20000D01*
X393699D01*
X392699Y-19000D01*
Y-15002D01*
X398697Y-20000D02*
Y-19000D01*
X399697D01*
Y-20000D01*
X398697D01*
X403695Y-19000D02*
X404695Y-20000D01*
X406694D01*
X407694Y-19000D01*
Y-15002D01*
X406694Y-14002D01*
X404695D01*
X403695Y-15002D01*
Y-16001D01*
X404695Y-17001D01*
X407694D01*
X409693Y-20000D02*
Y-16001D01*
X410693D01*
X411693Y-17001D01*
Y-20000D01*
Y-17001D01*
X412692Y-16001D01*
X413692Y-17001D01*
Y-20000D01*
X415691D02*
Y-16001D01*
X416691D01*
X417691Y-17001D01*
Y-20000D01*
Y-17001D01*
X418690Y-16001D01*
X419690Y-17001D01*
Y-20000D01*
X421690D02*
X423689Y-18001D01*
Y-16001D01*
X421690Y-14002D01*
X465079Y-20000D02*
Y-14002D01*
X468078D01*
X469078Y-15002D01*
Y-17001D01*
X468078Y-18001D01*
X465079D01*
X471077Y-14002D02*
X475076D01*
X473077D01*
Y-20000D01*
X477075Y-14002D02*
Y-20000D01*
Y-17001D01*
X481074D01*
Y-14002D01*
Y-20000D01*
X515467D02*
Y-14002D01*
X518466D01*
X519466Y-15002D01*
Y-17001D01*
X518466Y-18001D01*
X515467D01*
X517466D02*
X519466Y-20000D01*
X522465D02*
X524464D01*
X525464Y-19000D01*
Y-17001D01*
X524464Y-16001D01*
X522465D01*
X521465Y-17001D01*
Y-19000D01*
X522465Y-20000D01*
X527463Y-16001D02*
Y-19000D01*
X528463Y-20000D01*
X531462D01*
Y-16001D01*
X533461Y-20000D02*
Y-16001D01*
X536460D01*
X537460Y-17001D01*
Y-20000D01*
X543458Y-14002D02*
Y-20000D01*
X540459D01*
X539459Y-19000D01*
Y-17001D01*
X540459Y-16001D01*
X543458D01*
X265136Y-32000D02*
X261138D01*
X265136Y-28001D01*
Y-27002D01*
X264137Y-26002D01*
X262137D01*
X261138Y-27002D01*
X271134Y-26002D02*
X269135Y-27002D01*
X267136Y-29001D01*
Y-31000D01*
X268135Y-32000D01*
X270135D01*
X271134Y-31000D01*
Y-30001D01*
X270135Y-29001D01*
X267136D01*
X330719Y-27002D02*
X331719Y-26002D01*
X333718D01*
X334718Y-27002D01*
Y-28001D01*
X333718Y-29001D01*
X332718D01*
X333718D01*
X334718Y-30001D01*
Y-31000D01*
X333718Y-32000D01*
X331719D01*
X330719Y-31000D01*
X336717D02*
X337717Y-32000D01*
X339716D01*
X340716Y-31000D01*
Y-27002D01*
X339716Y-26002D01*
X337717D01*
X336717Y-27002D01*
Y-28001D01*
X337717Y-29001D01*
X340716D01*
X342715Y-32000D02*
Y-31000D01*
X343715D01*
Y-32000D01*
X342715D01*
X347713Y-27002D02*
X348713Y-26002D01*
X350712D01*
X351712Y-27002D01*
Y-28001D01*
X350712Y-29001D01*
X349713D01*
X350712D01*
X351712Y-30001D01*
Y-31000D01*
X350712Y-32000D01*
X348713D01*
X347713Y-31000D01*
X353712Y-26002D02*
X357710D01*
Y-27002D01*
X353712Y-31000D01*
Y-32000D01*
X359710D02*
Y-28001D01*
X360709D01*
X361709Y-29001D01*
Y-32000D01*
Y-29001D01*
X362709Y-28001D01*
X363708Y-29001D01*
Y-32000D01*
X365708D02*
X367707D01*
X366707D01*
Y-28001D01*
X365708D01*
X370706Y-32000D02*
X372705D01*
X371706D01*
Y-26002D01*
X370706D01*
X383702Y-32000D02*
X381702Y-30001D01*
Y-28001D01*
X383702Y-26002D01*
X386701Y-32000D02*
X388700D01*
X387701D01*
Y-26002D01*
X386701Y-27002D01*
X391699Y-32000D02*
Y-28001D01*
X392699D01*
X393699Y-29001D01*
Y-32000D01*
Y-29001D01*
X394698Y-28001D01*
X395698Y-29001D01*
Y-32000D01*
X397697D02*
Y-28001D01*
X398697D01*
X399697Y-29001D01*
Y-32000D01*
Y-29001D01*
X400696Y-28001D01*
X401696Y-29001D01*
Y-32000D01*
X403695D02*
X405695Y-30001D01*
Y-28001D01*
X403695Y-26002D01*
X465079Y-32000D02*
Y-26002D01*
X468078D01*
X469078Y-27002D01*
Y-29001D01*
X468078Y-30001D01*
X465079D01*
X471077Y-26002D02*
X475076D01*
X473077D01*
Y-32000D01*
X477075Y-26002D02*
Y-32000D01*
Y-29001D01*
X481074D01*
Y-26002D01*
Y-32000D01*
X515467D02*
Y-26002D01*
X518466D01*
X519466Y-27002D01*
Y-29001D01*
X518466Y-30001D01*
X515467D01*
X517466D02*
X519466Y-32000D01*
X522465D02*
X524464D01*
X525464Y-31000D01*
Y-29001D01*
X524464Y-28001D01*
X522465D01*
X521465Y-29001D01*
Y-31000D01*
X522465Y-32000D01*
X527463Y-28001D02*
Y-31000D01*
X528463Y-32000D01*
X531462D01*
Y-28001D01*
X533461Y-32000D02*
Y-28001D01*
X536460D01*
X537460Y-29001D01*
Y-32000D01*
X543458Y-26002D02*
Y-32000D01*
X540459D01*
X539459Y-31000D01*
Y-29001D01*
X540459Y-28001D01*
X543458D01*
X265136Y-44000D02*
X261138D01*
X265136Y-40001D01*
Y-39002D01*
X264137Y-38002D01*
X262137D01*
X261138Y-39002D01*
X334718Y-38002D02*
X330719D01*
Y-41001D01*
X332718Y-40001D01*
X333718D01*
X334718Y-41001D01*
Y-43000D01*
X333718Y-44000D01*
X331719D01*
X330719Y-43000D01*
X336717D02*
X337717Y-44000D01*
X339716D01*
X340716Y-43000D01*
Y-39002D01*
X339716Y-38002D01*
X337717D01*
X336717Y-39002D01*
Y-40001D01*
X337717Y-41001D01*
X340716D01*
X342715Y-44000D02*
Y-43000D01*
X343715D01*
Y-44000D01*
X342715D01*
X347713Y-39002D02*
X348713Y-38002D01*
X350712D01*
X351712Y-39002D01*
Y-43000D01*
X350712Y-44000D01*
X348713D01*
X347713Y-43000D01*
Y-39002D01*
X357710Y-38002D02*
X353712D01*
Y-41001D01*
X355711Y-40001D01*
X356711D01*
X357710Y-41001D01*
Y-43000D01*
X356711Y-44000D01*
X354711D01*
X353712Y-43000D01*
X363708Y-38002D02*
X359710D01*
Y-41001D01*
X361709Y-40001D01*
X362709D01*
X363708Y-41001D01*
Y-43000D01*
X362709Y-44000D01*
X360709D01*
X359710Y-43000D01*
X365708Y-44000D02*
Y-40001D01*
X366707D01*
X367707Y-41001D01*
Y-44000D01*
Y-41001D01*
X368707Y-40001D01*
X369706Y-41001D01*
Y-44000D01*
X371706D02*
X373705D01*
X372705D01*
Y-40001D01*
X371706D01*
X376704Y-44000D02*
X378703D01*
X377704D01*
Y-38002D01*
X376704D01*
X389700Y-44000D02*
X387701Y-42001D01*
Y-40001D01*
X389700Y-38002D01*
X392699Y-44000D02*
X394698D01*
X393699D01*
Y-38002D01*
X392699Y-39002D01*
X397697Y-44000D02*
Y-43000D01*
X398697D01*
Y-44000D01*
X397697D01*
X406694Y-38002D02*
X402696D01*
Y-41001D01*
X404695Y-40001D01*
X405695D01*
X406694Y-41001D01*
Y-43000D01*
X405695Y-44000D01*
X403695D01*
X402696Y-43000D01*
X408694Y-44000D02*
Y-40001D01*
X409693D01*
X410693Y-41001D01*
Y-44000D01*
Y-41001D01*
X411693Y-40001D01*
X412692Y-41001D01*
Y-44000D01*
X414692D02*
Y-40001D01*
X415691D01*
X416691Y-41001D01*
Y-44000D01*
Y-41001D01*
X417691Y-40001D01*
X418690Y-41001D01*
Y-44000D01*
X420690D02*
X422689Y-42001D01*
Y-40001D01*
X420690Y-38002D01*
X465079Y-44000D02*
Y-38002D01*
X468078D01*
X469078Y-39002D01*
Y-41001D01*
X468078Y-42001D01*
X465079D01*
X471077Y-38002D02*
X475076D01*
X473077D01*
Y-44000D01*
X477075Y-38002D02*
Y-44000D01*
Y-41001D01*
X481074D01*
Y-38002D01*
Y-44000D01*
X515467D02*
Y-38002D01*
X518466D01*
X519466Y-39002D01*
Y-41001D01*
X518466Y-42001D01*
X515467D01*
X517466D02*
X519466Y-44000D01*
X522465D02*
X524464D01*
X525464Y-43000D01*
Y-41001D01*
X524464Y-40001D01*
X522465D01*
X521465Y-41001D01*
Y-43000D01*
X522465Y-44000D01*
X527463Y-40001D02*
Y-43000D01*
X528463Y-44000D01*
X531462D01*
Y-40001D01*
X533461Y-44000D02*
Y-40001D01*
X536460D01*
X537460Y-41001D01*
Y-44000D01*
X543458Y-38002D02*
Y-44000D01*
X540459D01*
X539459Y-43000D01*
Y-41001D01*
X540459Y-40001D01*
X543458D01*
X264137Y-56000D02*
Y-50002D01*
X261138Y-53001D01*
X265136D01*
X330719Y-56000D02*
X332718D01*
X331719D01*
Y-50002D01*
X330719Y-51002D01*
X335717D02*
X336717Y-50002D01*
X338716D01*
X339716Y-51002D01*
Y-55000D01*
X338716Y-56000D01*
X336717D01*
X335717Y-55000D01*
Y-51002D01*
X345714Y-50002D02*
X343715Y-51002D01*
X341715Y-53001D01*
Y-55000D01*
X342715Y-56000D01*
X344714D01*
X345714Y-55000D01*
Y-54001D01*
X344714Y-53001D01*
X341715D01*
X347713Y-56000D02*
Y-55000D01*
X348713D01*
Y-56000D01*
X347713D01*
X356711D02*
X352712D01*
X356711Y-52001D01*
Y-51002D01*
X355711Y-50002D01*
X353712D01*
X352712Y-51002D01*
X358710Y-55000D02*
X359710Y-56000D01*
X361709D01*
X362709Y-55000D01*
Y-51002D01*
X361709Y-50002D01*
X359710D01*
X358710Y-51002D01*
Y-52001D01*
X359710Y-53001D01*
X362709D01*
X364708Y-55000D02*
X365708Y-56000D01*
X367707D01*
X368707Y-55000D01*
Y-51002D01*
X367707Y-50002D01*
X365708D01*
X364708Y-51002D01*
Y-52001D01*
X365708Y-53001D01*
X368707D01*
X370706Y-56000D02*
Y-52001D01*
X371706D01*
X372705Y-53001D01*
Y-56000D01*
Y-53001D01*
X373705Y-52001D01*
X374705Y-53001D01*
Y-56000D01*
X376704D02*
X378703D01*
X377704D01*
Y-52001D01*
X376704D01*
X381702Y-56000D02*
X383702D01*
X382702D01*
Y-50002D01*
X381702D01*
X394698Y-56000D02*
X392699Y-54001D01*
Y-52001D01*
X394698Y-50002D01*
X401696Y-56000D02*
X397697D01*
X401696Y-52001D01*
Y-51002D01*
X400696Y-50002D01*
X398697D01*
X397697Y-51002D01*
X403695Y-56000D02*
Y-55000D01*
X404695D01*
Y-56000D01*
X403695D01*
X408694Y-50002D02*
X412692D01*
Y-51002D01*
X408694Y-55000D01*
Y-56000D01*
X414692D02*
Y-52001D01*
X415691D01*
X416691Y-53001D01*
Y-56000D01*
Y-53001D01*
X417691Y-52001D01*
X418690Y-53001D01*
Y-56000D01*
X420690D02*
Y-52001D01*
X421690D01*
X422689Y-53001D01*
Y-56000D01*
Y-53001D01*
X423689Y-52001D01*
X424688Y-53001D01*
Y-56000D01*
X426688D02*
X428687Y-54001D01*
Y-52001D01*
X426688Y-50002D01*
X465079Y-56000D02*
Y-50002D01*
X468078D01*
X469078Y-51002D01*
Y-53001D01*
X468078Y-54001D01*
X465079D01*
X471077Y-50002D02*
X475076D01*
X473077D01*
Y-56000D01*
X477075Y-50002D02*
Y-56000D01*
Y-53001D01*
X481074D01*
Y-50002D01*
Y-56000D01*
X515467D02*
Y-50002D01*
X518466D01*
X519466Y-51002D01*
Y-53001D01*
X518466Y-54001D01*
X515467D01*
X517466D02*
X519466Y-56000D01*
X522465D02*
X524464D01*
X525464Y-55000D01*
Y-53001D01*
X524464Y-52001D01*
X522465D01*
X521465Y-53001D01*
Y-55000D01*
X522465Y-56000D01*
X527463Y-52001D02*
Y-55000D01*
X528463Y-56000D01*
X531462D01*
Y-52001D01*
X533461Y-56000D02*
Y-52001D01*
X536460D01*
X537460Y-53001D01*
Y-56000D01*
X543458Y-50002D02*
Y-56000D01*
X540459D01*
X539459Y-55000D01*
Y-53001D01*
X540459Y-52001D01*
X543458D01*
X265136Y-68000D02*
X261138D01*
X265136Y-64001D01*
Y-63002D01*
X264137Y-62002D01*
X262137D01*
X261138Y-63002D01*
X330719Y-68000D02*
X332718D01*
X331719D01*
Y-62002D01*
X330719Y-63002D01*
X335717Y-68000D02*
X337717D01*
X336717D01*
Y-62002D01*
X335717Y-63002D01*
X340716D02*
X341715Y-62002D01*
X343715D01*
X344714Y-63002D01*
Y-64001D01*
X343715Y-65001D01*
X344714Y-66001D01*
Y-67000D01*
X343715Y-68000D01*
X341715D01*
X340716Y-67000D01*
Y-66001D01*
X341715Y-65001D01*
X340716Y-64001D01*
Y-63002D01*
X341715Y-65001D02*
X343715D01*
X346714Y-68000D02*
Y-67000D01*
X347713D01*
Y-68000D01*
X346714D01*
X351712D02*
X353712D01*
X352712D01*
Y-62002D01*
X351712Y-63002D01*
X356711Y-68000D02*
X358710D01*
X357710D01*
Y-62002D01*
X356711Y-63002D01*
X361709Y-68000D02*
Y-64001D01*
X362709D01*
X363708Y-65001D01*
Y-68000D01*
Y-65001D01*
X364708Y-64001D01*
X365708Y-65001D01*
Y-68000D01*
X367707D02*
X369706D01*
X368707D01*
Y-64001D01*
X367707D01*
X372705Y-68000D02*
X374705D01*
X373705D01*
Y-62002D01*
X372705D01*
X385701Y-68000D02*
X383702Y-66001D01*
Y-64001D01*
X385701Y-62002D01*
X388700Y-63002D02*
X389700Y-62002D01*
X391699D01*
X392699Y-63002D01*
Y-64001D01*
X391699Y-65001D01*
X390700D01*
X391699D01*
X392699Y-66001D01*
Y-67000D01*
X391699Y-68000D01*
X389700D01*
X388700Y-67000D01*
X394698Y-68000D02*
Y-64001D01*
X395698D01*
X396698Y-65001D01*
Y-68000D01*
Y-65001D01*
X397697Y-64001D01*
X398697Y-65001D01*
Y-68000D01*
X400696D02*
Y-64001D01*
X401696D01*
X402696Y-65001D01*
Y-68000D01*
Y-65001D01*
X403695Y-64001D01*
X404695Y-65001D01*
Y-68000D01*
X406694D02*
X408694Y-66001D01*
Y-64001D01*
X406694Y-62002D01*
X465079Y-68000D02*
Y-62002D01*
X468078D01*
X469078Y-63002D01*
Y-65001D01*
X468078Y-66001D01*
X465079D01*
X471077Y-62002D02*
X475076D01*
X473077D01*
Y-68000D01*
X477075Y-62002D02*
Y-68000D01*
Y-65001D01*
X481074D01*
Y-62002D01*
Y-68000D01*
X515467D02*
Y-62002D01*
X518466D01*
X519466Y-63002D01*
Y-65001D01*
X518466Y-66001D01*
X515467D01*
X517466D02*
X519466Y-68000D01*
X522465D02*
X524464D01*
X525464Y-67000D01*
Y-65001D01*
X524464Y-64001D01*
X522465D01*
X521465Y-65001D01*
Y-67000D01*
X522465Y-68000D01*
X527463Y-64001D02*
Y-67000D01*
X528463Y-68000D01*
X531462D01*
Y-64001D01*
X533461Y-68000D02*
Y-64001D01*
X536460D01*
X537460Y-65001D01*
Y-68000D01*
X543458Y-62002D02*
Y-68000D01*
X540459D01*
X539459Y-67000D01*
Y-65001D01*
X540459Y-64001D01*
X543458D01*
X265136Y-80000D02*
X261138D01*
X265136Y-76001D01*
Y-75002D01*
X264137Y-74002D01*
X262137D01*
X261138Y-75002D01*
X330719Y-80000D02*
X332718D01*
X331719D01*
Y-74002D01*
X330719Y-75002D01*
X339716Y-74002D02*
X335717D01*
Y-77001D01*
X337717Y-76001D01*
X338716D01*
X339716Y-77001D01*
Y-79000D01*
X338716Y-80000D01*
X336717D01*
X335717Y-79000D01*
X341715Y-74002D02*
X345714D01*
Y-75002D01*
X341715Y-79000D01*
Y-80000D01*
X347713D02*
Y-79000D01*
X348713D01*
Y-80000D01*
X347713D01*
X355711D02*
Y-74002D01*
X352712Y-77001D01*
X356711D01*
X358710Y-75002D02*
X359710Y-74002D01*
X361709D01*
X362709Y-75002D01*
Y-76001D01*
X361709Y-77001D01*
X362709Y-78001D01*
Y-79000D01*
X361709Y-80000D01*
X359710D01*
X358710Y-79000D01*
Y-78001D01*
X359710Y-77001D01*
X358710Y-76001D01*
Y-75002D01*
X359710Y-77001D02*
X361709D01*
X364708Y-80000D02*
Y-76001D01*
X365708D01*
X366707Y-77001D01*
Y-80000D01*
Y-77001D01*
X367707Y-76001D01*
X368707Y-77001D01*
Y-80000D01*
X370706D02*
X372705D01*
X371706D01*
Y-76001D01*
X370706D01*
X375704Y-80000D02*
X377704D01*
X376704D01*
Y-74002D01*
X375704D01*
X388700Y-80000D02*
X386701Y-78001D01*
Y-76001D01*
X388700Y-74002D01*
X394698Y-80000D02*
Y-74002D01*
X391699Y-77001D01*
X395698D01*
X397697Y-80000D02*
Y-76001D01*
X398697D01*
X399697Y-77001D01*
Y-80000D01*
Y-77001D01*
X400696Y-76001D01*
X401696Y-77001D01*
Y-80000D01*
X403695D02*
Y-76001D01*
X404695D01*
X405695Y-77001D01*
Y-80000D01*
Y-77001D01*
X406694Y-76001D01*
X407694Y-77001D01*
Y-80000D01*
X409693D02*
X411693Y-78001D01*
Y-76001D01*
X409693Y-74002D01*
X465079Y-80000D02*
Y-74002D01*
X468078D01*
X469078Y-75002D01*
Y-77001D01*
X468078Y-78001D01*
X465079D01*
X471077Y-74002D02*
X475076D01*
X473077D01*
Y-80000D01*
X477075Y-74002D02*
Y-80000D01*
Y-77001D01*
X481074D01*
Y-74002D01*
Y-80000D01*
X515467D02*
Y-74002D01*
X518466D01*
X519466Y-75002D01*
Y-77001D01*
X518466Y-78001D01*
X515467D01*
X517466D02*
X519466Y-80000D01*
X522465D02*
X524464D01*
X525464Y-79000D01*
Y-77001D01*
X524464Y-76001D01*
X522465D01*
X521465Y-77001D01*
Y-79000D01*
X522465Y-80000D01*
X527463Y-76001D02*
Y-79000D01*
X528463Y-80000D01*
X531462D01*
Y-76001D01*
X533461Y-80000D02*
Y-76001D01*
X536460D01*
X537460Y-77001D01*
Y-80000D01*
X543458Y-74002D02*
Y-80000D01*
X540459D01*
X539459Y-79000D01*
Y-77001D01*
X540459Y-76001D01*
X543458D01*
X261138Y-92000D02*
X263137D01*
X262137D01*
Y-86002D01*
X261138Y-87002D01*
X330719D02*
X331719Y-86002D01*
X333718D01*
X334718Y-87002D01*
Y-88001D01*
X333718Y-89001D01*
X332718D01*
X333718D01*
X334718Y-90001D01*
Y-91000D01*
X333718Y-92000D01*
X331719D01*
X330719Y-91000D01*
X336717Y-92000D02*
X338716D01*
X337717D01*
Y-86002D01*
X336717Y-87002D01*
X341715Y-92000D02*
Y-91000D01*
X342715D01*
Y-92000D01*
X341715D01*
X349713D02*
Y-86002D01*
X346714Y-89001D01*
X350712D01*
X352712Y-91000D02*
X353712Y-92000D01*
X355711D01*
X356711Y-91000D01*
Y-87002D01*
X355711Y-86002D01*
X353712D01*
X352712Y-87002D01*
Y-88001D01*
X353712Y-89001D01*
X356711D01*
X362709Y-86002D02*
X360709Y-87002D01*
X358710Y-89001D01*
Y-91000D01*
X359710Y-92000D01*
X361709D01*
X362709Y-91000D01*
Y-90001D01*
X361709Y-89001D01*
X358710D01*
X364708Y-92000D02*
Y-88001D01*
X365708D01*
X366707Y-89001D01*
Y-92000D01*
Y-89001D01*
X367707Y-88001D01*
X368707Y-89001D01*
Y-92000D01*
X370706D02*
X372705D01*
X371706D01*
Y-88001D01*
X370706D01*
X375704Y-92000D02*
X377704D01*
X376704D01*
Y-86002D01*
X375704D01*
X388700Y-92000D02*
X386701Y-90001D01*
Y-88001D01*
X388700Y-86002D01*
X391699Y-87002D02*
X392699Y-86002D01*
X394698D01*
X395698Y-87002D01*
Y-91000D01*
X394698Y-92000D01*
X392699D01*
X391699Y-91000D01*
Y-87002D01*
X397697Y-92000D02*
Y-91000D01*
X398697D01*
Y-92000D01*
X397697D01*
X402696Y-87002D02*
X403695Y-86002D01*
X405695D01*
X406694Y-87002D01*
Y-88001D01*
X405695Y-89001D01*
X406694Y-90001D01*
Y-91000D01*
X405695Y-92000D01*
X403695D01*
X402696Y-91000D01*
Y-90001D01*
X403695Y-89001D01*
X402696Y-88001D01*
Y-87002D01*
X403695Y-89001D02*
X405695D01*
X408694Y-92000D02*
Y-88001D01*
X409693D01*
X410693Y-89001D01*
Y-92000D01*
Y-89001D01*
X411693Y-88001D01*
X412692Y-89001D01*
Y-92000D01*
X414692D02*
Y-88001D01*
X415691D01*
X416691Y-89001D01*
Y-92000D01*
Y-89001D01*
X417691Y-88001D01*
X418690Y-89001D01*
Y-92000D01*
X420690D02*
X422689Y-90001D01*
Y-88001D01*
X420690Y-86002D01*
X465079Y-92000D02*
Y-86002D01*
X468078D01*
X469078Y-87002D01*
Y-89001D01*
X468078Y-90001D01*
X465079D01*
X471077Y-86002D02*
X475076D01*
X473077D01*
Y-92000D01*
X477075Y-86002D02*
Y-92000D01*
Y-89001D01*
X481074D01*
Y-86002D01*
Y-92000D01*
X519466Y-87002D02*
X518466Y-86002D01*
X516467D01*
X515467Y-87002D01*
Y-88001D01*
X516467Y-89001D01*
X518466D01*
X519466Y-90001D01*
Y-91000D01*
X518466Y-92000D01*
X516467D01*
X515467Y-91000D01*
X525464Y-93999D02*
Y-88001D01*
X522465D01*
X521465Y-89001D01*
Y-91000D01*
X522465Y-92000D01*
X525464D01*
X527463Y-88001D02*
Y-91000D01*
X528463Y-92000D01*
X531462D01*
Y-88001D01*
X534461D02*
X536460D01*
X537460Y-89001D01*
Y-92000D01*
X534461D01*
X533461Y-91000D01*
X534461Y-90001D01*
X537460D01*
X539459Y-88001D02*
Y-92000D01*
Y-90001D01*
X540459Y-89001D01*
X541459Y-88001D01*
X542458D01*
X548456Y-92000D02*
X546457D01*
X545457Y-91000D01*
Y-89001D01*
X546457Y-88001D01*
X548456D01*
X549456Y-89001D01*
Y-90001D01*
X545457D01*
X265136Y-104000D02*
X261138D01*
X265136Y-100001D01*
Y-99002D01*
X264137Y-98002D01*
X262137D01*
X261138Y-99002D01*
X330719D02*
X331719Y-98002D01*
X333718D01*
X334718Y-99002D01*
Y-100001D01*
X333718Y-101001D01*
X332718D01*
X333718D01*
X334718Y-102001D01*
Y-103000D01*
X333718Y-104000D01*
X331719D01*
X330719Y-103000D01*
X336717Y-104000D02*
X338716D01*
X337717D01*
Y-98002D01*
X336717Y-99002D01*
X341715Y-104000D02*
Y-103000D01*
X342715D01*
Y-104000D01*
X341715D01*
X349713D02*
Y-98002D01*
X346714Y-101001D01*
X350712D01*
X352712Y-103000D02*
X353712Y-104000D01*
X355711D01*
X356711Y-103000D01*
Y-99002D01*
X355711Y-98002D01*
X353712D01*
X352712Y-99002D01*
Y-100001D01*
X353712Y-101001D01*
X356711D01*
X362709Y-98002D02*
X360709Y-99002D01*
X358710Y-101001D01*
Y-103000D01*
X359710Y-104000D01*
X361709D01*
X362709Y-103000D01*
Y-102001D01*
X361709Y-101001D01*
X358710D01*
X364708Y-104000D02*
Y-100001D01*
X365708D01*
X366707Y-101001D01*
Y-104000D01*
Y-101001D01*
X367707Y-100001D01*
X368707Y-101001D01*
Y-104000D01*
X370706D02*
X372705D01*
X371706D01*
Y-100001D01*
X370706D01*
X375704Y-104000D02*
X377704D01*
X376704D01*
Y-98002D01*
X375704D01*
X388700Y-104000D02*
X386701Y-102001D01*
Y-100001D01*
X388700Y-98002D01*
X391699Y-99002D02*
X392699Y-98002D01*
X394698D01*
X395698Y-99002D01*
Y-103000D01*
X394698Y-104000D01*
X392699D01*
X391699Y-103000D01*
Y-99002D01*
X397697Y-104000D02*
Y-103000D01*
X398697D01*
Y-104000D01*
X397697D01*
X402696Y-99002D02*
X403695Y-98002D01*
X405695D01*
X406694Y-99002D01*
Y-100001D01*
X405695Y-101001D01*
X406694Y-102001D01*
Y-103000D01*
X405695Y-104000D01*
X403695D01*
X402696Y-103000D01*
Y-102001D01*
X403695Y-101001D01*
X402696Y-100001D01*
Y-99002D01*
X403695Y-101001D02*
X405695D01*
X408694Y-104000D02*
Y-100001D01*
X409693D01*
X410693Y-101001D01*
Y-104000D01*
Y-101001D01*
X411693Y-100001D01*
X412692Y-101001D01*
Y-104000D01*
X414692D02*
Y-100001D01*
X415691D01*
X416691Y-101001D01*
Y-104000D01*
Y-101001D01*
X417691Y-100001D01*
X418690Y-101001D01*
Y-104000D01*
X420690D02*
X422689Y-102001D01*
Y-100001D01*
X420690Y-98002D01*
X465079Y-104000D02*
Y-98002D01*
X468078D01*
X469078Y-99002D01*
Y-101001D01*
X468078Y-102001D01*
X465079D01*
X471077Y-98002D02*
X475076D01*
X473077D01*
Y-104000D01*
X477075Y-98002D02*
Y-104000D01*
Y-101001D01*
X481074D01*
Y-98002D01*
Y-104000D01*
X519466Y-99002D02*
X518466Y-98002D01*
X516467D01*
X515467Y-99002D01*
Y-100001D01*
X516467Y-101001D01*
X518466D01*
X519466Y-102001D01*
Y-103000D01*
X518466Y-104000D01*
X516467D01*
X515467Y-103000D01*
X525464Y-105999D02*
Y-100001D01*
X522465D01*
X521465Y-101001D01*
Y-103000D01*
X522465Y-104000D01*
X525464D01*
X527463Y-100001D02*
Y-103000D01*
X528463Y-104000D01*
X531462D01*
Y-100001D01*
X534461D02*
X536460D01*
X537460Y-101001D01*
Y-104000D01*
X534461D01*
X533461Y-103000D01*
X534461Y-102001D01*
X537460D01*
X539459Y-100001D02*
Y-104000D01*
Y-102001D01*
X540459Y-101001D01*
X541459Y-100001D01*
X542458D01*
X548456Y-104000D02*
X546457D01*
X545457Y-103000D01*
Y-101001D01*
X546457Y-100001D01*
X548456D01*
X549456Y-101001D01*
Y-102001D01*
X545457D01*
X261138Y-116000D02*
X263137D01*
X262137D01*
Y-110002D01*
X261138Y-111002D01*
X266136Y-116000D02*
X268135D01*
X267136D01*
Y-110002D01*
X266136Y-111002D01*
X275133Y-110002D02*
X273134Y-111002D01*
X271134Y-113001D01*
Y-115000D01*
X272134Y-116000D01*
X274133D01*
X275133Y-115000D01*
Y-114001D01*
X274133Y-113001D01*
X271134D01*
X285933Y-110002D02*
X289932D01*
X287932D01*
Y-116000D01*
X292931D02*
X294930D01*
X295930Y-115000D01*
Y-113001D01*
X294930Y-112001D01*
X292931D01*
X291931Y-113001D01*
Y-115000D01*
X292931Y-116000D01*
X298929Y-111002D02*
Y-112001D01*
X297929D01*
X299928D01*
X298929D01*
Y-115000D01*
X299928Y-116000D01*
X303927Y-112001D02*
X305927D01*
X306926Y-113001D01*
Y-116000D01*
X303927D01*
X302927Y-115000D01*
X303927Y-114001D01*
X306926D01*
X308926Y-116000D02*
X310925D01*
X309925D01*
Y-110002D01*
X308926D01*
M02*
