G04 Layer_Color=255*
%FSLAX25Y25*%
%MOIN*%
G70*
G01*
G75*
%ADD37C,0.05906*%
%ADD38C,0.13780*%
%ADD39C,0.06299*%
%ADD40R,0.15354X0.04724*%
%ADD41R,0.04724X0.13780*%
%ADD42C,0.07874*%
%ADD43R,0.05906X0.05906*%
%ADD44R,0.05906X0.05906*%
%ADD45C,0.03937*%
%ADD46C,0.15748*%
%ADD47C,0.02000*%
%ADD48C,0.19685*%
D37*
X29000Y105500D02*
D03*
X48291D02*
D03*
X49250Y79500D02*
D03*
Y60209D02*
D03*
X179750Y-49250D02*
D03*
Y-59250D02*
D03*
Y-69250D02*
D03*
X-171000Y34878D02*
D03*
Y42752D02*
D03*
Y50626D02*
D03*
Y58500D02*
D03*
Y66374D02*
D03*
Y74248D02*
D03*
Y-29622D02*
D03*
Y-21748D02*
D03*
Y-13874D02*
D03*
Y-6000D02*
D03*
Y1874D02*
D03*
Y9748D02*
D03*
X43000Y-27500D02*
D03*
X53000D02*
D03*
X63000D02*
D03*
X73000D02*
D03*
X83000D02*
D03*
X93000D02*
D03*
X103000D02*
D03*
X-177500Y-77500D02*
D03*
Y-67500D02*
D03*
Y-57500D02*
D03*
X-82500Y-108874D02*
D03*
Y-101000D02*
D03*
Y-93126D02*
D03*
X-62815Y-108874D02*
D03*
Y-101000D02*
D03*
Y-93126D02*
D03*
D38*
X156827Y9047D02*
D03*
Y-42724D02*
D03*
X157000Y79772D02*
D03*
Y28000D02*
D03*
D39*
X146000Y-3158D02*
D03*
Y-13000D02*
D03*
Y-20874D02*
D03*
Y-30716D02*
D03*
X146173Y67567D02*
D03*
Y57724D02*
D03*
Y49850D02*
D03*
Y40008D02*
D03*
D40*
X-148500Y-64878D02*
D03*
Y-88500D02*
D03*
D41*
X-129602Y-74721D02*
D03*
D42*
X-117500Y-47500D02*
D03*
X-101949D02*
D03*
D43*
X179750Y-79250D02*
D03*
X-177500Y-47500D02*
D03*
D44*
X33000Y-27500D02*
D03*
D45*
X-91495Y-21506D02*
D03*
X-96505Y-16495D02*
D03*
D46*
X-177250Y-95750D02*
D03*
X177250D02*
D03*
D47*
X-111000Y50008D02*
D03*
X-50000Y73250D02*
D03*
X-60000D02*
D03*
D48*
X-157250Y101250D02*
D03*
X151750D02*
D03*
M02*
