G04 Layer_Physical_Order=1*
G04 Layer_Color=255*
%FSLAX25Y25*%
%MOIN*%
G70*
G01*
G75*
%ADD10R,0.08465X0.12795*%
%ADD11R,0.09016X0.04291*%
%ADD12R,0.42520X0.27520*%
%ADD13R,0.04213X0.15748*%
%ADD14O,0.08661X0.02362*%
%ADD15R,0.12795X0.08465*%
%ADD16R,0.04291X0.09016*%
%ADD17R,0.05512X0.00945*%
%ADD18O,0.05512X0.00945*%
%ADD19R,0.05787X0.04567*%
%ADD20R,0.04567X0.05787*%
%ADD21R,0.11811X0.12598*%
%ADD22R,0.09843X0.05906*%
%ADD23R,0.07087X0.04449*%
%ADD24R,0.07480X0.06299*%
%ADD25R,0.07087X0.05315*%
%ADD26R,0.11024X0.09449*%
%ADD27R,0.07874X0.15748*%
%ADD28R,0.05315X0.07087*%
%ADD29R,0.04567X0.10709*%
%ADD30O,0.07087X0.01181*%
%ADD31O,0.01181X0.07087*%
%ADD32C,0.03500*%
%ADD33C,0.03000*%
%ADD34C,0.04500*%
%ADD35C,0.01000*%
%ADD36C,0.02000*%
%ADD37C,0.05906*%
%ADD38C,0.13780*%
%ADD39C,0.06299*%
%ADD40R,0.15354X0.04724*%
%ADD41R,0.04724X0.13780*%
%ADD42C,0.07874*%
%ADD43R,0.05906X0.05906*%
%ADD44R,0.05906X0.05906*%
%ADD45C,0.03937*%
%ADD46C,0.15748*%
%ADD47C,0.02000*%
%ADD48C,0.19685*%
%ADD49C,0.03500*%
%ADD50C,0.04000*%
%ADD51C,0.03000*%
%ADD52C,0.05000*%
%ADD53C,0.04500*%
%ADD54C,0.02500*%
G36*
X6640Y1683D02*
X6566Y1606D01*
X6440Y1457D01*
X6389Y1387D01*
X6346Y1318D01*
X6311Y1252D01*
X6284Y1188D01*
X6265Y1127D01*
X6253Y1067D01*
X6250Y1010D01*
X5260Y2000D01*
X5317Y2003D01*
X5376Y2015D01*
X5438Y2034D01*
X5502Y2061D01*
X5568Y2096D01*
X5637Y2139D01*
X5707Y2190D01*
X5780Y2249D01*
X5933Y2390D01*
X6640Y1683D01*
D02*
G37*
G36*
X14260Y1659D02*
X14310Y1625D01*
X14367Y1595D01*
X14431Y1568D01*
X14502Y1546D01*
X14581Y1528D01*
X14667Y1514D01*
X14760Y1504D01*
X14968Y1496D01*
X14964Y496D01*
X14856Y494D01*
X14662Y478D01*
X14577Y464D01*
X14498Y446D01*
X14426Y424D01*
X14362Y399D01*
X14304Y369D01*
X14254Y335D01*
X14211Y297D01*
X14217Y1697D01*
X14260Y1659D01*
D02*
G37*
G36*
X-60503Y5196D02*
X-60426Y3947D01*
X-60405Y3898D01*
X-60382Y3882D01*
X-63626D01*
X-63603Y3898D01*
X-63582Y3947D01*
X-63564Y4028D01*
X-63548Y4141D01*
X-63524Y4466D01*
X-63504Y5504D01*
X-60504D01*
X-60503Y5196D01*
D02*
G37*
G36*
X-141500Y3500D02*
X-151250Y3750D01*
X-152500Y4000D01*
X-153500Y4750D01*
Y6250D01*
X-152750Y7000D01*
X-141500D01*
Y3500D01*
D02*
G37*
G36*
X4539Y297D02*
X4496Y335D01*
X4446Y369D01*
X4388Y399D01*
X4324Y424D01*
X4252Y446D01*
X4174Y464D01*
X4087Y478D01*
X3994Y488D01*
X3786Y496D01*
X3782Y1496D01*
X3889Y1498D01*
X4083Y1514D01*
X4169Y1528D01*
X4248Y1546D01*
X4319Y1568D01*
X4383Y1595D01*
X4440Y1625D01*
X4490Y1659D01*
X4533Y1697D01*
X4539Y297D01*
D02*
G37*
G36*
X-168769Y3833D02*
X-168625Y3737D01*
X-168459Y3652D01*
X-168272Y3578D01*
X-168062Y3516D01*
X-167830Y3465D01*
X-167577Y3425D01*
X-167301Y3397D01*
X-166685Y3374D01*
Y374D01*
X-167004Y368D01*
X-167577Y323D01*
X-167830Y283D01*
X-168062Y232D01*
X-168272Y170D01*
X-168459Y96D01*
X-168625Y11D01*
X-168769Y-85D01*
X-168891Y-193D01*
Y3941D01*
X-168769Y3833D01*
D02*
G37*
G36*
X-141500Y-1500D02*
X-149750D01*
X-150000Y-1250D01*
Y1500D01*
X-147250Y2000D01*
X-141500D01*
Y-1500D01*
D02*
G37*
G36*
X16630Y-4D02*
X16620Y91D01*
X16590Y176D01*
X16539Y251D01*
X16468Y316D01*
X16377Y371D01*
X16266Y416D01*
X16134Y451D01*
X15983Y476D01*
X15811Y491D01*
X15618Y496D01*
Y1496D01*
X15811Y1501D01*
X15983Y1516D01*
X16134Y1541D01*
X16266Y1576D01*
X16377Y1621D01*
X16468Y1676D01*
X16539Y1741D01*
X16590Y1816D01*
X16620Y1901D01*
X16630Y1996D01*
Y-4D01*
D02*
G37*
G36*
X-108Y1901D02*
X-78Y1816D01*
X-28Y1741D01*
X42Y1676D01*
X132Y1621D01*
X242Y1576D01*
X372Y1541D01*
X522Y1516D01*
X692Y1501D01*
X882Y1496D01*
Y496D01*
X692Y491D01*
X522Y476D01*
X372Y451D01*
X242Y416D01*
X132Y371D01*
X42Y316D01*
X-28Y251D01*
X-78Y176D01*
X-108Y91D01*
X-118Y-4D01*
Y1996D01*
X-108Y1901D01*
D02*
G37*
G36*
X-53488Y6312D02*
X-53373Y4962D01*
X-53303Y4632D01*
X-53218Y4362D01*
X-53118Y4152D01*
X-53002Y4002D01*
X-52871Y3912D01*
X-52725Y3882D01*
X-57267D01*
X-57121Y3912D01*
X-56990Y4002D01*
X-56874Y4152D01*
X-56774Y4362D01*
X-56689Y4632D01*
X-56620Y4962D01*
X-56565Y5352D01*
X-56504Y6312D01*
X-56496Y6882D01*
X-53496D01*
X-53488Y6312D01*
D02*
G37*
G36*
X-141500Y8750D02*
X-146750D01*
X-150000Y9000D01*
Y12000D01*
X-149750D01*
X-146750Y12250D01*
X-141500D01*
Y8750D01*
D02*
G37*
G36*
X-52281Y10836D02*
X-52536Y10746D01*
X-52761Y10595D01*
X-52956Y10385D01*
X-53121Y10114D01*
X-53256Y9782D01*
X-53361Y9391D01*
X-53436Y8939D01*
X-53481Y8427D01*
X-53496Y7854D01*
X-56496D01*
X-56511Y8427D01*
X-56556Y8939D01*
X-56631Y9391D01*
X-56736Y9782D01*
X-56871Y10114D01*
X-57036Y10385D01*
X-57231Y10595D01*
X-57456Y10746D01*
X-57711Y10836D01*
X-57996Y10866D01*
X-51996D01*
X-52281Y10836D01*
D02*
G37*
G36*
X-128750Y12250D02*
Y11250D01*
X-130250Y9750D01*
X-133000D01*
Y13750D01*
X-130250D01*
X-128750Y12250D01*
D02*
G37*
G36*
X-63378Y10846D02*
X-63470Y10785D01*
X-63551Y10682D01*
X-63621Y10538D01*
X-63680Y10354D01*
X-63729Y10128D01*
X-63766Y9861D01*
X-63793Y9554D01*
X-63815Y8815D01*
X-66815D01*
X-66820Y9205D01*
X-66901Y10128D01*
X-66950Y10354D01*
X-67009Y10538D01*
X-67079Y10682D01*
X-67160Y10785D01*
X-67252Y10846D01*
X-67355Y10866D01*
X-63275D01*
X-63378Y10846D01*
D02*
G37*
G36*
X-168769Y11707D02*
X-168625Y11611D01*
X-168459Y11526D01*
X-168272Y11452D01*
X-168062Y11390D01*
X-167830Y11339D01*
X-167577Y11299D01*
X-167301Y11271D01*
X-166685Y11248D01*
Y8248D01*
X-167004Y8242D01*
X-167577Y8197D01*
X-167830Y8157D01*
X-168062Y8106D01*
X-168272Y8044D01*
X-168459Y7970D01*
X-168625Y7885D01*
X-168769Y7789D01*
X-168891Y7681D01*
Y11815D01*
X-168769Y11707D01*
D02*
G37*
G36*
X105490Y8060D02*
X105550Y7890D01*
X105650Y7740D01*
X105790Y7610D01*
X105970Y7500D01*
X106190Y7410D01*
X106450Y7340D01*
X106750Y7290D01*
X107090Y7260D01*
X107470Y7250D01*
Y5250D01*
X107090Y5240D01*
X106750Y5210D01*
X106450Y5160D01*
X106190Y5090D01*
X105970Y5000D01*
X105790Y4890D01*
X105650Y4760D01*
X105550Y4610D01*
X105490Y4440D01*
X105470Y4250D01*
Y8250D01*
X105490Y8060D01*
D02*
G37*
G36*
X97042Y4250D02*
X97022Y4440D01*
X96961Y4610D01*
X96861Y4760D01*
X96720Y4890D01*
X96539Y5000D01*
X96317Y5090D01*
X96056Y5160D01*
X95754Y5210D01*
X95412Y5240D01*
X95030Y5250D01*
Y7250D01*
X95412Y7260D01*
X95754Y7290D01*
X96056Y7340D01*
X96317Y7410D01*
X96539Y7500D01*
X96720Y7610D01*
X96861Y7740D01*
X96961Y7890D01*
X97022Y8060D01*
X97042Y8250D01*
Y4250D01*
D02*
G37*
G36*
X22392Y8909D02*
X22422Y8824D01*
X22472Y8749D01*
X22542Y8684D01*
X22632Y8629D01*
X22742Y8584D01*
X22872Y8549D01*
X23022Y8524D01*
X23192Y8509D01*
X23382Y8504D01*
Y7504D01*
X23192Y7499D01*
X23022Y7484D01*
X22872Y7459D01*
X22742Y7424D01*
X22632Y7379D01*
X22542Y7324D01*
X22472Y7259D01*
X22422Y7184D01*
X22392Y7099D01*
X22382Y7004D01*
Y9004D01*
X22392Y8909D01*
D02*
G37*
G36*
X119601Y4250D02*
X119581Y4440D01*
X119520Y4610D01*
X119420Y4760D01*
X119279Y4890D01*
X119098Y5000D01*
X118877Y5090D01*
X118615Y5160D01*
X118313Y5210D01*
X117971Y5240D01*
X117589Y5250D01*
Y7250D01*
X117971Y7260D01*
X118313Y7290D01*
X118615Y7340D01*
X118877Y7410D01*
X119098Y7500D01*
X119279Y7610D01*
X119420Y7740D01*
X119520Y7890D01*
X119581Y8060D01*
X119601Y8250D01*
Y4250D01*
D02*
G37*
G36*
X155187Y4127D02*
X161650D01*
X161161Y3616D01*
X160723Y3091D01*
X160337Y2552D01*
X160003Y2000D01*
X159720Y1435D01*
X159488Y855D01*
X159308Y262D01*
X159180Y-344D01*
X159102Y-965D01*
X159077Y-1599D01*
X154577D01*
X154551Y-965D01*
X154474Y-344D01*
X154345Y262D01*
X154165Y855D01*
X154061Y1116D01*
X153867Y1020D01*
X153326Y701D01*
X152814Y348D01*
X152331Y-40D01*
X151878Y-461D01*
X148214Y2239D01*
X148651Y2715D01*
X149031Y3214D01*
X149354Y3735D01*
X149620Y4279D01*
X149829Y4844D01*
X149981Y5432D01*
X150075Y6042D01*
X150113Y6674D01*
X150093Y7328D01*
X150016Y8005D01*
X155187Y4127D01*
D02*
G37*
G36*
X-56060Y-13227D02*
X-56102Y-13215D01*
X-56202Y-13205D01*
X-56579Y-13187D01*
X-59118Y-13165D01*
Y-11165D01*
X-56060Y-11104D01*
Y-13227D01*
D02*
G37*
G36*
X-48606Y-10355D02*
X-48546Y-10525D01*
X-48445Y-10675D01*
X-48304Y-10805D01*
X-48123Y-10915D01*
X-47902Y-11005D01*
X-47640Y-11075D01*
X-47339Y-11125D01*
X-46997Y-11155D01*
X-46614Y-11165D01*
Y-13165D01*
X-46997Y-13175D01*
X-47339Y-13205D01*
X-47640Y-13255D01*
X-47902Y-13325D01*
X-48123Y-13415D01*
X-48304Y-13525D01*
X-48445Y-13655D01*
X-48546Y-13805D01*
X-48606Y-13975D01*
X-48626Y-14165D01*
Y-10165D01*
X-48606Y-10355D01*
D02*
G37*
G36*
X11250Y-9750D02*
X12750Y-11250D01*
X14250D01*
Y-12500D01*
X8750D01*
Y-11250D01*
X10500Y-9500D01*
Y-8750D01*
X11250D01*
Y-9750D01*
D02*
G37*
G36*
X-53898Y-11116D02*
X-53798Y-11126D01*
X-53421Y-11143D01*
X-50882Y-11165D01*
Y-13165D01*
X-53940Y-13227D01*
Y-11104D01*
X-53898Y-11116D01*
D02*
G37*
G36*
X-61374Y-14165D02*
X-61394Y-13975D01*
X-61454Y-13805D01*
X-61555Y-13655D01*
X-61696Y-13525D01*
X-61877Y-13415D01*
X-62098Y-13325D01*
X-62359Y-13255D01*
X-62661Y-13205D01*
X-63003Y-13175D01*
X-63386Y-13165D01*
Y-11165D01*
X-63003Y-11155D01*
X-62661Y-11125D01*
X-62359Y-11075D01*
X-62098Y-11005D01*
X-61877Y-10915D01*
X-61696Y-10805D01*
X-61555Y-10675D01*
X-61454Y-10525D01*
X-61394Y-10355D01*
X-61374Y-10165D01*
Y-14165D01*
D02*
G37*
G36*
X-52285Y-16416D02*
X-52540Y-16506D01*
X-52765Y-16656D01*
X-52960Y-16866D01*
X-53125Y-17136D01*
X-53260Y-17466D01*
X-53365Y-17856D01*
X-53440Y-18306D01*
X-53485Y-18816D01*
X-53500Y-19386D01*
X-56500D01*
X-56515Y-18816D01*
X-56560Y-18306D01*
X-56635Y-17856D01*
X-56740Y-17466D01*
X-56875Y-17136D01*
X-57040Y-16866D01*
X-57235Y-16656D01*
X-57460Y-16506D01*
X-57715Y-16416D01*
X-58000Y-16386D01*
X-52000D01*
X-52285Y-16416D01*
D02*
G37*
G36*
X-74892Y-18148D02*
X-74862Y-18490D01*
X-74812Y-18792D01*
X-74742Y-19054D01*
X-74652Y-19275D01*
X-74542Y-19456D01*
X-74412Y-19597D01*
X-74262Y-19697D01*
X-74092Y-19758D01*
X-73902Y-19778D01*
X-77902D01*
X-77712Y-19758D01*
X-77542Y-19697D01*
X-77392Y-19597D01*
X-77262Y-19456D01*
X-77152Y-19275D01*
X-77062Y-19054D01*
X-76992Y-18792D01*
X-76942Y-18490D01*
X-76912Y-18148D01*
X-76902Y-17766D01*
X-74902D01*
X-74892Y-18148D01*
D02*
G37*
G36*
X-173308Y-10137D02*
X-173095Y-10304D01*
X-172872Y-10452D01*
X-172640Y-10579D01*
X-172397Y-10686D01*
X-172143Y-10773D01*
X-171880Y-10840D01*
X-171607Y-10887D01*
X-171323Y-10914D01*
X-171029Y-10921D01*
X-171756Y-11647D01*
X-170999Y-12374D01*
X-172499Y-13874D01*
X-170999Y-15374D01*
X-171037Y-15395D01*
X-171115Y-15459D01*
X-171394Y-15713D01*
X-171772Y-16084D01*
X-171029Y-16827D01*
X-171323Y-16834D01*
X-171607Y-16861D01*
X-171880Y-16908D01*
X-172143Y-16975D01*
X-172397Y-17062D01*
X-172640Y-17169D01*
X-172872Y-17297D01*
X-173095Y-17444D01*
X-173308Y-17611D01*
X-173510Y-17798D01*
X-174924Y-16384D01*
X-174737Y-16182D01*
X-174570Y-15969D01*
X-174423Y-15746D01*
X-174295Y-15514D01*
X-174188Y-15271D01*
X-174101Y-15018D01*
X-174034Y-14754D01*
X-173987Y-14481D01*
X-173960Y-14197D01*
X-173953Y-13904D01*
X-173227Y-14629D01*
X-172501Y-13874D01*
X-172521Y-13837D01*
X-172585Y-13759D01*
X-172839Y-13480D01*
X-173211Y-13102D01*
X-173953Y-13845D01*
X-173960Y-13551D01*
X-173987Y-13267D01*
X-174034Y-12994D01*
X-174101Y-12731D01*
X-174188Y-12477D01*
X-174295Y-12234D01*
X-174423Y-12002D01*
X-174570Y-11779D01*
X-174737Y-11566D01*
X-174924Y-11364D01*
X-173510Y-9950D01*
X-173308Y-10137D01*
D02*
G37*
G36*
X110278Y-16902D02*
X110258Y-16712D01*
X110197Y-16542D01*
X110097Y-16392D01*
X109956Y-16262D01*
X109775Y-16152D01*
X109554Y-16062D01*
X109292Y-15992D01*
X108990Y-15942D01*
X108648Y-15912D01*
X108266Y-15902D01*
Y-13902D01*
X108648Y-13892D01*
X108990Y-13862D01*
X109292Y-13812D01*
X109554Y-13742D01*
X109775Y-13652D01*
X109956Y-13542D01*
X110097Y-13412D01*
X110197Y-13262D01*
X110258Y-13092D01*
X110278Y-12902D01*
Y-16902D01*
D02*
G37*
G36*
X125095Y-10638D02*
X125125Y-10980D01*
X125175Y-11282D01*
X125245Y-11544D01*
X125335Y-11765D01*
X125445Y-11946D01*
X125575Y-12087D01*
X125725Y-12188D01*
X125895Y-12248D01*
X126085Y-12268D01*
X122085D01*
X122275Y-12248D01*
X122445Y-12188D01*
X122595Y-12087D01*
X122725Y-11946D01*
X122835Y-11765D01*
X122925Y-11544D01*
X122995Y-11282D01*
X123045Y-10980D01*
X123075Y-10638D01*
X123085Y-10256D01*
X125085D01*
X125095Y-10638D01*
D02*
G37*
G36*
X128601Y-995D02*
X128661Y-1165D01*
X128761Y-1315D01*
X128901Y-1445D01*
X129080Y-1555D01*
X129300Y-1645D01*
X129560Y-1715D01*
X129860Y-1765D01*
X130201Y-1795D01*
X130580Y-1805D01*
Y-3805D01*
X130201Y-3815D01*
X129860Y-3845D01*
X129560Y-3895D01*
X129300Y-3965D01*
X129080Y-4055D01*
X128901Y-4165D01*
X128761Y-4295D01*
X128661Y-4445D01*
X128601Y-4615D01*
X128580Y-4805D01*
Y-805D01*
X128601Y-995D01*
D02*
G37*
G36*
X-52872Y-1912D02*
X-53004Y-2002D01*
X-53120Y-2152D01*
X-53221Y-2362D01*
X-53306Y-2632D01*
X-53376Y-2962D01*
X-53430Y-3352D01*
X-53492Y-4312D01*
X-53500Y-4882D01*
X-56500D01*
X-56508Y-4312D01*
X-56623Y-2962D01*
X-56692Y-2632D01*
X-56776Y-2362D01*
X-56876Y-2152D01*
X-56991Y-2002D01*
X-57122Y-1912D01*
X-57267Y-1882D01*
X-52725D01*
X-52872Y-1912D01*
D02*
G37*
G36*
X-64275Y-1882D02*
X-64305Y-1619D01*
X-64395Y-1384D01*
X-64545Y-1177D01*
X-64755Y-997D01*
X-65025Y-845D01*
X-65355Y-721D01*
X-65745Y-624D01*
X-66195Y-555D01*
X-66705Y-514D01*
X-67275Y-500D01*
Y2500D01*
X-66705Y2514D01*
X-66195Y2555D01*
X-65745Y2624D01*
X-65355Y2721D01*
X-65025Y2845D01*
X-64755Y2997D01*
X-64545Y3177D01*
X-64395Y3384D01*
X-64305Y3619D01*
X-64275Y3882D01*
Y-1882D01*
D02*
G37*
G36*
X103060Y-144D02*
X102890Y-204D01*
X102740Y-305D01*
X102610Y-446D01*
X102500Y-627D01*
X102410Y-848D01*
X102340Y-1110D01*
X102290Y-1411D01*
X102260Y-1753D01*
X102250Y-2136D01*
X100250D01*
X100240Y-1753D01*
X100210Y-1411D01*
X100160Y-1110D01*
X100090Y-848D01*
X100000Y-627D01*
X99890Y-446D01*
X99760Y-305D01*
X99610Y-204D01*
X99440Y-144D01*
X99250Y-124D01*
X103250D01*
X103060Y-144D01*
D02*
G37*
G36*
X-103500Y-6500D02*
X-108250D01*
X-111250Y-1500D01*
X-121000D01*
Y2000D01*
X-111250D01*
X-108750Y4500D01*
X-103500D01*
Y-6500D01*
D02*
G37*
G36*
X-53485Y-5517D02*
X-53440Y-6029D01*
X-53365Y-6481D01*
X-53260Y-6873D01*
X-53125Y-7204D01*
X-52960Y-7475D01*
X-52765Y-7686D01*
X-52540Y-7837D01*
X-52285Y-7927D01*
X-52000Y-7957D01*
X-58000D01*
X-57715Y-7927D01*
X-57460Y-7837D01*
X-57235Y-7686D01*
X-57040Y-7475D01*
X-56875Y-7204D01*
X-56740Y-6873D01*
X-56635Y-6481D01*
X-56560Y-6029D01*
X-56515Y-5517D01*
X-56500Y-4945D01*
X-53500D01*
X-53485Y-5517D01*
D02*
G37*
G36*
X116577Y1104D02*
X117577D01*
Y-2055D01*
X124085D01*
Y-3555D01*
X117577D01*
Y-6951D01*
X119856D01*
X119945Y-7066D01*
X120050Y-7147D01*
Y-9244D01*
X107254D01*
Y-9895D01*
X106792Y-10086D01*
X105285Y-8579D01*
Y-3148D01*
X108482D01*
Y2215D01*
X116577D01*
Y1104D01*
D02*
G37*
G36*
X125895Y-4947D02*
X125725Y-5007D01*
X125575Y-5108D01*
X125445Y-5249D01*
X125335Y-5430D01*
X125245Y-5651D01*
X125175Y-5913D01*
X125125Y-6214D01*
X125095Y-6556D01*
X125085Y-6939D01*
X123085D01*
X123075Y-6556D01*
X123045Y-6214D01*
X122995Y-5913D01*
X122925Y-5651D01*
X122835Y-5430D01*
X122725Y-5249D01*
X122595Y-5108D01*
X122445Y-5007D01*
X122275Y-4947D01*
X122085Y-4927D01*
X126085D01*
X125895Y-4947D01*
D02*
G37*
G36*
X-92010Y1662D02*
X-91919Y1407D01*
X-91769Y1182D01*
X-91558Y987D01*
X-91287Y822D01*
X-90955Y687D01*
X-90564Y582D01*
X-90112Y507D01*
X-89600Y462D01*
X-89028Y447D01*
Y-2553D01*
X-89600Y-2568D01*
X-90112Y-2613D01*
X-90500Y-2678D01*
X-90311Y-2899D01*
X-89906Y-3325D01*
Y-7567D01*
X-90139Y-7345D01*
X-90589Y-6970D01*
X-90808Y-6817D01*
X-91023Y-6688D01*
X-91233Y-6583D01*
X-91438Y-6501D01*
X-91639Y-6442D01*
X-91836Y-6407D01*
X-92028Y-6396D01*
X-92032Y-3977D01*
X-92040Y-4053D01*
Y1947D01*
X-92010Y1662D01*
D02*
G37*
G36*
X-2495Y11083D02*
X-2480Y10911D01*
X-2455Y10759D01*
X-2420Y10628D01*
X-2375Y10516D01*
X-2320Y10425D01*
X-2255Y10355D01*
X-2180Y10304D01*
X-2095Y10273D01*
X-2000Y10263D01*
X-4000D01*
X-3905Y10273D01*
X-3820Y10304D01*
X-3745Y10355D01*
X-3680Y10425D01*
X-3625Y10516D01*
X-3580Y10628D01*
X-3545Y10759D01*
X-3520Y10911D01*
X-3505Y11083D01*
X-3500Y11275D01*
X-2500D01*
X-2495Y11083D01*
D02*
G37*
G36*
X-4356Y26566D02*
X-4207Y26440D01*
X-4137Y26389D01*
X-4068Y26346D01*
X-4002Y26311D01*
X-3938Y26284D01*
X-3876Y26265D01*
X-3817Y26253D01*
X-3760Y26250D01*
X-4750Y25260D01*
X-4753Y25317D01*
X-4765Y25376D01*
X-4784Y25438D01*
X-4811Y25502D01*
X-4846Y25568D01*
X-4889Y25637D01*
X-4940Y25707D01*
X-4999Y25780D01*
X-5140Y25933D01*
X-4433Y26640D01*
X-4356Y26566D01*
D02*
G37*
G36*
X-104464Y24300D02*
X-104507Y24338D01*
X-104557Y24372D01*
X-104614Y24402D01*
X-104678Y24428D01*
X-104750Y24450D01*
X-104829Y24468D01*
X-104915Y24482D01*
X-105008Y24492D01*
X-105216Y24500D01*
Y25500D01*
X-105108Y25502D01*
X-104915Y25518D01*
X-104829Y25532D01*
X-104750Y25550D01*
X-104678Y25572D01*
X-104614Y25598D01*
X-104557Y25628D01*
X-104507Y25662D01*
X-104464Y25700D01*
Y24300D01*
D02*
G37*
G36*
X-108994Y35633D02*
X-108977Y35413D01*
X-108948Y35205D01*
X-108908Y35010D01*
X-108856Y34828D01*
X-108793Y34659D01*
X-108718Y34502D01*
X-108632Y34358D01*
X-108534Y34226D01*
X-108425Y34107D01*
X-108607D01*
X-108500Y34000D01*
Y33250D01*
X-108500Y32000D01*
X-110136Y30364D01*
X-110022Y30250D01*
X-110252Y30247D01*
X-114000Y26500D01*
X-121000D01*
Y27750D01*
Y29750D01*
X-115750D01*
X-111393Y34107D01*
X-111575D01*
X-111466Y34226D01*
X-111368Y34358D01*
X-111282Y34502D01*
X-111207Y34659D01*
X-111144Y34828D01*
X-111092Y35010D01*
X-111052Y35205D01*
X-111023Y35413D01*
X-111006Y35633D01*
X-111000Y35866D01*
X-109000D01*
X-108994Y35633D01*
D02*
G37*
G36*
X157001Y25750D02*
X156812Y25719D01*
X156577Y25627D01*
X156298Y25474D01*
X155975Y25260D01*
X155607Y24984D01*
X154738Y24248D01*
X154254Y23787D01*
X156931Y21111D01*
X155898Y21105D01*
X154056Y20993D01*
X153247Y20887D01*
X152513Y20747D01*
X151854Y20574D01*
X151269Y20368D01*
X150759Y20129D01*
X150324Y19856D01*
X149964Y19550D01*
X148550Y20964D01*
X148856Y21324D01*
X149129Y21759D01*
X149368Y22269D01*
X149574Y22854D01*
X149747Y23513D01*
X149887Y24247D01*
X149993Y25056D01*
X150105Y26898D01*
X150111Y27931D01*
X152772Y25269D01*
X154260Y26975D01*
X154474Y27298D01*
X154627Y27577D01*
X154719Y27812D01*
X154750Y28001D01*
X157001Y25750D01*
D02*
G37*
G36*
X2894Y25315D02*
X3043Y25190D01*
X3113Y25139D01*
X3182Y25096D01*
X3248Y25061D01*
X3312Y25034D01*
X3373Y25015D01*
X3433Y25003D01*
X3490Y25000D01*
X2500Y24010D01*
X2497Y24067D01*
X2485Y24126D01*
X2466Y24188D01*
X2439Y24252D01*
X2404Y24318D01*
X2361Y24387D01*
X2310Y24457D01*
X2251Y24530D01*
X2110Y24683D01*
X2817Y25390D01*
X2894Y25315D01*
D02*
G37*
G36*
X110369Y23652D02*
X110348Y23842D01*
X110288Y24012D01*
X110187Y24162D01*
X110047Y24292D01*
X109865Y24402D01*
X109644Y24492D01*
X109383Y24562D01*
X109081Y24612D01*
X108739Y24642D01*
X108356Y24652D01*
Y26652D01*
X108739Y26662D01*
X109081Y26692D01*
X109383Y26742D01*
X109644Y26812D01*
X109865Y26902D01*
X110047Y27012D01*
X110187Y27142D01*
X110288Y27292D01*
X110348Y27462D01*
X110369Y27652D01*
Y23652D01*
D02*
G37*
G36*
X-16743Y24912D02*
X-16693Y24878D01*
X-16636Y24848D01*
X-16571Y24822D01*
X-16500Y24800D01*
X-16421Y24782D01*
X-16335Y24768D01*
X-16242Y24758D01*
X-16034Y24750D01*
Y23750D01*
X-16142Y23748D01*
X-16335Y23732D01*
X-16421Y23718D01*
X-16500Y23700D01*
X-16571Y23678D01*
X-16636Y23652D01*
X-16693Y23622D01*
X-16743Y23588D01*
X-16786Y23550D01*
Y24950D01*
X-16743Y24912D01*
D02*
G37*
G36*
X-142000Y29500D02*
X-141500Y27500D01*
Y24000D01*
X-147000D01*
Y28000D01*
X-146750Y29250D01*
X-146000Y33000D01*
Y33500D01*
X-143000D01*
X-142000Y29500D01*
D02*
G37*
G36*
X127742Y27462D02*
X127803Y27292D01*
X127903Y27142D01*
X128044Y27012D01*
X128225Y26902D01*
X128446Y26812D01*
X128708Y26742D01*
X129010Y26692D01*
X129352Y26662D01*
X129734Y26652D01*
Y24652D01*
X129352Y24642D01*
X129010Y24612D01*
X128708Y24562D01*
X128446Y24492D01*
X128225Y24402D01*
X128044Y24292D01*
X127903Y24162D01*
X127803Y24012D01*
X127742Y23842D01*
X127722Y23652D01*
Y27652D01*
X127742Y27462D01*
D02*
G37*
G36*
X-100964Y27050D02*
X-101007Y27088D01*
X-101057Y27122D01*
X-101114Y27152D01*
X-101179Y27178D01*
X-101250Y27200D01*
X-101329Y27218D01*
X-101415Y27232D01*
X-101508Y27242D01*
X-101716Y27250D01*
Y28250D01*
X-101609Y28252D01*
X-101415Y28268D01*
X-101329Y28282D01*
X-101250Y28300D01*
X-101179Y28322D01*
X-101114Y28348D01*
X-101057Y28378D01*
X-101007Y28412D01*
X-100964Y28450D01*
Y27050D01*
D02*
G37*
G36*
X-448Y28854D02*
X-455Y28812D01*
X-462Y28752D01*
X-477Y28460D01*
X-484Y27809D01*
X-1484D01*
X-1529Y28877D01*
X-439D01*
X-448Y28854D01*
D02*
G37*
G36*
X-4385D02*
X-4392Y28812D01*
X-4399Y28752D01*
X-4414Y28460D01*
X-4421Y27809D01*
X-5421D01*
X-5466Y28877D01*
X-4376D01*
X-4385Y28854D01*
D02*
G37*
G36*
X7426D02*
X7419Y28812D01*
X7412Y28752D01*
X7397Y28460D01*
X7390Y27809D01*
X6390D01*
X6345Y28877D01*
X7435D01*
X7426Y28854D01*
D02*
G37*
G36*
X1521D02*
X1513Y28812D01*
X1506Y28752D01*
X1491Y28460D01*
X1484Y27809D01*
X484D01*
X439Y28877D01*
X1529D01*
X1521Y28854D01*
D02*
G37*
G36*
X-6353D02*
X-6361Y28812D01*
X-6368Y28752D01*
X-6383Y28460D01*
X-6390Y27809D01*
X-7390D01*
X-7435Y28877D01*
X-6345D01*
X-6353Y28854D01*
D02*
G37*
G36*
X-19634Y33641D02*
X-19540Y33636D01*
X-19451Y33625D01*
X-19417Y33617D01*
X-19396Y33617D01*
X-18898Y33552D01*
X-14448D01*
Y29102D01*
X-14392Y28673D01*
X-14375Y28280D01*
X-14835Y27780D01*
X-15570D01*
X-16456Y28147D01*
X-17500Y28284D01*
X-18544Y28147D01*
X-19517Y27744D01*
X-20353Y27103D01*
X-20994Y26267D01*
X-21397Y25294D01*
X-21534Y24250D01*
X-21397Y23206D01*
X-20994Y22233D01*
X-20719Y21875D01*
X-20994Y21517D01*
X-21397Y20544D01*
X-21534Y19500D01*
X-21397Y18456D01*
X-20994Y17483D01*
X-20353Y16647D01*
X-19517Y16006D01*
X-18544Y15603D01*
X-17500Y15465D01*
X-16456Y15603D01*
X-15570Y15970D01*
X-10250D01*
X-9336Y16090D01*
X-8485Y16443D01*
X-7754Y17004D01*
X-4394Y20364D01*
X-4013Y20860D01*
X-3746Y20924D01*
X-3430Y20912D01*
X-3383Y20891D01*
X-1115Y18623D01*
X-1276Y18149D01*
X-1294Y18147D01*
X-2267Y17744D01*
X-3103Y17103D01*
X-3744Y16267D01*
X-4111Y15382D01*
X-5496Y13996D01*
X-6040Y13287D01*
X-8894D01*
Y2720D01*
X-7894D01*
Y1746D01*
X-3000D01*
Y996D01*
X-2250D01*
Y-3287D01*
X1894D01*
Y-2534D01*
X3536D01*
X3767Y-2629D01*
X3856Y-2640D01*
X3941Y-2669D01*
X4247Y-2690D01*
X4550Y-2729D01*
X4640Y-2717D01*
X4730Y-2723D01*
X5030Y-2664D01*
X5333Y-2623D01*
X5416Y-2588D01*
X5505Y-2570D01*
X5701Y-2474D01*
X6160Y-2414D01*
X6797Y-2150D01*
X7297Y-2429D01*
Y-8131D01*
X-45602D01*
Y-4933D01*
X-49229D01*
X-49713Y-4894D01*
Y-2109D01*
X-49704Y-2066D01*
X-49711Y-1973D01*
X-49699Y-1882D01*
X-49713Y-1776D01*
Y3776D01*
X-49699Y3882D01*
X-49711Y3972D01*
X-49704Y4063D01*
X-49713Y4107D01*
Y6894D01*
X-50457D01*
Y7842D01*
X-48457D01*
Y9970D01*
X-45000D01*
X-44086Y10090D01*
X-43235Y10443D01*
X-42504Y11004D01*
X-19864Y33643D01*
X-19817D01*
X-19634Y33641D01*
D02*
G37*
G36*
X9401Y28863D02*
X9398Y28829D01*
X9391Y28368D01*
X9390Y27856D01*
X8390Y27762D01*
X8389Y27953D01*
X8341Y28795D01*
X8328Y28845D01*
X8313Y28877D01*
X9403D01*
X9401Y28863D01*
D02*
G37*
G36*
X-8322Y28854D02*
X-8330Y28812D01*
X-8336Y28752D01*
X-8351Y28460D01*
X-8358Y27809D01*
X-9358D01*
X-9403Y28877D01*
X-8313D01*
X-8322Y28854D01*
D02*
G37*
G36*
X-10290D02*
X-10298Y28812D01*
X-10305Y28752D01*
X-10320Y28460D01*
X-10327Y27809D01*
X-11327D01*
X-11372Y28877D01*
X-10282D01*
X-10290Y28854D01*
D02*
G37*
G36*
X-70510Y23250D02*
X-70567Y23247D01*
X-70626Y23235D01*
X-70688Y23216D01*
X-70752Y23189D01*
X-70818Y23154D01*
X-70887Y23111D01*
X-70957Y23060D01*
X-71030Y23001D01*
X-71183Y22860D01*
X-71890Y23567D01*
X-71816Y23644D01*
X-71690Y23793D01*
X-71639Y23863D01*
X-71596Y23932D01*
X-71561Y23998D01*
X-71534Y24062D01*
X-71515Y24124D01*
X-71503Y24183D01*
X-71500Y24240D01*
X-70510Y23250D01*
D02*
G37*
G36*
X-53485Y18575D02*
X-53440Y18066D01*
X-53365Y17616D01*
X-53260Y17225D01*
X-53125Y16895D01*
X-52960Y16625D01*
X-52765Y16416D01*
X-52540Y16265D01*
X-52285Y16175D01*
X-52000Y16146D01*
X-58000D01*
X-57715Y16175D01*
X-57460Y16265D01*
X-57235Y16416D01*
X-57040Y16625D01*
X-56875Y16895D01*
X-56740Y17225D01*
X-56635Y17616D01*
X-56560Y18066D01*
X-56515Y18575D01*
X-56500Y19146D01*
X-53500D01*
X-53485Y18575D01*
D02*
G37*
G36*
X-59539Y25815D02*
Y19158D01*
X-61543D01*
Y18158D01*
X-64565D01*
Y13500D01*
X-65315D01*
Y12750D01*
X-70858D01*
Y8843D01*
X-69854D01*
Y8815D01*
X-69699Y7640D01*
X-69246Y6545D01*
X-68857Y6039D01*
X-69103Y5539D01*
X-79815D01*
X-80007Y6001D01*
X-71320Y14687D01*
X-70858Y14496D01*
Y14250D01*
X-66065D01*
Y18158D01*
X-67197D01*
X-67388Y18619D01*
X-60001Y26007D01*
X-59539Y25815D01*
D02*
G37*
G36*
X-95486Y18752D02*
X-95456Y18412D01*
X-95406Y18112D01*
X-95336Y17852D01*
X-95246Y17632D01*
X-95136Y17452D01*
X-95006Y17312D01*
X-94856Y17212D01*
X-94686Y17152D01*
X-94496Y17132D01*
X-98496D01*
X-98306Y17152D01*
X-98136Y17212D01*
X-97986Y17312D01*
X-97856Y17452D01*
X-97746Y17632D01*
X-97656Y17852D01*
X-97586Y18112D01*
X-97536Y18412D01*
X-97506Y18752D01*
X-97496Y19132D01*
X-95496D01*
X-95486Y18752D01*
D02*
G37*
G36*
X6890Y17433D02*
X6815Y17356D01*
X6690Y17207D01*
X6639Y17137D01*
X6596Y17068D01*
X6561Y17002D01*
X6534Y16938D01*
X6515Y16876D01*
X6503Y16817D01*
X6500Y16760D01*
X5510Y17750D01*
X5567Y17753D01*
X5627Y17765D01*
X5688Y17784D01*
X5752Y17811D01*
X5818Y17846D01*
X5887Y17889D01*
X5957Y17940D01*
X6030Y17999D01*
X6183Y18140D01*
X6890Y17433D01*
D02*
G37*
G36*
X-141500Y13750D02*
X-147750D01*
X-150500Y14000D01*
X-152250D01*
X-153000Y14500D01*
X-153750Y15000D01*
X-153500Y16000D01*
X-152750Y17000D01*
X-148500D01*
X-147000Y17250D01*
X-141500D01*
Y13750D01*
D02*
G37*
G36*
X-53805Y14455D02*
X-53626Y14359D01*
X-53402Y14275D01*
X-53134Y14202D01*
X-52820Y14140D01*
X-52463Y14090D01*
X-51613Y14022D01*
X-51481Y14020D01*
Y14500D01*
X-51471Y14405D01*
X-51440Y14320D01*
X-51390Y14245D01*
X-51319Y14180D01*
X-51228Y14125D01*
X-51116Y14080D01*
X-50985Y14045D01*
X-50833Y14020D01*
X-50661Y14005D01*
X-50469Y14000D01*
Y13000D01*
X-50661Y12995D01*
X-50833Y12980D01*
X-50985Y12955D01*
X-51116Y12920D01*
X-51228Y12875D01*
X-51319Y12820D01*
X-51390Y12755D01*
X-51440Y12680D01*
X-51471Y12595D01*
X-51481Y12500D01*
Y12966D01*
X-52820Y12860D01*
X-53134Y12798D01*
X-53402Y12725D01*
X-53626Y12641D01*
X-53805Y12545D01*
X-53940Y12439D01*
Y14561D01*
X-53805Y14455D01*
D02*
G37*
G36*
X-94217Y16060D02*
X-94156Y15890D01*
X-94055Y15740D01*
X-93915Y15610D01*
X-93734Y15500D01*
X-93512Y15410D01*
X-93251Y15340D01*
X-92949Y15290D01*
X-92607Y15260D01*
X-92225Y15250D01*
Y13250D01*
X-92607Y13240D01*
X-92949Y13210D01*
X-93251Y13160D01*
X-93512Y13090D01*
X-93734Y13000D01*
X-93915Y12890D01*
X-94055Y12760D01*
X-94156Y12610D01*
X-94217Y12440D01*
X-94237Y12250D01*
Y16250D01*
X-94217Y16060D01*
D02*
G37*
G36*
X-105763Y13280D02*
X-105773Y13374D01*
X-105804Y13460D01*
X-105854Y13534D01*
X-105925Y13600D01*
X-106016Y13655D01*
X-106128Y13700D01*
X-106259Y13735D01*
X-106411Y13759D01*
X-106583Y13774D01*
X-106775Y13780D01*
Y14780D01*
X-106583Y14785D01*
X-106411Y14799D01*
X-106259Y14825D01*
X-106128Y14860D01*
X-106016Y14905D01*
X-105925Y14960D01*
X-105854Y15024D01*
X-105804Y15100D01*
X-105773Y15184D01*
X-105763Y15280D01*
Y13280D01*
D02*
G37*
G36*
X-260Y13250D02*
X-317Y13247D01*
X-377Y13235D01*
X-438Y13216D01*
X-502Y13189D01*
X-568Y13154D01*
X-637Y13111D01*
X-707Y13060D01*
X-780Y13001D01*
X-933Y12860D01*
X-1640Y13567D01*
X-1565Y13644D01*
X-1440Y13793D01*
X-1389Y13863D01*
X-1346Y13932D01*
X-1311Y13998D01*
X-1284Y14062D01*
X-1265Y14123D01*
X-1253Y14183D01*
X-1250Y14240D01*
X-260Y13250D01*
D02*
G37*
G36*
X125213Y19057D02*
X125243Y18714D01*
X125293Y18413D01*
X125363Y18151D01*
X125453Y17930D01*
X125563Y17749D01*
X125693Y17608D01*
X125843Y17507D01*
X126013Y17447D01*
X126203Y17427D01*
X122203D01*
X122393Y17447D01*
X122563Y17507D01*
X122713Y17608D01*
X122843Y17749D01*
X122953Y17930D01*
X123043Y18151D01*
X123113Y18413D01*
X123163Y18714D01*
X123193Y19057D01*
X123203Y19439D01*
X125203D01*
X125213Y19057D01*
D02*
G37*
G36*
X126013Y22998D02*
X125843Y22938D01*
X125693Y22837D01*
X125563Y22696D01*
X125453Y22515D01*
X125363Y22294D01*
X125293Y22032D01*
X125243Y21730D01*
X125213Y21388D01*
X125203Y21006D01*
X123203D01*
X123193Y21388D01*
X123163Y21730D01*
X123113Y22032D01*
X123043Y22294D01*
X122953Y22515D01*
X122843Y22696D01*
X122713Y22837D01*
X122563Y22938D01*
X122393Y22998D01*
X122203Y23018D01*
X126203D01*
X126013Y22998D01*
D02*
G37*
G36*
X101399Y36332D02*
X102416Y35911D01*
X103508Y35767D01*
X109807D01*
X110899Y35911D01*
X111624Y36211D01*
X111840Y36086D01*
X112193Y35235D01*
X112754Y34504D01*
X116487Y30771D01*
X116295Y30309D01*
X114638D01*
Y25652D01*
Y20994D01*
X117659D01*
Y20451D01*
X116577D01*
Y10284D01*
X108482D01*
Y15648D01*
X94018D01*
Y10284D01*
X90671D01*
X79801Y21155D01*
X79992Y21617D01*
X108148D01*
X108229Y21512D01*
X108344Y21423D01*
Y20994D01*
X108945D01*
X109003Y20970D01*
X109140Y20886D01*
X109367Y20819D01*
X109585Y20729D01*
X109744Y20708D01*
X109897Y20663D01*
X110134Y20657D01*
X110369Y20626D01*
X110527Y20647D01*
X110687Y20642D01*
X110917Y20698D01*
X111152Y20729D01*
X111300Y20790D01*
X111455Y20828D01*
X111663Y20941D01*
X111792Y20994D01*
X113138D01*
Y25652D01*
Y30309D01*
X111792D01*
X111663Y30363D01*
X111455Y30476D01*
X111300Y30513D01*
X111152Y30574D01*
X110917Y30605D01*
X110687Y30661D01*
X110527Y30657D01*
X110369Y30678D01*
X110134Y30647D01*
X109897Y30641D01*
X109744Y30595D01*
X109585Y30574D01*
X109367Y30484D01*
X109140Y30417D01*
X109003Y30333D01*
X108945Y30309D01*
X108344D01*
Y29880D01*
X108229Y29791D01*
X108148Y29686D01*
X99144D01*
Y32246D01*
X94250D01*
Y33746D01*
X99144D01*
Y34721D01*
X100144D01*
Y36022D01*
X100790Y36107D01*
X101376Y36350D01*
X101399Y36332D01*
D02*
G37*
G36*
X-100964Y22050D02*
X-101007Y22088D01*
X-101057Y22122D01*
X-101114Y22152D01*
X-101179Y22178D01*
X-101250Y22200D01*
X-101329Y22218D01*
X-101415Y22232D01*
X-101508Y22242D01*
X-101716Y22250D01*
Y23250D01*
X-101609Y23252D01*
X-101415Y23268D01*
X-101329Y23282D01*
X-101250Y23300D01*
X-101179Y23322D01*
X-101114Y23348D01*
X-101057Y23378D01*
X-101007Y23412D01*
X-100964Y23450D01*
Y22050D01*
D02*
G37*
G36*
X-11993Y22662D02*
X-11943Y22628D01*
X-11886Y22598D01*
X-11822Y22572D01*
X-11750Y22550D01*
X-11671Y22532D01*
X-11585Y22518D01*
X-11492Y22508D01*
X-11284Y22500D01*
Y21500D01*
X-11391Y21498D01*
X-11585Y21482D01*
X-11671Y21468D01*
X-11750Y21450D01*
X-11822Y21428D01*
X-11886Y21402D01*
X-11943Y21372D01*
X-11993Y21338D01*
X-12036Y21300D01*
Y22700D01*
X-11993Y22662D01*
D02*
G37*
G36*
X-76260Y21000D02*
X-76317Y20997D01*
X-76376Y20985D01*
X-76438Y20966D01*
X-76502Y20939D01*
X-76568Y20904D01*
X-76637Y20861D01*
X-76707Y20810D01*
X-76780Y20751D01*
X-76933Y20610D01*
X-77640Y21317D01*
X-77565Y21394D01*
X-77440Y21543D01*
X-77389Y21613D01*
X-77346Y21682D01*
X-77311Y21748D01*
X-77284Y21812D01*
X-77265Y21873D01*
X-77253Y21933D01*
X-77250Y21990D01*
X-76260Y21000D01*
D02*
G37*
G36*
X-16743Y20162D02*
X-16693Y20128D01*
X-16636Y20098D01*
X-16571Y20072D01*
X-16500Y20050D01*
X-16421Y20032D01*
X-16335Y20018D01*
X-16242Y20008D01*
X-16034Y20000D01*
Y19000D01*
X-16142Y18998D01*
X-16335Y18982D01*
X-16421Y18968D01*
X-16500Y18950D01*
X-16571Y18928D01*
X-16636Y18902D01*
X-16693Y18872D01*
X-16743Y18838D01*
X-16786Y18800D01*
Y20200D01*
X-16743Y20162D01*
D02*
G37*
G36*
X-140750Y22000D02*
Y19750D01*
X-141750Y18750D01*
X-146750D01*
X-147500Y19500D01*
Y22000D01*
X-147000Y22500D01*
X-141250D01*
X-140750Y22000D01*
D02*
G37*
G36*
X3536Y19800D02*
X3493Y19838D01*
X3443Y19872D01*
X3386Y19902D01*
X3322Y19928D01*
X3250Y19950D01*
X3171Y19968D01*
X3085Y19982D01*
X2992Y19992D01*
X2784Y20000D01*
Y21000D01*
X2892Y21002D01*
X3085Y21018D01*
X3171Y21032D01*
X3250Y21050D01*
X3322Y21072D01*
X3386Y21098D01*
X3443Y21128D01*
X3493Y21162D01*
X3536Y21200D01*
Y19800D01*
D02*
G37*
G36*
X-97000Y19500D02*
X-98000Y19750D01*
X-98750Y20000D01*
Y21000D01*
X-98000Y21250D01*
X-97000Y21500D01*
Y19500D01*
D02*
G37*
G36*
X-157466Y-22448D02*
X-157509Y-22410D01*
X-157559Y-22376D01*
X-157616Y-22346D01*
X-157680Y-22320D01*
X-157752Y-22298D01*
X-157831Y-22280D01*
X-157917Y-22266D01*
X-158010Y-22256D01*
X-158218Y-22248D01*
Y-21248D01*
X-158110Y-21246D01*
X-157917Y-21230D01*
X-157831Y-21216D01*
X-157752Y-21198D01*
X-157680Y-21176D01*
X-157616Y-21150D01*
X-157559Y-21120D01*
X-157509Y-21086D01*
X-157466Y-21048D01*
Y-22448D01*
D02*
G37*
G36*
X58719Y-85869D02*
X58568Y-85926D01*
X58435Y-86021D01*
X58320Y-86154D01*
X58222Y-86325D01*
X58142Y-86534D01*
X58080Y-86781D01*
X58035Y-87066D01*
X58009Y-87389D01*
X58000Y-87750D01*
X56000D01*
X55991Y-87389D01*
X55964Y-87066D01*
X55920Y-86781D01*
X55858Y-86534D01*
X55778Y-86325D01*
X55680Y-86154D01*
X55565Y-86021D01*
X55432Y-85926D01*
X55281Y-85869D01*
X55112Y-85850D01*
X58888D01*
X58719Y-85869D01*
D02*
G37*
G36*
X4518Y-86512D02*
X4570Y-87109D01*
X4657Y-87636D01*
X4780Y-88092D01*
X4938Y-88479D01*
X5130Y-88795D01*
X5358Y-89041D01*
X5620Y-89216D01*
X5917Y-89322D01*
X6250Y-89357D01*
X-750D01*
X-417Y-89322D01*
X-120Y-89216D01*
X143Y-89041D01*
X370Y-88795D01*
X563Y-88479D01*
X720Y-88092D01*
X843Y-87636D01*
X930Y-87109D01*
X982Y-86512D01*
X1000Y-85845D01*
X4500D01*
X4518Y-86512D01*
D02*
G37*
G36*
X87747Y-82748D02*
X88242Y-83168D01*
X88737Y-83539D01*
X89232Y-83861D01*
X89727Y-84133D01*
X90222Y-84356D01*
X90717Y-84529D01*
X91212Y-84653D01*
X91707Y-84727D01*
X92202Y-84752D01*
X82302D01*
X82748Y-84727D01*
X83094Y-84653D01*
X83342Y-84529D01*
X83490Y-84356D01*
X83540Y-84133D01*
X83490Y-83861D01*
X83342Y-83539D01*
X83094Y-83168D01*
X82748Y-82748D01*
X82302Y-82277D01*
X87252D01*
X87747Y-82748D01*
D02*
G37*
G36*
X134265Y-83450D02*
X134383Y-84890D01*
X134486Y-85475D01*
X134619Y-85970D01*
X134782Y-86375D01*
X134974Y-86690D01*
X135196Y-86915D01*
X135447Y-87050D01*
X135728Y-87095D01*
X128272D01*
X128553Y-87050D01*
X128804Y-86915D01*
X129026Y-86690D01*
X129218Y-86375D01*
X129381Y-85970D01*
X129514Y-85475D01*
X129617Y-84890D01*
X129691Y-84215D01*
X129750Y-82595D01*
X134250D01*
X134265Y-83450D01*
D02*
G37*
G36*
X-68393Y-85883D02*
X-68678Y-86018D01*
X-68929Y-86243D01*
X-69147Y-86558D01*
X-69331Y-86963D01*
X-69482Y-87458D01*
X-69599Y-88043D01*
X-69683Y-88718D01*
X-69733Y-89483D01*
X-69750Y-90338D01*
X-74250D01*
X-74267Y-89483D01*
X-74401Y-88043D01*
X-74518Y-87458D01*
X-74669Y-86963D01*
X-74853Y-86558D01*
X-75071Y-86243D01*
X-75322Y-86018D01*
X-75607Y-85883D01*
X-75925Y-85838D01*
X-68075D01*
X-68393Y-85883D01*
D02*
G37*
G36*
X74010Y-95857D02*
X74040Y-96199D01*
X74090Y-96501D01*
X74160Y-96762D01*
X74250Y-96984D01*
X74360Y-97165D01*
X74490Y-97306D01*
X74640Y-97406D01*
X74810Y-97466D01*
X75000Y-97487D01*
X71000D01*
X71190Y-97466D01*
X71360Y-97406D01*
X71510Y-97306D01*
X71640Y-97165D01*
X71750Y-96984D01*
X71840Y-96762D01*
X71910Y-96501D01*
X71960Y-96199D01*
X71990Y-95857D01*
X72000Y-95475D01*
X74000D01*
X74010Y-95857D01*
D02*
G37*
G36*
X64010D02*
X64040Y-96199D01*
X64090Y-96501D01*
X64160Y-96762D01*
X64250Y-96984D01*
X64360Y-97165D01*
X64490Y-97306D01*
X64640Y-97406D01*
X64810Y-97466D01*
X65000Y-97487D01*
X61000D01*
X61190Y-97466D01*
X61360Y-97406D01*
X61510Y-97306D01*
X61640Y-97165D01*
X61750Y-96984D01*
X61840Y-96762D01*
X61910Y-96501D01*
X61960Y-96199D01*
X61990Y-95857D01*
X62000Y-95475D01*
X64000D01*
X64010Y-95857D01*
D02*
G37*
G36*
X-126000Y-80000D02*
X-122750Y-88250D01*
X-123250Y-92500D01*
X-156250D01*
Y-85000D01*
X-138750D01*
X-133750Y-80000D01*
Y-67500D01*
X-126000D01*
Y-80000D01*
D02*
G37*
G36*
X34261Y-94640D02*
X34352Y-95760D01*
X34431Y-96215D01*
X34533Y-96600D01*
X34657Y-96915D01*
X34804Y-97160D01*
X34974Y-97335D01*
X35167Y-97440D01*
X35382Y-97475D01*
X29618D01*
X29833Y-97440D01*
X30026Y-97335D01*
X30196Y-97160D01*
X30343Y-96915D01*
X30467Y-96600D01*
X30569Y-96215D01*
X30648Y-95760D01*
X30705Y-95235D01*
X30750Y-93975D01*
X34250D01*
X34261Y-94640D01*
D02*
G37*
G36*
X157083Y-82183D02*
X156156Y-83143D01*
X154706Y-84846D01*
X154687Y-84873D01*
X154900Y-84988D01*
X155345Y-85148D01*
X155871Y-85273D01*
X156477Y-85362D01*
X157165Y-85415D01*
X157933Y-85433D01*
Y-89933D01*
X157165Y-89951D01*
X156477Y-90004D01*
X155871Y-90093D01*
X155345Y-90218D01*
X154900Y-90378D01*
X154536Y-90575D01*
X154253Y-90806D01*
X154051Y-91073D01*
X153930Y-91376D01*
X153889Y-91715D01*
Y-86102D01*
X153797Y-86262D01*
X153545Y-86862D01*
X153429Y-87391D01*
X153447Y-87848D01*
X153601Y-88234D01*
X153889Y-88547D01*
X146750Y-82983D01*
X147134Y-83201D01*
X147575Y-83299D01*
X148071Y-83278D01*
X148623Y-83138D01*
X149232Y-82878D01*
X149896Y-82499D01*
X150617Y-82001D01*
X151393Y-81383D01*
X152225Y-80646D01*
X153114Y-79789D01*
X157083Y-82183D01*
D02*
G37*
G36*
X30979Y-70310D02*
X30681Y-70416D01*
X30419Y-70591D01*
X30191Y-70837D01*
X29998Y-71153D01*
X29841Y-71539D01*
X29719Y-71996D01*
X29631Y-72523D01*
X29579Y-73120D01*
X29561Y-73787D01*
X26061D01*
X26043Y-73120D01*
X25991Y-72523D01*
X25903Y-71996D01*
X25781Y-71539D01*
X25624Y-71153D01*
X25431Y-70837D01*
X25203Y-70591D01*
X24941Y-70416D01*
X24644Y-70310D01*
X24311Y-70275D01*
X31311D01*
X30979Y-70310D01*
D02*
G37*
G36*
X7356D02*
X7059Y-70416D01*
X6797Y-70591D01*
X6569Y-70837D01*
X6376Y-71153D01*
X6219Y-71539D01*
X6097Y-71996D01*
X6009Y-72523D01*
X5957Y-73120D01*
X5939Y-73787D01*
X2439D01*
X2421Y-73120D01*
X2369Y-72523D01*
X2282Y-71996D01*
X2159Y-71539D01*
X2001Y-71153D01*
X1809Y-70837D01*
X1581Y-70591D01*
X1319Y-70416D01*
X1022Y-70310D01*
X689Y-70275D01*
X7689D01*
X7356Y-70310D01*
D02*
G37*
G36*
X132008Y-70787D02*
X131963Y-71018D01*
X131828Y-71224D01*
X131603Y-71406D01*
X131288Y-71563D01*
X130883Y-71697D01*
X130388Y-71806D01*
X129803Y-71891D01*
X129128Y-71952D01*
X127508Y-72000D01*
Y-67500D01*
X128365Y-67478D01*
X129131Y-67410D01*
X129807Y-67298D01*
X130393Y-67140D01*
X130890Y-66938D01*
X131296Y-66690D01*
X131612Y-66398D01*
X131838Y-66060D01*
X131974Y-65677D01*
X132020Y-65250D01*
X132008Y-70787D01*
D02*
G37*
G36*
X165157Y-70805D02*
X165032Y-70895D01*
X164922Y-71045D01*
X164826Y-71255D01*
X164745Y-71525D01*
X164679Y-71855D01*
X164627Y-72244D01*
X164568Y-73204D01*
X164561Y-73774D01*
X160061D01*
X160054Y-73204D01*
X159943Y-71855D01*
X159877Y-71525D01*
X159796Y-71255D01*
X159700Y-71045D01*
X159590Y-70895D01*
X159465Y-70805D01*
X159325Y-70775D01*
X165297D01*
X165157Y-70805D01*
D02*
G37*
G36*
X-179808Y-73763D02*
X-179595Y-73930D01*
X-179373Y-74077D01*
X-179140Y-74205D01*
X-178897Y-74312D01*
X-178644Y-74399D01*
X-178380Y-74466D01*
X-178107Y-74513D01*
X-177823Y-74540D01*
X-177530Y-74547D01*
X-180453Y-77470D01*
X-180460Y-77177D01*
X-180487Y-76893D01*
X-180534Y-76620D01*
X-180601Y-76357D01*
X-180688Y-76103D01*
X-180795Y-75860D01*
X-180922Y-75627D01*
X-181070Y-75405D01*
X-181237Y-75192D01*
X-181424Y-74990D01*
X-180010Y-73576D01*
X-179808Y-73763D01*
D02*
G37*
G36*
X27376Y-81683D02*
X26647Y-82437D01*
X25508Y-83773D01*
X25099Y-84354D01*
X24985Y-84552D01*
X25011Y-84613D01*
X25163Y-84805D01*
X25376Y-84972D01*
X25650Y-85113D01*
X25985Y-85228D01*
X26381Y-85318D01*
X26837Y-85382D01*
X27355Y-85420D01*
X27933Y-85433D01*
Y-88933D01*
X27355Y-88946D01*
X26381Y-89048D01*
X25985Y-89138D01*
X25650Y-89253D01*
X25376Y-89394D01*
X25163Y-89561D01*
X25011Y-89753D01*
X24920Y-89971D01*
X24889Y-90215D01*
Y-84718D01*
X24797Y-84878D01*
X24602Y-85344D01*
X24513Y-85753D01*
X24532Y-86104D01*
X24657Y-86397D01*
X24889Y-86633D01*
X19164Y-82483D01*
X19471Y-82644D01*
X19819Y-82714D01*
X20209Y-82694D01*
X20641Y-82582D01*
X21116Y-82379D01*
X21632Y-82084D01*
X22189Y-81699D01*
X22789Y-81222D01*
X23430Y-80655D01*
X24114Y-79996D01*
X27376Y-81683D01*
D02*
G37*
G36*
X58193Y-79317D02*
X58152Y-79461D01*
X58117Y-79670D01*
X58086Y-79943D01*
X58021Y-81150D01*
X58000Y-82936D01*
X56000D01*
X55998Y-82276D01*
X55807Y-79317D01*
X55762Y-79237D01*
X58238D01*
X58193Y-79317D01*
D02*
G37*
G36*
X-78638Y-68148D02*
X-77098Y-69508D01*
X-76797Y-69726D01*
X-76529Y-69896D01*
X-76294Y-70017D01*
X-76093Y-70090D01*
X-75925Y-70114D01*
X-75913Y-80415D01*
X-75946Y-79780D01*
X-76042Y-79145D01*
X-76202Y-78510D01*
X-76426Y-77874D01*
X-76713Y-77237D01*
X-77065Y-76601D01*
X-77480Y-75964D01*
X-77958Y-75327D01*
X-78501Y-74689D01*
X-79107Y-74051D01*
Y-67687D01*
X-78638Y-68148D01*
D02*
G37*
G36*
X60948Y-74832D02*
X61054Y-75130D01*
X61229Y-75393D01*
X61475Y-75620D01*
X61791Y-75813D01*
X62177Y-75970D01*
X62634Y-76092D01*
X63161Y-76180D01*
X63758Y-76232D01*
X64425Y-76250D01*
Y-79750D01*
X63758Y-79768D01*
X63161Y-79820D01*
X62634Y-79908D01*
X62177Y-80030D01*
X61791Y-80187D01*
X61475Y-80380D01*
X61229Y-80607D01*
X61054Y-80870D01*
X60948Y-81168D01*
X60913Y-81500D01*
Y-74500D01*
X60948Y-74832D01*
D02*
G37*
G36*
X164006Y-94330D02*
X164158Y-96850D01*
X164227Y-97255D01*
X164310Y-97570D01*
X164404Y-97795D01*
X164512Y-97930D01*
X164632Y-97975D01*
X158868D01*
X158988Y-97930D01*
X159096Y-97795D01*
X159190Y-97570D01*
X159273Y-97255D01*
X159342Y-96850D01*
X159399Y-96355D01*
X159475Y-95095D01*
X159500Y-93475D01*
X164000D01*
X164006Y-94330D01*
D02*
G37*
G36*
X122271Y-103583D02*
X122376Y-103880D01*
X122552Y-104142D01*
X122798Y-104370D01*
X123114Y-104562D01*
X123500Y-104720D01*
X123957Y-104842D01*
X124484Y-104930D01*
X125081Y-104982D01*
X125319Y-104989D01*
X125437Y-104986D01*
X126557Y-104877D01*
X127012Y-104781D01*
X127397Y-104657D01*
X127712Y-104507D01*
X127957Y-104329D01*
X128132Y-104123D01*
X128237Y-103890D01*
X128272Y-103630D01*
Y-109905D01*
X128237Y-109638D01*
X128132Y-109399D01*
X127957Y-109189D01*
X127712Y-109006D01*
X127397Y-108851D01*
X127012Y-108725D01*
X126557Y-108626D01*
X126032Y-108556D01*
X125437Y-108514D01*
X125312Y-108511D01*
X125081Y-108518D01*
X124484Y-108570D01*
X123957Y-108658D01*
X123500Y-108780D01*
X123114Y-108938D01*
X122798Y-109130D01*
X122552Y-109358D01*
X122376Y-109620D01*
X122271Y-109917D01*
X122236Y-110250D01*
Y-103250D01*
X122271Y-103583D01*
D02*
G37*
G36*
X163524Y-107341D02*
X163598Y-107472D01*
X163720Y-107645D01*
X163847Y-107805D01*
X164620Y-107307D01*
X164480Y-107434D01*
X164404Y-107596D01*
X164390Y-107792D01*
X164438Y-108023D01*
X164550Y-108289D01*
X164724Y-108589D01*
X164960Y-108924D01*
X165260Y-109293D01*
X166046Y-110136D01*
X165719Y-110265D01*
X164533Y-111451D01*
X164065Y-110986D01*
X162865Y-109932D01*
X162621Y-109763D01*
X162327Y-109595D01*
X162055Y-109478D01*
X161806Y-109411D01*
X161579Y-109395D01*
X161375Y-109429D01*
X161193Y-109513D01*
X161883Y-109069D01*
X161837Y-109028D01*
X161749Y-109004D01*
X163500Y-107253D01*
X163524Y-107341D01*
D02*
G37*
G36*
X13902Y-109323D02*
X13876Y-109159D01*
X13797Y-109013D01*
X13667Y-108883D01*
X13484Y-108771D01*
X13249Y-108676D01*
X12961Y-108599D01*
X12622Y-108538D01*
X12230Y-108495D01*
X11289Y-108461D01*
Y-104961D01*
X11786Y-104952D01*
X12622Y-104883D01*
X12961Y-104823D01*
X13249Y-104745D01*
X13484Y-104650D01*
X13667Y-104538D01*
X13797Y-104409D01*
X13876Y-104262D01*
X13902Y-104098D01*
Y-109323D01*
D02*
G37*
G36*
X153925Y-104043D02*
X154030Y-104341D01*
X154205Y-104603D01*
X154451Y-104831D01*
X154767Y-105023D01*
X155154Y-105181D01*
X155610Y-105303D01*
X156137Y-105391D01*
X156494Y-105422D01*
X158308Y-105289D01*
X158553Y-105226D01*
X158728Y-105155D01*
X158833Y-105073D01*
X158868Y-104982D01*
Y-109525D01*
X158833Y-109418D01*
X158728Y-109322D01*
X158553Y-109237D01*
X158308Y-109164D01*
X157993Y-109102D01*
X157608Y-109051D01*
X156655Y-108985D01*
X156137Y-109031D01*
X155610Y-109118D01*
X155154Y-109241D01*
X154767Y-109398D01*
X154451Y-109591D01*
X154205Y-109818D01*
X154030Y-110081D01*
X153925Y-110378D01*
X153889Y-110711D01*
Y-103711D01*
X153925Y-104043D01*
D02*
G37*
G36*
X35146Y-104930D02*
X35026Y-105229D01*
X35012Y-105585D01*
X35103Y-105996D01*
X35300Y-106463D01*
X35601Y-106986D01*
X36007Y-107565D01*
X36518Y-108199D01*
X37857Y-109636D01*
X34771Y-111500D01*
X34080Y-110834D01*
X32828Y-109779D01*
X32268Y-109391D01*
X31751Y-109096D01*
X31278Y-108893D01*
X30848Y-108784D01*
X30463Y-108767D01*
X30120Y-108844D01*
X29822Y-109013D01*
X35370Y-104686D01*
X35146Y-104930D01*
D02*
G37*
G36*
X91348Y-112261D02*
X90931Y-112335D01*
X90504Y-112460D01*
X90067Y-112634D01*
X89622Y-112858D01*
X89166Y-113131D01*
X88702Y-113454D01*
X88228Y-113827D01*
X87252Y-114723D01*
X83763Y-113263D01*
X83937Y-113067D01*
X84051Y-112893D01*
X84102Y-112739D01*
X84093Y-112606D01*
X84022Y-112493D01*
X83890Y-112400D01*
X83697Y-112328D01*
X83442Y-112277D01*
X83126Y-112246D01*
X82748Y-112236D01*
X91756D01*
X91348Y-112261D01*
D02*
G37*
G36*
X-37791D02*
X-38284Y-112335D01*
X-38778Y-112460D01*
X-39272Y-112634D01*
X-39767Y-112858D01*
X-40262Y-113131D01*
X-40758Y-113454D01*
X-41254Y-113827D01*
X-41751Y-114250D01*
X-42248Y-114723D01*
X-45987Y-113513D01*
X-45770Y-113270D01*
X-45627Y-113053D01*
X-45560Y-112861D01*
X-45568Y-112696D01*
X-45652Y-112555D01*
X-45810Y-112440D01*
X-46044Y-112351D01*
X-46353Y-112287D01*
X-46738Y-112249D01*
X-47198Y-112236D01*
X-37298D01*
X-37791Y-112261D01*
D02*
G37*
G36*
X6491Y-106657D02*
X6567Y-106785D01*
X6693Y-106898D01*
X6869Y-106996D01*
X7095Y-107079D01*
X7372Y-107147D01*
X7699Y-107200D01*
X8077Y-107238D01*
X8982Y-107268D01*
Y-110768D01*
X8504Y-110775D01*
X7699Y-110836D01*
X7372Y-110888D01*
X7095Y-110956D01*
X6869Y-111039D01*
X6693Y-111137D01*
X6567Y-111250D01*
X6491Y-111379D01*
X6466Y-111522D01*
Y-106514D01*
X6491Y-106657D01*
D02*
G37*
G36*
X-7228Y-105850D02*
X-7123Y-106148D01*
X-6947Y-106410D01*
X-6701Y-106638D01*
X-6385Y-106830D01*
X-5998Y-106988D01*
X-5542Y-107110D01*
X-5015Y-107198D01*
X-4419Y-107250D01*
X-4074Y-107259D01*
X-3813Y-107254D01*
X-2693Y-107143D01*
X-2238Y-107046D01*
X-1853Y-106921D01*
X-1538Y-106768D01*
X-1293Y-106588D01*
X-1118Y-106380D01*
X-1013Y-106144D01*
X-978Y-105880D01*
Y-112155D01*
X-1013Y-111892D01*
X-1118Y-111656D01*
X-1293Y-111448D01*
X-1538Y-111267D01*
X-1853Y-111115D01*
X-2238Y-110990D01*
X-2693Y-110893D01*
X-3218Y-110823D01*
X-3813Y-110782D01*
X-4104Y-110775D01*
X-4417Y-110783D01*
X-5537Y-110901D01*
X-5992Y-111004D01*
X-6377Y-111138D01*
X-6692Y-111301D01*
X-6937Y-111493D01*
X-7112Y-111715D01*
X-7217Y-111967D01*
X-7252Y-112248D01*
X-7264Y-105518D01*
X-7228Y-105850D01*
D02*
G37*
G36*
X24925Y-103543D02*
X25030Y-103841D01*
X25205Y-104103D01*
X25451Y-104331D01*
X25767Y-104523D01*
X26154Y-104681D01*
X26610Y-104803D01*
X27137Y-104891D01*
X27380Y-104912D01*
X29058Y-104788D01*
X29303Y-104726D01*
X29478Y-104655D01*
X29583Y-104573D01*
X29618Y-104482D01*
Y-109025D01*
X29583Y-108918D01*
X29478Y-108822D01*
X29303Y-108737D01*
X29058Y-108664D01*
X28743Y-108602D01*
X28358Y-108551D01*
X27545Y-108495D01*
X27137Y-108531D01*
X26610Y-108618D01*
X26154Y-108741D01*
X25767Y-108898D01*
X25451Y-109091D01*
X25205Y-109318D01*
X25030Y-109581D01*
X24925Y-109878D01*
X24889Y-110211D01*
Y-103211D01*
X24925Y-103543D01*
D02*
G37*
G36*
X60130Y-101746D02*
X60110Y-101556D01*
X60050Y-101386D01*
X59949Y-101236D01*
X59808Y-101106D01*
X59627Y-100996D01*
X59406Y-100906D01*
X59144Y-100836D01*
X58843Y-100786D01*
X58501Y-100756D01*
X58125Y-100746D01*
X57752Y-100756D01*
X57412Y-100786D01*
X57112Y-100836D01*
X56852Y-100906D01*
X56632Y-100996D01*
X56452Y-101106D01*
X56312Y-101236D01*
X56212Y-101386D01*
X56152Y-101556D01*
X56132Y-101746D01*
Y-97746D01*
X56152Y-97936D01*
X56212Y-98106D01*
X56312Y-98256D01*
X56452Y-98386D01*
X56632Y-98496D01*
X56852Y-98586D01*
X57112Y-98656D01*
X57412Y-98706D01*
X57752Y-98736D01*
X58125Y-98746D01*
X58501Y-98736D01*
X58843Y-98706D01*
X59144Y-98656D01*
X59406Y-98586D01*
X59627Y-98496D01*
X59808Y-98386D01*
X59949Y-98256D01*
X60050Y-98106D01*
X60110Y-97936D01*
X60130Y-97746D01*
Y-101746D01*
D02*
G37*
G36*
X40380D02*
X40360Y-101556D01*
X40300Y-101386D01*
X40199Y-101236D01*
X40058Y-101106D01*
X39877Y-100996D01*
X39656Y-100906D01*
X39394Y-100836D01*
X39093Y-100786D01*
X38751Y-100756D01*
X38368Y-100746D01*
Y-98746D01*
X38751Y-98736D01*
X39093Y-98706D01*
X39394Y-98656D01*
X39656Y-98586D01*
X39877Y-98496D01*
X40058Y-98386D01*
X40199Y-98256D01*
X40300Y-98106D01*
X40360Y-97936D01*
X40380Y-97746D01*
Y-101746D01*
D02*
G37*
G36*
X27047Y-33453D02*
X28209D01*
Y-37516D01*
X24423Y-41301D01*
X23662Y-42294D01*
X23183Y-43449D01*
X23020Y-44689D01*
Y-54701D01*
X19693D01*
Y-73299D01*
X23020D01*
Y-76789D01*
X21402Y-78407D01*
X21377Y-78431D01*
X20844Y-78903D01*
X20386Y-79267D01*
X20108Y-79459D01*
X10890D01*
Y-94907D01*
X26606D01*
Y-97369D01*
X26592Y-97475D01*
X26606Y-97580D01*
Y-99986D01*
X20152D01*
Y-106711D01*
Y-113435D01*
X26913D01*
Y-112439D01*
X27029Y-112350D01*
X27173Y-112162D01*
X27336Y-111990D01*
X27413Y-111850D01*
X27510Y-111724D01*
X27528Y-111679D01*
X28052Y-111605D01*
X28105Y-111646D01*
X28181Y-111677D01*
X28248Y-111723D01*
X28544Y-111828D01*
X28835Y-111948D01*
X28916Y-111959D01*
X28993Y-111986D01*
X29306Y-112010D01*
X29618Y-112051D01*
X29699Y-112041D01*
X29780Y-112047D01*
X29867Y-112031D01*
X30019Y-112012D01*
X30240Y-112010D01*
X30409Y-111963D01*
X30583Y-111942D01*
X30613Y-111930D01*
X30653Y-111953D01*
X30988Y-112185D01*
X32052Y-113082D01*
X33228Y-114258D01*
X33037Y-114720D01*
X8451D01*
X8200Y-114220D01*
X8240Y-114167D01*
X8490D01*
Y-113811D01*
X8517Y-113809D01*
X8982D01*
X10222Y-113646D01*
X11378Y-113167D01*
X11441Y-113118D01*
X11890Y-113339D01*
Y-113435D01*
X18652D01*
Y-106711D01*
Y-99986D01*
X11890D01*
Y-101861D01*
X11822Y-101913D01*
X11739Y-101920D01*
X11289D01*
X10049Y-102083D01*
X8894Y-102561D01*
X7902Y-103323D01*
X7536Y-103688D01*
X7503Y-103671D01*
X7373Y-103642D01*
X7249Y-103591D01*
X6989Y-103557D01*
X6732Y-103499D01*
X6599Y-103505D01*
X6466Y-103488D01*
X6205Y-103522D01*
X5943Y-103533D01*
X5815Y-103573D01*
X5683Y-103591D01*
X5440Y-103691D01*
X5189Y-103770D01*
X5077Y-103842D01*
X5014Y-103868D01*
X3500D01*
Y-109018D01*
X2000D01*
Y-103868D01*
X1259D01*
X1161Y-103741D01*
X1005Y-103621D01*
X867Y-103481D01*
X693Y-103381D01*
X535Y-103260D01*
X353Y-103184D01*
X183Y-103086D01*
X-10Y-103034D01*
X-195Y-102957D01*
X-390Y-102932D01*
X-580Y-102881D01*
X-780Y-102880D01*
X-978Y-102854D01*
X-1173Y-102880D01*
X-1370Y-102880D01*
X-1563Y-102931D01*
X-1761Y-102957D01*
X-1943Y-103033D01*
X-2133Y-103083D01*
X-2306Y-103183D01*
X-2491Y-103260D01*
X-2647Y-103379D01*
X-2818Y-103478D01*
X-2959Y-103619D01*
X-3118Y-103741D01*
X-3238Y-103897D01*
X-3377Y-104035D01*
X-3459Y-104178D01*
X-3950Y-104227D01*
X-4259D01*
X-4563Y-104200D01*
X-4646Y-104000D01*
X-4744Y-103874D01*
X-4820Y-103734D01*
X-4984Y-103562D01*
X-5128Y-103374D01*
X-5240Y-103289D01*
Y-99250D01*
X-28500D01*
X-51760D01*
Y-109959D01*
X-56568D01*
X-56904Y-109589D01*
X-56833Y-108874D01*
X-56948Y-107707D01*
X-57289Y-106585D01*
X-57841Y-105551D01*
X-58345Y-104937D01*
X-57841Y-104323D01*
X-57289Y-103289D01*
X-56948Y-102167D01*
X-56833Y-101000D01*
X-56948Y-99833D01*
X-57289Y-98711D01*
X-57841Y-97677D01*
X-58345Y-97063D01*
X-57841Y-96449D01*
X-57289Y-95415D01*
X-56948Y-94293D01*
X-56833Y-93126D01*
X-56948Y-91959D01*
X-57289Y-90837D01*
X-57841Y-89803D01*
X-58585Y-88896D01*
X-59492Y-88152D01*
X-60526Y-87600D01*
X-61648Y-87259D01*
X-62815Y-87144D01*
X-63982Y-87259D01*
X-64661Y-87466D01*
X-65063Y-87168D01*
Y-85944D01*
X-65049Y-85838D01*
X-65063Y-85733D01*
Y-78541D01*
X-22750D01*
X-21510Y-78378D01*
X-20355Y-77899D01*
X-19362Y-77138D01*
X-11726Y-69502D01*
X-10965Y-68510D01*
X-10486Y-67354D01*
X-10323Y-66114D01*
Y-64098D01*
X-10008D01*
Y-61259D01*
X-9996Y-61184D01*
X-10000Y-61135D01*
X-9994Y-61086D01*
X-10008Y-60981D01*
Y-45041D01*
X-7984D01*
X-602Y-52424D01*
Y-54701D01*
X-5504D01*
Y-73299D01*
X-602D01*
Y-74576D01*
X-638Y-74612D01*
X-1399Y-75604D01*
X-1878Y-76760D01*
X-2041Y-78000D01*
Y-86333D01*
X-3990D01*
Y-98632D01*
X9490D01*
Y-86333D01*
X7541D01*
Y-79984D01*
X7577Y-79949D01*
X8338Y-78957D01*
X8817Y-77801D01*
X8980Y-76561D01*
Y-73299D01*
X12307D01*
Y-54701D01*
X8980D01*
Y-50439D01*
X8817Y-49199D01*
X8338Y-48044D01*
X7577Y-47051D01*
X-2612Y-36862D01*
X-2692Y-36801D01*
X-2617Y-36228D01*
X-1979Y-35964D01*
X-986Y-35203D01*
X1925Y-32291D01*
X27047D01*
Y-33453D01*
D02*
G37*
G36*
X35390Y-97936D02*
X35450Y-98106D01*
X35551Y-98256D01*
X35692Y-98386D01*
X35873Y-98496D01*
X36094Y-98586D01*
X36356Y-98656D01*
X36657Y-98706D01*
X36999Y-98736D01*
X37336Y-98745D01*
X37436Y-98746D01*
Y-100746D01*
X37373Y-100746D01*
X36999Y-100756D01*
X36657Y-100786D01*
X36356Y-100836D01*
X36094Y-100906D01*
X35873Y-100996D01*
X35692Y-101106D01*
X35551Y-101236D01*
X35450Y-101386D01*
X35390Y-101556D01*
X35370Y-101746D01*
Y-100839D01*
X33817Y-100939D01*
X33737Y-100984D01*
Y-98508D01*
X33817Y-98553D01*
X33961Y-98594D01*
X34170Y-98629D01*
X34443Y-98660D01*
X35370Y-98710D01*
Y-97746D01*
X35390Y-97936D01*
D02*
G37*
G36*
X-67250Y-99250D02*
X-61000D01*
Y-102750D01*
X-84750D01*
Y-99250D01*
X-76750D01*
X-73750Y-96250D01*
X-70250D01*
X-67250Y-99250D01*
D02*
G37*
G36*
X50380Y-108754D02*
X50360Y-108564D01*
X50300Y-108394D01*
X50199Y-108244D01*
X50058Y-108114D01*
X49877Y-108004D01*
X49656Y-107914D01*
X49394Y-107844D01*
X49093Y-107794D01*
X48751Y-107764D01*
X48368Y-107754D01*
Y-105754D01*
X48751Y-105744D01*
X49093Y-105714D01*
X49394Y-105664D01*
X49656Y-105594D01*
X49877Y-105504D01*
X50058Y-105394D01*
X50199Y-105264D01*
X50300Y-105114D01*
X50360Y-104944D01*
X50380Y-104754D01*
Y-108754D01*
D02*
G37*
G36*
X46152Y-104944D02*
X46212Y-105114D01*
X46312Y-105264D01*
X46452Y-105394D01*
X46632Y-105504D01*
X46852Y-105594D01*
X47112Y-105664D01*
X47412Y-105714D01*
X47752Y-105744D01*
X48132Y-105754D01*
Y-107754D01*
X47752Y-107764D01*
X47412Y-107794D01*
X47112Y-107844D01*
X46852Y-107914D01*
X46632Y-108004D01*
X46452Y-108114D01*
X46312Y-108244D01*
X46212Y-108394D01*
X46152Y-108564D01*
X46132Y-108754D01*
Y-104754D01*
X46152Y-104944D01*
D02*
G37*
G36*
X70130Y-108754D02*
X70110Y-108564D01*
X70050Y-108394D01*
X69949Y-108244D01*
X69808Y-108114D01*
X69627Y-108004D01*
X69406Y-107914D01*
X69144Y-107844D01*
X68843Y-107794D01*
X68501Y-107764D01*
X68118Y-107754D01*
Y-105754D01*
X68501Y-105744D01*
X68843Y-105714D01*
X69144Y-105664D01*
X69406Y-105594D01*
X69627Y-105504D01*
X69808Y-105394D01*
X69949Y-105264D01*
X70050Y-105114D01*
X70110Y-104944D01*
X70130Y-104754D01*
Y-108754D01*
D02*
G37*
G36*
X65902Y-104944D02*
X65962Y-105114D01*
X66062Y-105264D01*
X66202Y-105394D01*
X66382Y-105504D01*
X66602Y-105594D01*
X66862Y-105664D01*
X67162Y-105714D01*
X67502Y-105744D01*
X67882Y-105754D01*
Y-107754D01*
X67502Y-107764D01*
X67162Y-107794D01*
X66862Y-107844D01*
X66602Y-107914D01*
X66382Y-108004D01*
X66202Y-108114D01*
X66062Y-108244D01*
X65962Y-108394D01*
X65902Y-108564D01*
X65882Y-108754D01*
Y-104754D01*
X65902Y-104944D01*
D02*
G37*
G36*
X-81071Y-38251D02*
X-80995Y-38391D01*
X-80831Y-38563D01*
X-80687Y-38752D01*
X-80560Y-38849D01*
X-80559Y-38850D01*
Y-39156D01*
X-80161D01*
X-80060Y-39233D01*
X-79913Y-39294D01*
X-79777Y-39377D01*
X-79550Y-39444D01*
X-79330Y-39535D01*
X-79172Y-39556D01*
X-79020Y-39601D01*
X-78782Y-39607D01*
X-78547Y-39638D01*
X-78389Y-39617D01*
X-78230Y-39621D01*
X-77999Y-39566D01*
X-77764Y-39535D01*
X-77617Y-39474D01*
X-77462Y-39437D01*
X-77254Y-39324D01*
X-77034Y-39233D01*
X-76933Y-39156D01*
X-76241D01*
X-75688Y-39384D01*
X-75339Y-39430D01*
X-75171Y-39650D01*
X-75417Y-40150D01*
X-77937D01*
Y-49274D01*
X-72000D01*
Y-50024D01*
X-71250D01*
Y-59898D01*
X-66063D01*
Y-55752D01*
X-65947Y-55663D01*
X-65803Y-55475D01*
X-65640Y-55303D01*
X-65564Y-55163D01*
X-65466Y-55037D01*
X-65386Y-54841D01*
X-65082Y-54815D01*
X-59461D01*
X-57663Y-56612D01*
X-56671Y-57373D01*
X-55516Y-57852D01*
X-54276Y-58015D01*
X-46973D01*
X-46677Y-58041D01*
Y-59735D01*
X-46770Y-59983D01*
X-46903Y-60303D01*
X-46909Y-60352D01*
X-46927Y-60398D01*
X-46961Y-60743D01*
X-47006Y-61086D01*
X-47000Y-61135D01*
X-47004Y-61184D01*
X-46948Y-61526D01*
X-46903Y-61870D01*
X-46884Y-61915D01*
X-46876Y-61964D01*
X-46787Y-62160D01*
X-46677Y-63843D01*
Y-64864D01*
X-46514Y-66104D01*
X-46035Y-67260D01*
X-45274Y-68252D01*
X-45028Y-68497D01*
X-45220Y-68959D01*
X-65063D01*
Y-67102D01*
X-75251D01*
X-76396Y-66091D01*
X-84955Y-57533D01*
Y-42500D01*
X-85135Y-41129D01*
X-85664Y-39852D01*
X-86506Y-38756D01*
X-86648Y-38613D01*
X-86457Y-38151D01*
X-81148D01*
X-81071Y-38251D01*
D02*
G37*
G36*
X-73237Y-32285D02*
X-73146Y-32540D01*
X-72996Y-32765D01*
X-72785Y-32960D01*
X-72513Y-33125D01*
X-72182Y-33260D01*
X-71791Y-33365D01*
X-71339Y-33440D01*
X-70828Y-33485D01*
X-70256Y-33500D01*
Y-36500D01*
X-70826Y-36506D01*
X-72176Y-36603D01*
X-72506Y-36661D01*
X-72776Y-36732D01*
X-72986Y-36815D01*
X-73136Y-36912D01*
X-73226Y-37021D01*
X-73256Y-37143D01*
X-73268Y-32000D01*
X-73237Y-32285D01*
D02*
G37*
G36*
X159102Y-32713D02*
X159180Y-33333D01*
X159308Y-33939D01*
X159488Y-34532D01*
X159720Y-35112D01*
X160003Y-35677D01*
X160337Y-36230D01*
X160723Y-36768D01*
X161161Y-37293D01*
X161650Y-37804D01*
X152004D01*
X152493Y-37293D01*
X152930Y-36768D01*
X153316Y-36230D01*
X153650Y-35677D01*
X153934Y-35112D01*
X154165Y-34532D01*
X154345Y-33939D01*
X154474Y-33333D01*
X154551Y-32713D01*
X154577Y-32078D01*
X159077D01*
X159102Y-32713D01*
D02*
G37*
G36*
X-37633Y-35315D02*
X-37669Y-34982D01*
X-37774Y-34685D01*
X-37950Y-34422D01*
X-38195Y-34195D01*
X-38511Y-34003D01*
X-38898Y-33845D01*
X-39354Y-33722D01*
X-39881Y-33635D01*
X-40478Y-33582D01*
X-41146Y-33565D01*
Y-30065D01*
X-40478Y-30048D01*
X-39881Y-29995D01*
X-39354Y-29908D01*
X-38898Y-29785D01*
X-38511Y-29627D01*
X-38195Y-29435D01*
X-37950Y-29208D01*
X-37774Y-28945D01*
X-37669Y-28648D01*
X-37633Y-28315D01*
Y-35315D01*
D02*
G37*
G36*
X-78547Y-36612D02*
X-78577Y-36327D01*
X-78667Y-36072D01*
X-78817Y-35847D01*
X-79027Y-35652D01*
X-79297Y-35487D01*
X-79627Y-35352D01*
X-80017Y-35247D01*
X-80467Y-35172D01*
X-80977Y-35127D01*
X-81547Y-35112D01*
Y-32112D01*
X-80977Y-32097D01*
X-80467Y-32052D01*
X-80017Y-31977D01*
X-79627Y-31872D01*
X-79297Y-31737D01*
X-79027Y-31572D01*
X-78817Y-31377D01*
X-78667Y-31152D01*
X-78577Y-30897D01*
X-78547Y-30612D01*
Y-36612D01*
D02*
G37*
G36*
X-66177Y-38000D02*
X-66207Y-37715D01*
X-66297Y-37460D01*
X-66448Y-37235D01*
X-66659Y-37040D01*
X-66930Y-36875D01*
X-67261Y-36740D01*
X-67653Y-36635D01*
X-68104Y-36560D01*
X-68616Y-36515D01*
X-69189Y-36500D01*
Y-33500D01*
X-68616Y-33485D01*
X-68104Y-33440D01*
X-67653Y-33365D01*
X-67261Y-33260D01*
X-66930Y-33125D01*
X-66659Y-32960D01*
X-66448Y-32765D01*
X-66297Y-32540D01*
X-66207Y-32285D01*
X-66177Y-32000D01*
Y-38000D01*
D02*
G37*
G36*
X95813Y-43090D02*
X95902Y-44352D01*
X95956Y-44661D01*
X96021Y-44914D01*
X96098Y-45110D01*
X96187Y-45250D01*
X96289Y-45334D01*
X96401Y-45362D01*
X92213D01*
X92326Y-45334D01*
X92427Y-45250D01*
X92516Y-45110D01*
X92593Y-44914D01*
X92659Y-44661D01*
X92712Y-44352D01*
X92754Y-43988D01*
X92801Y-43090D01*
X92807Y-42557D01*
X95807D01*
X95813Y-43090D01*
D02*
G37*
G36*
X-33439Y-42527D02*
X-33274Y-45047D01*
X-33223Y-45222D01*
X-33164Y-45327D01*
X-33099Y-45362D01*
X-37287D01*
X-37222Y-45327D01*
X-37163Y-45222D01*
X-37112Y-45047D01*
X-37067Y-44802D01*
X-37029Y-44487D01*
X-36974Y-43647D01*
X-36943Y-41862D01*
X-33443D01*
X-33439Y-42527D01*
D02*
G37*
G36*
X-32561Y-35381D02*
X-32746Y-35486D01*
X-32910Y-35661D01*
X-33051Y-35906D01*
X-33171Y-36221D01*
X-33269Y-36606D01*
X-33345Y-37061D01*
X-33399Y-37586D01*
X-33443Y-38846D01*
X-36943D01*
X-36950Y-38181D01*
X-37055Y-36606D01*
X-37119Y-36221D01*
X-37196Y-35906D01*
X-37287Y-35661D01*
X-37393Y-35486D01*
X-37512Y-35381D01*
X-37646Y-35346D01*
X-32355D01*
X-32561Y-35381D01*
D02*
G37*
G36*
X116139Y-42527D02*
X116305Y-45047D01*
X116356Y-45222D01*
X116415Y-45327D01*
X116480Y-45362D01*
X112292D01*
X112357Y-45327D01*
X112416Y-45222D01*
X112467Y-45047D01*
X112512Y-44802D01*
X112550Y-44487D01*
X112605Y-43647D01*
X112636Y-41862D01*
X116136D01*
X116139Y-42527D01*
D02*
G37*
G36*
X-32320Y-28648D02*
X-32214Y-28945D01*
X-32039Y-29208D01*
X-31795Y-29435D01*
X-31479Y-29627D01*
X-31095Y-29785D01*
X-30639Y-29908D01*
X-30114Y-29995D01*
X-29520Y-30048D01*
X-28855Y-30065D01*
Y-33565D01*
X-29520Y-33582D01*
X-30114Y-33635D01*
X-30639Y-33722D01*
X-31095Y-33845D01*
X-31479Y-34003D01*
X-31795Y-34195D01*
X-32039Y-34422D01*
X-32214Y-34685D01*
X-32320Y-34982D01*
X-32355Y-35315D01*
Y-28315D01*
X-32320Y-28648D01*
D02*
G37*
G36*
Y-18332D02*
X-32214Y-18630D01*
X-32039Y-18892D01*
X-31795Y-19120D01*
X-31479Y-19312D01*
X-31095Y-19470D01*
X-30639Y-19592D01*
X-30114Y-19680D01*
X-29520Y-19733D01*
X-28855Y-19750D01*
Y-23250D01*
X-29520Y-23268D01*
X-30114Y-23320D01*
X-30639Y-23407D01*
X-31095Y-23530D01*
X-31479Y-23687D01*
X-31795Y-23880D01*
X-32039Y-24107D01*
X-32214Y-24370D01*
X-32320Y-24667D01*
X-32355Y-25000D01*
Y-18000D01*
X-32320Y-18332D01*
D02*
G37*
G36*
X63516Y-23031D02*
X63563Y-23253D01*
X63641Y-23485D01*
X63751Y-23728D01*
X63892Y-23980D01*
X64064Y-24242D01*
X64268Y-24515D01*
X64769Y-25089D01*
X65067Y-25391D01*
X60933D01*
X61231Y-25089D01*
X61732Y-24515D01*
X61936Y-24242D01*
X62108Y-23980D01*
X62249Y-23728D01*
X62359Y-23485D01*
X62437Y-23253D01*
X62484Y-23031D01*
X62500Y-22818D01*
X63500D01*
X63516Y-23031D01*
D02*
G37*
G36*
X-168589Y-19979D02*
X-168015Y-20480D01*
X-167742Y-20684D01*
X-167480Y-20856D01*
X-167228Y-20997D01*
X-166985Y-21107D01*
X-166753Y-21185D01*
X-166531Y-21232D01*
X-166318Y-21248D01*
Y-22248D01*
X-166531Y-22264D01*
X-166753Y-22311D01*
X-166985Y-22389D01*
X-167228Y-22499D01*
X-167480Y-22640D01*
X-167742Y-22812D01*
X-168015Y-23016D01*
X-168589Y-23517D01*
X-168891Y-23815D01*
Y-19681D01*
X-168589Y-19979D01*
D02*
G37*
G36*
X59470Y14288D02*
Y-22485D01*
X59458Y-22504D01*
X59378Y-22611D01*
X59011Y-23031D01*
X58794Y-23251D01*
X58770Y-23270D01*
X58026Y-24177D01*
X57731Y-24729D01*
X57145Y-24766D01*
X56532Y-23968D01*
X55498Y-23174D01*
X54293Y-22675D01*
X53750Y-22603D01*
Y-27500D01*
Y-32397D01*
X54293Y-32325D01*
X55498Y-31826D01*
X56532Y-31032D01*
X57145Y-30234D01*
X57731Y-30271D01*
X58026Y-30823D01*
X58770Y-31730D01*
X59677Y-32473D01*
X60711Y-33026D01*
X61833Y-33367D01*
X63000Y-33481D01*
X64167Y-33367D01*
X65289Y-33026D01*
X66323Y-32473D01*
X67230Y-31730D01*
X67677Y-31185D01*
X68323D01*
X68752Y-31707D01*
X68770Y-31734D01*
X68661Y-32287D01*
X67902Y-32601D01*
X66909Y-33362D01*
X61158Y-39114D01*
X61143Y-39122D01*
X61128Y-39129D01*
X61110Y-39136D01*
X61085Y-39142D01*
X61049Y-39149D01*
X60996Y-39155D01*
X60819Y-39161D01*
X60747Y-39173D01*
X50063D01*
Y-45256D01*
X38494D01*
X38476Y-45243D01*
X37139Y-44689D01*
X35703Y-44500D01*
X35406Y-44539D01*
X35185Y-44090D01*
X36388Y-42888D01*
X37149Y-41895D01*
X37628Y-40740D01*
X37791Y-39500D01*
Y-33453D01*
X38953D01*
Y-32464D01*
X39405Y-32250D01*
X39677Y-32473D01*
X40711Y-33026D01*
X41833Y-33367D01*
X43000Y-33481D01*
X44167Y-33367D01*
X45289Y-33026D01*
X46323Y-32473D01*
X47230Y-31730D01*
X47973Y-30823D01*
X48269Y-30271D01*
X48855Y-30234D01*
X49468Y-31032D01*
X50502Y-31826D01*
X51707Y-32325D01*
X52250Y-32397D01*
Y-27500D01*
Y-22603D01*
X51707Y-22675D01*
X50502Y-23174D01*
X49468Y-23968D01*
X48855Y-24766D01*
X48269Y-24729D01*
X47973Y-24177D01*
X47260Y-23308D01*
X47257Y-23303D01*
X47254Y-23301D01*
X47230Y-23270D01*
X47211Y-23255D01*
X47129Y-23169D01*
X47089Y-23120D01*
X47064Y-23085D01*
X47049Y-23061D01*
X47042Y-23046D01*
X47038Y-23036D01*
X47035Y-23026D01*
X47034Y-23022D01*
Y-21000D01*
X46897Y-19956D01*
X46494Y-18983D01*
X45853Y-18147D01*
X37018Y-9313D01*
X36183Y-8671D01*
X35210Y-8268D01*
X34165Y-8131D01*
X34165Y-8131D01*
X14357D01*
Y-3684D01*
X14606Y-3287D01*
X18750D01*
Y996D01*
X19500D01*
Y1746D01*
X24394D01*
Y2720D01*
X25394D01*
Y4474D01*
X26004D01*
X26918Y4594D01*
X27769Y4947D01*
X28500Y5508D01*
X40246Y17254D01*
X40807Y17985D01*
X41160Y18836D01*
X41280Y19750D01*
Y31824D01*
X41742Y32015D01*
X59470Y14288D01*
D02*
G37*
G36*
X44011Y-23226D02*
X44043Y-23494D01*
X44096Y-23756D01*
X44171Y-24011D01*
X44267Y-24258D01*
X44384Y-24499D01*
X44523Y-24732D01*
X44683Y-24959D01*
X44864Y-25179D01*
X45067Y-25391D01*
X40933D01*
X41136Y-25179D01*
X41317Y-24959D01*
X41477Y-24732D01*
X41616Y-24499D01*
X41733Y-24258D01*
X41829Y-24011D01*
X41904Y-23756D01*
X41957Y-23494D01*
X41989Y-23226D01*
X42000Y-22950D01*
X44000D01*
X44011Y-23226D01*
D02*
G37*
G36*
X30059Y-30441D02*
X35941D01*
X35715Y-30476D01*
X35512Y-30581D01*
X35333Y-30756D01*
X35179Y-31001D01*
X35048Y-31316D01*
X34940Y-31701D01*
X34857Y-32156D01*
X34798Y-32681D01*
X34762Y-33276D01*
X34750Y-33941D01*
X31250D01*
X31238Y-33276D01*
X31143Y-32156D01*
X31060Y-31701D01*
X30952Y-31316D01*
X30821Y-31001D01*
X30667Y-30756D01*
X30488Y-30581D01*
X30286Y-30476D01*
X30059Y-30441D01*
X30024Y-30215D01*
X29919Y-30012D01*
X29744Y-29833D01*
X29499Y-29679D01*
X29184Y-29548D01*
X28799Y-29441D01*
X28344Y-29357D01*
X27819Y-29298D01*
X27224Y-29262D01*
X26559Y-29250D01*
Y-25750D01*
X27224Y-25738D01*
X28344Y-25643D01*
X28799Y-25559D01*
X29184Y-25452D01*
X29499Y-25321D01*
X29744Y-25166D01*
X29919Y-24988D01*
X30024Y-24785D01*
X30059Y-24559D01*
Y-30441D01*
D02*
G37*
G36*
X-43886Y-30524D02*
X-43867Y-30537D01*
X-43851Y-30561D01*
X-43839Y-30596D01*
X-43830Y-30641D01*
X-43825Y-30697D01*
X-43824Y-30751D01*
X-41522Y-33052D01*
X-41960Y-33486D01*
X-43616Y-34958D01*
X-43731Y-35015D01*
X-43800Y-35019D01*
X-43823Y-34969D01*
Y-30764D01*
X-43824Y-30751D01*
X-43997Y-30577D01*
X-43964Y-30548D01*
X-43935Y-30529D01*
X-43909Y-30521D01*
X-43886Y-30524D01*
D02*
G37*
G36*
X73504Y-22819D02*
X73520Y-23031D01*
X73567Y-23254D01*
X73645Y-23486D01*
X73755Y-23728D01*
X73895Y-23981D01*
X74068Y-24243D01*
X74271Y-24516D01*
X74772Y-25091D01*
X75070Y-25394D01*
X70936Y-25389D01*
X71234Y-25087D01*
X71736Y-24513D01*
X71939Y-24241D01*
X72112Y-23979D01*
X72253Y-23727D01*
X72363Y-23485D01*
X72441Y-23253D01*
X72488Y-23030D01*
X72504Y-22818D01*
X73504Y-22819D01*
D02*
G37*
G36*
X-53494Y-28074D02*
X-53399Y-29424D01*
X-53342Y-29754D01*
X-53272Y-30024D01*
X-53189Y-30234D01*
X-53094Y-30384D01*
X-52987Y-30474D01*
X-52866Y-30504D01*
X-57134D01*
X-57013Y-30474D01*
X-56906Y-30384D01*
X-56810Y-30234D01*
X-56728Y-30024D01*
X-56658Y-29754D01*
X-56601Y-29424D01*
X-56557Y-29034D01*
X-56506Y-28074D01*
X-56500Y-27504D01*
X-53500D01*
X-53494Y-28074D01*
D02*
G37*
G36*
X-20002Y-45374D02*
X-23612D01*
X-23602Y-45356D01*
X-23593Y-45302D01*
X-23584Y-45211D01*
X-23566Y-44720D01*
X-23557Y-43557D01*
X-20057D01*
X-20002Y-45374D01*
D02*
G37*
G36*
X103029Y-61121D02*
X102970Y-61226D01*
X102919Y-61401D01*
X102874Y-61646D01*
X102836Y-61961D01*
X102781Y-62801D01*
X102750Y-64586D01*
X99250D01*
X99247Y-63921D01*
X99081Y-61401D01*
X99030Y-61226D01*
X98971Y-61121D01*
X98906Y-61086D01*
X103094D01*
X103029Y-61121D01*
D02*
G37*
G36*
X89643D02*
X89584Y-61226D01*
X89533Y-61401D01*
X89488Y-61646D01*
X89450Y-61961D01*
X89395Y-62801D01*
X89364Y-64586D01*
X85864D01*
X85861Y-63921D01*
X85695Y-61401D01*
X85644Y-61226D01*
X85585Y-61121D01*
X85520Y-61086D01*
X89709D01*
X89643Y-61121D01*
D02*
G37*
G36*
X5957Y-54880D02*
X6009Y-55477D01*
X6097Y-56004D01*
X6219Y-56460D01*
X6376Y-56847D01*
X6569Y-57163D01*
X6797Y-57409D01*
X7059Y-57584D01*
X7356Y-57690D01*
X7689Y-57725D01*
X689D01*
X1022Y-57690D01*
X1319Y-57584D01*
X1581Y-57409D01*
X1809Y-57163D01*
X2001Y-56847D01*
X2159Y-56460D01*
X2282Y-56004D01*
X2369Y-55477D01*
X2421Y-54880D01*
X2439Y-54213D01*
X5939D01*
X5957Y-54880D01*
D02*
G37*
G36*
X43268Y60209D02*
X43383Y59042D01*
X43724Y57920D01*
X44276Y56885D01*
X45020Y55979D01*
X45927Y55235D01*
X46961Y54682D01*
X48083Y54342D01*
X49250Y54227D01*
X50417Y54342D01*
X51539Y54682D01*
X52573Y55235D01*
X53480Y55979D01*
X54220Y56881D01*
X54261Y56885D01*
X54720Y56669D01*
Y44430D01*
X54353Y43544D01*
X54216Y42500D01*
X54353Y41456D01*
X54756Y40483D01*
X55397Y39647D01*
X56233Y39006D01*
X57206Y38603D01*
X58042Y38493D01*
X58252Y37987D01*
X58893Y37151D01*
X59729Y36510D01*
X60702Y36107D01*
X61466Y36006D01*
Y29750D01*
X61466Y29750D01*
X61603Y28706D01*
X62006Y27733D01*
X62647Y26897D01*
X86147Y3397D01*
X86983Y2756D01*
X87956Y2353D01*
X89000Y2215D01*
X89000Y2215D01*
X94018D01*
Y-3148D01*
X97215D01*
Y-10250D01*
X97215Y-10250D01*
X97353Y-11294D01*
X97756Y-12267D01*
X98397Y-13103D01*
X103049Y-17754D01*
X103049Y-17754D01*
X103884Y-18396D01*
X104857Y-18799D01*
X105902Y-18936D01*
X105902Y-18936D01*
X107254D01*
Y-20559D01*
X120341D01*
Y-19559D01*
X123362D01*
Y-14902D01*
X124112D01*
Y-14152D01*
X129656D01*
Y-10244D01*
X128313D01*
X128224Y-10129D01*
X128119Y-10048D01*
Y-8168D01*
X128580Y-7831D01*
X128816Y-7800D01*
X129053Y-7794D01*
X129206Y-7749D01*
X129364Y-7728D01*
X129583Y-7637D01*
X129811Y-7570D01*
X129946Y-7486D01*
X130094Y-7426D01*
X130282Y-7281D01*
X130484Y-7157D01*
X130594Y-7042D01*
X130720Y-6945D01*
X130801Y-6840D01*
X132945D01*
X132945Y-6840D01*
X133989Y-6702D01*
X134962Y-6299D01*
X135798Y-5658D01*
X140821Y-634D01*
X141245Y-917D01*
X140885Y-1787D01*
X140705Y-3158D01*
X140885Y-4528D01*
X141414Y-5805D01*
X142256Y-6902D01*
X142755Y-7285D01*
X142714Y-7783D01*
X142567Y-7862D01*
X141630Y-8630D01*
X140862Y-9567D01*
X140291Y-10635D01*
X139939Y-11795D01*
X139821Y-13000D01*
X139939Y-14206D01*
X140291Y-15365D01*
X140862Y-16433D01*
X141276Y-16937D01*
X140862Y-17441D01*
X140291Y-18509D01*
X139939Y-19669D01*
X139821Y-20874D01*
X139939Y-22080D01*
X140291Y-23239D01*
X140862Y-24307D01*
X141630Y-25243D01*
X141998Y-25545D01*
Y-26045D01*
X141630Y-26347D01*
X140862Y-27283D01*
X140291Y-28352D01*
X139939Y-29511D01*
X139821Y-30716D01*
X139939Y-31922D01*
X140291Y-33081D01*
X140705Y-33855D01*
Y-48189D01*
X140885Y-49560D01*
X141414Y-50837D01*
X142256Y-51933D01*
X145061Y-54739D01*
X144870Y-55201D01*
X128996D01*
Y-64365D01*
X128749Y-64406D01*
X128196Y-64455D01*
X119839D01*
X119492Y-64098D01*
Y-45468D01*
X119506Y-45362D01*
X119500Y-45314D01*
X119504Y-45265D01*
X119492Y-45190D01*
Y-42350D01*
X119177D01*
Y-41636D01*
X119014Y-40396D01*
X118535Y-39240D01*
X117774Y-38248D01*
X112888Y-33362D01*
X111896Y-32601D01*
X110740Y-32122D01*
X109500Y-31959D01*
X107688D01*
X107452Y-31459D01*
X107974Y-30823D01*
X108526Y-29789D01*
X108867Y-28667D01*
X108982Y-27500D01*
X108867Y-26333D01*
X108526Y-25211D01*
X107974Y-24177D01*
X107230Y-23270D01*
X106323Y-22526D01*
X105289Y-21974D01*
X104167Y-21633D01*
X103000Y-21519D01*
X101833Y-21633D01*
X100711Y-21974D01*
X99677Y-22526D01*
X98770Y-23270D01*
X98323Y-23815D01*
X97677D01*
X97230Y-23270D01*
X96323Y-22526D01*
X95289Y-21974D01*
X94167Y-21633D01*
X93000Y-21519D01*
X91833Y-21633D01*
X90711Y-21974D01*
X89677Y-22526D01*
X88770Y-23270D01*
X88323Y-23815D01*
X87677D01*
X87230Y-23270D01*
X86323Y-22526D01*
X85289Y-21974D01*
X84167Y-21633D01*
X83000Y-21519D01*
X81833Y-21633D01*
X80711Y-21974D01*
X79677Y-22526D01*
X78770Y-23270D01*
X78323Y-23815D01*
X77677D01*
X77230Y-23270D01*
X77207Y-23252D01*
X76994Y-23035D01*
X76628Y-22614D01*
X76547Y-22507D01*
X76534Y-22487D01*
Y-12500D01*
X76530Y-12470D01*
Y9000D01*
X76410Y9914D01*
X76057Y10765D01*
X75496Y11496D01*
X34992Y52001D01*
X35183Y52463D01*
X38144D01*
Y55996D01*
X33250D01*
Y57496D01*
X38144D01*
Y58470D01*
X39144D01*
Y60224D01*
X43255D01*
X43268Y60209D01*
D02*
G37*
G36*
X-13085Y-61121D02*
X-13144Y-61226D01*
X-13195Y-61401D01*
X-13240Y-61646D01*
X-13278Y-61961D01*
X-13333Y-62801D01*
X-13364Y-64586D01*
X-16864D01*
X-16868Y-63921D01*
X-17033Y-61401D01*
X-17085Y-61226D01*
X-17143Y-61121D01*
X-17209Y-61086D01*
X-13020D01*
X-13085Y-61121D01*
D02*
G37*
G36*
X157001Y-55976D02*
X158728Y-57449D01*
X159477Y-57977D01*
X160152Y-58366D01*
X160750Y-58616D01*
X161273Y-58727D01*
X161720Y-58698D01*
X162092Y-58531D01*
X162388Y-58225D01*
X157217Y-65758D01*
X157417Y-65356D01*
X157502Y-64902D01*
X157471Y-64396D01*
X157325Y-63837D01*
X157064Y-63227D01*
X156686Y-62565D01*
X156194Y-61850D01*
X155586Y-61083D01*
X154862Y-60265D01*
X154023Y-59394D01*
X156024Y-55031D01*
X157001Y-55976D01*
D02*
G37*
G36*
X-138750Y-67250D02*
X-156250D01*
Y-62000D01*
X-155750Y-60000D01*
X-154500Y-57750D01*
X-152750Y-56500D01*
X-150250Y-56000D01*
X-138750D01*
Y-67250D01*
D02*
G37*
G36*
X-26471Y-61121D02*
X-26530Y-61226D01*
X-26581Y-61401D01*
X-26626Y-61646D01*
X-26664Y-61961D01*
X-26719Y-62801D01*
X-26750Y-64586D01*
X-30250D01*
X-30253Y-63921D01*
X-30419Y-61401D01*
X-30470Y-61226D01*
X-30529Y-61121D01*
X-30594Y-61086D01*
X-26406D01*
X-26471Y-61121D01*
D02*
G37*
G36*
X-39857D02*
X-39915Y-61226D01*
X-39967Y-61401D01*
X-40012Y-61646D01*
X-40050Y-61961D01*
X-40105Y-62801D01*
X-40136Y-64586D01*
X-43636D01*
X-43639Y-63921D01*
X-43804Y-61401D01*
X-43856Y-61226D01*
X-43915Y-61121D01*
X-43980Y-61086D01*
X-39792D01*
X-39857Y-61121D01*
D02*
G37*
G36*
X29579Y-54880D02*
X29631Y-55477D01*
X29719Y-56004D01*
X29841Y-56460D01*
X29998Y-56847D01*
X30191Y-57163D01*
X30419Y-57409D01*
X30681Y-57584D01*
X30979Y-57690D01*
X31311Y-57725D01*
X24311D01*
X24644Y-57690D01*
X24941Y-57584D01*
X25203Y-57409D01*
X25431Y-57163D01*
X25624Y-56847D01*
X25781Y-56460D01*
X25903Y-56004D01*
X25991Y-55477D01*
X26043Y-54880D01*
X26061Y-54213D01*
X29561D01*
X29579Y-54880D01*
D02*
G37*
G36*
X182710Y-49573D02*
X182737Y-49857D01*
X182784Y-50130D01*
X182851Y-50393D01*
X182938Y-50647D01*
X183045Y-50890D01*
X183173Y-51122D01*
X183320Y-51345D01*
X183487Y-51558D01*
X183674Y-51760D01*
X182260Y-53174D01*
X182058Y-52987D01*
X181845Y-52820D01*
X181623Y-52672D01*
X181390Y-52545D01*
X181147Y-52438D01*
X180894Y-52351D01*
X180630Y-52284D01*
X180357Y-52237D01*
X180073Y-52210D01*
X179780Y-52203D01*
X182703Y-49279D01*
X182710Y-49573D01*
D02*
G37*
G36*
X89524Y-41936D02*
X89435Y-42350D01*
X89201D01*
Y-43350D01*
X88364D01*
Y-53224D01*
X86864D01*
Y-43350D01*
X83508D01*
Y-50773D01*
X83465Y-50829D01*
X82986Y-51984D01*
X82823Y-53224D01*
Y-59735D01*
X82730Y-59983D01*
X82597Y-60303D01*
X82591Y-60352D01*
X82573Y-60398D01*
X82539Y-60743D01*
X82494Y-61086D01*
X82500Y-61135D01*
X82496Y-61184D01*
X82552Y-61526D01*
X82597Y-61870D01*
X82616Y-61915D01*
X82624Y-61964D01*
X82713Y-62160D01*
X82823Y-63843D01*
Y-65614D01*
X82986Y-66854D01*
X83465Y-68010D01*
X84226Y-69002D01*
X86862Y-71638D01*
X87854Y-72399D01*
X89010Y-72878D01*
X90250Y-73041D01*
X98000D01*
X99240Y-72878D01*
X100396Y-72399D01*
X101388Y-71638D01*
X103610Y-69415D01*
X103949Y-69437D01*
X108006Y-73494D01*
X109102Y-74336D01*
X110380Y-74865D01*
X111750Y-75045D01*
X126705D01*
Y-83071D01*
X126671Y-83995D01*
X126661Y-84083D01*
X125260D01*
Y-86989D01*
X125246Y-87095D01*
X125260Y-87200D01*
Y-96382D01*
X138740D01*
Y-87200D01*
X138754Y-87095D01*
X138740Y-86989D01*
Y-84083D01*
X137353D01*
X137295Y-83382D01*
Y-73799D01*
X146807D01*
Y-57138D01*
X147269Y-56947D01*
X152590Y-62268D01*
X152638Y-62317D01*
X153265Y-63027D01*
X153760Y-63651D01*
X154121Y-64175D01*
X154193Y-64301D01*
Y-73799D01*
X154193D01*
X154370Y-74226D01*
X150225Y-78371D01*
X150171Y-78423D01*
X149446Y-79065D01*
X148811Y-79570D01*
X148282Y-79936D01*
X148243Y-79959D01*
X146742D01*
X146727Y-79957D01*
X146714Y-79959D01*
X139890D01*
Y-95407D01*
X155856D01*
Y-97869D01*
X155842Y-97975D01*
X155856Y-98080D01*
Y-100486D01*
X149152D01*
Y-107211D01*
Y-113935D01*
X155913D01*
Y-112939D01*
X156029Y-112850D01*
X156173Y-112662D01*
X156336Y-112490D01*
X156413Y-112350D01*
X156510Y-112224D01*
X156591Y-112028D01*
X156684Y-112020D01*
X157242Y-112059D01*
X157355Y-112146D01*
X157431Y-112177D01*
X157498Y-112223D01*
X157794Y-112328D01*
X158085Y-112448D01*
X158166Y-112459D01*
X158243Y-112486D01*
X158556Y-112510D01*
X158868Y-112551D01*
X158949Y-112541D01*
X159030Y-112547D01*
X159339Y-112489D01*
X159652Y-112448D01*
X159727Y-112417D01*
X159807Y-112402D01*
X160035Y-112293D01*
X160156Y-112356D01*
X160357Y-112401D01*
X160552Y-112471D01*
X160741Y-112486D01*
X160927Y-112528D01*
X161133Y-112519D01*
X161234Y-112527D01*
X161921Y-113131D01*
X163048Y-114258D01*
X162857Y-114720D01*
X124356D01*
X124260Y-114260D01*
X124260D01*
Y-112478D01*
X124375Y-112390D01*
X124520Y-112202D01*
X124683Y-112030D01*
X124759Y-111890D01*
X124856Y-111763D01*
X124937Y-111568D01*
X125241Y-111541D01*
X125345D01*
X125724Y-111568D01*
X125771Y-111574D01*
X125772Y-111575D01*
X125870Y-111746D01*
X126011Y-111887D01*
X126132Y-112045D01*
X126289Y-112165D01*
X126428Y-112305D01*
X126601Y-112405D01*
X126759Y-112526D01*
X126941Y-112601D01*
X127112Y-112700D01*
X127305Y-112752D01*
X127489Y-112828D01*
X127684Y-112854D01*
X127875Y-112905D01*
X128074Y-112905D01*
X128272Y-112931D01*
X128468Y-112905D01*
X128665Y-112906D01*
X128858Y-112854D01*
X129055Y-112828D01*
X129237Y-112752D01*
X129428Y-112701D01*
X129601Y-112602D01*
X129785Y-112526D01*
X129941Y-112406D01*
X130113Y-112307D01*
X130254Y-112166D01*
X130412Y-112045D01*
X130509Y-111917D01*
X131250D01*
Y-106768D01*
Y-101618D01*
X130509D01*
X130412Y-101490D01*
X130257Y-101372D01*
X130121Y-101235D01*
X129946Y-101133D01*
X129785Y-101010D01*
X129605Y-100935D01*
X129438Y-100838D01*
X129242Y-100785D01*
X129055Y-100707D01*
X128863Y-100682D01*
X128675Y-100631D01*
X128473Y-100631D01*
X128272Y-100604D01*
X128079Y-100630D01*
X127885Y-100629D01*
X127690Y-100681D01*
X127489Y-100707D01*
X127309Y-100782D01*
X127122Y-100831D01*
X126946Y-100932D01*
X126759Y-101010D01*
X126605Y-101128D01*
X126436Y-101224D01*
X126293Y-101367D01*
X126132Y-101490D01*
X126014Y-101645D01*
X125876Y-101781D01*
X125802Y-101910D01*
X125303Y-101959D01*
X125241D01*
X124937Y-101932D01*
X124856Y-101737D01*
X124759Y-101610D01*
X124683Y-101470D01*
X124520Y-101298D01*
X124375Y-101110D01*
X124260Y-101022D01*
Y-99250D01*
X101000D01*
Y-98500D01*
X100250D01*
Y-82740D01*
X94458D01*
X94446Y-82722D01*
X94388Y-82673D01*
X94341Y-82613D01*
X94088Y-82418D01*
X93844Y-82210D01*
X93775Y-82178D01*
X93715Y-82132D01*
X93419Y-82009D01*
X93130Y-81872D01*
X93055Y-81858D01*
X92985Y-81829D01*
X92668Y-81788D01*
X92353Y-81730D01*
X92008Y-81713D01*
X91805Y-81682D01*
X91586Y-81628D01*
X91345Y-81543D01*
X91079Y-81424D01*
X90788Y-81264D01*
X90471Y-81058D01*
X90131Y-80803D01*
X89778Y-80502D01*
X83888Y-74612D01*
X82895Y-73851D01*
X81740Y-73372D01*
X80500Y-73209D01*
X63918D01*
X63614Y-73182D01*
X63534Y-72987D01*
X63436Y-72860D01*
X63360Y-72720D01*
X63197Y-72548D01*
X63053Y-72360D01*
X62937Y-72272D01*
Y-68126D01*
X57750D01*
Y-78000D01*
X57000D01*
Y-78750D01*
X51063D01*
Y-87874D01*
X52884D01*
X52972Y-87990D01*
X53000Y-88011D01*
X53103Y-88794D01*
X53506Y-89767D01*
X54147Y-90603D01*
X58101Y-94557D01*
X58058Y-95062D01*
X57958Y-95182D01*
X57757Y-95212D01*
X57645Y-95126D01*
X57498Y-95065D01*
X57362Y-94982D01*
X57134Y-94914D01*
X56915Y-94823D01*
X56757Y-94802D01*
X56605Y-94757D01*
X56367Y-94751D01*
X56132Y-94720D01*
X55974Y-94741D01*
X55815Y-94737D01*
X55584Y-94792D01*
X55349Y-94823D01*
X55202Y-94884D01*
X55047Y-94921D01*
X54838Y-95035D01*
X54619Y-95126D01*
X54493Y-95222D01*
X54353Y-95298D01*
X54181Y-95462D01*
X54180Y-95463D01*
X54000D01*
Y-99746D01*
X52500D01*
Y-95463D01*
X49144D01*
Y-94463D01*
X37291D01*
Y-91750D01*
X37128Y-90510D01*
X36649Y-89354D01*
X35888Y-88362D01*
X31321Y-83795D01*
X30727Y-83340D01*
X30684Y-82676D01*
X31199Y-82161D01*
X31960Y-81169D01*
X32439Y-80014D01*
X32602Y-78774D01*
Y-73299D01*
X37504D01*
Y-55254D01*
X38476Y-54852D01*
X38494Y-54838D01*
X50063D01*
Y-60921D01*
X63937D01*
Y-51187D01*
X63953Y-50885D01*
X63983Y-50684D01*
X64038Y-50466D01*
X64123Y-50225D01*
X64244Y-49959D01*
X64405Y-49666D01*
X64613Y-49348D01*
X64869Y-49006D01*
X65172Y-48650D01*
X72282Y-41541D01*
X89194D01*
X89524Y-41936D01*
D02*
G37*
G36*
X63400Y-46122D02*
X62928Y-46619D01*
X62506Y-47115D01*
X62133Y-47611D01*
X61810Y-48106D01*
X61536Y-48601D01*
X61313Y-49096D01*
X61138Y-49591D01*
X61014Y-50085D01*
X60939Y-50579D01*
X60913Y-51072D01*
X60925Y-42185D01*
X61213Y-42175D01*
X61492Y-42145D01*
X61762Y-42094D01*
X62023Y-42023D01*
X62275Y-41932D01*
X62518Y-41821D01*
X62752Y-41689D01*
X62977Y-41537D01*
X63193Y-41365D01*
X63400Y-41173D01*
Y-46122D01*
D02*
G37*
G36*
X-103113Y-50312D02*
X-99193D01*
X-99289Y-50429D01*
X-99375Y-50582D01*
X-99451Y-50770D01*
X-99517Y-50995D01*
X-99572Y-51255D01*
X-99618Y-51551D01*
X-99679Y-52250D01*
X-99699Y-53093D01*
X-104199D01*
X-104201Y-52939D01*
X-104313Y-53046D01*
X-107495Y-49864D01*
X-107188Y-49550D01*
X-106462Y-48716D01*
X-106284Y-48475D01*
X-106140Y-48251D01*
X-106027Y-48046D01*
X-105948Y-47859D01*
X-105901Y-47690D01*
X-105886Y-47539D01*
X-103113Y-50312D01*
D02*
G37*
G36*
X-64398Y-19398D02*
X-59539D01*
Y-27492D01*
X-60146D01*
Y-28492D01*
X-63305D01*
Y-35000D01*
Y-41508D01*
X-60146D01*
Y-42508D01*
X-40799D01*
Y-38800D01*
X-40657Y-38358D01*
X-39984D01*
Y-42350D01*
X-40299D01*
Y-43350D01*
X-41136D01*
Y-53224D01*
X-42636D01*
Y-43350D01*
X-45992D01*
Y-47496D01*
X-46108Y-47585D01*
X-46252Y-47773D01*
X-46415Y-47945D01*
X-46491Y-48085D01*
X-46589Y-48212D01*
X-46670Y-48407D01*
X-46973Y-48433D01*
X-52291D01*
X-54089Y-46636D01*
X-55081Y-45875D01*
X-56236Y-45396D01*
X-57476Y-45233D01*
X-65082D01*
X-65386Y-45206D01*
X-65466Y-45011D01*
X-65564Y-44884D01*
X-65640Y-44744D01*
X-65803Y-44572D01*
X-65947Y-44384D01*
X-66063Y-44295D01*
Y-41508D01*
X-64805D01*
Y-35000D01*
Y-28492D01*
X-68201D01*
Y-29772D01*
X-68316Y-29860D01*
X-68461Y-30048D01*
X-68624Y-30220D01*
X-68700Y-30360D01*
X-68777Y-30461D01*
X-70266D01*
X-70349Y-30340D01*
X-70244Y-29840D01*
X-70244D01*
Y-16754D01*
X-70244D01*
X-70369Y-16254D01*
X-70333Y-16200D01*
X-64398D01*
Y-19398D01*
D02*
G37*
G36*
X53087Y-53547D02*
X53052Y-53215D01*
X52947Y-52917D01*
X52771Y-52655D01*
X52525Y-52427D01*
X52209Y-52235D01*
X51823Y-52077D01*
X51366Y-51955D01*
X50839Y-51867D01*
X50242Y-51815D01*
X49575Y-51797D01*
Y-48297D01*
X50242Y-48280D01*
X50839Y-48227D01*
X51366Y-48140D01*
X51823Y-48017D01*
X52209Y-47860D01*
X52525Y-47667D01*
X52771Y-47440D01*
X52947Y-47177D01*
X53052Y-46880D01*
X53087Y-46547D01*
Y-53547D01*
D02*
G37*
G36*
X-43968Y-56724D02*
X-44003Y-56392D01*
X-44109Y-56094D01*
X-44284Y-55832D01*
X-44530Y-55604D01*
X-44846Y-55412D01*
X-45232Y-55254D01*
X-45689Y-55132D01*
X-46216Y-55044D01*
X-46813Y-54992D01*
X-47480Y-54974D01*
Y-51474D01*
X-46813Y-51457D01*
X-46216Y-51404D01*
X-45689Y-51317D01*
X-45232Y-51194D01*
X-44846Y-51037D01*
X-44530Y-50844D01*
X-44284Y-50617D01*
X-44109Y-50354D01*
X-44003Y-50057D01*
X-43968Y-49724D01*
Y-56724D01*
D02*
G37*
G36*
X-22131Y-37106D02*
X-25195Y-40169D01*
X-25956Y-41162D01*
X-26435Y-42317D01*
X-26439Y-42350D01*
X-26913D01*
Y-43350D01*
X-27750D01*
Y-53224D01*
X-29250D01*
Y-43350D01*
X-30087D01*
Y-42350D01*
X-30402D01*
Y-38462D01*
X-30398Y-38358D01*
X-29342D01*
Y-36606D01*
X-22339D01*
X-22131Y-37106D01*
D02*
G37*
G36*
X-68052Y-46856D02*
X-67946Y-47154D01*
X-67771Y-47416D01*
X-67525Y-47644D01*
X-67209Y-47836D01*
X-66823Y-47994D01*
X-66366Y-48116D01*
X-65839Y-48204D01*
X-65242Y-48256D01*
X-64575Y-48274D01*
Y-51774D01*
X-65242Y-51791D01*
X-65839Y-51844D01*
X-66366Y-51931D01*
X-66823Y-52054D01*
X-67209Y-52211D01*
X-67525Y-52404D01*
X-67771Y-52631D01*
X-67946Y-52894D01*
X-68052Y-53191D01*
X-68087Y-53524D01*
Y-46524D01*
X-68052Y-46856D01*
D02*
G37*
G36*
X193220Y-56361D02*
X192758Y-56552D01*
X185769Y-49564D01*
X185767Y-49560D01*
X185762Y-49551D01*
X185758Y-49541D01*
X185752Y-49526D01*
X185746Y-49499D01*
X185738Y-49456D01*
X185732Y-49393D01*
X185728Y-49207D01*
X185672Y-48853D01*
X185625Y-48496D01*
X185611Y-48463D01*
X185606Y-48427D01*
X185460Y-48098D01*
X185323Y-47767D01*
X185301Y-47738D01*
X185286Y-47704D01*
X185061Y-47425D01*
X184842Y-47140D01*
X184813Y-47118D01*
X184790Y-47089D01*
X184500Y-46878D01*
X184216Y-46659D01*
X184182Y-46645D01*
X184152Y-46624D01*
X183904Y-46527D01*
X183282Y-45718D01*
X182248Y-44924D01*
X181043Y-44425D01*
X180500Y-44353D01*
Y-49250D01*
X179750D01*
Y-50000D01*
X174853D01*
X174925Y-50543D01*
X175424Y-51748D01*
X176218Y-52782D01*
X177027Y-53404D01*
X177124Y-53652D01*
X176856Y-54047D01*
X176427Y-54277D01*
X175520Y-55020D01*
X174776Y-55927D01*
X174224Y-56961D01*
X173883Y-58083D01*
X173768Y-59250D01*
X173883Y-60417D01*
X174224Y-61539D01*
X174776Y-62573D01*
X175520Y-63480D01*
X176065Y-63927D01*
Y-64573D01*
X175520Y-65020D01*
X174776Y-65927D01*
X174224Y-66961D01*
X173883Y-68083D01*
X173768Y-69250D01*
X173883Y-70417D01*
X174224Y-71539D01*
X174776Y-72573D01*
X175000Y-72845D01*
X174786Y-73297D01*
X173797D01*
Y-85203D01*
X185703D01*
Y-73297D01*
X184714D01*
X184500Y-72845D01*
X184723Y-72573D01*
X185276Y-71539D01*
X185617Y-70417D01*
X185731Y-69250D01*
X185617Y-68083D01*
X185276Y-66961D01*
X184723Y-65927D01*
X183980Y-65020D01*
X183435Y-64573D01*
Y-63927D01*
X183980Y-63480D01*
X184723Y-62573D01*
X185276Y-61539D01*
X185381Y-61193D01*
X185866Y-61072D01*
X187966Y-63171D01*
Y-103829D01*
X183079Y-108715D01*
X168917D01*
X168051Y-107850D01*
X167639Y-107408D01*
X167630Y-107303D01*
X167642Y-107161D01*
X167597Y-106911D01*
X167575Y-106658D01*
X167527Y-106524D01*
X167501Y-106384D01*
X167393Y-106154D01*
X167348Y-106029D01*
X167395Y-105927D01*
X167644Y-105529D01*
X167644Y-105529D01*
X167644Y-105529D01*
Y-99785D01*
X168144Y-99660D01*
X169000Y-101262D01*
X170234Y-102766D01*
X171738Y-104000D01*
X173453Y-104917D01*
X175314Y-105481D01*
X176500Y-105598D01*
Y-95750D01*
Y-85902D01*
X175314Y-86019D01*
X173453Y-86584D01*
X171738Y-87500D01*
X170234Y-88734D01*
X169000Y-90238D01*
X168084Y-91953D01*
X167545Y-93727D01*
X167045Y-93653D01*
Y-91500D01*
X166865Y-90130D01*
X166336Y-88852D01*
X165494Y-87756D01*
X161677Y-83939D01*
X160922Y-83359D01*
X160875Y-82698D01*
X166055Y-77518D01*
X166897Y-76421D01*
X167426Y-75144D01*
X167603Y-73799D01*
X172004D01*
Y-55201D01*
X162348D01*
X162335Y-55199D01*
X162325Y-55201D01*
X160790D01*
X160584Y-55056D01*
X159037Y-53736D01*
X158992Y-53692D01*
X157359Y-52059D01*
X157527Y-51588D01*
X158570Y-51486D01*
X160245Y-50977D01*
X161790Y-50152D01*
X163143Y-49041D01*
X164254Y-47687D01*
X165080Y-46143D01*
X165588Y-44467D01*
X165686Y-43474D01*
X156827D01*
Y-41974D01*
X165686D01*
X165588Y-40982D01*
X165080Y-39306D01*
X164597Y-38403D01*
X164620Y-38229D01*
X164675Y-37872D01*
X164671Y-37838D01*
X164675Y-37804D01*
X164628Y-37446D01*
X164589Y-37086D01*
X164577Y-37055D01*
X164572Y-37021D01*
X164434Y-36687D01*
X164303Y-36350D01*
X164283Y-36323D01*
X164270Y-36291D01*
X164050Y-36004D01*
X163837Y-35713D01*
X163419Y-35276D01*
X163119Y-34916D01*
X162865Y-34562D01*
X162654Y-34214D01*
X162483Y-33871D01*
X162346Y-33529D01*
X162241Y-33184D01*
X162167Y-32831D01*
X162122Y-32474D01*
Y-1203D01*
X162167Y-846D01*
X162241Y-493D01*
X162346Y-148D01*
X162483Y194D01*
X162654Y537D01*
X162865Y885D01*
X163119Y1239D01*
X163419Y1599D01*
X163837Y2036D01*
X164050Y2327D01*
X164270Y2614D01*
X164283Y2646D01*
X164303Y2673D01*
X164434Y3010D01*
X164572Y3344D01*
X164577Y3378D01*
X164589Y3409D01*
X164628Y3769D01*
X164675Y4127D01*
X164671Y4161D01*
X164675Y4195D01*
X164620Y4552D01*
X164597Y4725D01*
X165080Y5629D01*
X165588Y7305D01*
X165686Y8297D01*
X156827D01*
Y9797D01*
X165686D01*
X165588Y10790D01*
X165080Y12466D01*
X164254Y14010D01*
X163143Y15364D01*
X161790Y16475D01*
X160245Y17300D01*
X158570Y17808D01*
X158195Y17845D01*
X158088Y18342D01*
X158444Y18490D01*
X158451Y18496D01*
X158459Y18499D01*
X158764Y18735D01*
X159071Y18971D01*
X159076Y18978D01*
X159083Y18983D01*
X159316Y19291D01*
X159438Y19450D01*
X160418Y19747D01*
X161963Y20573D01*
X163316Y21684D01*
X164427Y23037D01*
X165253Y24582D01*
X165761Y26257D01*
X165859Y27250D01*
X157000D01*
Y28750D01*
X165859D01*
X165761Y29743D01*
X165253Y31418D01*
X164770Y32322D01*
X164793Y32495D01*
X164848Y32853D01*
X164844Y32886D01*
X164849Y32920D01*
X164802Y33279D01*
X164762Y33638D01*
X164750Y33670D01*
X164746Y33703D01*
X164607Y34037D01*
X164477Y34374D01*
X164456Y34402D01*
X164443Y34433D01*
X164223Y34720D01*
X164010Y35012D01*
X163592Y35448D01*
X163292Y35809D01*
X163038Y36162D01*
X162828Y36510D01*
X162656Y36853D01*
X162519Y37195D01*
X162415Y37540D01*
X162340Y37893D01*
X162295Y38250D01*
Y69521D01*
X162340Y69879D01*
X162415Y70232D01*
X162519Y70577D01*
X162656Y70919D01*
X162828Y71262D01*
X163038Y71609D01*
X163292Y71963D01*
X163592Y72324D01*
X164010Y72760D01*
X164023Y72778D01*
X164048Y72797D01*
X164723Y73465D01*
X165964Y74563D01*
X166458Y74943D01*
X166919Y75256D01*
X167309Y75485D01*
X167619Y75633D01*
X167833Y75710D01*
X167942Y75735D01*
X167967Y75737D01*
X171272D01*
X171272Y75737D01*
X172316Y75875D01*
X173289Y76278D01*
X174125Y76919D01*
X180599Y83393D01*
X181240Y84229D01*
X181643Y85202D01*
X181781Y86246D01*
X181781Y86246D01*
Y91856D01*
X190037D01*
Y103606D01*
Y114720D01*
X193220D01*
Y-56361D01*
D02*
G37*
G36*
X28007Y76412D02*
X28057Y76378D01*
X28114Y76348D01*
X28179Y76322D01*
X28250Y76300D01*
X28329Y76282D01*
X28415Y76268D01*
X28508Y76258D01*
X28716Y76250D01*
Y75250D01*
X28608Y75248D01*
X28415Y75232D01*
X28329Y75218D01*
X28250Y75200D01*
X28179Y75178D01*
X28114Y75152D01*
X28057Y75122D01*
X28007Y75088D01*
X27964Y75050D01*
Y76450D01*
X28007Y76412D01*
D02*
G37*
G36*
X-53480Y80830D02*
X-53421Y80636D01*
X-53322Y80418D01*
X-53184Y80177D01*
X-53006Y79912D01*
X-52789Y79623D01*
X-52236Y78975D01*
X-51525Y78232D01*
X-52232Y77525D01*
X-52615Y77900D01*
X-53912Y79006D01*
X-54177Y79184D01*
X-54418Y79322D01*
X-54636Y79421D01*
X-54830Y79480D01*
X-55001Y79500D01*
X-53500Y81001D01*
X-53480Y80830D01*
D02*
G37*
G36*
X4280Y76933D02*
X4205Y76856D01*
X4080Y76707D01*
X4029Y76637D01*
X3986Y76568D01*
X3951Y76502D01*
X3924Y76438D01*
X3904Y76376D01*
X3893Y76317D01*
X3890Y76260D01*
X2900Y77250D01*
X2957Y77253D01*
X3016Y77265D01*
X3078Y77284D01*
X3142Y77311D01*
X3208Y77346D01*
X3277Y77389D01*
X3347Y77440D01*
X3420Y77499D01*
X3573Y77640D01*
X4280Y76933D01*
D02*
G37*
G36*
X30380Y74750D02*
X30370Y74845D01*
X30340Y74930D01*
X30289Y75005D01*
X30218Y75070D01*
X30127Y75125D01*
X30016Y75170D01*
X29884Y75205D01*
X29733Y75230D01*
X29561Y75245D01*
X29368Y75250D01*
Y76250D01*
X29561Y76255D01*
X29733Y76270D01*
X29884Y76295D01*
X30016Y76330D01*
X30127Y76375D01*
X30218Y76430D01*
X30289Y76495D01*
X30340Y76570D01*
X30370Y76655D01*
X30380Y76750D01*
Y74750D01*
D02*
G37*
G36*
X121796Y73994D02*
X121781Y74087D01*
X121738Y74170D01*
X121665Y74244D01*
X121564Y74308D01*
X121433Y74362D01*
X121274Y74406D01*
X121086Y74440D01*
X120869Y74465D01*
X120622Y74479D01*
X120347Y74484D01*
Y75484D01*
X120622Y75489D01*
X121086Y75528D01*
X121274Y75563D01*
X121433Y75607D01*
X121564Y75661D01*
X121665Y75725D01*
X121738Y75798D01*
X121781Y75881D01*
X121796Y75975D01*
Y73994D01*
D02*
G37*
G36*
X102898D02*
X102884Y74087D01*
X102840Y74170D01*
X102768Y74244D01*
X102666Y74308D01*
X102536Y74362D01*
X102376Y74406D01*
X102188Y74440D01*
X101971Y74465D01*
X101725Y74479D01*
X101450Y74484D01*
Y75484D01*
X101725Y75489D01*
X102188Y75528D01*
X102376Y75563D01*
X102536Y75607D01*
X102666Y75661D01*
X102768Y75725D01*
X102840Y75798D01*
X102884Y75881D01*
X102898Y75975D01*
Y73994D01*
D02*
G37*
G36*
X88241Y75646D02*
X88291Y75612D01*
X88348Y75582D01*
X88413Y75556D01*
X88484Y75534D01*
X88563Y75516D01*
X88649Y75502D01*
X88742Y75492D01*
X88950Y75484D01*
Y74484D01*
X88843Y74482D01*
X88649Y74466D01*
X88563Y74452D01*
X88484Y74434D01*
X88413Y74412D01*
X88348Y74386D01*
X88291Y74356D01*
X88241Y74322D01*
X88198Y74284D01*
Y75684D01*
X88241Y75646D01*
D02*
G37*
G36*
X124848Y74277D02*
X124790Y74316D01*
X124696Y74351D01*
X124567Y74383D01*
X124403Y74410D01*
X123971Y74451D01*
X123062Y74482D01*
X122689Y74484D01*
Y75484D01*
X123062Y75486D01*
X124567Y75586D01*
X124696Y75617D01*
X124790Y75652D01*
X124848Y75692D01*
Y74277D01*
D02*
G37*
G36*
X46521Y82956D02*
X46714Y82823D01*
X46929Y82710D01*
X47164Y82615D01*
X47422Y82539D01*
X47700Y82482D01*
X48000Y82444D01*
X48320Y82425D01*
X48663Y82425D01*
X49026Y82444D01*
X46306Y79724D01*
X46325Y80087D01*
X46306Y80751D01*
X46268Y81050D01*
X46211Y81328D01*
X46135Y81586D01*
X46040Y81821D01*
X45927Y82036D01*
X45794Y82229D01*
X45643Y82400D01*
X46350Y83108D01*
X46521Y82956D01*
D02*
G37*
G36*
X6909Y80620D02*
X6824Y80590D01*
X6749Y80539D01*
X6684Y80468D01*
X6629Y80377D01*
X6584Y80266D01*
X6549Y80134D01*
X6524Y79983D01*
X6509Y79811D01*
X6504Y79618D01*
X5504D01*
X5499Y79811D01*
X5484Y79983D01*
X5459Y80134D01*
X5424Y80266D01*
X5379Y80377D01*
X5324Y80468D01*
X5259Y80539D01*
X5184Y80590D01*
X5099Y80620D01*
X5004Y80630D01*
X7004D01*
X6909Y80620D01*
D02*
G37*
G36*
X162655Y83868D02*
X164037Y82645D01*
X164684Y82148D01*
X165301Y81727D01*
X165890Y81383D01*
X166449Y81116D01*
X166979Y80925D01*
X167479Y80810D01*
X167951Y80772D01*
Y78772D01*
X167479Y78733D01*
X166979Y78619D01*
X166449Y78428D01*
X165890Y78160D01*
X165301Y77816D01*
X164684Y77395D01*
X164037Y76898D01*
X162655Y75675D01*
X161920Y74949D01*
Y78713D01*
X159663Y78558D01*
X159282Y78482D01*
X158977Y78393D01*
X158746Y78292D01*
X158590Y78180D01*
Y81364D01*
X158746Y81251D01*
X158977Y81151D01*
X159282Y81062D01*
X159663Y80985D01*
X160118Y80920D01*
X161252Y80825D01*
X161920Y80809D01*
Y84595D01*
X162655Y83868D01*
D02*
G37*
G36*
X100618Y80975D02*
X100634Y80781D01*
X100648Y80695D01*
X100666Y80616D01*
X100688Y80545D01*
X100714Y80480D01*
X100744Y80423D01*
X100778Y80373D01*
X100816Y80330D01*
X99416D01*
X99454Y80373D01*
X99488Y80423D01*
X99518Y80480D01*
X99544Y80545D01*
X99566Y80616D01*
X99584Y80695D01*
X99598Y80781D01*
X99608Y80874D01*
X99616Y81082D01*
X100616D01*
X100618Y80975D01*
D02*
G37*
G36*
X-79Y80620D02*
X-164Y80590D01*
X-239Y80539D01*
X-304Y80468D01*
X-359Y80377D01*
X-404Y80266D01*
X-439Y80134D01*
X-464Y79983D01*
X-479Y79811D01*
X-484Y79618D01*
X-1484D01*
X-1489Y79811D01*
X-1504Y79983D01*
X-1529Y80134D01*
X-1564Y80266D01*
X-1609Y80377D01*
X-1664Y80468D01*
X-1729Y80539D01*
X-1804Y80590D01*
X-1889Y80620D01*
X-1984Y80630D01*
X16D01*
X-79Y80620D01*
D02*
G37*
G36*
X99402Y78916D02*
X99359Y78954D01*
X99309Y78988D01*
X99252Y79018D01*
X99188Y79044D01*
X99116Y79066D01*
X99037Y79084D01*
X98951Y79098D01*
X98858Y79108D01*
X98650Y79116D01*
Y80116D01*
X98758Y80118D01*
X98951Y80134D01*
X99037Y80148D01*
X99116Y80166D01*
X99188Y80188D01*
X99252Y80214D01*
X99309Y80244D01*
X99359Y80278D01*
X99402Y80316D01*
Y78916D01*
D02*
G37*
G36*
X97094Y80521D02*
X97124Y80436D01*
X97174Y80361D01*
X97244Y80296D01*
X97334Y80241D01*
X97444Y80196D01*
X97574Y80161D01*
X97724Y80136D01*
X97894Y80121D01*
X98084Y80116D01*
Y79116D01*
X97894Y79111D01*
X97724Y79096D01*
X97574Y79071D01*
X97444Y79036D01*
X97334Y78991D01*
X97244Y78936D01*
X97174Y78871D01*
X97124Y78796D01*
X97094Y78711D01*
X97084Y78616D01*
Y80616D01*
X97094Y80521D01*
D02*
G37*
G36*
X-22599Y80620D02*
X-22684Y80590D01*
X-22759Y80539D01*
X-22824Y80468D01*
X-22879Y80377D01*
X-22924Y80266D01*
X-22959Y80134D01*
X-22984Y79983D01*
X-22999Y79811D01*
X-23004Y79618D01*
X-24004D01*
X-24009Y79811D01*
X-24024Y79983D01*
X-24049Y80134D01*
X-24084Y80266D01*
X-24129Y80377D01*
X-24184Y80468D01*
X-24249Y80539D01*
X-24324Y80590D01*
X-24409Y80620D01*
X-24504Y80630D01*
X-22504D01*
X-22599Y80620D01*
D02*
G37*
G36*
X113213Y81106D02*
X130716D01*
Y79421D01*
X130324Y79030D01*
X129925Y79041D01*
X129813Y79051D01*
X129796Y79058D01*
X129202Y79136D01*
X129144Y79146D01*
X129132Y79145D01*
X128705Y79201D01*
X122406D01*
X121314Y79058D01*
X120297Y78636D01*
X120138Y78514D01*
X118984D01*
X118984Y78514D01*
X118071Y78394D01*
X117219Y78041D01*
X116488Y77481D01*
X114004Y74996D01*
X113443Y74265D01*
X113417Y74203D01*
X113302Y74234D01*
X106658D01*
Y75734D01*
X112917D01*
X112906Y75815D01*
X112586Y76588D01*
X112076Y77253D01*
X111411Y77763D01*
X110637Y78083D01*
X109807Y78193D01*
X108057D01*
X107571Y78394D01*
X106658Y78514D01*
X104516D01*
X104411Y78595D01*
X104260Y78658D01*
X104121Y78743D01*
X104039Y78767D01*
X104151Y79616D01*
X104020Y80606D01*
X104059Y80778D01*
X104279Y81106D01*
X112287D01*
Y83470D01*
X113213D01*
Y81106D01*
D02*
G37*
G36*
X129094Y76097D02*
X129210Y76073D01*
X129359Y76052D01*
X129756Y76019D01*
X130943Y75986D01*
X131322Y75984D01*
Y73984D01*
X130943Y73983D01*
X129094Y73872D01*
X129010Y73845D01*
Y76123D01*
X129094Y76097D01*
D02*
G37*
G36*
X-4376Y67123D02*
X-5466D01*
X-5458Y67146D01*
X-5450Y67188D01*
X-5443Y67248D01*
X-5429Y67540D01*
X-5421Y68191D01*
X-4421D01*
X-4376Y67123D01*
D02*
G37*
G36*
X-8313D02*
X-9403D01*
X-9395Y67146D01*
X-9387Y67188D01*
X-9380Y67248D01*
X-9365Y67540D01*
X-9358Y68191D01*
X-8358D01*
X-8313Y67123D01*
D02*
G37*
G36*
X-439D02*
X-1529D01*
X-1521Y67146D01*
X-1513Y67188D01*
X-1506Y67248D01*
X-1491Y67540D01*
X-1484Y68191D01*
X-484D01*
X-439Y67123D01*
D02*
G37*
G36*
X-2408D02*
X-3498D01*
X-3489Y67146D01*
X-3482Y67188D01*
X-3475Y67248D01*
X-3460Y67540D01*
X-3453Y68191D01*
X-2453D01*
X-2408Y67123D01*
D02*
G37*
G36*
X-10282D02*
X-11372D01*
X-11363Y67146D01*
X-11356Y67188D01*
X-11349Y67248D01*
X-11334Y67540D01*
X-11327Y68191D01*
X-10327D01*
X-10282Y67123D01*
D02*
G37*
G36*
X-168769Y68333D02*
X-168625Y68237D01*
X-168459Y68152D01*
X-168272Y68078D01*
X-168062Y68016D01*
X-167830Y67965D01*
X-167577Y67925D01*
X-167301Y67897D01*
X-166685Y67874D01*
Y64874D01*
X-167004Y64868D01*
X-167577Y64823D01*
X-167830Y64783D01*
X-168062Y64732D01*
X-168272Y64670D01*
X-168459Y64596D01*
X-168625Y64511D01*
X-168769Y64415D01*
X-168891Y64307D01*
Y68441D01*
X-168769Y68333D01*
D02*
G37*
G36*
X-95690Y66110D02*
X-95860Y66050D01*
X-96010Y65949D01*
X-96140Y65808D01*
X-96250Y65627D01*
X-96340Y65406D01*
X-96410Y65144D01*
X-96460Y64843D01*
X-96490Y64501D01*
X-96500Y64118D01*
X-98500D01*
X-98510Y64501D01*
X-98540Y64843D01*
X-98590Y65144D01*
X-98660Y65406D01*
X-98750Y65627D01*
X-98860Y65808D01*
X-98990Y65949D01*
X-99140Y66050D01*
X-99310Y66110D01*
X-99500Y66130D01*
X-95500D01*
X-95690Y66110D01*
D02*
G37*
G36*
X97094Y68789D02*
X97124Y68704D01*
X97174Y68629D01*
X97244Y68564D01*
X97334Y68509D01*
X97444Y68464D01*
X97574Y68429D01*
X97724Y68404D01*
X97894Y68389D01*
X98084Y68384D01*
Y67384D01*
X97894Y67379D01*
X97724Y67364D01*
X97574Y67339D01*
X97444Y67304D01*
X97334Y67259D01*
X97244Y67204D01*
X97174Y67139D01*
X97124Y67064D01*
X97094Y66979D01*
X97084Y66884D01*
Y68884D01*
X97094Y68789D01*
D02*
G37*
G36*
X31157Y66561D02*
X31490Y66283D01*
X31644Y66178D01*
X31790Y66095D01*
X31927Y66034D01*
X32056Y65996D01*
X32177Y65979D01*
X32289Y65985D01*
X32393Y66013D01*
X30380Y65221D01*
X30463Y65271D01*
X30511Y65341D01*
X30525Y65431D01*
X30505Y65542D01*
X30450Y65673D01*
X30361Y65825D01*
X30237Y65997D01*
X30080Y66189D01*
X29661Y66636D01*
X30979Y66733D01*
X31157Y66561D01*
D02*
G37*
G36*
X-168769Y76207D02*
X-168625Y76111D01*
X-168459Y76026D01*
X-168272Y75952D01*
X-168062Y75890D01*
X-167830Y75839D01*
X-167577Y75799D01*
X-167301Y75771D01*
X-166685Y75748D01*
Y72748D01*
X-167004Y72742D01*
X-167577Y72697D01*
X-167830Y72657D01*
X-168062Y72606D01*
X-168272Y72544D01*
X-168459Y72470D01*
X-168625Y72385D01*
X-168769Y72289D01*
X-168891Y72181D01*
Y76315D01*
X-168769Y76207D01*
D02*
G37*
G36*
X-94521Y71272D02*
X-94693Y71092D01*
X-94971Y70760D01*
X-95076Y70606D01*
X-95159Y70460D01*
X-95220Y70323D01*
X-95258Y70194D01*
X-95275Y70073D01*
X-95269Y69961D01*
X-95240Y69857D01*
X-95434Y70349D01*
X-96376Y69273D01*
X-96445Y69160D01*
X-96486Y69069D01*
X-96500Y68999D01*
X-97501Y70000D01*
X-97431Y70014D01*
X-97340Y70055D01*
X-97227Y70124D01*
X-97092Y70221D01*
X-96757Y70497D01*
X-96092Y71118D01*
X-95836Y71371D01*
X-96033Y71870D01*
X-95983Y71787D01*
X-95913Y71739D01*
X-95823Y71725D01*
X-95712Y71745D01*
X-95581Y71800D01*
X-95429Y71889D01*
X-95257Y72013D01*
X-95065Y72170D01*
X-94618Y72589D01*
X-94521Y71272D01*
D02*
G37*
G36*
X-49243Y73912D02*
X-49193Y73878D01*
X-49136Y73848D01*
X-49071Y73822D01*
X-49000Y73800D01*
X-48921Y73782D01*
X-48835Y73768D01*
X-48742Y73758D01*
X-48534Y73750D01*
Y72750D01*
X-48642Y72748D01*
X-48835Y72732D01*
X-48921Y72718D01*
X-49000Y72700D01*
X-49071Y72678D01*
X-49136Y72652D01*
X-49193Y72622D01*
X-49243Y72588D01*
X-49286Y72550D01*
Y73950D01*
X-49243Y73912D01*
D02*
G37*
G36*
X-60714Y72550D02*
X-60757Y72588D01*
X-60807Y72622D01*
X-60864Y72652D01*
X-60928Y72678D01*
X-61000Y72700D01*
X-61079Y72718D01*
X-61165Y72732D01*
X-61258Y72742D01*
X-61466Y72750D01*
Y73750D01*
X-61358Y73752D01*
X-61165Y73768D01*
X-61079Y73782D01*
X-61000Y73800D01*
X-60928Y73822D01*
X-60864Y73848D01*
X-60807Y73878D01*
X-60757Y73912D01*
X-60714Y73950D01*
Y72550D01*
D02*
G37*
G36*
X-32993Y70912D02*
X-32943Y70878D01*
X-32886Y70848D01*
X-32822Y70822D01*
X-32750Y70800D01*
X-32671Y70782D01*
X-32585Y70768D01*
X-32492Y70758D01*
X-32284Y70750D01*
Y69750D01*
X-32392Y69748D01*
X-32585Y69732D01*
X-32671Y69718D01*
X-32750Y69700D01*
X-32822Y69678D01*
X-32886Y69652D01*
X-32943Y69622D01*
X-32993Y69588D01*
X-33036Y69550D01*
Y70950D01*
X-32993Y70912D01*
D02*
G37*
G36*
X3498Y67123D02*
X2408D01*
X2416Y67146D01*
X2424Y67188D01*
X2431Y67248D01*
X2446Y67540D01*
X2453Y68191D01*
X3453D01*
X3498Y67123D01*
D02*
G37*
G36*
X1529D02*
X439D01*
X448Y67146D01*
X455Y67188D01*
X462Y67248D01*
X477Y67540D01*
X484Y68191D01*
X1484D01*
X1529Y67123D01*
D02*
G37*
G36*
X155360Y74851D02*
X161823D01*
X161334Y74340D01*
X160897Y73815D01*
X160511Y73277D01*
X160176Y72725D01*
X159893Y72159D01*
X159662Y71580D01*
X159482Y70987D01*
X159353Y70380D01*
X159276Y69760D01*
X159250Y69126D01*
X154750D01*
X154724Y69760D01*
X154647Y70380D01*
X154518Y70987D01*
X154338Y71580D01*
X154234Y71841D01*
X154041Y71744D01*
X153499Y71425D01*
X152987Y71072D01*
X152505Y70685D01*
X152051Y70263D01*
X148387Y72963D01*
X148825Y73440D01*
X149205Y73939D01*
X149528Y74460D01*
X149793Y75003D01*
X150002Y75569D01*
X150154Y76157D01*
X150248Y76766D01*
X150286Y77398D01*
X150266Y78053D01*
X150190Y78729D01*
X155360Y74851D01*
D02*
G37*
G36*
X102898Y68994D02*
X102884Y69087D01*
X102840Y69170D01*
X102768Y69244D01*
X102666Y69308D01*
X102536Y69362D01*
X102376Y69406D01*
X102188Y69440D01*
X101971Y69465D01*
X101725Y69479D01*
X101450Y69484D01*
Y70484D01*
X101725Y70489D01*
X102188Y70528D01*
X102376Y70563D01*
X102536Y70607D01*
X102666Y70661D01*
X102768Y70725D01*
X102840Y70798D01*
X102884Y70881D01*
X102898Y70975D01*
Y68994D01*
D02*
G37*
G36*
X82118Y97008D02*
X82098Y97198D01*
X82038Y97368D01*
X81938Y97518D01*
X81798Y97648D01*
X81618Y97758D01*
X81398Y97848D01*
X81138Y97918D01*
X80838Y97968D01*
X80498Y97998D01*
X80118Y98008D01*
Y100008D01*
X80498Y100018D01*
X80838Y100048D01*
X81138Y100098D01*
X81398Y100168D01*
X81618Y100258D01*
X81798Y100368D01*
X81938Y100498D01*
X82038Y100648D01*
X82098Y100818D01*
X82118Y101008D01*
Y97008D01*
D02*
G37*
G36*
X77252Y100818D02*
X77312Y100648D01*
X77413Y100498D01*
X77554Y100368D01*
X77735Y100258D01*
X77956Y100168D01*
X78218Y100098D01*
X78520Y100048D01*
X78862Y100018D01*
X79244Y100008D01*
Y98008D01*
X78862Y97998D01*
X78520Y97968D01*
X78218Y97918D01*
X77956Y97848D01*
X77735Y97758D01*
X77554Y97648D01*
X77413Y97518D01*
X77312Y97368D01*
X77252Y97198D01*
X77232Y97008D01*
Y101008D01*
X77252Y100818D01*
D02*
G37*
G36*
X116237Y98500D02*
X116226Y98595D01*
X116196Y98680D01*
X116146Y98755D01*
X116075Y98820D01*
X115984Y98875D01*
X115872Y98920D01*
X115741Y98955D01*
X115589Y98980D01*
X115417Y98995D01*
X115225Y99000D01*
Y100000D01*
X115417Y100005D01*
X115589Y100020D01*
X115741Y100045D01*
X115872Y100080D01*
X115984Y100125D01*
X116075Y100180D01*
X116146Y100245D01*
X116196Y100320D01*
X116226Y100405D01*
X116237Y100500D01*
Y98500D01*
D02*
G37*
G36*
X109274Y100405D02*
X109304Y100320D01*
X109354Y100245D01*
X109425Y100180D01*
X109516Y100125D01*
X109628Y100080D01*
X109759Y100045D01*
X109911Y100020D01*
X110083Y100005D01*
X110275Y100000D01*
Y99000D01*
X110083Y98995D01*
X109911Y98980D01*
X109759Y98955D01*
X109628Y98920D01*
X109516Y98875D01*
X109425Y98820D01*
X109354Y98755D01*
X109304Y98680D01*
X109274Y98595D01*
X109263Y98500D01*
Y100500D01*
X109274Y100405D01*
D02*
G37*
G36*
X71953Y97008D02*
X71933Y97198D01*
X71873Y97368D01*
X71773Y97518D01*
X71633Y97648D01*
X71453Y97758D01*
X71233Y97848D01*
X70973Y97918D01*
X70673Y97968D01*
X70333Y97998D01*
X69953Y98008D01*
Y100008D01*
X70333Y100018D01*
X70673Y100048D01*
X70973Y100098D01*
X71233Y100168D01*
X71453Y100258D01*
X71633Y100368D01*
X71773Y100498D01*
X71873Y100648D01*
X71933Y100818D01*
X71953Y101008D01*
Y97008D01*
D02*
G37*
G36*
X-99Y94561D02*
X-184Y94531D01*
X-259Y94480D01*
X-324Y94409D01*
X-379Y94318D01*
X-424Y94207D01*
X-459Y94075D01*
X-484Y93924D01*
X-499Y93752D01*
X-504Y93559D01*
X-1504D01*
X-1509Y93752D01*
X-1524Y93924D01*
X-1549Y94075D01*
X-1584Y94207D01*
X-1629Y94318D01*
X-1684Y94409D01*
X-1749Y94480D01*
X-1824Y94531D01*
X-1909Y94561D01*
X-2004Y94571D01*
X-4D01*
X-99Y94561D01*
D02*
G37*
G36*
X-38087D02*
X-38172Y94531D01*
X-38247Y94480D01*
X-38312Y94409D01*
X-38367Y94318D01*
X-38412Y94207D01*
X-38447Y94075D01*
X-38472Y93924D01*
X-38487Y93752D01*
X-38492Y93559D01*
X-39492D01*
X-39497Y93752D01*
X-39512Y93924D01*
X-39537Y94075D01*
X-39572Y94207D01*
X-39617Y94318D01*
X-39672Y94409D01*
X-39737Y94480D01*
X-39812Y94531D01*
X-39897Y94561D01*
X-39992Y94571D01*
X-37992D01*
X-38087Y94561D01*
D02*
G37*
G36*
X98529Y96630D02*
X98479Y96713D01*
X98409Y96761D01*
X98319Y96775D01*
X98208Y96755D01*
X98077Y96700D01*
X97925Y96611D01*
X97753Y96487D01*
X97561Y96330D01*
X97114Y95911D01*
X97018Y97228D01*
X97189Y97408D01*
X97467Y97740D01*
X97572Y97894D01*
X97655Y98040D01*
X97716Y98177D01*
X97754Y98306D01*
X97771Y98427D01*
X97765Y98539D01*
X97737Y98643D01*
X98529Y96630D01*
D02*
G37*
G36*
X127314Y96598D02*
X127144Y96538D01*
X126994Y96438D01*
X126864Y96298D01*
X126754Y96118D01*
X126664Y95898D01*
X126594Y95638D01*
X126544Y95338D01*
X126514Y94998D01*
X126504Y94618D01*
X124504D01*
X124494Y94998D01*
X124464Y95338D01*
X124414Y95638D01*
X124344Y95898D01*
X124254Y96118D01*
X124144Y96298D01*
X124014Y96438D01*
X123864Y96538D01*
X123694Y96598D01*
X123504Y96618D01*
X127504D01*
X127314Y96598D01*
D02*
G37*
G36*
X186564Y106610D02*
X186394Y106550D01*
X186244Y106449D01*
X186114Y106308D01*
X186004Y106127D01*
X185914Y105906D01*
X185844Y105644D01*
X185794Y105343D01*
X185764Y105001D01*
X185754Y104618D01*
X183754D01*
X183744Y105001D01*
X183714Y105343D01*
X183664Y105644D01*
X183594Y105906D01*
X183504Y106127D01*
X183394Y106308D01*
X183264Y106449D01*
X183114Y106550D01*
X182944Y106610D01*
X182754Y106630D01*
X186754D01*
X186564Y106610D01*
D02*
G37*
G36*
X172211Y109330D02*
X172429Y109083D01*
X172463Y109040D01*
Y103606D01*
X179471D01*
Y102644D01*
X178496D01*
Y97750D01*
X177746D01*
Y97000D01*
X173463D01*
Y96833D01*
X173462Y96832D01*
X173300Y96661D01*
X173223Y96520D01*
X173126Y96393D01*
X173035Y96175D01*
X172922Y95967D01*
X172885Y95811D01*
X172823Y95663D01*
X172792Y95429D01*
X172737Y95199D01*
X172741Y95039D01*
X172720Y94880D01*
X172751Y94646D01*
X172757Y94409D01*
X172802Y94256D01*
X172823Y94097D01*
X172914Y93879D01*
X172981Y93652D01*
X173064Y93515D01*
X173126Y93367D01*
X173270Y93180D01*
X173393Y92978D01*
X173463Y92912D01*
Y92856D01*
X173518D01*
X173606Y92741D01*
X173712Y92660D01*
Y87917D01*
X169600Y83806D01*
X167967D01*
X167942Y83808D01*
X167833Y83833D01*
X167619Y83911D01*
X167309Y84059D01*
X166919Y84287D01*
X166458Y84600D01*
X165964Y84980D01*
X164723Y86079D01*
X164048Y86746D01*
X163740Y86979D01*
X163433Y87215D01*
X163425Y87218D01*
X163418Y87224D01*
X163060Y87369D01*
X162703Y87517D01*
X162695Y87518D01*
X162687Y87522D01*
X162304Y87570D01*
X161920Y87620D01*
X161911Y87619D01*
X161903Y87620D01*
X161520Y87568D01*
X161322Y87542D01*
X160418Y88024D01*
X158743Y88533D01*
X157750Y88631D01*
Y79772D01*
X156250D01*
Y88631D01*
X155257Y88533D01*
X153582Y88024D01*
X152037Y87199D01*
X150684Y86088D01*
X149573Y84734D01*
X148747Y83190D01*
X148239Y81514D01*
X148185Y80970D01*
X148075Y80858D01*
X147822Y80614D01*
X147800Y80576D01*
X147769Y80545D01*
X147596Y80238D01*
X147415Y79937D01*
X147403Y79895D01*
X147381Y79856D01*
X147294Y79516D01*
X147197Y79178D01*
X147196Y79134D01*
X147185Y79091D01*
X147189Y78740D01*
X147183Y78388D01*
X147246Y77837D01*
X147257Y77443D01*
X147236Y77088D01*
X147187Y76768D01*
X147110Y76473D01*
X147008Y76195D01*
X146876Y75925D01*
X146709Y75656D01*
X146502Y75384D01*
X142429Y71311D01*
X141587Y70215D01*
X141058Y68937D01*
X140878Y67567D01*
X141058Y66196D01*
X141587Y64919D01*
X142429Y63823D01*
X142928Y63439D01*
X142887Y62941D01*
X142740Y62862D01*
X141804Y62094D01*
X141779Y62063D01*
X141533Y61821D01*
X141060Y61406D01*
X140927Y61305D01*
X140852Y61255D01*
X139974D01*
X139061Y61134D01*
X138209Y60782D01*
X137478Y60221D01*
X133240Y55983D01*
X132734Y56183D01*
X132357Y57093D01*
X132057Y57484D01*
X132357Y57876D01*
X132778Y58893D01*
X132922Y59984D01*
X132778Y61076D01*
X132357Y62093D01*
X132057Y62484D01*
X132357Y62876D01*
X132778Y63893D01*
X132922Y64984D01*
X132778Y66076D01*
X132357Y67093D01*
X132057Y67484D01*
X132357Y67876D01*
X132778Y68893D01*
X132922Y69984D01*
X132781Y71055D01*
X133028Y71087D01*
X134002Y71490D01*
X134837Y72131D01*
X137603Y74897D01*
X137603Y74897D01*
X138244Y75733D01*
X138647Y76706D01*
X138785Y77750D01*
X138785Y77750D01*
Y83500D01*
X138785Y83500D01*
X138647Y84544D01*
X138244Y85517D01*
X137603Y86353D01*
X137603Y86353D01*
X134103Y89853D01*
X133267Y90494D01*
X132294Y90897D01*
X131250Y91035D01*
X130787Y91093D01*
Y92894D01*
X129539D01*
Y93606D01*
X130787D01*
Y99025D01*
X131062Y99352D01*
X142425Y110715D01*
X143876D01*
X144049Y110246D01*
X143350Y109650D01*
X142140Y108232D01*
X141166Y106643D01*
X140452Y104921D01*
X140017Y103108D01*
X139930Y102000D01*
X163570D01*
X163483Y103108D01*
X163048Y104921D01*
X162334Y106643D01*
X161360Y108232D01*
X160150Y109650D01*
X159451Y110246D01*
X159624Y110715D01*
X170825D01*
X172211Y109330D01*
D02*
G37*
G36*
X175303Y113371D02*
X176076Y112710D01*
X176411Y112474D01*
X176711Y112300D01*
X176977Y112188D01*
X177208Y112140D01*
X177404Y112154D01*
X177566Y112230D01*
X177693Y112370D01*
X175487Y108943D01*
X175571Y109125D01*
X175605Y109329D01*
X175589Y109556D01*
X175522Y109805D01*
X175405Y110077D01*
X175237Y110371D01*
X175018Y110687D01*
X174750Y111026D01*
X174430Y111388D01*
X174060Y111772D01*
X174864Y113796D01*
X175303Y113371D01*
D02*
G37*
G36*
X134556Y114258D02*
X128127Y107829D01*
X124853Y111103D01*
X124017Y111744D01*
X123044Y112147D01*
X122000Y112285D01*
X122000Y112285D01*
X89000D01*
X87956Y112147D01*
X86983Y111744D01*
X86147Y111103D01*
X86147Y111103D01*
X82147Y107103D01*
X81506Y106267D01*
X81103Y105294D01*
X80971Y104291D01*
X80256D01*
Y105496D01*
X68941D01*
Y102968D01*
X68464Y102905D01*
X67491Y102502D01*
X66655Y101861D01*
X62647Y97853D01*
X62209Y97282D01*
X61578Y97206D01*
X54334Y104450D01*
X54329Y104472D01*
X54310Y104604D01*
X54272Y105160D01*
X54270Y105470D01*
X54273Y105500D01*
X54158Y106667D01*
X53818Y107789D01*
X53265Y108823D01*
X52521Y109730D01*
X51614Y110474D01*
X50580Y111026D01*
X49458Y111367D01*
X48291Y111481D01*
X47124Y111367D01*
X46002Y111026D01*
X44968Y110474D01*
X44062Y109730D01*
X43318Y108823D01*
X42765Y107789D01*
X42425Y106667D01*
X42310Y105500D01*
X42425Y104333D01*
X42765Y103211D01*
X43318Y102177D01*
X44062Y101270D01*
X44968Y100526D01*
X46002Y99974D01*
X47124Y99633D01*
X48172Y99530D01*
X48147Y99030D01*
X40462D01*
X35042Y104450D01*
X35038Y104472D01*
X35019Y104604D01*
X34981Y105160D01*
X34979Y105470D01*
X34982Y105500D01*
X34867Y106667D01*
X34526Y107789D01*
X33974Y108823D01*
X33230Y109730D01*
X32323Y110474D01*
X31289Y111026D01*
X30167Y111367D01*
X29000Y111481D01*
X27833Y111367D01*
X26711Y111026D01*
X25677Y110474D01*
X24770Y109730D01*
X24026Y108823D01*
X23474Y107789D01*
X23133Y106667D01*
X23019Y105500D01*
X23133Y104333D01*
X23474Y103211D01*
X24026Y102177D01*
X24770Y101270D01*
X25677Y100526D01*
X26711Y99974D01*
X27833Y99633D01*
X29000Y99518D01*
X29030Y99521D01*
X29340Y99519D01*
X29896Y99481D01*
X30028Y99462D01*
X30050Y99458D01*
X36504Y93004D01*
X37235Y92443D01*
X38086Y92090D01*
X39000Y91970D01*
X39000Y91970D01*
X50288D01*
X54720Y87538D01*
Y83040D01*
X54261Y82824D01*
X54220Y82828D01*
X53480Y83730D01*
X52573Y84474D01*
X51539Y85026D01*
X50417Y85367D01*
X49250Y85482D01*
X49073Y85464D01*
X49026Y85470D01*
X48948Y85460D01*
X48869Y85466D01*
X48584Y85451D01*
X48410Y85451D01*
X48279Y85459D01*
X48217Y85467D01*
X48159Y85506D01*
X47761Y85811D01*
X46910Y86164D01*
X45996Y86284D01*
X39144D01*
Y88037D01*
X30709D01*
X30660Y88414D01*
X30307Y89265D01*
X29746Y89996D01*
X29015Y90557D01*
X28164Y90910D01*
X28000Y90931D01*
Y88038D01*
X27356D01*
Y87500D01*
X27250D01*
Y86750D01*
X23791D01*
X23481Y86284D01*
X13754D01*
X12840Y86164D01*
X11989Y85811D01*
X11736Y85617D01*
X11287Y85838D01*
Y89394D01*
X2526D01*
Y91547D01*
X6921D01*
Y103453D01*
X-8921D01*
Y91547D01*
X-4534D01*
Y89394D01*
X-6287D01*
Y87030D01*
X-11213D01*
Y89394D01*
X-21779D01*
Y88394D01*
X-22754D01*
Y83500D01*
X-24254D01*
Y88394D01*
X-27787D01*
Y87030D01*
X-33522D01*
X-34249Y87757D01*
X-34271Y87908D01*
X-34319Y88274D01*
X-34330Y88298D01*
X-34334Y88325D01*
X-34481Y88663D01*
X-34622Y89003D01*
X-34638Y89025D01*
X-34649Y89049D01*
X-34803Y89243D01*
X-34831Y89489D01*
X-34841Y89514D01*
X-34844Y89541D01*
X-34985Y89881D01*
X-35120Y90224D01*
X-35136Y90246D01*
X-35147Y90271D01*
X-35371Y90563D01*
X-35462Y90686D01*
Y92547D01*
X-32071D01*
Y96750D01*
X-38992D01*
X-45913D01*
Y92547D01*
X-42522D01*
Y90686D01*
X-42613Y90563D01*
X-42838Y90271D01*
X-42848Y90246D01*
X-42864Y90224D01*
X-42999Y89881D01*
X-43140Y89541D01*
X-43143Y89514D01*
X-43153Y89489D01*
X-43195Y89123D01*
X-43243Y88758D01*
X-43240Y88731D01*
X-43242Y88704D01*
X-43188Y88340D01*
X-43140Y87975D01*
X-43130Y87950D01*
X-43126Y87923D01*
X-42979Y87585D01*
X-42838Y87245D01*
X-42821Y87223D01*
X-42811Y87199D01*
X-42719Y87083D01*
X-42646Y86529D01*
X-42268Y85617D01*
X-41927Y85173D01*
X-41911Y85026D01*
X-41901Y85001D01*
X-41897Y84975D01*
X-41756Y84635D01*
X-41621Y84291D01*
X-41605Y84270D01*
X-41595Y84245D01*
X-41371Y83953D01*
X-41152Y83656D01*
X-41131Y83640D01*
X-41114Y83618D01*
X-40822Y83394D01*
X-40533Y83165D01*
X-40509Y83154D01*
X-40488Y83138D01*
X-40147Y82996D01*
X-39809Y82849D01*
X-39783Y82845D01*
X-39758Y82835D01*
X-39393Y82787D01*
X-39241Y82764D01*
X-37481Y81004D01*
X-36749Y80443D01*
X-35898Y80090D01*
X-34984Y79970D01*
X-27787D01*
Y79280D01*
X-48288D01*
X-49499Y80491D01*
X-49990Y81005D01*
X-50427Y81516D01*
X-50539Y81665D01*
X-50551Y81684D01*
X-50616Y82175D01*
X-51069Y83269D01*
X-51791Y84209D01*
X-52731Y84931D01*
X-53825Y85384D01*
X-55000Y85539D01*
X-56175Y85384D01*
X-57269Y84931D01*
X-58209Y84209D01*
X-58931Y83269D01*
X-59384Y82175D01*
X-59539Y81000D01*
Y77603D01*
X-59915Y77273D01*
X-60000Y77284D01*
X-61044Y77147D01*
X-61930Y76780D01*
X-93250D01*
X-94164Y76660D01*
X-95015Y76307D01*
X-95746Y75746D01*
X-96599Y74894D01*
X-102784D01*
Y73894D01*
X-103758D01*
Y69000D01*
X-105258D01*
Y73894D01*
X-106965D01*
Y84593D01*
X-106945Y84642D01*
X-106894Y84717D01*
X-106794Y85006D01*
X-106677Y85289D01*
X-106665Y85378D01*
X-106636Y85463D01*
X-106614Y85769D01*
X-106574Y86072D01*
X-106586Y86161D01*
X-106579Y86251D01*
X-106637Y86552D01*
X-106677Y86855D01*
X-106712Y86938D01*
X-106729Y87027D01*
X-106862Y87302D01*
X-106975Y87574D01*
X-107103Y88544D01*
X-107506Y89517D01*
X-108147Y90353D01*
X-108983Y90994D01*
X-109956Y91397D01*
X-110250Y91436D01*
Y87500D01*
X-111750D01*
Y91436D01*
X-112044Y91397D01*
X-113017Y90994D01*
X-113853Y90353D01*
X-114494Y89517D01*
X-114897Y88544D01*
X-115025Y87574D01*
X-115138Y87302D01*
X-115271Y87027D01*
X-115288Y86938D01*
X-115323Y86855D01*
X-115363Y86552D01*
X-115421Y86251D01*
X-115414Y86161D01*
X-115426Y86072D01*
X-115386Y85769D01*
X-115364Y85463D01*
X-115335Y85378D01*
X-115323Y85289D01*
X-115206Y85006D01*
X-115106Y84717D01*
X-115055Y84642D01*
X-115034Y84593D01*
Y50008D01*
X-115034Y50008D01*
X-114897Y48964D01*
X-114494Y47991D01*
X-113853Y47155D01*
X-113017Y46514D01*
X-112044Y46111D01*
X-111000Y45973D01*
X-110284Y46068D01*
X-109783Y45677D01*
Y44975D01*
X-110058Y44648D01*
X-112853Y41853D01*
X-113494Y41017D01*
X-113897Y40044D01*
X-114034Y39000D01*
X-114034Y39000D01*
Y35866D01*
X-114435Y35344D01*
X-117003Y32776D01*
X-121000D01*
X-121783Y32673D01*
X-122513Y32370D01*
X-123140Y31890D01*
X-123620Y31263D01*
X-123923Y30533D01*
X-124026Y29750D01*
Y27136D01*
X-124034Y27075D01*
X-124026Y27014D01*
Y26500D01*
X-123923Y25717D01*
X-123858Y25560D01*
X-123915Y25422D01*
X-124034Y24516D01*
X-123915Y23609D01*
X-123760Y23236D01*
X-123915Y22863D01*
X-124034Y21957D01*
X-123915Y21050D01*
X-123760Y20677D01*
X-123915Y20304D01*
X-124034Y19398D01*
X-123915Y18491D01*
X-123760Y18118D01*
X-123915Y17745D01*
X-124034Y16839D01*
X-123915Y15932D01*
X-123829Y15726D01*
X-124105Y15251D01*
X-127211D01*
Y17750D01*
X-127366Y18925D01*
X-127819Y20019D01*
X-128541Y20959D01*
X-131541Y23959D01*
X-132481Y24681D01*
X-133575Y25134D01*
X-134750Y25289D01*
X-138474D01*
Y27500D01*
X-138476Y27517D01*
Y30547D01*
X-139143D01*
X-139961Y33821D01*
Y61500D01*
X-139961Y61500D01*
X-140116Y62675D01*
X-140569Y63769D01*
X-141291Y64709D01*
X-154039Y77457D01*
X-154979Y78179D01*
X-156073Y78632D01*
X-157248Y78787D01*
X-166981D01*
X-167091Y78791D01*
X-167161Y78798D01*
X-167677Y79221D01*
X-168711Y79774D01*
X-169833Y80115D01*
X-171000Y80230D01*
X-172167Y80115D01*
X-173289Y79774D01*
X-174323Y79221D01*
X-175230Y78478D01*
X-175973Y77571D01*
X-176526Y76537D01*
X-176867Y75415D01*
X-176981Y74248D01*
X-176867Y73081D01*
X-176526Y71959D01*
X-175973Y70925D01*
X-175470Y70311D01*
X-175973Y69697D01*
X-176526Y68663D01*
X-176867Y67541D01*
X-176981Y66374D01*
X-176867Y65207D01*
X-176526Y64085D01*
X-175973Y63051D01*
X-175230Y62144D01*
X-174749Y61750D01*
X-175326Y60998D01*
X-175825Y59793D01*
X-175897Y59250D01*
X-171000D01*
X-166103D01*
X-166175Y59793D01*
X-166674Y60998D01*
X-166933Y61335D01*
X-166686Y61835D01*
X-165254D01*
X-161539Y58120D01*
Y20250D01*
X-161384Y19075D01*
X-160931Y17981D01*
X-160209Y17041D01*
X-158670Y15501D01*
X-158861Y15039D01*
X-161500D01*
X-161500Y15039D01*
X-162675Y14884D01*
X-163769Y14431D01*
X-163957Y14287D01*
X-166981D01*
X-167091Y14291D01*
X-167161Y14298D01*
X-167677Y14721D01*
X-168711Y15274D01*
X-169833Y15615D01*
X-171000Y15730D01*
X-172167Y15615D01*
X-173289Y15274D01*
X-174323Y14721D01*
X-175230Y13978D01*
X-175715Y13386D01*
X-176216Y13565D01*
Y31062D01*
X-175715Y31240D01*
X-175230Y30648D01*
X-174323Y29904D01*
X-173289Y29352D01*
X-172167Y29011D01*
X-171000Y28896D01*
X-169833Y29011D01*
X-168711Y29352D01*
X-167677Y29904D01*
X-166770Y30648D01*
X-166026Y31555D01*
X-165474Y32589D01*
X-165133Y33711D01*
X-165018Y34878D01*
X-165133Y36045D01*
X-165474Y37167D01*
X-166026Y38201D01*
X-166530Y38815D01*
X-166026Y39429D01*
X-165474Y40463D01*
X-165133Y41585D01*
X-165018Y42752D01*
X-165133Y43919D01*
X-165474Y45041D01*
X-166026Y46075D01*
X-166530Y46689D01*
X-166026Y47303D01*
X-165474Y48337D01*
X-165133Y49459D01*
X-165018Y50626D01*
X-165133Y51793D01*
X-165474Y52915D01*
X-166026Y53949D01*
X-166770Y54856D01*
X-167251Y55250D01*
X-166674Y56002D01*
X-166175Y57207D01*
X-166103Y57750D01*
X-171000D01*
X-175897D01*
X-175825Y57207D01*
X-175326Y56002D01*
X-174749Y55250D01*
X-175192Y54886D01*
X-175197Y54883D01*
X-175199Y54880D01*
X-175230Y54856D01*
X-175245Y54837D01*
X-175331Y54755D01*
X-175380Y54715D01*
X-175415Y54690D01*
X-175439Y54675D01*
X-175454Y54668D01*
X-175464Y54664D01*
X-175474Y54661D01*
X-175478Y54660D01*
X-175874D01*
X-176918Y54523D01*
X-177891Y54120D01*
X-178727Y53479D01*
X-183103Y49103D01*
X-183744Y48267D01*
X-184147Y47294D01*
X-184284Y46250D01*
X-184284Y46250D01*
Y-4624D01*
X-184284Y-4624D01*
X-184147Y-5668D01*
X-183744Y-6641D01*
X-183103Y-7477D01*
X-177019Y-13560D01*
X-177017Y-13564D01*
X-177012Y-13573D01*
X-177008Y-13583D01*
X-177002Y-13598D01*
X-176996Y-13625D01*
X-176988Y-13668D01*
X-176982Y-13731D01*
X-176979Y-13850D01*
X-176981Y-13874D01*
X-176979Y-13898D01*
X-176982Y-14017D01*
X-176988Y-14080D01*
X-176996Y-14123D01*
X-177002Y-14150D01*
X-177008Y-14165D01*
X-177012Y-14175D01*
X-177017Y-14184D01*
X-177019Y-14188D01*
X-186853Y-24021D01*
X-187494Y-24857D01*
X-187897Y-25830D01*
X-188034Y-26874D01*
X-188034Y-26874D01*
Y-71000D01*
X-188034Y-71000D01*
X-187897Y-72044D01*
X-187494Y-73017D01*
X-186853Y-73853D01*
X-183519Y-77186D01*
X-183517Y-77190D01*
X-183512Y-77199D01*
X-183508Y-77209D01*
X-183502Y-77224D01*
X-183495Y-77251D01*
X-183488Y-77294D01*
X-183482Y-77357D01*
X-183479Y-77476D01*
X-183482Y-77500D01*
X-183478Y-77539D01*
X-183478Y-77543D01*
X-183477Y-77548D01*
X-183367Y-78667D01*
X-183026Y-79789D01*
X-182474Y-80823D01*
X-181730Y-81730D01*
X-180823Y-82473D01*
X-179789Y-83026D01*
X-178667Y-83367D01*
X-177500Y-83482D01*
X-176333Y-83367D01*
X-175211Y-83026D01*
X-174177Y-82473D01*
X-173270Y-81730D01*
X-172527Y-80823D01*
X-171974Y-79789D01*
X-171633Y-78667D01*
X-171519Y-77500D01*
X-171633Y-76333D01*
X-171974Y-75211D01*
X-172527Y-74177D01*
X-173270Y-73270D01*
X-174177Y-72527D01*
X-174729Y-72231D01*
X-174766Y-71645D01*
X-173968Y-71032D01*
X-173174Y-69998D01*
X-172675Y-68793D01*
X-172603Y-68250D01*
X-177500D01*
Y-66750D01*
X-172603D01*
X-172675Y-66207D01*
X-173174Y-65002D01*
X-173968Y-63968D01*
X-174766Y-63355D01*
X-174729Y-62769D01*
X-174177Y-62473D01*
X-173270Y-61730D01*
X-172527Y-60823D01*
X-171974Y-59789D01*
X-171633Y-58667D01*
X-171519Y-57500D01*
X-171633Y-56333D01*
X-171974Y-55211D01*
X-172527Y-54177D01*
X-172750Y-53905D01*
X-172536Y-53453D01*
X-171547D01*
Y-41547D01*
X-179965D01*
Y-28545D01*
X-176464Y-25044D01*
X-175888Y-25175D01*
X-175470Y-25685D01*
X-175973Y-26299D01*
X-176526Y-27333D01*
X-176867Y-28455D01*
X-176981Y-29622D01*
X-176867Y-30789D01*
X-176526Y-31911D01*
X-175973Y-32945D01*
X-175230Y-33852D01*
X-174323Y-34596D01*
X-173289Y-35148D01*
X-172167Y-35489D01*
X-171000Y-35604D01*
X-169833Y-35489D01*
X-168711Y-35148D01*
X-167677Y-34596D01*
X-166770Y-33852D01*
X-166026Y-32945D01*
X-165474Y-31911D01*
X-165133Y-30789D01*
X-165018Y-29622D01*
X-165133Y-28455D01*
X-165474Y-27333D01*
X-166026Y-26299D01*
X-166506Y-25715D01*
X-166111Y-25370D01*
X-166004Y-25290D01*
X-165985Y-25278D01*
X-158682D01*
X-157796Y-25645D01*
X-156752Y-25782D01*
X-155708Y-25645D01*
X-154735Y-25242D01*
X-153899Y-24601D01*
X-153258Y-23765D01*
X-152855Y-22792D01*
X-152717Y-21748D01*
X-152855Y-20704D01*
X-153258Y-19731D01*
X-153899Y-18895D01*
X-154735Y-18254D01*
X-155708Y-17851D01*
X-156752Y-17714D01*
X-157796Y-17851D01*
X-158682Y-18218D01*
X-165985D01*
X-166004Y-18206D01*
X-166111Y-18126D01*
X-166506Y-17781D01*
X-166026Y-17197D01*
X-165474Y-16163D01*
X-165133Y-15041D01*
X-165018Y-13874D01*
X-165133Y-12707D01*
X-165474Y-11585D01*
X-166026Y-10551D01*
X-166770Y-9644D01*
X-167251Y-9250D01*
X-166674Y-8498D01*
X-166175Y-7293D01*
X-166103Y-6750D01*
X-171000D01*
Y-5250D01*
X-166103D01*
X-166175Y-4707D01*
X-166674Y-3502D01*
X-166933Y-3165D01*
X-166686Y-2665D01*
X-165004D01*
X-164459Y-3209D01*
X-163519Y-3931D01*
X-162425Y-4384D01*
X-161250Y-4539D01*
X-150000D01*
X-149826Y-4516D01*
X-149750Y-4526D01*
X-146906D01*
X-146516Y-4577D01*
X-141949D01*
X-141559Y-4526D01*
X-141500D01*
X-140717Y-4423D01*
X-139987Y-4121D01*
X-139360Y-3640D01*
X-138880Y-3013D01*
X-138577Y-2283D01*
X-138474Y-1500D01*
Y-1285D01*
X-138446Y-1075D01*
X-138474Y-864D01*
Y961D01*
X-134500D01*
X-133325Y1116D01*
X-132231Y1569D01*
X-131291Y2291D01*
X-128541Y5041D01*
X-127819Y5981D01*
X-127366Y7075D01*
X-127219Y8190D01*
X-124105D01*
X-123829Y7714D01*
X-123915Y7509D01*
X-124034Y6602D01*
X-123915Y5696D01*
X-123760Y5323D01*
X-123915Y4950D01*
X-124034Y4043D01*
X-123915Y3137D01*
X-123845Y2970D01*
X-123923Y2783D01*
X-124026Y2000D01*
Y1545D01*
X-124034Y1484D01*
X-124026Y1423D01*
Y-1014D01*
X-124034Y-1075D01*
X-124026Y-1136D01*
Y-1500D01*
X-123923Y-2283D01*
X-123620Y-3013D01*
X-123140Y-3640D01*
X-122513Y-4121D01*
X-121783Y-4423D01*
X-121000Y-4526D01*
X-120922D01*
X-120531Y-4577D01*
X-115965D01*
X-115574Y-4526D01*
X-112963D01*
X-111197Y-7470D01*
Y-9408D01*
X-110635D01*
X-110499Y-9734D01*
X-109658Y-10831D01*
X-103994Y-16495D01*
X-104744Y-17245D01*
X-105586Y-18341D01*
X-106115Y-19618D01*
X-106295Y-20989D01*
Y-31750D01*
X-106115Y-33121D01*
X-105586Y-34398D01*
X-104744Y-35494D01*
X-99884Y-40355D01*
X-100149Y-40797D01*
X-100589Y-40663D01*
X-101949Y-40529D01*
X-103309Y-40663D01*
X-104616Y-41060D01*
X-105822Y-41704D01*
X-106878Y-42571D01*
X-107745Y-43627D01*
X-108389Y-44833D01*
X-108785Y-46140D01*
X-108856Y-46859D01*
X-109264Y-47326D01*
X-111355Y-49417D01*
X-111797Y-49152D01*
X-111649Y-48664D01*
X-111608Y-48250D01*
X-117500D01*
X-123392D01*
X-123351Y-48664D01*
X-123012Y-49783D01*
X-122460Y-50814D01*
X-121718Y-51718D01*
X-120821Y-52455D01*
X-120817Y-52496D01*
X-121026Y-52955D01*
X-146000D01*
X-146147Y-52974D01*
X-150250D01*
X-150546Y-53013D01*
X-150843Y-53033D01*
X-153343Y-53533D01*
X-153574Y-53611D01*
X-153812Y-53666D01*
X-153946Y-53738D01*
X-154091Y-53788D01*
X-154294Y-53923D01*
X-154509Y-54038D01*
X-156259Y-55288D01*
X-156459Y-55475D01*
X-156675Y-55646D01*
X-156747Y-55744D01*
X-156836Y-55827D01*
X-156982Y-56060D01*
X-157145Y-56280D01*
X-158395Y-58530D01*
X-158395Y-58531D01*
X-158396Y-58531D01*
X-158545Y-58911D01*
X-158685Y-59265D01*
X-158685Y-59266D01*
X-158686Y-59266D01*
X-158748Y-59516D01*
X-159177D01*
Y-61233D01*
X-159186Y-61266D01*
X-159228Y-61633D01*
X-159276Y-62000D01*
Y-67250D01*
X-159177Y-68000D01*
Y-70240D01*
X-156521D01*
X-156250Y-70276D01*
X-138750D01*
X-138479Y-70240D01*
X-137823D01*
Y-70113D01*
X-137276Y-69887D01*
X-136912Y-70015D01*
X-136776Y-70082D01*
Y-78747D01*
X-140003Y-81974D01*
X-156250D01*
X-157033Y-82077D01*
X-157763Y-82380D01*
X-158390Y-82860D01*
X-158870Y-83487D01*
X-159173Y-84217D01*
X-159276Y-85000D01*
Y-92500D01*
X-159173Y-93283D01*
X-158870Y-94013D01*
X-158390Y-94640D01*
X-157763Y-95121D01*
X-157033Y-95423D01*
X-156250Y-95526D01*
X-124500D01*
X-105768Y-114258D01*
X-105959Y-114720D01*
X-193220D01*
Y114720D01*
X134365D01*
X134556Y114258D01*
D02*
G37*
G36*
X51247Y105046D02*
X51299Y104286D01*
X51347Y103949D01*
X51411Y103642D01*
X51490Y103364D01*
X51583Y103114D01*
X51692Y102895D01*
X51816Y102704D01*
X51955Y102543D01*
X51248Y101836D01*
X51087Y101975D01*
X50897Y102099D01*
X50677Y102208D01*
X50428Y102302D01*
X50150Y102381D01*
X49842Y102444D01*
X49506Y102493D01*
X48745Y102544D01*
X48321Y102547D01*
X51244Y105471D01*
X51247Y105046D01*
D02*
G37*
G36*
X185764Y102252D02*
X185794Y101912D01*
X185844Y101612D01*
X185914Y101352D01*
X186004Y101132D01*
X186114Y100952D01*
X186244Y100812D01*
X186394Y100712D01*
X186564Y100652D01*
X186754Y100632D01*
X182754D01*
X182944Y100652D01*
X183114Y100712D01*
X183264Y100812D01*
X183394Y100952D01*
X183504Y101132D01*
X183594Y101352D01*
X183664Y101612D01*
X183714Y101912D01*
X183744Y102252D01*
X183754Y102632D01*
X185754D01*
X185764Y102252D01*
D02*
G37*
G36*
X126514Y103999D02*
X126544Y103657D01*
X126594Y103356D01*
X126664Y103094D01*
X126754Y102873D01*
X126864Y102692D01*
X126976Y102570D01*
X127174Y102710D01*
X127543Y103009D01*
X128386Y103796D01*
X129190Y101771D01*
X128820Y101388D01*
X128232Y100687D01*
X128013Y100371D01*
X127845Y100077D01*
X127728Y99805D01*
X127661Y99556D01*
X127645Y99329D01*
X127679Y99125D01*
X127763Y98943D01*
X125557Y102370D01*
X123504D01*
X123694Y102390D01*
X123864Y102450D01*
X124014Y102551D01*
X124144Y102692D01*
X124254Y102873D01*
X124344Y103094D01*
X124414Y103356D01*
X124464Y103657D01*
X124494Y103999D01*
X124504Y104382D01*
X126504D01*
X126514Y103999D01*
D02*
G37*
G36*
X31956Y105046D02*
X32007Y104286D01*
X32056Y103949D01*
X32120Y103642D01*
X32198Y103364D01*
X32292Y103114D01*
X32401Y102895D01*
X32525Y102704D01*
X32664Y102543D01*
X31957Y101836D01*
X31796Y101975D01*
X31605Y102099D01*
X31385Y102208D01*
X31137Y102302D01*
X30858Y102381D01*
X30551Y102444D01*
X30215Y102493D01*
X29454Y102544D01*
X29030Y102547D01*
X31953Y105471D01*
X31956Y105046D01*
D02*
G37*
G36*
X86010Y102897D02*
X86040Y102555D01*
X86090Y102253D01*
X86160Y101992D01*
X86250Y101770D01*
X86360Y101589D01*
X86490Y101448D01*
X86640Y101348D01*
X86810Y101287D01*
X87000Y101267D01*
X83000D01*
X83190Y101287D01*
X83360Y101348D01*
X83510Y101448D01*
X83640Y101589D01*
X83750Y101770D01*
X83840Y101992D01*
X83910Y102253D01*
X83960Y102555D01*
X83990Y102897D01*
X84000Y103279D01*
X86000D01*
X86010Y102897D01*
D02*
G37*
G36*
X179556Y94860D02*
X179386Y94800D01*
X179236Y94699D01*
X179106Y94558D01*
X178996Y94377D01*
X178906Y94156D01*
X178836Y93894D01*
X178786Y93593D01*
X178756Y93251D01*
X178746Y92868D01*
X176746D01*
X176736Y93251D01*
X176706Y93593D01*
X176656Y93894D01*
X176586Y94156D01*
X176496Y94377D01*
X176386Y94558D01*
X176256Y94699D01*
X176106Y94800D01*
X175936Y94860D01*
X175746Y94880D01*
X179746D01*
X179556Y94860D01*
D02*
G37*
G36*
X-109676Y85986D02*
X-109744Y85886D01*
X-109804Y85772D01*
X-109856Y85643D01*
X-109900Y85500D01*
X-109936Y85342D01*
X-109964Y85170D01*
X-109984Y84984D01*
X-110000Y84568D01*
X-112000D01*
X-112004Y84783D01*
X-112036Y85170D01*
X-112064Y85342D01*
X-112100Y85500D01*
X-112144Y85643D01*
X-112196Y85772D01*
X-112256Y85886D01*
X-112324Y85986D01*
X-112400Y86072D01*
X-109600D01*
X-109676Y85986D01*
D02*
G37*
G36*
X101021Y84120D02*
X100936Y84090D01*
X100861Y84039D01*
X100796Y83968D01*
X100741Y83877D01*
X100696Y83766D01*
X100661Y83634D01*
X100636Y83483D01*
X100621Y83311D01*
X100616Y83118D01*
X99616D01*
X99611Y83311D01*
X99596Y83483D01*
X99571Y83634D01*
X99536Y83766D01*
X99491Y83877D01*
X99436Y83968D01*
X99371Y84039D01*
X99296Y84090D01*
X99211Y84120D01*
X99116Y84130D01*
X101116D01*
X101021Y84120D01*
D02*
G37*
G36*
X73896Y85106D02*
X73780Y85259D01*
X73627Y85347D01*
X73437Y85369D01*
X73210Y85326D01*
X72946Y85217D01*
X72644Y85043D01*
X72306Y84803D01*
X71930Y84499D01*
X71067Y83692D01*
X70539Y85992D01*
X70895Y86363D01*
X71464Y87045D01*
X71677Y87357D01*
X71842Y87649D01*
X71960Y87923D01*
X72030Y88176D01*
X72052Y88411D01*
X72026Y88625D01*
X71953Y88821D01*
X73896Y85106D01*
D02*
G37*
G36*
X127784Y88810D02*
X127844Y88640D01*
X127945Y88490D01*
X128085Y88360D01*
X128266Y88250D01*
X128488Y88160D01*
X128749Y88090D01*
X129051Y88040D01*
X129393Y88010D01*
X129775Y88000D01*
Y86000D01*
X129393Y85990D01*
X129051Y85960D01*
X128749Y85910D01*
X128488Y85840D01*
X128266Y85750D01*
X128085Y85640D01*
X127945Y85510D01*
X127844Y85360D01*
X127784Y85190D01*
X127763Y85000D01*
Y89000D01*
X127784Y88810D01*
D02*
G37*
G36*
X-3263Y82500D02*
X-3274Y82595D01*
X-3304Y82680D01*
X-3354Y82755D01*
X-3425Y82820D01*
X-3516Y82875D01*
X-3628Y82920D01*
X-3759Y82955D01*
X-3911Y82980D01*
X-4083Y82995D01*
X-4275Y83000D01*
Y84000D01*
X-4083Y84005D01*
X-3911Y84020D01*
X-3759Y84045D01*
X-3628Y84080D01*
X-3516Y84125D01*
X-3425Y84180D01*
X-3354Y84245D01*
X-3304Y84320D01*
X-3274Y84405D01*
X-3263Y84500D01*
Y82500D01*
D02*
G37*
G36*
X36142Y83659D02*
X36172Y83574D01*
X36222Y83499D01*
X36292Y83434D01*
X36382Y83379D01*
X36492Y83334D01*
X36622Y83299D01*
X36772Y83274D01*
X36942Y83259D01*
X37132Y83254D01*
Y82254D01*
X36942Y82249D01*
X36772Y82234D01*
X36622Y82209D01*
X36492Y82174D01*
X36382Y82129D01*
X36292Y82074D01*
X36222Y82009D01*
X36172Y81934D01*
X36142Y81849D01*
X36132Y81754D01*
Y83754D01*
X36142Y83659D01*
D02*
G37*
G36*
X30380Y81754D02*
X30370Y81849D01*
X30340Y81934D01*
X30289Y82009D01*
X30218Y82074D01*
X30127Y82129D01*
X30016Y82174D01*
X29884Y82209D01*
X29733Y82234D01*
X29561Y82249D01*
X29368Y82254D01*
Y83254D01*
X29561Y83259D01*
X29733Y83274D01*
X29884Y83299D01*
X30016Y83334D01*
X30127Y83379D01*
X30218Y83434D01*
X30289Y83499D01*
X30340Y83574D01*
X30370Y83659D01*
X30380Y83754D01*
Y81754D01*
D02*
G37*
G36*
X-14227Y84405D02*
X-14196Y84320D01*
X-14145Y84245D01*
X-14075Y84180D01*
X-13984Y84125D01*
X-13872Y84080D01*
X-13741Y84045D01*
X-13589Y84020D01*
X-13417Y84005D01*
X-13225Y84000D01*
Y83000D01*
X-13417Y82995D01*
X-13589Y82980D01*
X-13741Y82955D01*
X-13872Y82920D01*
X-13984Y82875D01*
X-14075Y82820D01*
X-14145Y82755D01*
X-14196Y82680D01*
X-14227Y82595D01*
X-14237Y82500D01*
Y84500D01*
X-14227Y84405D01*
D02*
G37*
G36*
X-25763Y82500D02*
X-25774Y82595D01*
X-25804Y82680D01*
X-25855Y82755D01*
X-25925Y82820D01*
X-26016Y82875D01*
X-26128Y82920D01*
X-26259Y82955D01*
X-26411Y82980D01*
X-26583Y82995D01*
X-26775Y83000D01*
Y84000D01*
X-26583Y84005D01*
X-26411Y84020D01*
X-26259Y84045D01*
X-26128Y84080D01*
X-26016Y84125D01*
X-25925Y84180D01*
X-25855Y84245D01*
X-25804Y84320D01*
X-25774Y84405D01*
X-25763Y84500D01*
Y82500D01*
D02*
G37*
G36*
X-38485Y90082D02*
X-38463Y89930D01*
X-38427Y89780D01*
X-38376Y89631D01*
X-38311Y89482D01*
X-38231Y89335D01*
X-38137Y89189D01*
X-38028Y89044D01*
X-37905Y88900D01*
X-37767Y88758D01*
X-40217D01*
X-40079Y88900D01*
X-39956Y89044D01*
X-39847Y89189D01*
X-39753Y89335D01*
X-39673Y89482D01*
X-39608Y89631D01*
X-39557Y89780D01*
X-39521Y89930D01*
X-39499Y90082D01*
X-39492Y90235D01*
X-38492D01*
X-38485Y90082D01*
D02*
G37*
G36*
X77244Y89754D02*
X77278Y89730D01*
X77336Y89708D01*
X77417Y89690D01*
X77521Y89674D01*
X77798Y89651D01*
X78388Y89638D01*
Y87638D01*
X78168Y87636D01*
X77417Y87586D01*
X77336Y87567D01*
X77278Y87546D01*
X77244Y87521D01*
X77232Y87494D01*
Y89782D01*
X77244Y89754D01*
D02*
G37*
G36*
X84069Y90824D02*
X84006Y90857D01*
X83905Y90887D01*
X83767Y90914D01*
X83591Y90937D01*
X83127Y90972D01*
X81750Y91000D01*
Y93000D01*
X82151Y93002D01*
X83905Y93113D01*
X84006Y93143D01*
X84069Y93176D01*
Y90824D01*
D02*
G37*
G36*
X126514Y91499D02*
X126544Y91157D01*
X126594Y90856D01*
X126664Y90594D01*
X126754Y90373D01*
X126864Y90192D01*
X126994Y90051D01*
X127144Y89950D01*
X127314Y89890D01*
X127504Y89870D01*
X123504D01*
X123694Y89890D01*
X123864Y89950D01*
X124014Y90051D01*
X124144Y90192D01*
X124254Y90373D01*
X124344Y90594D01*
X124414Y90856D01*
X124464Y91157D01*
X124494Y91499D01*
X124504Y91882D01*
X126504D01*
X126514Y91499D01*
D02*
G37*
G36*
X87090Y89718D02*
X86966Y89651D01*
X86857Y89539D01*
X86762Y89382D01*
X86682Y89180D01*
X86617Y88934D01*
X86566Y88643D01*
X86529Y88307D01*
X86500Y87500D01*
X83501D01*
X85001Y86000D01*
X84830Y85980D01*
X84636Y85921D01*
X84583Y85897D01*
X84980Y85500D01*
X84735Y85497D01*
X84285Y85454D01*
X84080Y85415D01*
X83889Y85364D01*
X83711Y85300D01*
X83550Y85227D01*
X82975Y84736D01*
X82232Y84025D01*
X81525Y84732D01*
X81900Y85115D01*
X82760Y86124D01*
X82800Y86211D01*
X82863Y86389D01*
X82915Y86580D01*
X82954Y86785D01*
X82981Y87003D01*
X82997Y87235D01*
X83000Y87480D01*
X83397Y87083D01*
X83421Y87136D01*
X83480Y87330D01*
X83500Y87501D01*
X83493Y87926D01*
X83434Y88643D01*
X83383Y88934D01*
X83318Y89180D01*
X83238Y89382D01*
X83143Y89539D01*
X83034Y89651D01*
X82910Y89718D01*
X82771Y89741D01*
X87229D01*
X87090Y89718D01*
D02*
G37*
G36*
X109274Y87905D02*
X109304Y87820D01*
X109354Y87745D01*
X109425Y87680D01*
X109516Y87625D01*
X109628Y87580D01*
X109759Y87545D01*
X109911Y87520D01*
X110083Y87505D01*
X110275Y87500D01*
Y86500D01*
X110083Y86495D01*
X109911Y86480D01*
X109759Y86455D01*
X109628Y86420D01*
X109516Y86375D01*
X109425Y86320D01*
X109354Y86255D01*
X109304Y86180D01*
X109274Y86095D01*
X109263Y86000D01*
Y88000D01*
X109274Y87905D01*
D02*
G37*
G36*
X-37239Y87292D02*
X-37224Y87103D01*
X-37199Y86924D01*
X-37162Y86754D01*
X-37114Y86594D01*
X-37056Y86443D01*
X-36986Y86301D01*
X-36905Y86169D01*
X-36813Y86046D01*
X-36710Y85933D01*
X-37417Y85226D01*
X-37530Y85329D01*
X-37653Y85421D01*
X-37785Y85502D01*
X-37927Y85571D01*
X-38078Y85630D01*
X-38238Y85678D01*
X-38408Y85714D01*
X-38587Y85740D01*
X-38776Y85755D01*
X-38975Y85758D01*
X-37242Y87490D01*
X-37239Y87292D01*
D02*
G37*
G36*
X-499Y87192D02*
X-484Y87022D01*
X-459Y86872D01*
X-424Y86742D01*
X-379Y86632D01*
X-324Y86542D01*
X-259Y86472D01*
X-184Y86422D01*
X-99Y86392D01*
X-4Y86382D01*
X-2004D01*
X-1909Y86392D01*
X-1824Y86422D01*
X-1749Y86472D01*
X-1684Y86542D01*
X-1629Y86632D01*
X-1584Y86742D01*
X-1549Y86872D01*
X-1524Y87022D01*
X-1509Y87192D01*
X-1504Y87382D01*
X-504D01*
X-499Y87192D01*
D02*
G37*
G36*
X116237Y86000D02*
X116226Y86095D01*
X116196Y86180D01*
X116146Y86255D01*
X116075Y86320D01*
X115984Y86375D01*
X115872Y86420D01*
X115741Y86455D01*
X115589Y86480D01*
X115417Y86495D01*
X115225Y86500D01*
Y87500D01*
X115417Y87505D01*
X115589Y87520D01*
X115741Y87545D01*
X115872Y87580D01*
X115984Y87625D01*
X116075Y87680D01*
X116146Y87745D01*
X116196Y87820D01*
X116226Y87905D01*
X116237Y88000D01*
Y86000D01*
D02*
G37*
G36*
X-102698Y66110D02*
X-102868Y66050D01*
X-103018Y65949D01*
X-103148Y65808D01*
X-103258Y65627D01*
X-103348Y65406D01*
X-103418Y65144D01*
X-103468Y64843D01*
X-103498Y64501D01*
X-103508Y64118D01*
X-105508D01*
X-105518Y64501D01*
X-105548Y64843D01*
X-105598Y65144D01*
X-105668Y65406D01*
X-105758Y65627D01*
X-105868Y65808D01*
X-105998Y65949D01*
X-106148Y66050D01*
X-106318Y66110D01*
X-106508Y66130D01*
X-102508D01*
X-102698Y66110D01*
D02*
G37*
G36*
X58752Y43858D02*
X58768Y43665D01*
X58782Y43579D01*
X58800Y43500D01*
X58822Y43429D01*
X58848Y43364D01*
X58878Y43307D01*
X58912Y43257D01*
X58950Y43214D01*
X57550D01*
X57588Y43257D01*
X57622Y43307D01*
X57652Y43364D01*
X57678Y43429D01*
X57700Y43500D01*
X57718Y43579D01*
X57732Y43665D01*
X57742Y43758D01*
X57750Y43966D01*
X58750D01*
X58752Y43858D01*
D02*
G37*
G36*
X24644Y44315D02*
X24793Y44190D01*
X24863Y44139D01*
X24932Y44096D01*
X24998Y44061D01*
X25062Y44034D01*
X25124Y44015D01*
X25183Y44003D01*
X25240Y44000D01*
X24250Y43010D01*
X24247Y43067D01*
X24235Y43126D01*
X24216Y43188D01*
X24189Y43252D01*
X24154Y43318D01*
X24111Y43387D01*
X24060Y43457D01*
X24001Y43530D01*
X23860Y43683D01*
X24567Y44390D01*
X24644Y44315D01*
D02*
G37*
G36*
X-22540Y45709D02*
X-22490Y45675D01*
X-22433Y45645D01*
X-22369Y45619D01*
X-22297Y45597D01*
X-22218Y45579D01*
X-22132Y45565D01*
X-22039Y45555D01*
X-21831Y45547D01*
Y44547D01*
X-21939Y44545D01*
X-22132Y44529D01*
X-22218Y44515D01*
X-22297Y44497D01*
X-22369Y44475D01*
X-22433Y44449D01*
X-22490Y44419D01*
X-22540Y44385D01*
X-22583Y44347D01*
Y45747D01*
X-22540Y45709D01*
D02*
G37*
G36*
X102898Y43994D02*
X102884Y44087D01*
X102840Y44170D01*
X102768Y44244D01*
X102666Y44308D01*
X102536Y44362D01*
X102376Y44406D01*
X102188Y44440D01*
X101971Y44465D01*
X101725Y44479D01*
X101450Y44484D01*
Y45484D01*
X101725Y45489D01*
X102188Y45528D01*
X102376Y45563D01*
X102536Y45607D01*
X102666Y45661D01*
X102768Y45725D01*
X102840Y45798D01*
X102884Y45882D01*
X102898Y45975D01*
Y43994D01*
D02*
G37*
G36*
X-19123Y42534D02*
X-19146Y42542D01*
X-19188Y42550D01*
X-19248Y42557D01*
X-19540Y42571D01*
X-20191Y42579D01*
Y43579D01*
X-19123Y43624D01*
Y42534D01*
D02*
G37*
G36*
X84505Y43083D02*
X84520Y42911D01*
X84545Y42759D01*
X84580Y42628D01*
X84625Y42516D01*
X84680Y42425D01*
X84745Y42355D01*
X84820Y42304D01*
X84905Y42274D01*
X85000Y42263D01*
X84857D01*
X84961Y42235D01*
X85073Y42229D01*
X85194Y42246D01*
X85323Y42284D01*
X85460Y42345D01*
X85606Y42428D01*
X85760Y42533D01*
X85922Y42661D01*
X86093Y42810D01*
X86272Y42983D01*
X87589Y42886D01*
X87362Y42652D01*
X87013Y42247D01*
X86889Y42075D01*
X86800Y41923D01*
X86745Y41792D01*
X86725Y41681D01*
X86739Y41591D01*
X86787Y41521D01*
X86870Y41471D01*
X84857Y42263D01*
X83000D01*
X83095Y42274D01*
X83180Y42304D01*
X83255Y42355D01*
X83320Y42425D01*
X83375Y42516D01*
X83420Y42628D01*
X83455Y42759D01*
X83480Y42911D01*
X83495Y43083D01*
X83500Y43275D01*
X84500D01*
X84505Y43083D01*
D02*
G37*
G36*
X62248Y41362D02*
X62264Y41169D01*
X62278Y41083D01*
X62296Y41004D01*
X62318Y40933D01*
X62344Y40868D01*
X62374Y40811D01*
X62408Y40761D01*
X62446Y40718D01*
X61046D01*
X61084Y40761D01*
X61118Y40811D01*
X61148Y40868D01*
X61174Y40933D01*
X61196Y41004D01*
X61214Y41083D01*
X61228Y41169D01*
X61238Y41262D01*
X61246Y41470D01*
X62246D01*
X62248Y41362D01*
D02*
G37*
G36*
X-104553Y41630D02*
X-104680Y41770D01*
X-104842Y41846D01*
X-105038Y41860D01*
X-105269Y41811D01*
X-105535Y41700D01*
X-105835Y41526D01*
X-106170Y41290D01*
X-106539Y40990D01*
X-107382Y40204D01*
X-108186Y42228D01*
X-107816Y42612D01*
X-107228Y43313D01*
X-107009Y43629D01*
X-106841Y43923D01*
X-106724Y44195D01*
X-106657Y44444D01*
X-106641Y44671D01*
X-106675Y44875D01*
X-106760Y45057D01*
X-104553Y41630D01*
D02*
G37*
G36*
X-21860Y42183D02*
X-21935Y42106D01*
X-22060Y41957D01*
X-22111Y41887D01*
X-22154Y41818D01*
X-22189Y41752D01*
X-22216Y41688D01*
X-22235Y41627D01*
X-22247Y41567D01*
X-22250Y41510D01*
X-23240Y42500D01*
X-23183Y42503D01*
X-23123Y42515D01*
X-23062Y42534D01*
X-22998Y42561D01*
X-22932Y42596D01*
X-22863Y42639D01*
X-22793Y42690D01*
X-22720Y42749D01*
X-22567Y42890D01*
X-21860Y42183D01*
D02*
G37*
G36*
X-19123Y44502D02*
X-19146Y44511D01*
X-19188Y44519D01*
X-19248Y44525D01*
X-19540Y44540D01*
X-20191Y44547D01*
Y45547D01*
X-19123Y45592D01*
Y44502D01*
D02*
G37*
G36*
X-89596Y49251D02*
X-89630Y49201D01*
X-89660Y49144D01*
X-89686Y49079D01*
X-89708Y49008D01*
X-89726Y48929D01*
X-89740Y48843D01*
X-89750Y48750D01*
X-89758Y48542D01*
X-90758D01*
X-90760Y48649D01*
X-90776Y48843D01*
X-90790Y48929D01*
X-90808Y49008D01*
X-90830Y49079D01*
X-90856Y49144D01*
X-90886Y49201D01*
X-90920Y49251D01*
X-90958Y49294D01*
X-89558D01*
X-89596Y49251D01*
D02*
G37*
G36*
X19146Y49521D02*
X19188Y49513D01*
X19248Y49506D01*
X19540Y49491D01*
X20191Y49484D01*
Y48484D01*
X19123Y48439D01*
Y49529D01*
X19146Y49521D01*
D02*
G37*
G36*
X-59338Y49493D02*
X-59372Y49443D01*
X-59402Y49386D01*
X-59428Y49321D01*
X-59450Y49250D01*
X-59468Y49171D01*
X-59482Y49085D01*
X-59492Y48992D01*
X-59500Y48784D01*
X-60500D01*
X-60502Y48892D01*
X-60518Y49085D01*
X-60532Y49171D01*
X-60550Y49250D01*
X-60572Y49321D01*
X-60598Y49386D01*
X-60628Y49443D01*
X-60662Y49493D01*
X-60700Y49536D01*
X-59300D01*
X-59338Y49493D01*
D02*
G37*
G36*
X-68260Y49000D02*
X-68317Y48997D01*
X-68376Y48985D01*
X-68438Y48966D01*
X-68502Y48939D01*
X-68568Y48904D01*
X-68637Y48861D01*
X-68707Y48810D01*
X-68780Y48751D01*
X-68933Y48610D01*
X-69640Y49317D01*
X-69565Y49394D01*
X-69440Y49543D01*
X-69389Y49613D01*
X-69346Y49682D01*
X-69311Y49748D01*
X-69284Y49812D01*
X-69265Y49874D01*
X-69253Y49933D01*
X-69250Y49990D01*
X-68260Y49000D01*
D02*
G37*
G36*
X143924Y47646D02*
X143596Y47970D01*
X142975Y48515D01*
X142682Y48737D01*
X142401Y48924D01*
X142132Y49078D01*
X141875Y49197D01*
X141629Y49282D01*
X141396Y49333D01*
X141174Y49350D01*
Y50350D01*
X141396Y50367D01*
X141629Y50419D01*
X141875Y50504D01*
X142132Y50623D01*
X142401Y50777D01*
X142682Y50964D01*
X142975Y51186D01*
X143596Y51731D01*
X143924Y52055D01*
Y47646D01*
D02*
G37*
G36*
X19146Y47552D02*
X19188Y47545D01*
X19248Y47538D01*
X19540Y47523D01*
X20191Y47516D01*
Y46516D01*
X19123Y46471D01*
Y47561D01*
X19146Y47552D01*
D02*
G37*
G36*
X84662Y45743D02*
X84628Y45693D01*
X84598Y45636D01*
X84572Y45572D01*
X84550Y45500D01*
X84532Y45421D01*
X84518Y45335D01*
X84508Y45242D01*
X84500Y45034D01*
X83500D01*
X83498Y45142D01*
X83482Y45335D01*
X83468Y45421D01*
X83450Y45500D01*
X83428Y45572D01*
X83402Y45636D01*
X83372Y45693D01*
X83338Y45743D01*
X83300Y45786D01*
X84700D01*
X84662Y45743D01*
D02*
G37*
G36*
X23644Y48816D02*
X23793Y48690D01*
X23863Y48639D01*
X23932Y48596D01*
X23998Y48561D01*
X24062Y48534D01*
X24124Y48515D01*
X24183Y48503D01*
X24240Y48500D01*
X23250Y47510D01*
X23247Y47567D01*
X23235Y47627D01*
X23216Y47688D01*
X23189Y47752D01*
X23154Y47818D01*
X23111Y47887D01*
X23060Y47957D01*
X23001Y48030D01*
X22860Y48183D01*
X23567Y48890D01*
X23644Y48816D01*
D02*
G37*
G36*
X-96490Y48999D02*
X-96460Y48657D01*
X-96410Y48356D01*
X-96340Y48094D01*
X-96250Y47873D01*
X-96140Y47692D01*
X-96010Y47551D01*
X-95860Y47450D01*
X-95690Y47390D01*
X-95500Y47370D01*
X-99500D01*
X-99310Y47390D01*
X-99140Y47450D01*
X-98990Y47551D01*
X-98860Y47692D01*
X-98750Y47873D01*
X-98660Y48094D01*
X-98590Y48356D01*
X-98540Y48657D01*
X-98510Y48999D01*
X-98500Y49382D01*
X-96500D01*
X-96490Y48999D01*
D02*
G37*
G36*
X-19123Y40565D02*
X-19146Y40574D01*
X-19188Y40581D01*
X-19248Y40588D01*
X-19540Y40603D01*
X-20191Y40610D01*
Y41610D01*
X-19123Y41655D01*
Y40565D01*
D02*
G37*
G36*
X159276Y38012D02*
X159353Y37392D01*
X159482Y36785D01*
X159662Y36192D01*
X159893Y35613D01*
X160176Y35047D01*
X160511Y34495D01*
X160897Y33956D01*
X161334Y33432D01*
X161823Y32920D01*
X152177D01*
X152666Y33432D01*
X153103Y33956D01*
X153489Y34495D01*
X153824Y35047D01*
X154107Y35613D01*
X154338Y36192D01*
X154518Y36785D01*
X154647Y37392D01*
X154724Y38012D01*
X154750Y38646D01*
X159250D01*
X159276Y38012D01*
D02*
G37*
G36*
X91368Y31996D02*
X91358Y32091D01*
X91328Y32176D01*
X91278Y32251D01*
X91208Y32316D01*
X91118Y32371D01*
X91008Y32416D01*
X90878Y32451D01*
X90728Y32476D01*
X90558Y32491D01*
X90368Y32496D01*
Y33496D01*
X90558Y33501D01*
X90728Y33516D01*
X90878Y33541D01*
X91008Y33576D01*
X91118Y33621D01*
X91208Y33676D01*
X91278Y33741D01*
X91328Y33816D01*
X91358Y33901D01*
X91368Y33996D01*
Y31996D01*
D02*
G37*
G36*
X146142Y36858D02*
X145811Y36851D01*
X145494Y36824D01*
X145189Y36775D01*
X144898Y36706D01*
X144621Y36615D01*
X144357Y36504D01*
X144106Y36373D01*
X143868Y36220D01*
X143643Y36047D01*
X143432Y35853D01*
X142018Y37267D01*
X142212Y37478D01*
X142385Y37703D01*
X142538Y37940D01*
X142670Y38191D01*
X142781Y38456D01*
X142871Y38733D01*
X142940Y39024D01*
X142989Y39328D01*
X143017Y39646D01*
X143024Y39976D01*
X146142Y36858D01*
D02*
G37*
G36*
X9390Y36254D02*
X9403Y35234D01*
X8313D01*
X8328Y35265D01*
X8341Y35315D01*
X8352Y35382D01*
X8362Y35467D01*
X8383Y35828D01*
X8390Y36348D01*
X9390Y36254D01*
D02*
G37*
G36*
X86880Y33901D02*
X86910Y33816D01*
X86961Y33741D01*
X87032Y33676D01*
X87123Y33621D01*
X87234Y33576D01*
X87366Y33541D01*
X87517Y33516D01*
X87689Y33501D01*
X87882Y33496D01*
Y32496D01*
X87689Y32491D01*
X87517Y32476D01*
X87366Y32451D01*
X87234Y32416D01*
X87123Y32371D01*
X87032Y32316D01*
X86961Y32251D01*
X86910Y32176D01*
X86880Y32091D01*
X86870Y31996D01*
Y33996D01*
X86880Y33901D01*
D02*
G37*
G36*
X-94686Y30110D02*
X-94856Y30050D01*
X-95006Y29949D01*
X-95136Y29808D01*
X-95246Y29627D01*
X-95336Y29406D01*
X-95406Y29144D01*
X-95456Y28843D01*
X-95486Y28501D01*
X-95496Y28118D01*
X-97496D01*
X-97506Y28501D01*
X-97536Y28843D01*
X-97586Y29144D01*
X-97656Y29406D01*
X-97746Y29627D01*
X-97856Y29808D01*
X-97986Y29949D01*
X-98136Y30050D01*
X-98306Y30110D01*
X-98496Y30130D01*
X-94496D01*
X-94686Y30110D01*
D02*
G37*
G36*
X11363Y28854D02*
X11356Y28812D01*
X11349Y28752D01*
X11334Y28460D01*
X11327Y27809D01*
X10327D01*
X10282Y28877D01*
X11372D01*
X11363Y28854D01*
D02*
G37*
G36*
X81118Y31996D02*
X81108Y32091D01*
X81078Y32176D01*
X81028Y32251D01*
X80958Y32316D01*
X80868Y32371D01*
X80758Y32416D01*
X80628Y32451D01*
X80478Y32476D01*
X80308Y32491D01*
X80118Y32496D01*
Y33496D01*
X80308Y33501D01*
X80478Y33516D01*
X80628Y33541D01*
X80758Y33576D01*
X80868Y33621D01*
X80958Y33676D01*
X81028Y33741D01*
X81078Y33816D01*
X81108Y33901D01*
X81118Y33996D01*
Y31996D01*
D02*
G37*
G36*
X-85360Y32183D02*
X-85435Y32106D01*
X-85560Y31957D01*
X-85611Y31887D01*
X-85654Y31818D01*
X-85689Y31752D01*
X-85716Y31688D01*
X-85735Y31626D01*
X-85747Y31567D01*
X-85750Y31510D01*
X-86740Y32500D01*
X-86683Y32503D01*
X-86624Y32515D01*
X-86562Y32534D01*
X-86498Y32561D01*
X-86432Y32596D01*
X-86363Y32639D01*
X-86293Y32690D01*
X-86220Y32749D01*
X-86067Y32890D01*
X-85360Y32183D01*
D02*
G37*
G36*
X-102999Y36692D02*
X-102984Y36522D01*
X-102959Y36372D01*
X-102924Y36242D01*
X-102879Y36132D01*
X-102824Y36042D01*
X-102759Y35972D01*
X-102684Y35922D01*
X-102599Y35892D01*
X-102504Y35882D01*
X-104504D01*
X-104409Y35892D01*
X-104324Y35922D01*
X-104249Y35972D01*
X-104184Y36042D01*
X-104129Y36132D01*
X-104084Y36242D01*
X-104049Y36372D01*
X-104024Y36522D01*
X-104009Y36692D01*
X-104004Y36882D01*
X-103004D01*
X-102999Y36692D01*
D02*
G37*
G36*
X102872Y39013D02*
X102860Y39107D01*
X102819Y39190D01*
X102749Y39264D01*
X102649Y39327D01*
X102521Y39381D01*
X102363Y39426D01*
X102176Y39460D01*
X101961Y39484D01*
X101716Y39499D01*
X101441Y39504D01*
X101458Y40504D01*
X101734Y40509D01*
X102200Y40548D01*
X102390Y40582D01*
X102551Y40627D01*
X102683Y40681D01*
X102786Y40744D01*
X102861Y40818D01*
X102907Y40901D01*
X102924Y40994D01*
X102872Y39013D01*
D02*
G37*
G36*
X97130Y40909D02*
X97160Y40824D01*
X97211Y40749D01*
X97282Y40684D01*
X97373Y40629D01*
X97484Y40584D01*
X97616Y40549D01*
X97767Y40524D01*
X97939Y40509D01*
X98132Y40504D01*
Y39504D01*
X97939Y39499D01*
X97767Y39484D01*
X97616Y39459D01*
X97484Y39424D01*
X97373Y39379D01*
X97282Y39324D01*
X97211Y39259D01*
X97160Y39184D01*
X97130Y39099D01*
X97120Y39004D01*
Y41004D01*
X97130Y40909D01*
D02*
G37*
G36*
X100503Y40666D02*
X100553Y40632D01*
X100610Y40602D01*
X100675Y40576D01*
X100746Y40554D01*
X100825Y40536D01*
X100911Y40522D01*
X101004Y40512D01*
X101212Y40504D01*
Y39504D01*
X101104Y39502D01*
X100911Y39486D01*
X100825Y39472D01*
X100746Y39454D01*
X100675Y39432D01*
X100610Y39406D01*
X100553Y39376D01*
X100503Y39342D01*
X100460Y39304D01*
Y40704D01*
X100503Y40666D01*
D02*
G37*
G36*
X99032Y39304D02*
X98989Y39342D01*
X98939Y39376D01*
X98882Y39406D01*
X98817Y39432D01*
X98746Y39454D01*
X98667Y39472D01*
X98581Y39486D01*
X98488Y39496D01*
X98280Y39504D01*
Y40504D01*
X98388Y40506D01*
X98581Y40522D01*
X98667Y40536D01*
X98746Y40554D01*
X98817Y40576D01*
X98882Y40602D01*
X98939Y40632D01*
X98989Y40666D01*
X99032Y40704D01*
Y39304D01*
D02*
G37*
G36*
X-12744Y39678D02*
X-12702Y39671D01*
X-12642Y39664D01*
X-12350Y39649D01*
X-11699Y39642D01*
Y38642D01*
X-12766Y38597D01*
Y39687D01*
X-12744Y39678D01*
D02*
G37*
G36*
X-19123Y36628D02*
X-19146Y36637D01*
X-19188Y36644D01*
X-19248Y36651D01*
X-19540Y36666D01*
X-20191Y36673D01*
Y37673D01*
X-19123Y37718D01*
Y36628D01*
D02*
G37*
G36*
X33036Y36473D02*
X32993Y36511D01*
X32943Y36545D01*
X32886Y36575D01*
X32822Y36601D01*
X32750Y36623D01*
X32671Y36641D01*
X32585Y36655D01*
X32492Y36665D01*
X32284Y36673D01*
Y37673D01*
X32392Y37675D01*
X32585Y37691D01*
X32671Y37705D01*
X32750Y37723D01*
X32822Y37745D01*
X32886Y37771D01*
X32943Y37801D01*
X32993Y37835D01*
X33036Y37873D01*
Y36473D01*
D02*
G37*
G36*
X-22360Y38683D02*
X-22434Y38606D01*
X-22560Y38457D01*
X-22611Y38387D01*
X-22654Y38318D01*
X-22689Y38252D01*
X-22716Y38188D01*
X-22735Y38127D01*
X-22747Y38067D01*
X-22750Y38010D01*
X-23740Y39000D01*
X-23683Y39003D01*
X-23623Y39015D01*
X-23562Y39034D01*
X-23498Y39061D01*
X-23432Y39096D01*
X-23363Y39139D01*
X-23293Y39190D01*
X-23220Y39249D01*
X-23067Y39390D01*
X-22360Y38683D01*
D02*
G37*
G36*
X19146Y37710D02*
X19188Y37702D01*
X19248Y37695D01*
X19540Y37680D01*
X20191Y37673D01*
Y36673D01*
X19123Y36628D01*
Y37718D01*
X19146Y37710D01*
D02*
G37*
G36*
X110432Y50881D02*
X110475Y50798D01*
X110547Y50725D01*
X110649Y50661D01*
X110779Y50607D01*
X110938Y50563D01*
X111127Y50528D01*
X111344Y50504D01*
X111590Y50489D01*
X111865Y50484D01*
Y49484D01*
X111590Y49479D01*
X111127Y49440D01*
X110938Y49406D01*
X110779Y49362D01*
X110649Y49308D01*
X110547Y49244D01*
X110475Y49170D01*
X110432Y49087D01*
X110417Y48994D01*
Y50975D01*
X110432Y50881D01*
D02*
G37*
G36*
X30380Y55746D02*
X30370Y55841D01*
X30340Y55926D01*
X30289Y56001D01*
X30218Y56066D01*
X30127Y56121D01*
X30016Y56166D01*
X29884Y56201D01*
X29733Y56226D01*
X29561Y56241D01*
X29368Y56246D01*
Y57246D01*
X29561Y57251D01*
X29733Y57266D01*
X29884Y57291D01*
X30016Y57326D01*
X30127Y57371D01*
X30218Y57426D01*
X30289Y57491D01*
X30340Y57566D01*
X30370Y57651D01*
X30380Y57746D01*
Y55746D01*
D02*
G37*
G36*
X46454Y63734D02*
X46645Y63610D01*
X46865Y63501D01*
X47113Y63407D01*
X47392Y63328D01*
X47699Y63265D01*
X48035Y63216D01*
X48796Y63164D01*
X49220Y63161D01*
X46297Y60238D01*
X46294Y60662D01*
X46243Y61423D01*
X46194Y61760D01*
X46130Y62067D01*
X46052Y62345D01*
X45958Y62594D01*
X45849Y62814D01*
X45725Y63004D01*
X45586Y63166D01*
X46293Y63873D01*
X46454Y63734D01*
D02*
G37*
G36*
X95880Y58909D02*
X95910Y58824D01*
X95961Y58749D01*
X96032Y58684D01*
X96123Y58629D01*
X96234Y58584D01*
X96366Y58549D01*
X96517Y58524D01*
X96689Y58509D01*
X96882Y58504D01*
Y57504D01*
X96689Y57499D01*
X96517Y57484D01*
X96366Y57459D01*
X96234Y57424D01*
X96123Y57379D01*
X96032Y57324D01*
X95961Y57259D01*
X95910Y57184D01*
X95880Y57099D01*
X95870Y57004D01*
Y59004D01*
X95880Y58909D01*
D02*
G37*
G36*
X19146Y57395D02*
X19188Y57387D01*
X19248Y57380D01*
X19540Y57366D01*
X20191Y57358D01*
Y56358D01*
X19123Y56313D01*
Y57403D01*
X19146Y57395D01*
D02*
G37*
G36*
Y55426D02*
X19188Y55419D01*
X19248Y55412D01*
X19540Y55397D01*
X20191Y55390D01*
Y54390D01*
X19123Y54345D01*
Y55435D01*
X19146Y55426D01*
D02*
G37*
G36*
X110432Y55882D02*
X110475Y55798D01*
X110547Y55725D01*
X110649Y55661D01*
X110779Y55607D01*
X110938Y55563D01*
X111127Y55528D01*
X111344Y55504D01*
X111590Y55489D01*
X111865Y55484D01*
Y54484D01*
X111590Y54479D01*
X111127Y54440D01*
X110938Y54406D01*
X110779Y54362D01*
X110649Y54308D01*
X110547Y54244D01*
X110475Y54170D01*
X110432Y54087D01*
X110417Y53994D01*
Y55975D01*
X110432Y55882D01*
D02*
G37*
G36*
X16607Y62438D02*
X16573Y62388D01*
X16543Y62331D01*
X16517Y62266D01*
X16495Y62195D01*
X16477Y62116D01*
X16463Y62030D01*
X16453Y61937D01*
X16445Y61729D01*
X15445D01*
X15443Y61836D01*
X15427Y62030D01*
X15413Y62116D01*
X15395Y62195D01*
X15373Y62266D01*
X15347Y62331D01*
X15317Y62388D01*
X15283Y62438D01*
X15245Y62481D01*
X16645D01*
X16607Y62438D01*
D02*
G37*
G36*
X143924Y55520D02*
X143596Y55844D01*
X142975Y56389D01*
X142682Y56611D01*
X142401Y56798D01*
X142132Y56952D01*
X141875Y57071D01*
X141629Y57156D01*
X141396Y57207D01*
X141174Y57224D01*
Y58224D01*
X141396Y58241D01*
X141629Y58293D01*
X141875Y58378D01*
X142132Y58497D01*
X142401Y58651D01*
X142682Y58838D01*
X142975Y59060D01*
X143596Y59605D01*
X143924Y59929D01*
Y55520D01*
D02*
G37*
G36*
X110432Y60882D02*
X110475Y60798D01*
X110547Y60725D01*
X110649Y60661D01*
X110779Y60607D01*
X110938Y60563D01*
X111127Y60528D01*
X111344Y60504D01*
X111590Y60489D01*
X111865Y60484D01*
Y59484D01*
X111590Y59479D01*
X111127Y59440D01*
X110938Y59406D01*
X110779Y59362D01*
X110649Y59308D01*
X110547Y59244D01*
X110475Y59170D01*
X110432Y59087D01*
X110417Y58994D01*
Y60975D01*
X110432Y60882D01*
D02*
G37*
G36*
X28253Y58683D02*
X28265Y58623D01*
X28284Y58562D01*
X28311Y58498D01*
X28346Y58432D01*
X28389Y58363D01*
X28440Y58293D01*
X28499Y58220D01*
X28640Y58067D01*
X27933Y57360D01*
X27856Y57434D01*
X27707Y57560D01*
X27637Y57611D01*
X27568Y57654D01*
X27502Y57689D01*
X27438Y57716D01*
X27376Y57735D01*
X27317Y57747D01*
X27260Y57750D01*
X28250Y58740D01*
X28253Y58683D01*
D02*
G37*
G36*
X-19123Y58282D02*
X-19146Y58290D01*
X-19188Y58298D01*
X-19248Y58305D01*
X-19540Y58320D01*
X-20191Y58327D01*
Y59327D01*
X-19123Y59372D01*
Y58282D01*
D02*
G37*
G36*
X-22916Y59489D02*
X-22866Y59455D01*
X-22809Y59425D01*
X-22745Y59399D01*
X-22673Y59377D01*
X-22594Y59359D01*
X-22508Y59345D01*
X-22415Y59335D01*
X-22207Y59327D01*
Y58327D01*
X-22315Y58325D01*
X-22508Y58309D01*
X-22594Y58295D01*
X-22673Y58277D01*
X-22745Y58255D01*
X-22809Y58229D01*
X-22866Y58199D01*
X-22916Y58165D01*
X-22959Y58127D01*
Y59527D01*
X-22916Y59489D01*
D02*
G37*
G36*
X16450Y60224D02*
X16465Y60052D01*
X16490Y59900D01*
X16525Y59769D01*
X16570Y59658D01*
X16625Y59567D01*
X16690Y59496D01*
X16765Y59445D01*
X16850Y59415D01*
X16945Y59405D01*
X14945D01*
X15040Y59415D01*
X15125Y59445D01*
X15200Y59496D01*
X15265Y59567D01*
X15320Y59658D01*
X15365Y59769D01*
X15400Y59900D01*
X15425Y60052D01*
X15440Y60224D01*
X15445Y60417D01*
X16445D01*
X16450Y60224D01*
D02*
G37*
G36*
X27240Y57750D02*
X27183Y57747D01*
X27123Y57735D01*
X27062Y57716D01*
X26998Y57689D01*
X26932Y57654D01*
X26863Y57611D01*
X26793Y57560D01*
X26720Y57501D01*
X26567Y57360D01*
X25860Y58067D01*
X25934Y58144D01*
X26060Y58293D01*
X26111Y58363D01*
X26154Y58432D01*
X26189Y58498D01*
X26216Y58562D01*
X26235Y58623D01*
X26247Y58683D01*
X26250Y58740D01*
X27240Y57750D01*
D02*
G37*
G36*
X-103498Y60999D02*
X-103468Y60657D01*
X-103418Y60356D01*
X-103348Y60094D01*
X-103258Y59873D01*
X-103148Y59692D01*
X-103018Y59551D01*
X-102868Y59450D01*
X-102698Y59390D01*
X-102508Y59370D01*
X-106508D01*
X-106318Y59390D01*
X-106148Y59450D01*
X-105998Y59551D01*
X-105868Y59692D01*
X-105758Y59873D01*
X-105668Y60094D01*
X-105598Y60356D01*
X-105548Y60657D01*
X-105518Y60999D01*
X-105508Y61382D01*
X-103508D01*
X-103498Y60999D01*
D02*
G37*
G36*
X-96490D02*
X-96460Y60657D01*
X-96410Y60356D01*
X-96340Y60094D01*
X-96250Y59873D01*
X-96140Y59692D01*
X-96010Y59551D01*
X-95860Y59450D01*
X-95690Y59390D01*
X-95500Y59370D01*
X-99500D01*
X-99310Y59390D01*
X-99140Y59450D01*
X-98990Y59551D01*
X-98860Y59692D01*
X-98750Y59873D01*
X-98660Y60094D01*
X-98590Y60356D01*
X-98540Y60657D01*
X-98510Y60999D01*
X-98500Y61382D01*
X-96500D01*
X-96490Y60999D01*
D02*
G37*
G36*
X-55603Y67604D02*
X-55000Y68500D01*
X-53500D01*
X-56500Y62586D01*
X-56514Y63142D01*
X-56557Y63609D01*
X-56627Y63989D01*
X-56726Y64280D01*
X-56853Y64482D01*
X-57009Y64597D01*
X-57193Y64623D01*
X-57405Y64561D01*
X-57645Y64410D01*
X-57914Y64172D01*
X-57343Y65020D01*
X-58619Y66295D01*
X-56500Y68501D01*
X-55603Y67604D01*
D02*
G37*
G36*
X85503Y52933D02*
X85515Y52873D01*
X85534Y52812D01*
X85561Y52748D01*
X85596Y52682D01*
X85639Y52613D01*
X85690Y52543D01*
X85749Y52470D01*
X85890Y52317D01*
X85183Y51610D01*
X85106Y51684D01*
X84957Y51810D01*
X84887Y51861D01*
X84818Y51904D01*
X84752Y51939D01*
X84688Y51966D01*
X84627Y51985D01*
X84567Y51997D01*
X84510Y52000D01*
X85500Y52990D01*
X85503Y52933D01*
D02*
G37*
G36*
X19146Y51489D02*
X19188Y51481D01*
X19248Y51475D01*
X19540Y51460D01*
X20191Y51453D01*
Y50453D01*
X19123Y50408D01*
Y51498D01*
X19146Y51489D01*
D02*
G37*
G36*
X-22822Y53583D02*
X-22772Y53549D01*
X-22715Y53519D01*
X-22650Y53493D01*
X-22579Y53471D01*
X-22500Y53453D01*
X-22414Y53439D01*
X-22321Y53429D01*
X-22113Y53421D01*
Y52421D01*
X-22220Y52419D01*
X-22414Y52403D01*
X-22500Y52389D01*
X-22579Y52371D01*
X-22650Y52349D01*
X-22715Y52323D01*
X-22772Y52293D01*
X-22822Y52259D01*
X-22865Y52221D01*
Y53621D01*
X-22822Y53583D01*
D02*
G37*
G36*
X-95690Y53598D02*
X-95860Y53538D01*
X-96010Y53438D01*
X-96140Y53298D01*
X-96250Y53118D01*
X-96340Y52898D01*
X-96410Y52638D01*
X-96460Y52338D01*
X-96490Y51998D01*
X-96500Y51618D01*
X-98500D01*
X-98510Y51998D01*
X-98540Y52338D01*
X-98590Y52638D01*
X-98660Y52898D01*
X-98750Y53118D01*
X-98860Y53298D01*
X-98990Y53438D01*
X-99140Y53538D01*
X-99310Y53598D01*
X-99500Y53618D01*
X-95500D01*
X-95690Y53598D01*
D02*
G37*
G36*
X-19123Y50408D02*
X-19146Y50416D01*
X-19188Y50424D01*
X-19248Y50431D01*
X-19540Y50445D01*
X-20191Y50453D01*
Y51453D01*
X-19123Y51498D01*
Y50408D01*
D02*
G37*
G36*
X-173109Y51666D02*
X-172060Y51687D01*
Y49565D01*
X-172102Y49576D01*
X-172202Y49587D01*
X-172579Y49604D01*
X-173109Y49608D01*
Y48559D01*
X-173321Y48762D01*
X-173541Y48943D01*
X-173768Y49103D01*
X-174001Y49242D01*
X-174242Y49359D01*
X-174489Y49455D01*
X-174744Y49530D01*
X-175006Y49583D01*
X-175274Y49615D01*
X-175550Y49626D01*
Y51626D01*
X-175274Y51637D01*
X-175006Y51669D01*
X-174744Y51722D01*
X-174489Y51797D01*
X-174242Y51893D01*
X-174001Y52010D01*
X-173768Y52149D01*
X-173541Y52309D01*
X-173321Y52490D01*
X-173109Y52693D01*
Y51666D01*
D02*
G37*
G36*
X-22110Y49683D02*
X-22185Y49606D01*
X-22310Y49457D01*
X-22361Y49387D01*
X-22404Y49318D01*
X-22439Y49252D01*
X-22466Y49188D01*
X-22485Y49126D01*
X-22497Y49067D01*
X-22500Y49010D01*
X-23490Y50000D01*
X-23433Y50003D01*
X-23373Y50015D01*
X-23312Y50034D01*
X-23248Y50061D01*
X-23182Y50096D01*
X-23113Y50139D01*
X-23043Y50190D01*
X-22970Y50249D01*
X-22817Y50390D01*
X-22110Y49683D01*
D02*
G37*
G36*
X90118Y49996D02*
X90108Y50091D01*
X90078Y50176D01*
X90028Y50251D01*
X89958Y50316D01*
X89868Y50371D01*
X89758Y50416D01*
X89628Y50451D01*
X89478Y50476D01*
X89308Y50491D01*
X89118Y50496D01*
Y51496D01*
X89308Y51501D01*
X89478Y51516D01*
X89628Y51541D01*
X89758Y51576D01*
X89868Y51621D01*
X89958Y51676D01*
X90028Y51741D01*
X90078Y51816D01*
X90108Y51901D01*
X90118Y51996D01*
Y49996D01*
D02*
G37*
G36*
X102898Y63994D02*
X102884Y64087D01*
X102840Y64170D01*
X102768Y64244D01*
X102666Y64308D01*
X102536Y64362D01*
X102376Y64406D01*
X102188Y64440D01*
X101971Y64465D01*
X101725Y64479D01*
X101450Y64484D01*
Y65484D01*
X101725Y65489D01*
X102188Y65528D01*
X102376Y65563D01*
X102536Y65607D01*
X102666Y65661D01*
X102768Y65725D01*
X102840Y65798D01*
X102884Y65882D01*
X102898Y65975D01*
Y63994D01*
D02*
G37*
G36*
X43383Y78333D02*
X43724Y77211D01*
X44276Y76177D01*
X45020Y75270D01*
X45927Y74527D01*
X46961Y73974D01*
X48083Y73633D01*
X49250Y73518D01*
X50417Y73633D01*
X51539Y73974D01*
X52573Y74527D01*
X53480Y75270D01*
X54220Y76172D01*
X54261Y76176D01*
X54720Y75960D01*
Y63749D01*
X54261Y63532D01*
X54220Y63536D01*
X53480Y64438D01*
X52573Y65182D01*
X51539Y65735D01*
X50417Y66075D01*
X49250Y66190D01*
X49220Y66187D01*
X48910Y66190D01*
X48354Y66227D01*
X48222Y66246D01*
X48200Y66251D01*
X47470Y66811D01*
X46618Y67164D01*
X45705Y67284D01*
X39144D01*
Y69037D01*
X32959D01*
X30996Y71001D01*
X31187Y71463D01*
X32500D01*
Y75746D01*
X33250D01*
Y76496D01*
X38144D01*
Y77470D01*
X39144D01*
Y79224D01*
X43296D01*
X43383Y78333D01*
D02*
G37*
G36*
X19146Y53458D02*
X19188Y53450D01*
X19248Y53443D01*
X19540Y53429D01*
X20191Y53421D01*
Y52421D01*
X19123Y52376D01*
Y53466D01*
X19146Y53458D01*
D02*
G37*
G36*
X-104561Y53630D02*
X-104688Y53770D01*
X-104850Y53846D01*
X-105046Y53860D01*
X-105277Y53812D01*
X-105543Y53700D01*
X-105843Y53526D01*
X-106178Y53290D01*
X-106547Y52991D01*
X-107390Y52204D01*
X-108194Y54229D01*
X-107824Y54612D01*
X-107236Y55313D01*
X-107017Y55629D01*
X-106849Y55923D01*
X-106732Y56195D01*
X-106665Y56444D01*
X-106649Y56671D01*
X-106683Y56875D01*
X-106767Y57057D01*
X-104561Y53630D01*
D02*
G37*
G36*
X85002Y54359D02*
X85018Y54165D01*
X85032Y54079D01*
X85050Y54000D01*
X85072Y53929D01*
X85098Y53864D01*
X85128Y53807D01*
X85162Y53757D01*
X85200Y53714D01*
X83800D01*
X83838Y53757D01*
X83872Y53807D01*
X83902Y53864D01*
X83928Y53929D01*
X83950Y54000D01*
X83968Y54079D01*
X83982Y54165D01*
X83992Y54258D01*
X84000Y54466D01*
X85000D01*
X85002Y54359D01*
D02*
G37*
G36*
X-19123Y52376D02*
X-19146Y52385D01*
X-19188Y52393D01*
X-19248Y52399D01*
X-19540Y52414D01*
X-20191Y52421D01*
Y53421D01*
X-19123Y53466D01*
Y52376D01*
D02*
G37*
G36*
X36142Y64659D02*
X36172Y64574D01*
X36222Y64499D01*
X36292Y64434D01*
X36382Y64379D01*
X36492Y64334D01*
X36622Y64299D01*
X36772Y64274D01*
X36942Y64259D01*
X37132Y64254D01*
Y63254D01*
X36942Y63249D01*
X36772Y63234D01*
X36622Y63209D01*
X36492Y63174D01*
X36382Y63129D01*
X36292Y63074D01*
X36222Y63009D01*
X36172Y62934D01*
X36142Y62849D01*
X36132Y62754D01*
Y64754D01*
X36142Y64659D01*
D02*
G37*
%LPC*%
G36*
X-3750Y246D02*
X-7894D01*
Y-3287D01*
X-3750D01*
Y246D01*
D02*
G37*
G36*
X-5240Y-82740D02*
X-27750D01*
Y-97750D01*
X-5240D01*
Y-82740D01*
D02*
G37*
G36*
X-29250D02*
X-51760D01*
Y-97750D01*
X-29250D01*
Y-82740D01*
D02*
G37*
G36*
X-72750Y-50774D02*
X-77937D01*
Y-59898D01*
X-72750D01*
Y-50774D01*
D02*
G37*
G36*
X24394Y246D02*
X20250D01*
Y-3287D01*
X24394D01*
Y246D01*
D02*
G37*
G36*
X129656Y-15652D02*
X124862D01*
Y-19559D01*
X129656D01*
Y-15652D01*
D02*
G37*
G36*
X142902Y-100224D02*
X142666Y-100255D01*
X142429Y-100261D01*
X142276Y-100306D01*
X142119Y-100327D01*
X141899Y-100418D01*
X141672Y-100486D01*
X141670Y-100486D01*
X140890D01*
Y-101012D01*
X140888Y-101014D01*
X140762Y-101110D01*
X140618Y-101299D01*
X140454Y-101471D01*
X140378Y-101611D01*
X140281Y-101737D01*
X140200Y-101933D01*
X139906Y-101959D01*
X138647D01*
X138268Y-101933D01*
X138207Y-101925D01*
X138124Y-101781D01*
X137986Y-101645D01*
X137868Y-101490D01*
X137707Y-101367D01*
X137564Y-101224D01*
X137395Y-101128D01*
X137241Y-101010D01*
X137054Y-100932D01*
X136878Y-100831D01*
X136691Y-100782D01*
X136511Y-100707D01*
X136311Y-100681D01*
X136115Y-100629D01*
X135921Y-100630D01*
X135728Y-100604D01*
X135527Y-100631D01*
X135325Y-100631D01*
X135137Y-100682D01*
X134945Y-100707D01*
X134758Y-100785D01*
X134562Y-100838D01*
X134395Y-100935D01*
X134215Y-101010D01*
X134055Y-101133D01*
X133879Y-101235D01*
X133743Y-101372D01*
X133589Y-101490D01*
X133491Y-101618D01*
X132750D01*
Y-106768D01*
Y-111917D01*
X133491D01*
X133589Y-112045D01*
X133747Y-112166D01*
X133887Y-112307D01*
X134058Y-112406D01*
X134215Y-112526D01*
X134399Y-112602D01*
X134572Y-112701D01*
X134763Y-112752D01*
X134945Y-112828D01*
X135143Y-112854D01*
X135335Y-112906D01*
X135532Y-112905D01*
X135728Y-112931D01*
X135926Y-112905D01*
X136125Y-112905D01*
X136316Y-112854D01*
X136511Y-112828D01*
X136695Y-112752D01*
X136888Y-112700D01*
X137059Y-112601D01*
X137241Y-112526D01*
X137399Y-112405D01*
X137572Y-112305D01*
X137711Y-112165D01*
X137868Y-112045D01*
X137989Y-111887D01*
X138130Y-111746D01*
X138220Y-111590D01*
X138704Y-111541D01*
X139906D01*
X140200Y-111567D01*
X140281Y-111763D01*
X140378Y-111889D01*
X140454Y-112029D01*
X140618Y-112201D01*
X140762Y-112390D01*
X140888Y-112487D01*
X140890Y-112488D01*
Y-113935D01*
X147652D01*
Y-107211D01*
Y-100486D01*
X144099D01*
X143987Y-100425D01*
X143832Y-100388D01*
X143685Y-100327D01*
X143449Y-100296D01*
X143219Y-100241D01*
X143059Y-100245D01*
X142902Y-100224D01*
D02*
G37*
G36*
X56250Y-68126D02*
X51063D01*
Y-77250D01*
X56250D01*
Y-68126D01*
D02*
G37*
G36*
X124260Y-82740D02*
X101750D01*
Y-97750D01*
X124260D01*
Y-82740D01*
D02*
G37*
%LPD*%
G36*
X135763Y-103890D02*
X135868Y-104123D01*
X136043Y-104329D01*
X136288Y-104507D01*
X136603Y-104657D01*
X136988Y-104781D01*
X137443Y-104877D01*
X137968Y-104945D01*
X138563Y-104986D01*
X139228Y-105000D01*
Y-108500D01*
X138563Y-108514D01*
X137443Y-108626D01*
X136988Y-108725D01*
X136603Y-108851D01*
X136288Y-109006D01*
X136043Y-109189D01*
X135868Y-109399D01*
X135763Y-109638D01*
X135728Y-109905D01*
Y-103630D01*
X135763Y-103890D01*
D02*
G37*
G36*
X142902Y-110250D02*
X142867Y-109917D01*
X142762Y-109620D01*
X142587Y-109358D01*
X142342Y-109130D01*
X142027Y-108938D01*
X141642Y-108780D01*
X141187Y-108658D01*
X140662Y-108570D01*
X140067Y-108518D01*
X139402Y-108500D01*
Y-105000D01*
X140067Y-104982D01*
X140662Y-104930D01*
X141187Y-104842D01*
X141642Y-104720D01*
X142027Y-104562D01*
X142342Y-104370D01*
X142587Y-104142D01*
X142762Y-103880D01*
X142867Y-103583D01*
X142902Y-103250D01*
Y-110250D01*
D02*
G37*
%LPC*%
G36*
X187098Y-96500D02*
X178000D01*
Y-105598D01*
X179186Y-105481D01*
X181047Y-104917D01*
X182762Y-104000D01*
X184266Y-102766D01*
X185500Y-101262D01*
X186416Y-99547D01*
X186981Y-97686D01*
X187098Y-96500D01*
D02*
G37*
G36*
X179000Y-44353D02*
X178457Y-44425D01*
X177252Y-44924D01*
X176218Y-45718D01*
X175424Y-46752D01*
X174925Y-47957D01*
X174853Y-48500D01*
X179000D01*
Y-44353D01*
D02*
G37*
G36*
X178000Y-85902D02*
Y-95000D01*
X187098D01*
X186981Y-93814D01*
X186416Y-91953D01*
X185500Y-90238D01*
X184266Y-88734D01*
X182762Y-87500D01*
X181047Y-86584D01*
X179186Y-86019D01*
X178000Y-85902D01*
D02*
G37*
G36*
X176996Y102644D02*
X173463D01*
Y98500D01*
X176996D01*
Y102644D01*
D02*
G37*
G36*
X163570Y100500D02*
X152500D01*
Y89430D01*
X153608Y89517D01*
X155421Y89952D01*
X157143Y90666D01*
X158732Y91640D01*
X160150Y92850D01*
X161360Y94268D01*
X162334Y95857D01*
X163048Y97579D01*
X163483Y99392D01*
X163570Y100500D01*
D02*
G37*
G36*
X151000D02*
X139930D01*
X140017Y99392D01*
X140452Y97579D01*
X141166Y95857D01*
X142140Y94268D01*
X143350Y92850D01*
X144768Y91640D01*
X146357Y90666D01*
X148079Y89952D01*
X149892Y89517D01*
X151000Y89430D01*
Y100500D01*
D02*
G37*
G36*
X-32071Y102453D02*
X-38242D01*
Y98250D01*
X-32071D01*
Y102453D01*
D02*
G37*
G36*
X-167402Y-96500D02*
X-176500D01*
Y-105598D01*
X-175314Y-105481D01*
X-173453Y-104917D01*
X-171738Y-104000D01*
X-170234Y-102766D01*
X-169000Y-101262D01*
X-168084Y-99547D01*
X-167519Y-97686D01*
X-167402Y-96500D01*
D02*
G37*
G36*
X-158000Y113070D02*
X-159108Y112983D01*
X-160921Y112548D01*
X-162643Y111834D01*
X-164232Y110860D01*
X-165650Y109650D01*
X-166860Y108232D01*
X-167834Y106643D01*
X-168548Y104921D01*
X-168983Y103108D01*
X-169070Y102000D01*
X-158000D01*
Y113070D01*
D02*
G37*
G36*
X-156500D02*
Y102000D01*
X-145430D01*
X-145517Y103108D01*
X-145952Y104921D01*
X-146666Y106643D01*
X-147640Y108232D01*
X-148850Y109650D01*
X-150268Y110860D01*
X-151857Y111834D01*
X-153579Y112548D01*
X-155392Y112983D01*
X-156500Y113070D01*
D02*
G37*
G36*
X-178000Y-96500D02*
X-187098D01*
X-186981Y-97686D01*
X-186416Y-99547D01*
X-185500Y-101262D01*
X-184266Y-102766D01*
X-182762Y-104000D01*
X-181047Y-104917D01*
X-179186Y-105481D01*
X-178000Y-105598D01*
Y-96500D01*
D02*
G37*
G36*
X-158000Y100500D02*
X-169070D01*
X-168983Y99392D01*
X-168548Y97579D01*
X-167834Y95857D01*
X-166860Y94268D01*
X-165650Y92850D01*
X-164232Y91640D01*
X-162643Y90666D01*
X-160921Y89952D01*
X-159108Y89517D01*
X-158000Y89430D01*
Y100500D01*
D02*
G37*
G36*
X26500Y90931D02*
X26336Y90910D01*
X25485Y90557D01*
X24754Y89996D01*
X24193Y89265D01*
X23840Y88414D01*
X23819Y88250D01*
X26500D01*
Y90931D01*
D02*
G37*
G36*
X-145430Y100500D02*
X-156500D01*
Y89430D01*
X-155392Y89517D01*
X-153579Y89952D01*
X-151857Y90666D01*
X-150268Y91640D01*
X-148850Y92850D01*
X-147640Y94268D01*
X-146666Y95857D01*
X-145952Y97579D01*
X-145517Y99392D01*
X-145430Y100500D01*
D02*
G37*
G36*
X-118250Y-41608D02*
X-118664Y-41649D01*
X-119783Y-41988D01*
X-120814Y-42540D01*
X-121718Y-43282D01*
X-122460Y-44186D01*
X-123012Y-45217D01*
X-123351Y-46336D01*
X-123392Y-46750D01*
X-118250D01*
Y-41608D01*
D02*
G37*
G36*
X-116750D02*
Y-46750D01*
X-111608D01*
X-111649Y-46336D01*
X-111988Y-45217D01*
X-112540Y-44186D01*
X-113282Y-43282D01*
X-114186Y-42540D01*
X-115217Y-41988D01*
X-116336Y-41649D01*
X-116750Y-41608D01*
D02*
G37*
G36*
X-176500Y-85902D02*
Y-95000D01*
X-167402D01*
X-167519Y-93814D01*
X-168084Y-91953D01*
X-169000Y-90238D01*
X-170234Y-88734D01*
X-171738Y-87500D01*
X-173453Y-86584D01*
X-175314Y-86019D01*
X-176500Y-85902D01*
D02*
G37*
G36*
X-178000D02*
X-179186Y-86019D01*
X-181047Y-86584D01*
X-182762Y-87500D01*
X-184266Y-88734D01*
X-185500Y-90238D01*
X-186416Y-91953D01*
X-186981Y-93814D01*
X-187098Y-95000D01*
X-178000D01*
Y-85902D01*
D02*
G37*
G36*
X-39742Y102453D02*
X-45913D01*
Y98250D01*
X-39742D01*
Y102453D01*
D02*
G37*
G36*
X126660Y102370D02*
X125557D01*
X125684Y102230D01*
X125846Y102154D01*
X126042Y102140D01*
X126273Y102189D01*
X126539Y102300D01*
X126660Y102370D01*
D02*
G37*
G36*
X38144Y74996D02*
X34000D01*
Y71463D01*
X38144D01*
Y74996D01*
D02*
G37*
%LPD*%
D10*
X101250Y6250D02*
D03*
D11*
X124085Y-2805D02*
D03*
Y6250D02*
D03*
Y15305D02*
D03*
D12*
X101000Y-98500D02*
D03*
X-28500D02*
D03*
D13*
X87614Y-53224D02*
D03*
X94307D02*
D03*
X101000D02*
D03*
X107693D02*
D03*
X114386D02*
D03*
X-41886D02*
D03*
X-35193D02*
D03*
X-28500D02*
D03*
X-21807D02*
D03*
X-15114D02*
D03*
D14*
X125555Y39984D02*
D03*
Y44984D02*
D03*
Y49984D02*
D03*
Y54984D02*
D03*
Y59984D02*
D03*
Y64984D02*
D03*
Y69984D02*
D03*
Y74984D02*
D03*
X106658Y39984D02*
D03*
Y44984D02*
D03*
Y49984D02*
D03*
Y54984D02*
D03*
Y59984D02*
D03*
Y64984D02*
D03*
Y69984D02*
D03*
Y74984D02*
D03*
D15*
X-55000Y-12165D02*
D03*
D16*
X-64055Y-35000D02*
D03*
X-55000D02*
D03*
X-45945D02*
D03*
D17*
X-144232Y27075D02*
D03*
D18*
Y24516D02*
D03*
Y21957D02*
D03*
Y19398D02*
D03*
Y16839D02*
D03*
Y14279D02*
D03*
Y11720D02*
D03*
Y9161D02*
D03*
Y6602D02*
D03*
Y4043D02*
D03*
Y1484D02*
D03*
Y-1075D02*
D03*
X-118248Y27075D02*
D03*
Y24516D02*
D03*
Y21957D02*
D03*
Y19398D02*
D03*
Y16839D02*
D03*
Y14279D02*
D03*
Y11720D02*
D03*
Y9161D02*
D03*
Y6602D02*
D03*
Y4043D02*
D03*
Y1484D02*
D03*
Y-1075D02*
D03*
D19*
X93000Y50996D02*
D03*
Y58004D02*
D03*
X-3000Y8004D02*
D03*
Y996D02*
D03*
X19500Y8004D02*
D03*
Y996D02*
D03*
X73000Y-99746D02*
D03*
Y-106754D02*
D03*
X43250Y-99746D02*
D03*
Y-106754D02*
D03*
X63000Y-99746D02*
D03*
Y-106754D02*
D03*
X53250Y-99746D02*
D03*
Y-106754D02*
D03*
X94250Y40004D02*
D03*
Y32996D02*
D03*
X161750Y-100246D02*
D03*
Y-107254D02*
D03*
X84000Y40004D02*
D03*
Y32996D02*
D03*
X33250Y56746D02*
D03*
Y63754D02*
D03*
Y75746D02*
D03*
Y82754D02*
D03*
X85000Y99008D02*
D03*
Y92000D02*
D03*
X32500Y-99746D02*
D03*
Y-106754D02*
D03*
D20*
X177746Y109500D02*
D03*
X184754D02*
D03*
X-1004Y83500D02*
D03*
X6004D02*
D03*
X125504Y87000D02*
D03*
X118496D02*
D03*
X125504Y99500D02*
D03*
X118496D02*
D03*
X-97500Y56500D02*
D03*
X-104508D02*
D03*
X-97492Y44500D02*
D03*
X-104500D02*
D03*
X-103504Y14250D02*
D03*
X-96496D02*
D03*
X177746Y97750D02*
D03*
X184754D02*
D03*
X99996Y87000D02*
D03*
X107004D02*
D03*
X99996Y99500D02*
D03*
X107004D02*
D03*
X-54996Y1000D02*
D03*
X-62004D02*
D03*
X-16496Y83500D02*
D03*
X-23504D02*
D03*
X-97500Y69000D02*
D03*
X-104508D02*
D03*
X-96496Y33000D02*
D03*
X-103504D02*
D03*
D21*
X163098Y-64500D02*
D03*
X137902D02*
D03*
X28598Y-64000D02*
D03*
X3402D02*
D03*
D22*
X-38992Y97500D02*
D03*
X-1000D02*
D03*
D23*
X93553Y67884D02*
D03*
Y79616D02*
D03*
D24*
X132000Y-106768D02*
D03*
Y-90232D02*
D03*
X2750Y-109018D02*
D03*
Y-92482D02*
D03*
D25*
X-65315Y13500D02*
D03*
X-55000D02*
D03*
X124112Y-14902D02*
D03*
X113797D02*
D03*
X113888Y25652D02*
D03*
X124203D02*
D03*
D26*
X148402Y-107211D02*
D03*
Y-87683D02*
D03*
X19402Y-106711D02*
D03*
Y-87183D02*
D03*
D27*
X57000Y-78000D02*
D03*
Y-50047D02*
D03*
X-72000Y-50024D02*
D03*
Y-77976D02*
D03*
D28*
X74598Y88638D02*
D03*
Y98953D02*
D03*
X-75902Y-33612D02*
D03*
Y-23297D02*
D03*
X-35000Y-21500D02*
D03*
Y-31815D02*
D03*
D29*
X-94299Y-1053D02*
D03*
X-105913D02*
D03*
D30*
X15945Y58827D02*
D03*
Y54890D02*
D03*
Y56858D02*
D03*
Y48984D02*
D03*
Y47016D02*
D03*
Y52921D02*
D03*
Y50953D02*
D03*
Y45047D02*
D03*
Y43079D02*
D03*
Y41110D02*
D03*
Y39142D02*
D03*
Y37173D02*
D03*
X-15945Y54890D02*
D03*
Y52921D02*
D03*
Y58827D02*
D03*
Y56858D02*
D03*
Y47016D02*
D03*
Y45047D02*
D03*
Y50953D02*
D03*
Y48984D02*
D03*
Y43079D02*
D03*
Y37173D02*
D03*
Y41110D02*
D03*
Y39142D02*
D03*
D31*
X8858Y63945D02*
D03*
X10827D02*
D03*
X4921D02*
D03*
X6890D02*
D03*
X2953D02*
D03*
X-984D02*
D03*
X984D02*
D03*
X10827Y32055D02*
D03*
X8858D02*
D03*
X6890D02*
D03*
X2953D02*
D03*
X4921D02*
D03*
X-984D02*
D03*
X984D02*
D03*
X-4921Y63945D02*
D03*
X-8858D02*
D03*
X-2953D02*
D03*
X-10827D02*
D03*
X-6890D02*
D03*
X-8858Y32055D02*
D03*
X-6890D02*
D03*
X-4921D02*
D03*
X-2953D02*
D03*
X-10827D02*
D03*
D32*
X-22750Y-73750D02*
X-15114Y-66114D01*
X-67774Y-73750D02*
X-22750D01*
X-72000Y-77976D02*
X-67774Y-73750D01*
X109500Y-36750D02*
X114386Y-41636D01*
X70297Y-36750D02*
X109500D01*
X57000Y-50047D02*
X70297Y-36750D01*
X114386Y-53224D02*
Y-41636D01*
Y-56768D02*
Y-53224D01*
X101000Y-65250D02*
Y-53224D01*
X87614Y-65614D02*
Y-53224D01*
X-6000Y-40250D02*
X4189Y-50439D01*
X-18500Y-40250D02*
X-6000D01*
X-21807Y-43557D02*
X-18500Y-40250D01*
X-21807Y-53224D02*
Y-43557D01*
X-15114Y-66114D02*
Y-53224D01*
X-21807Y-56768D02*
Y-53224D01*
X-28500Y-64750D02*
Y-53224D01*
X-41886Y-64864D02*
Y-53224D01*
X-54276D02*
X-41886D01*
X-57476Y-50024D02*
X-54276Y-53224D01*
X-72000Y-50024D02*
X-57476D01*
X2750Y-92482D02*
Y-78000D01*
X-28500Y-98500D02*
X-17982Y-109018D01*
X2750D01*
X8982D01*
X11289Y-106711D01*
X19402D01*
X-31250Y-67500D02*
X-28500Y-64750D01*
X-39250Y-67500D02*
X-31250D01*
X-41886Y-64864D02*
X-39250Y-67500D01*
X-44750Y-114750D02*
X-28500Y-98500D01*
X-98500Y-114750D02*
X-44750D01*
X-124750Y-88500D02*
X-98500Y-114750D01*
X-148500Y-88500D02*
X-124750D01*
X-35000Y-31815D02*
X-4374D01*
X-45945Y-35000D02*
X-42760Y-31815D01*
X-35000D01*
X35703Y-50047D02*
X57000D01*
X-76000Y-101000D02*
X-72000Y-97000D01*
X-35193Y-56768D02*
Y-32008D01*
X-35000Y-31815D01*
X4189Y-76561D02*
Y-50439D01*
X2750Y-78000D02*
X4189Y-76561D01*
X109250Y-106750D02*
X147941D01*
X101000Y-98500D02*
X109250Y-106750D01*
X-4374Y-31815D02*
X-59Y-27500D01*
X33000D01*
X27811Y-64000D02*
Y-44689D01*
X33000Y-39500D01*
Y-27500D01*
X147941Y-106750D02*
X148402Y-107211D01*
X161707D01*
X161750Y-107254D01*
X98000Y-68250D02*
X101000Y-65250D01*
X27811Y-78774D02*
Y-64000D01*
X19402Y-87183D02*
X27811Y-78774D01*
X19402Y-87183D02*
X27933D01*
X32500Y-91750D01*
Y-99746D02*
Y-91750D01*
X19402Y-106711D02*
X32457D01*
X80500Y-78000D02*
X101000Y-98500D01*
X57000Y-78000D02*
X80500D01*
X32500Y-106754D02*
X40246Y-114500D01*
X85000D01*
X101000Y-98500D01*
X87614Y-65614D02*
X90250Y-68250D01*
X98000D01*
X-35000Y-21500D02*
X-24250D01*
D33*
X94307Y-53224D02*
Y-42557D01*
X-131750Y11750D02*
Y17750D01*
Y8250D02*
Y11750D01*
X-134750Y20750D02*
X-131750Y17750D01*
X-134500Y5500D02*
X-131750Y8250D01*
X-146000Y20750D02*
X-134750D01*
X-152000Y5500D02*
X-134500D01*
X-75902Y-33612D02*
X-74514Y-35000D01*
X-64055D01*
X-163374Y66374D02*
X-157000Y60000D01*
Y20250D02*
Y60000D01*
Y20250D02*
X-152250Y15500D01*
X-88138Y-33612D02*
X-75902D01*
X-91495Y-30255D02*
X-88138Y-33612D01*
X-91495Y-30255D02*
Y-21506D01*
X-55000Y68500D02*
Y81000D01*
Y13500D02*
Y68500D01*
X-94299Y-1053D02*
X-82803D01*
X-80750Y1000D01*
X-62004D01*
X-65315Y8815D02*
Y13500D01*
Y8815D02*
X-62004Y5504D01*
Y1000D02*
Y5504D01*
X-55000Y13500D02*
X-54996Y13496D01*
Y1000D02*
Y13496D01*
X-55000Y996D02*
X-54996Y1000D01*
X-55000Y-12165D02*
Y996D01*
Y-35000D02*
Y-12165D01*
X-171000Y50626D02*
X-170374Y50000D01*
X-171000Y-13874D02*
X-170374Y-14500D01*
X-161500Y10500D02*
X-150000D01*
X-161250Y0D02*
X-150000D01*
X-163124Y1874D02*
X-161250Y0D01*
X-171000Y1874D02*
X-163124D01*
X-162252Y9748D02*
X-161500Y10500D01*
X-171000Y9748D02*
X-162252D01*
X-171000Y74248D02*
X-157248D01*
X-144500Y61500D01*
Y33000D02*
Y61500D01*
X-152250Y15500D02*
X-144000D01*
X-171000Y66374D02*
X-163374D01*
X-91495Y-21506D02*
X-88000Y-18011D01*
Y-7352D01*
X-94299Y-1053D02*
X-88000Y-7352D01*
X85000Y87500D02*
Y92000D01*
D34*
X107693Y-65693D02*
Y-53224D01*
X133439Y-69750D02*
X138689Y-64500D01*
X132000Y-71189D02*
X133439Y-69750D01*
X132000Y-90232D02*
Y-71189D01*
X-76000Y-101000D02*
X-62815D01*
X-82500D02*
X-76000D01*
X111750Y-69750D02*
X133439D01*
X107693Y-65693D02*
X111750Y-69750D01*
X-101949Y-73677D02*
Y-47500D01*
Y-73677D02*
X-82500Y-93126D01*
X-72000Y-97000D02*
Y-77976D01*
X146000Y-48189D02*
X162311Y-64500D01*
X146000Y-48189D02*
Y-30716D01*
X162311Y-73774D02*
Y-64500D01*
X148402Y-87683D02*
X162311Y-73774D01*
X148402Y-87683D02*
X157933D01*
X161750Y-91500D01*
Y-100246D02*
Y-91500D01*
X-101000Y-31750D02*
Y-20989D01*
X-96505Y-16495D01*
X-90250Y-59726D02*
X-72000Y-77976D01*
X-90250Y-59726D02*
Y-42500D01*
X-101000Y-31750D02*
X-90250Y-42500D01*
X-105913Y-7087D02*
X-96505Y-16495D01*
X-105913Y-7087D02*
Y-1053D01*
X-148500Y-64878D02*
Y-60750D01*
X-146000Y-58250D01*
X-112699D01*
X-101949Y-47500D01*
X146173Y67567D02*
X157000Y78394D01*
Y28000D02*
Y78394D01*
Y79772D01*
X146000Y-3158D02*
X156827Y7669D01*
Y-42724D02*
Y7669D01*
D35*
X92750Y92254D02*
X99996Y99500D01*
X92750Y88750D02*
Y92254D01*
X84500Y80500D02*
X92750Y88750D01*
X107004Y99500D02*
X118496D01*
X107004Y87000D02*
X118496D01*
X100116Y79616D02*
Y86880D01*
X13504Y996D02*
X19500D01*
X-3000Y8004D02*
Y11500D01*
X-250Y14250D01*
X-23297Y45047D02*
X-15945D01*
X-3000Y996D02*
X5246D01*
X-131750Y11750D02*
X-131720Y11720D01*
X-118248D01*
X-38992Y87508D02*
X-34984Y83500D01*
X-23504D01*
X-38992Y87508D02*
Y97500D01*
X-90258Y41992D02*
Y50008D01*
X-93250Y39000D02*
X-90258Y41992D01*
X-101750Y39000D02*
X-93250D01*
X-103504Y37246D02*
X-101750Y39000D01*
X-103504Y33000D02*
Y37246D01*
X-86750Y31500D02*
X-68250Y50000D01*
X21234Y47016D02*
X25250Y43000D01*
X15945Y47016D02*
X21234D01*
X22766Y48984D02*
X24250Y47500D01*
X15945Y48984D02*
X22766D01*
X-23504Y79004D02*
Y83500D01*
Y79004D02*
X-22250Y77750D01*
X-8750D01*
X-2953Y71953D01*
Y63945D02*
Y71953D01*
X-8858Y63945D02*
Y70608D01*
X-111911Y16839D02*
X-108250Y20500D01*
X-118248Y16839D02*
X-111911D01*
X-103533Y14279D02*
X-103504Y14250D01*
X-118248Y14279D02*
X-103533D01*
X-97500Y44508D02*
X-97492Y44500D01*
X-16496Y83500D02*
X-1004D01*
Y97496D02*
X-1000Y97500D01*
X-1004Y83500D02*
Y97496D01*
Y83500D02*
X-984Y83480D01*
Y63945D02*
Y83480D01*
X26004Y71000D02*
X33250Y63754D01*
X4750Y71000D02*
X26004D01*
X2953Y69203D02*
X4750Y71000D01*
X2953Y63945D02*
Y69203D01*
X6890Y32055D02*
X7000Y31945D01*
X33250Y82754D02*
X45996D01*
X49250Y79500D01*
X33250Y63754D02*
X45705D01*
X49250Y60209D01*
X73000Y-27500D02*
X73004Y-27496D01*
Y-12500D01*
X-171000Y74248D02*
Y74453D01*
X120750Y35000D02*
X129250D01*
X106658Y49984D02*
X113516D01*
X119500Y32750D02*
X130500D01*
X136750Y39000D01*
X106658Y59984D02*
X113734D01*
X116500Y62750D01*
Y72500D01*
X118984Y74984D01*
X125555D01*
X15945Y54890D02*
X27110D01*
X15945Y52921D02*
X25829D01*
X15945Y50953D02*
X24297D01*
X-4921Y63945D02*
Y70421D01*
X-10250Y75750D02*
X-4921Y70421D01*
X-49750Y75750D02*
X-10250D01*
X-55000Y81000D02*
X-49750Y75750D01*
X-97500Y69000D02*
X-93250Y73250D01*
X-11500D02*
X-8858Y70608D01*
X984Y63945D02*
Y69984D01*
X13754Y82754D01*
X33250D01*
X-15945Y39142D02*
X7608D01*
X-118248Y4043D02*
X-111707D01*
X-109500Y6250D01*
X-23673Y58827D02*
X-15945D01*
X-109500Y6250D02*
X-84750D01*
X-118248Y6602D02*
X-111648D01*
X-110250Y8000D01*
X-86750D01*
X-70500Y24250D01*
X-17500D02*
X-12750D01*
X-10827Y26173D01*
Y32055D01*
X-118248Y9161D02*
X-112089D01*
X-111500Y9750D01*
X-88500D01*
X-76250Y22000D01*
X-12750D02*
X-10750D01*
X-8858Y23892D01*
Y32055D01*
X-118248Y27075D02*
X-115425D01*
X-110000Y32500D01*
X-108250Y20500D02*
X-96621D01*
X-118248Y19398D02*
X-112102D01*
X-108750Y22750D01*
X-100250D01*
X-17500Y19500D02*
X-10250D01*
X-6890Y22860D01*
X-118248Y21957D02*
X-112293D01*
X-109250Y25000D01*
X-103750D01*
X-118248Y24516D02*
X-113484D01*
X-110250Y27750D01*
X-100250D01*
X-84750Y6250D02*
X-59923Y31077D01*
X-60000Y31154D02*
X-59923Y31077D01*
X-60000Y31154D02*
Y50250D01*
X-33750Y70250D02*
X-12250D01*
X-10827Y68827D01*
Y63945D02*
Y68827D01*
X-6890Y22860D02*
Y32055D01*
X-4921Y26421D02*
Y32055D01*
Y26421D02*
X-3750Y25250D01*
X-21671Y43079D02*
X-15945D01*
X-23250Y41500D02*
X-21671Y43079D01*
X-20640Y41110D02*
X-15945D01*
X-23750Y38000D02*
X-20640Y41110D01*
X-23579Y52921D02*
X-15945D01*
X-21547Y50953D02*
X-15945D01*
X-23500Y49000D02*
X-21547Y50953D01*
X-50000Y73250D02*
X-11500D01*
X-93250D02*
X-60000D01*
X15945Y37173D02*
X33750D01*
X7608Y39142D02*
X8890Y37860D01*
X73000Y-12504D02*
Y9000D01*
X-171000Y-21748D02*
X-156752D01*
X63000Y-27500D02*
Y15750D01*
X-45000Y13500D02*
X-21327Y37173D01*
X-15945D01*
X-55000Y13500D02*
X-45000D01*
X26004Y8004D02*
X37750Y19750D01*
Y37500D01*
X19500Y8004D02*
X26004D01*
X5250Y1000D02*
X8890Y4640D01*
X106658Y54984D02*
X113266D01*
X129250Y35000D02*
X134000Y39750D01*
Y51750D01*
X139974Y57724D01*
X146173D01*
X136750Y39000D02*
Y46500D01*
X140100Y49850D01*
X146173D01*
X15945Y56858D02*
X25358D01*
X27250Y58750D01*
X29254Y56746D02*
X33250D01*
X27250Y58750D02*
X29254Y56746D01*
X15945Y58827D02*
Y63195D01*
X2890Y76250D02*
X6004Y79364D01*
Y83500D01*
X27250Y75750D02*
X33246D01*
X33250Y75746D01*
X115250Y37000D02*
X119500Y32750D01*
X115250Y37000D02*
Y48250D01*
X113516Y49984D02*
X115250Y48250D01*
X117750Y38000D02*
X120750Y35000D01*
X117750Y38000D02*
Y50500D01*
X113266Y54984D02*
X117750Y50500D01*
X100734Y69984D02*
X106658D01*
X98634Y67884D02*
X100734Y69984D01*
X93553Y67884D02*
X98634D01*
X93000Y58004D02*
X97754D01*
X100734Y64984D02*
X106658D01*
X97754Y58004D02*
X99500Y59750D01*
Y63750D01*
X100734Y64984D01*
X984Y26516D02*
Y32055D01*
X-984Y23484D02*
Y32055D01*
Y23484D02*
X2000Y20500D01*
X4250D01*
X984Y26516D02*
X3500Y24000D01*
X10827Y-12089D02*
Y32055D01*
X8890Y4640D02*
Y37860D01*
X5500Y16750D02*
X6890Y18140D01*
Y32055D01*
X24297Y50953D02*
X37750Y37500D01*
X25829Y52921D02*
X63000Y15750D01*
X27110Y54890D02*
X73000Y9000D01*
X93553Y79616D02*
X100116D01*
X87484Y74984D02*
X106658D01*
X86504Y50996D02*
X93000D01*
X84500Y53000D02*
X86504Y50996D01*
X84500Y53000D02*
Y80500D01*
X84000Y32996D02*
X94250D01*
X77004D02*
X84000D01*
X74500Y35500D02*
X77004Y32996D01*
X74500Y35500D02*
Y77000D01*
X85000Y87500D01*
X94250Y40004D02*
X99746D01*
X106638D01*
X61746D02*
Y92045D01*
X48291Y105500D02*
X61746Y92045D01*
X84000Y40004D02*
Y46500D01*
X29000Y105500D02*
X39000Y95500D01*
X51750D01*
X58250Y89000D01*
Y42500D02*
Y89000D01*
X88980Y44984D02*
X106658D01*
X84000Y40004D02*
X88980Y44984D01*
D36*
X-111000Y50008D02*
Y87500D01*
X-97500Y56500D02*
Y69000D01*
X-111000Y50008D02*
X-104508Y56500D01*
X-175874Y50626D02*
X-171000D01*
X-180250Y46250D02*
X-175874Y50626D01*
X-180250Y-4624D02*
Y46250D01*
Y-4624D02*
X-171000Y-13874D01*
X-63750Y59750D02*
X-55000Y68500D01*
X-72415Y-12165D02*
X-55000D01*
X-75902Y-15652D02*
X-72415Y-12165D01*
X-75902Y-23297D02*
Y-15652D01*
X-104508Y56500D02*
Y69000D01*
X-97500Y44508D02*
Y56500D01*
X125504Y87000D02*
Y99500D01*
X81750Y92000D02*
X85000D01*
X78388Y88638D02*
X81750Y92000D01*
X74598Y88638D02*
X78388D01*
X-110000Y39000D02*
X-104500Y44500D01*
X-110000Y32500D02*
Y39000D01*
X-96621Y32875D02*
X-96496Y33000D01*
Y14250D02*
Y32750D01*
Y14250D02*
X-88500D01*
X-63750Y39000D01*
Y59750D01*
X-184000Y-71000D02*
X-177500Y-77500D01*
X-184000Y-71000D02*
Y-26874D01*
X-171000Y-13874D01*
X-96621Y32875D02*
X-96496Y32750D01*
X43000Y-27500D02*
Y-21000D01*
X122000Y108250D02*
X125504Y104746D01*
Y99500D02*
Y104746D01*
X85000Y99008D02*
Y104250D01*
X89000Y108250D01*
X122000D01*
X125504Y87000D02*
X131250D01*
X134750Y83500D01*
X125555Y74984D02*
X131984D01*
X134750Y77750D01*
Y83500D01*
X73000Y-99746D02*
Y-84250D01*
X63000Y-106754D02*
X73000D01*
X53250Y-99746D02*
X63000D01*
X43250Y-106754D02*
X53250D01*
X32500Y-99746D02*
X43250D01*
X57000Y-87750D02*
Y-78000D01*
Y-87750D02*
X63000Y-93750D01*
Y-99746D02*
Y-93750D01*
X161750Y-107254D02*
X167246Y-112750D01*
X184750D01*
X192000Y-105500D01*
Y-61500D01*
X179750Y-49250D02*
X192000Y-61500D01*
X34165Y-12165D02*
X43000Y-21000D01*
X-55000Y-12165D02*
X34165D01*
X125504Y99500D02*
X140754Y114750D01*
X172496D01*
X177746Y109500D01*
X184754Y97750D02*
Y109500D01*
X157000Y79772D02*
X171272D01*
X177746Y86246D01*
Y97750D01*
X131817Y25652D02*
X146173Y40008D01*
X124203Y25652D02*
X131817D01*
X124203Y15423D02*
Y25652D01*
X101250Y6250D02*
X124085D01*
Y-14874D02*
Y-2805D01*
X101250Y-10250D02*
Y6250D01*
Y-10250D02*
X105902Y-14902D01*
X113797D01*
X124085Y-2805D02*
X132945D01*
X138250Y2500D01*
Y9250D01*
X157000Y28000D01*
X70250Y84289D02*
X74598Y88638D01*
X70250Y32500D02*
Y84289D01*
Y32500D02*
X77098Y25652D01*
X113888D01*
X69508Y99008D02*
X85000D01*
X65500Y95000D02*
X69508Y99008D01*
X65500Y29750D02*
Y95000D01*
Y29750D02*
X89000Y6250D01*
X101250D01*
D37*
X29000Y105500D02*
D03*
X48291D02*
D03*
X49250Y79500D02*
D03*
Y60209D02*
D03*
X179750Y-49250D02*
D03*
Y-59250D02*
D03*
Y-69250D02*
D03*
X-171000Y34878D02*
D03*
Y42752D02*
D03*
Y50626D02*
D03*
Y58500D02*
D03*
Y66374D02*
D03*
Y74248D02*
D03*
Y-29622D02*
D03*
Y-21748D02*
D03*
Y-13874D02*
D03*
Y-6000D02*
D03*
Y1874D02*
D03*
Y9748D02*
D03*
X43000Y-27500D02*
D03*
X53000D02*
D03*
X63000D02*
D03*
X73000D02*
D03*
X83000D02*
D03*
X93000D02*
D03*
X103000D02*
D03*
X-177500Y-77500D02*
D03*
Y-67500D02*
D03*
Y-57500D02*
D03*
X-82500Y-108874D02*
D03*
Y-101000D02*
D03*
Y-93126D02*
D03*
X-62815Y-108874D02*
D03*
Y-101000D02*
D03*
Y-93126D02*
D03*
D38*
X156827Y9047D02*
D03*
Y-42724D02*
D03*
X157000Y79772D02*
D03*
Y28000D02*
D03*
D39*
X146000Y-3158D02*
D03*
Y-13000D02*
D03*
Y-20874D02*
D03*
Y-30716D02*
D03*
X146173Y67567D02*
D03*
Y57724D02*
D03*
Y49850D02*
D03*
Y40008D02*
D03*
D40*
X-148500Y-64878D02*
D03*
Y-88500D02*
D03*
D41*
X-129602Y-74721D02*
D03*
D42*
X-117500Y-47500D02*
D03*
X-101949D02*
D03*
D43*
X179750Y-79250D02*
D03*
X-177500Y-47500D02*
D03*
D44*
X33000Y-27500D02*
D03*
D45*
X-91495Y-21506D02*
D03*
X-96505Y-16495D02*
D03*
D46*
X-177250Y-95750D02*
D03*
X177250D02*
D03*
D47*
X-111000Y50008D02*
D03*
X-50000Y73250D02*
D03*
X-60000D02*
D03*
X-250Y14250D02*
D03*
X-23297Y45047D02*
D03*
X5500Y16750D02*
D03*
X4250Y20500D02*
D03*
X-90258Y50008D02*
D03*
X-68250Y50000D02*
D03*
X25250Y43000D02*
D03*
X24250Y47500D02*
D03*
X-23673Y58827D02*
D03*
X-70500Y24250D02*
D03*
X-17500D02*
D03*
X-76250Y22000D02*
D03*
X-12750D02*
D03*
X-100250Y22750D02*
D03*
X-17500Y19500D02*
D03*
X-103750Y25000D02*
D03*
X-100250Y27750D02*
D03*
X-60000Y50250D02*
D03*
X-33750Y70250D02*
D03*
X-3750Y25250D02*
D03*
X-23250Y41500D02*
D03*
X-23750Y38000D02*
D03*
X-86750Y31500D02*
D03*
X-23579Y52921D02*
D03*
X-23500Y49000D02*
D03*
X33750Y37173D02*
D03*
X-156752Y-21748D02*
D03*
X5250Y1000D02*
D03*
X13500D02*
D03*
X27250Y58750D02*
D03*
X15945Y63195D02*
D03*
X2890Y76250D02*
D03*
X27250Y75750D02*
D03*
X3500Y24000D02*
D03*
X100116Y79616D02*
D03*
X87484Y74984D02*
D03*
X84500Y53000D02*
D03*
X99746Y40004D02*
D03*
X61746D02*
D03*
X84000Y46500D02*
D03*
X58250Y42500D02*
D03*
D48*
X-157250Y101250D02*
D03*
X151750D02*
D03*
D49*
X94307Y-42557D02*
D03*
X-38992Y87508D02*
D03*
D50*
X-111000Y87500D02*
D03*
X85000D02*
D03*
D51*
X-55000Y81000D02*
D03*
X-152000Y5500D02*
D03*
X27250Y87500D02*
D03*
D52*
X35703Y-50047D02*
D03*
D53*
X-110000Y32500D02*
D03*
X-24250Y-21500D02*
D03*
D54*
X73000Y-84250D02*
D03*
M02*
