G04 Layer_Color=8388736*
%FSLAX25Y25*%
%MOIN*%
G70*
G01*
G75*
%ADD67R,0.09265X0.13595*%
%ADD68R,0.09816X0.05091*%
%ADD69R,0.43320X0.28320*%
%ADD70R,0.05013X0.16548*%
%ADD71O,0.09461X0.03162*%
%ADD72R,0.13595X0.09265*%
%ADD73R,0.05091X0.09816*%
%ADD74R,0.06312X0.01745*%
%ADD75O,0.06312X0.01745*%
%ADD76R,0.06587X0.05367*%
%ADD77R,0.05367X0.06587*%
%ADD78R,0.12611X0.13398*%
%ADD79R,0.10642X0.06706*%
%ADD80R,0.07887X0.05249*%
%ADD81R,0.08280X0.07099*%
%ADD82R,0.07887X0.06115*%
%ADD83R,0.11824X0.10249*%
%ADD84R,0.08674X0.16548*%
%ADD85R,0.06115X0.07887*%
%ADD86R,0.05367X0.11509*%
%ADD87O,0.07887X0.01981*%
%ADD88O,0.01981X0.07887*%
%ADD89C,0.06706*%
%ADD90C,0.14579*%
%ADD91C,0.07099*%
%ADD92R,0.16154X0.05524*%
%ADD93R,0.05524X0.14579*%
%ADD94C,0.08674*%
%ADD95R,0.06706X0.06706*%
%ADD96R,0.06706X0.06706*%
%ADD97C,0.04737*%
%ADD98C,0.16548*%
%ADD99C,0.02800*%
%ADD100C,0.20485*%
%ADD101C,0.04300*%
%ADD102C,0.04800*%
%ADD103C,0.03800*%
%ADD104C,0.05800*%
%ADD105C,0.05300*%
%ADD106C,0.03300*%
G36*
X-141000Y6750D02*
Y3750D01*
X-141500Y3250D01*
X-147000D01*
X-147500Y3750D01*
Y6750D01*
X-146750Y7500D01*
X-141750D01*
X-141000Y6750D01*
D02*
G37*
G36*
X-115000Y1750D02*
Y-1250D01*
X-115750Y-2000D01*
X-121000D01*
X-121500Y-1500D01*
Y1750D01*
X-121000Y2250D01*
X-115500D01*
X-115000Y1750D01*
D02*
G37*
G36*
X-141000D02*
Y-1250D01*
X-141750Y-2000D01*
X-146750D01*
X-147500Y-1250D01*
Y1750D01*
X-147000Y2250D01*
X-141500D01*
X-141000Y1750D01*
D02*
G37*
G36*
Y12000D02*
Y9000D01*
X-141750Y8250D01*
X-147000D01*
X-147500Y8750D01*
Y12000D01*
X-147000Y12500D01*
X-141500D01*
X-141000Y12000D01*
D02*
G37*
G36*
Y24000D02*
X-141250Y23750D01*
X-147500D01*
Y28000D01*
X-141000D01*
Y24000D01*
D02*
G37*
G36*
Y22250D02*
Y19250D01*
X-141750Y18500D01*
X-146750D01*
X-147500Y19250D01*
Y22250D01*
X-147000Y22750D01*
X-141500D01*
X-141000Y22250D01*
D02*
G37*
G36*
Y17250D02*
Y14000D01*
X-141500Y13500D01*
X-147000D01*
X-147500Y14000D01*
Y17250D01*
X-147000Y17750D01*
X-141500D01*
X-141000Y17250D01*
D02*
G37*
D67*
X101250Y6250D02*
D03*
D68*
X124085Y-2805D02*
D03*
Y6250D02*
D03*
Y15305D02*
D03*
D69*
X101000Y-98500D02*
D03*
X-28500D02*
D03*
D70*
X87614Y-53224D02*
D03*
X94307D02*
D03*
X101000D02*
D03*
X107693D02*
D03*
X114386D02*
D03*
X-41886D02*
D03*
X-35193D02*
D03*
X-28500D02*
D03*
X-21807D02*
D03*
X-15114D02*
D03*
D71*
X125555Y39984D02*
D03*
Y44984D02*
D03*
Y49984D02*
D03*
Y54984D02*
D03*
Y59984D02*
D03*
Y64984D02*
D03*
Y69984D02*
D03*
Y74984D02*
D03*
X106658Y39984D02*
D03*
Y44984D02*
D03*
Y49984D02*
D03*
Y54984D02*
D03*
Y59984D02*
D03*
Y64984D02*
D03*
Y69984D02*
D03*
Y74984D02*
D03*
D72*
X-55000Y-12165D02*
D03*
D73*
X-64055Y-35000D02*
D03*
X-55000D02*
D03*
X-45945D02*
D03*
D74*
X-144232Y27075D02*
D03*
D75*
Y24516D02*
D03*
Y21957D02*
D03*
Y19398D02*
D03*
Y16839D02*
D03*
Y14279D02*
D03*
Y11720D02*
D03*
Y9161D02*
D03*
Y6602D02*
D03*
Y4043D02*
D03*
Y1484D02*
D03*
Y-1075D02*
D03*
X-118248Y27075D02*
D03*
Y24516D02*
D03*
Y21957D02*
D03*
Y19398D02*
D03*
Y16839D02*
D03*
Y14279D02*
D03*
Y11720D02*
D03*
Y9161D02*
D03*
Y6602D02*
D03*
Y4043D02*
D03*
Y1484D02*
D03*
Y-1075D02*
D03*
D76*
X93000Y50996D02*
D03*
Y58004D02*
D03*
X-3000Y8004D02*
D03*
Y996D02*
D03*
X19500Y8004D02*
D03*
Y996D02*
D03*
X73000Y-99746D02*
D03*
Y-106754D02*
D03*
X43250Y-99746D02*
D03*
Y-106754D02*
D03*
X63000Y-99746D02*
D03*
Y-106754D02*
D03*
X53250Y-99746D02*
D03*
Y-106754D02*
D03*
X94250Y40004D02*
D03*
Y32996D02*
D03*
X161750Y-100246D02*
D03*
Y-107254D02*
D03*
X84000Y40004D02*
D03*
Y32996D02*
D03*
X33250Y56746D02*
D03*
Y63754D02*
D03*
Y75746D02*
D03*
Y82754D02*
D03*
X85000Y99008D02*
D03*
Y92000D02*
D03*
X32500Y-99746D02*
D03*
Y-106754D02*
D03*
D77*
X177746Y109500D02*
D03*
X184754D02*
D03*
X-1004Y83500D02*
D03*
X6004D02*
D03*
X125504Y87000D02*
D03*
X118496D02*
D03*
X125504Y99500D02*
D03*
X118496D02*
D03*
X-97500Y56500D02*
D03*
X-104508D02*
D03*
X-97492Y44500D02*
D03*
X-104500D02*
D03*
X-103504Y14250D02*
D03*
X-96496D02*
D03*
X177746Y97750D02*
D03*
X184754D02*
D03*
X99996Y87000D02*
D03*
X107004D02*
D03*
X99996Y99500D02*
D03*
X107004D02*
D03*
X-54996Y1000D02*
D03*
X-62004D02*
D03*
X-16496Y83500D02*
D03*
X-23504D02*
D03*
X-97500Y69000D02*
D03*
X-104508D02*
D03*
X-96496Y33000D02*
D03*
X-103504D02*
D03*
D78*
X163098Y-64500D02*
D03*
X137902D02*
D03*
X28598Y-64000D02*
D03*
X3402D02*
D03*
D79*
X-38992Y97500D02*
D03*
X-1000D02*
D03*
D80*
X93553Y67884D02*
D03*
Y79616D02*
D03*
D81*
X132000Y-106768D02*
D03*
Y-90232D02*
D03*
X2750Y-109018D02*
D03*
Y-92482D02*
D03*
D82*
X-65315Y13500D02*
D03*
X-55000D02*
D03*
X124112Y-14902D02*
D03*
X113797D02*
D03*
X113888Y25652D02*
D03*
X124203D02*
D03*
D83*
X148402Y-107211D02*
D03*
Y-87683D02*
D03*
X19402Y-106711D02*
D03*
Y-87183D02*
D03*
D84*
X57000Y-78000D02*
D03*
Y-50047D02*
D03*
X-72000Y-50024D02*
D03*
Y-77976D02*
D03*
D85*
X74598Y88638D02*
D03*
Y98953D02*
D03*
X-75902Y-33612D02*
D03*
Y-23297D02*
D03*
X-35000Y-21500D02*
D03*
Y-31815D02*
D03*
D86*
X-94299Y-1053D02*
D03*
X-105913D02*
D03*
D87*
X15945Y58827D02*
D03*
Y54890D02*
D03*
Y56858D02*
D03*
Y48984D02*
D03*
Y47016D02*
D03*
Y52921D02*
D03*
Y50953D02*
D03*
Y45047D02*
D03*
Y43079D02*
D03*
Y41110D02*
D03*
Y39142D02*
D03*
Y37173D02*
D03*
X-15945Y54890D02*
D03*
Y52921D02*
D03*
Y58827D02*
D03*
Y56858D02*
D03*
Y47016D02*
D03*
Y45047D02*
D03*
Y50953D02*
D03*
Y48984D02*
D03*
Y43079D02*
D03*
Y37173D02*
D03*
Y41110D02*
D03*
Y39142D02*
D03*
D88*
X8858Y63945D02*
D03*
X10827D02*
D03*
X4921D02*
D03*
X6890D02*
D03*
X2953D02*
D03*
X-984D02*
D03*
X984D02*
D03*
X10827Y32055D02*
D03*
X8858D02*
D03*
X6890D02*
D03*
X2953D02*
D03*
X4921D02*
D03*
X-984D02*
D03*
X984D02*
D03*
X-4921Y63945D02*
D03*
X-8858D02*
D03*
X-2953D02*
D03*
X-10827D02*
D03*
X-6890D02*
D03*
X-8858Y32055D02*
D03*
X-6890D02*
D03*
X-4921D02*
D03*
X-2953D02*
D03*
X-10827D02*
D03*
D89*
X29000Y105500D02*
D03*
X48291D02*
D03*
X49250Y79500D02*
D03*
Y60209D02*
D03*
X179750Y-49250D02*
D03*
Y-59250D02*
D03*
Y-69250D02*
D03*
X-171000Y34878D02*
D03*
Y42752D02*
D03*
Y50626D02*
D03*
Y58500D02*
D03*
Y66374D02*
D03*
Y74248D02*
D03*
Y-29622D02*
D03*
Y-21748D02*
D03*
Y-13874D02*
D03*
Y-6000D02*
D03*
Y1874D02*
D03*
Y9748D02*
D03*
X43000Y-27500D02*
D03*
X53000D02*
D03*
X63000D02*
D03*
X73000D02*
D03*
X83000D02*
D03*
X93000D02*
D03*
X103000D02*
D03*
X-177500Y-77500D02*
D03*
Y-67500D02*
D03*
Y-57500D02*
D03*
X-82500Y-108874D02*
D03*
Y-101000D02*
D03*
Y-93126D02*
D03*
X-62815Y-108874D02*
D03*
Y-101000D02*
D03*
Y-93126D02*
D03*
D90*
X156827Y9047D02*
D03*
Y-42724D02*
D03*
X157000Y79772D02*
D03*
Y28000D02*
D03*
D91*
X146000Y-3158D02*
D03*
Y-13000D02*
D03*
Y-20874D02*
D03*
Y-30716D02*
D03*
X146173Y67567D02*
D03*
Y57724D02*
D03*
Y49850D02*
D03*
Y40008D02*
D03*
D92*
X-148500Y-64878D02*
D03*
Y-88500D02*
D03*
D93*
X-129602Y-74721D02*
D03*
D94*
X-117500Y-47500D02*
D03*
X-101949D02*
D03*
D95*
X179750Y-79250D02*
D03*
X-177500Y-47500D02*
D03*
D96*
X33000Y-27500D02*
D03*
D97*
X-91495Y-21506D02*
D03*
X-96505Y-16495D02*
D03*
D98*
X-177250Y-95750D02*
D03*
X177250D02*
D03*
D99*
X-111000Y50008D02*
D03*
X-50000Y73250D02*
D03*
X-60000D02*
D03*
X-250Y14250D02*
D03*
X-23297Y45047D02*
D03*
X5500Y16750D02*
D03*
X4250Y20500D02*
D03*
X-90258Y50008D02*
D03*
X-68250Y50000D02*
D03*
X25250Y43000D02*
D03*
X24250Y47500D02*
D03*
X-23673Y58827D02*
D03*
X-70500Y24250D02*
D03*
X-17500D02*
D03*
X-76250Y22000D02*
D03*
X-12750D02*
D03*
X-100250Y22750D02*
D03*
X-17500Y19500D02*
D03*
X-103750Y25000D02*
D03*
X-100250Y27750D02*
D03*
X-60000Y50250D02*
D03*
X-33750Y70250D02*
D03*
X-3750Y25250D02*
D03*
X-23250Y41500D02*
D03*
X-23750Y38000D02*
D03*
X-86750Y31500D02*
D03*
X-23579Y52921D02*
D03*
X-23500Y49000D02*
D03*
X33750Y37173D02*
D03*
X5250Y1000D02*
D03*
X13500D02*
D03*
X27250Y58750D02*
D03*
X15945Y63195D02*
D03*
X2890Y76250D02*
D03*
X27250Y75750D02*
D03*
X3500Y24000D02*
D03*
X100116Y79616D02*
D03*
X87484Y74984D02*
D03*
X84500Y53000D02*
D03*
X99746Y40004D02*
D03*
X61746D02*
D03*
X84000Y46500D02*
D03*
X58250Y42500D02*
D03*
D100*
X-157250Y101250D02*
D03*
X151750D02*
D03*
D101*
X94307Y-42557D02*
D03*
X-38992Y87508D02*
D03*
D102*
X-111000Y87500D02*
D03*
X85000D02*
D03*
D103*
X-55000Y81000D02*
D03*
X-152000Y5500D02*
D03*
X27250Y87500D02*
D03*
D104*
X35703Y-50047D02*
D03*
D105*
X-110000Y32500D02*
D03*
X-24250Y-21500D02*
D03*
D106*
X73000Y-84250D02*
D03*
M02*
