M48
;Layer_Color=9474304
;FILE_FORMAT=2:5
INCH,TZ
;TYPE=PLATED
T1F00S00C0.01000
T2F00S00C0.01500
T3F00S00C0.02000
T4F00S00C0.02362
T5F00S00C0.02500
T6F00S00C0.02800
T7F00S00C0.03150
T9F00S00C0.03543
T10F00S00C0.03937
T11F00S00C0.05906
T12F00S00C0.10630
T13F00S00C0.11811
T14F00S00C0.15748
%
T01
X58250Y42500
X61746Y40004
X84000Y46500
X84500Y53000
X87484Y74984
X100116Y79616
X99746Y40004
X33750Y37173
X25250Y43000
X24250Y47500
X27250Y58750
X15945Y63195
X27250Y75750
X2890Y76250
X-33750Y70250
X-50000Y73250
X-60000
Y50250
X-68250Y50000
X-90258Y50008
X-111000
X-103750Y25000
X-100250Y22750
Y27750
X-86750Y31500
X-76250Y22000
X-70500Y24250
X-17500
Y19500
X-12750Y22000
X-3750Y25250
X3500Y24000
X4250Y20500
X5500Y16750
X-250Y14250
X5250Y1000
X13500
X-23750Y38000
X-23250Y41500
X-23297Y45047
X-23500Y49000
X-23579Y52921
X-23673Y58827
X-156752Y-21748
T02
X73000Y-84250
X94307Y-42557
T03
X-111000Y87500
X-55000Y81000
X-38992Y87508
X27250Y87500
X-152000Y5500
T04
X-91495Y-21506
X-96505Y-16495
T05
X85000Y87500
X-24250Y-21500
X-110000Y32500
T06
X35703Y-50047
T07
X49250Y60209
Y79500
X29000Y105500
X48291
T09
X-177500Y-77500
X179750Y-79250
Y-69250
Y-59250
Y-49250
X103000Y-27500
X93000
X83000
X73000
X63000
X53000
X43000
X33000
X-177500Y-47500
Y-57500
Y-67500
T10
X-82500Y-108874
Y-101000
Y-93126
X-62815
Y-101000
Y-108874
X146000Y-30716
Y-20874
Y-13000
Y-3158
X146173Y40008
Y49850
Y57724
Y67567
X-171000Y66374
Y58500
Y50626
Y42752
Y34878
Y9748
Y1874
Y-6000
Y-13874
Y-21748
Y-29622
Y74248
T11
X-101949Y-47500
X-117500
T12
X156827Y-42724
Y9047
X157000Y28000
Y79772
T13
X-177250Y-95750
X177250
T14
X-157250Y101250
X151750
M30
